<svg width="56" height="47" viewBox="0 0 56 47" fill="none" xmlns="http://www.w3.org/2000/svg">
<path d="M55.4434 13.0732H0.5V45.7981H55.4434V13.0732Z" stroke="white" stroke-miterlimit="10" stroke-linecap="round" stroke-linejoin="round"/>
<path d="M55.4434 16.0012H0.5" stroke="white" stroke-miterlimit="10" stroke-linecap="round" stroke-linejoin="round"/>
<path d="M35.8081 45.7983C35.8081 45.7983 35.8081 37.8754 35.8081 31.8472C35.8081 25.8189 27.5408 22.5464 27.5408 22.5464C27.5408 22.5464 19.2734 25.8189 19.2734 31.8472C19.2734 37.8754 19.2734 45.7983 19.2734 45.7983" stroke="white" stroke-miterlimit="10" stroke-linecap="round" stroke-linejoin="round"/>
<path d="M13.0728 41.4923C13.0728 41.4923 13.0728 37.3587 13.0728 34.2584C13.0728 31.1582 8.76685 29.4358 8.76685 29.4358C8.76685 29.4358 4.46094 31.1582 4.46094 34.2584C4.46094 37.3587 4.46094 41.4923 4.46094 41.4923" stroke="white" stroke-miterlimit="10" stroke-linecap="round" stroke-linejoin="round"/>
<path d="M39.4256 45.798V19.7903H27.369H15.3125V45.798" stroke="white" stroke-miterlimit="10" stroke-linecap="round" stroke-linejoin="round"/>
<path d="M27.3691 19.7904V16.0012" stroke="white" stroke-miterlimit="10" stroke-linecap="round" stroke-linejoin="round"/>
<path d="M22.375 19.7904V16.0012" stroke="white" stroke-miterlimit="10" stroke-linecap="round" stroke-linejoin="round"/>
<path d="M17.3789 19.7904V16.0012" stroke="white" stroke-miterlimit="10" stroke-linecap="round" stroke-linejoin="round"/>
<path d="M12.2109 19.7904V16.0012" stroke="white" stroke-miterlimit="10" stroke-linecap="round" stroke-linejoin="round"/>
<path d="M7.2168 19.7904V16.0012" stroke="white" stroke-miterlimit="10" stroke-linecap="round" stroke-linejoin="round"/>
<path d="M32.5352 19.7904V16.0012" stroke="white" stroke-miterlimit="10" stroke-linecap="round" stroke-linejoin="round"/>
<path d="M37.5312 19.7904V16.0012" stroke="white" stroke-miterlimit="10" stroke-linecap="round" stroke-linejoin="round"/>
<path d="M42.5254 19.7904V16.0012" stroke="white" stroke-miterlimit="10" stroke-linecap="round" stroke-linejoin="round"/>
<path d="M47.5195 19.7904V16.0012" stroke="white" stroke-miterlimit="10" stroke-linecap="round" stroke-linejoin="round"/>
<path d="M12.9005 24.0962H4.46094V45.798H12.9005V24.0962Z" stroke="white" stroke-miterlimit="10" stroke-linecap="round" stroke-linejoin="round"/>
<path d="M13.0728 27.0242H4.46094" stroke="white" stroke-miterlimit="10" stroke-linecap="round" stroke-linejoin="round"/>
<path d="M41.8359 41.4923C41.8359 41.4923 41.8359 37.3587 41.8359 34.2584C41.8359 31.1582 46.1418 29.4358 46.1418 29.4358C46.1418 29.4358 50.4478 31.1582 50.4478 34.2584C50.4478 37.3587 50.4478 41.4923 50.4478 41.4923" stroke="white" stroke-miterlimit="10" stroke-linecap="round" stroke-linejoin="round"/>
<path d="M41.8553 45.7651H50.2949V24.0634H41.8553V45.7651Z" stroke="white" stroke-miterlimit="10" stroke-linecap="round" stroke-linejoin="round"/>
<path d="M41.8359 27.0242H50.2755" stroke="white" stroke-miterlimit="10" stroke-linecap="round" stroke-linejoin="round"/>
<path d="M19.1016 32.5358V19.7903" stroke="white" stroke-miterlimit="10" stroke-linecap="round" stroke-linejoin="round"/>
<path d="M35.8086 32.5358V19.7903" stroke="white" stroke-miterlimit="10" stroke-linecap="round" stroke-linejoin="round"/>
<path d="M0.5 13.0735V10.1455H55.4434V13.0735" stroke="white" stroke-miterlimit="10" stroke-linecap="round" stroke-linejoin="round"/>
<path d="M30.1635 8.89518C31.4599 7.37541 31.2789 5.09243 29.7591 3.79599C28.2393 2.49955 25.9564 2.68059 24.6599 4.20036C23.3635 5.72013 23.5445 8.00313 25.0643 9.29956C26.5841 10.596 28.8671 10.415 30.1635 8.89518Z" stroke="white" stroke-miterlimit="10" stroke-linecap="round" stroke-linejoin="round"/>
<path d="M17.3789 13.0732V0.5H37.5306V13.0732" stroke="white" stroke-miterlimit="10" stroke-linecap="round" stroke-linejoin="round"/>
<path d="M11.1797 13.0733V5.15039H17.3802" stroke="white" stroke-miterlimit="10" stroke-linecap="round" stroke-linejoin="round"/>
<path d="M43.7318 13.0733V5.15039H37.5312" stroke="white" stroke-miterlimit="10" stroke-linecap="round" stroke-linejoin="round"/>
</svg>
