<svg width="46" height="53" viewBox="0 0 46 53" fill="none" xmlns="http://www.w3.org/2000/svg">
<path fill-rule="evenodd" clip-rule="evenodd" d="M18.1895 0.446629C18.1895 0.866461 18.1544 0.893258 17.6042 0.893258H17.0189L16.9471 4.8757C16.8737 8.93884 16.7819 9.64451 16.2415 10.2978L15.9543 10.6447L15.3057 10.3036C14.9488 10.116 13.582 8.96087 12.2683 7.73681C9.4297 5.09157 8.88431 4.83863 7.42975 5.49279C6.28907 6.00582 6.0738 7.20577 6.54884 10.4023C7.4508 16.47 9.29381 21.2052 11.7038 23.6466C13.2199 25.1826 14.731 25.8854 16.799 26.0166L18.0392 26.0954V27.8609V29.6264H12.5523H7.06536V38.4101V47.1938H3.53268H0V50.0969V53H23H46V50.0969V47.1938H42.5437H39.0874L39.0486 38.4473L39.0098 29.7008L29.2761 29.6626L19.5425 29.6242V27.6316V25.639L19.9415 25.5399C20.1609 25.4853 21.0845 25.104 21.9942 24.6925C24.8532 23.3989 27.2938 22.4838 31.8993 20.9782C36.7766 19.3837 37.8003 18.9658 38.4825 18.2901C39.6604 17.1235 38.4928 15.0035 36.1737 14.098C35.1502 13.6983 32.076 13.5875 30.1007 13.8792L28.7078 14.0847L27.9961 12.8114L27.2843 11.5379L27.2413 6.21559L27.1983 0.893258H26.3769C25.5646 0.893258 25.5556 0.888345 25.5556 0.446629C25.5556 0.0248624 25.5222 0 24.9542 0C24.3863 0 24.3529 0.0248624 24.3529 0.446629V0.893258H23.3758H22.3987V0.446629C22.3987 0.0248624 22.3653 0 21.7974 0C21.2295 0 21.1961 0.0248624 21.1961 0.446629V0.893258H20.2941H19.3922V0.446629C19.3922 0.0248624 19.3588 0 18.7908 0C18.2229 0 18.1895 0.0248624 18.1895 0.446629ZM18.4427 2.47864C18.3862 2.53477 18.3391 3.99301 18.3381 5.71938C18.3363 8.9165 18.2246 9.79398 17.6891 10.819C17.3175 11.5302 16.6834 11.9101 15.8679 11.9101C14.6576 11.9101 14.2665 11.6319 10.4815 8.07893C8.9921 6.68068 8.56547 6.47061 7.97198 6.84236C7.14443 7.3606 8.89965 16.0388 10.4387 19.0379L10.7792 19.7013L11.2584 18.8108C13.3029 15.0122 18.0675 12.1906 24.1275 11.1898L25.781 10.9168V6.68664V2.45646L22.1633 2.41671C20.1736 2.39483 18.4992 2.42267 18.4427 2.47864ZM24.2026 12.6584C20.1859 13.3649 17.003 14.7657 14.6569 16.8595C13.7187 17.6969 12.7283 19.0155 13.1623 18.8494C17.6515 17.1315 21.4573 15.8748 24.98 14.9473L27.1855 14.3666L26.6335 13.3627C26.33 12.8105 26.0141 12.3637 25.9314 12.3697C25.8487 12.3758 25.0708 12.5058 24.2026 12.6584ZM31.4635 15.1887C27.4867 15.5911 21.0636 17.38 14.6453 19.8729C11.2849 21.1781 11.4887 21.0473 11.9033 21.632C12.5192 22.5007 13.797 23.607 14.6838 24.0392C15.3378 24.358 15.8446 24.4826 16.69 24.5323C18.1324 24.6173 19.1745 24.3565 21.378 23.3587C24.084 22.1335 27.5844 20.8244 31.8335 19.4483C35.9804 18.1055 37.3446 17.5594 37.4902 17.1839C37.6405 16.7959 36.3194 15.6652 35.426 15.4173C34.364 15.1226 32.9331 15.0399 31.4635 15.1887ZM8.56863 39.1545V47.1938H12.1013H15.634V44.5885V41.9831H16.8366H18.0392V36.5492V31.1152H13.3039H8.56863V39.1545ZM19.5425 36.548V41.9831H20.6699H21.7974V44.5885V47.1938H25.0294H28.2614V42.132V37.0702H32.9247H37.588L37.5473 34.1299L37.5065 31.1896L28.5245 31.1512L19.5425 31.1128V36.548ZM29.7647 42.8764V47.1938H33.598H37.4314V42.8764V38.559H33.598H29.7647V42.8764ZM17.1373 45.3329V47.1938H18.7157H20.2941V45.3329V43.4719H18.7157H17.1373V45.3329ZM1.53544 50.1341L1.57843 51.5857H23H44.4216L44.4646 50.1341L44.5076 48.6826H23H1.49244L1.53544 50.1341Z" fill="white"/>
</svg>
