<svg width="63" height="52" viewBox="0 0 63 52" fill="none" xmlns="http://www.w3.org/2000/svg">
<path d="M38.1937 24.4387H24.3066V42.2936H38.1937V24.4387Z" stroke="white" stroke-miterlimit="10" stroke-linecap="round" stroke-linejoin="round"/>
<path d="M38.1937 14.6516H24.3066V24.571H38.1937V14.6516Z" stroke="white" stroke-miterlimit="10" stroke-linecap="round" stroke-linejoin="round"/>
<path d="M34.3582 17.8259H28.0098V24.5711H34.3582V17.8259Z" stroke="white" stroke-miterlimit="10" stroke-linecap="round" stroke-linejoin="round"/>
<path d="M36.8712 12.1389H25.6292L24.3066 14.6518H38.1937L36.8712 12.1389Z" stroke="white" stroke-miterlimit="10" stroke-linecap="round" stroke-linejoin="round"/>
<path d="M38.1937 27.084H24.3066" stroke="white" stroke-miterlimit="10" stroke-linecap="round" stroke-linejoin="round"/>
<path d="M35.4162 30.6548H27.084V42.1612H35.4162V30.6548Z" stroke="white" stroke-miterlimit="10" stroke-linecap="round" stroke-linejoin="round"/>
<path d="M38.1927 42.2937H24.3056L20.3379 51.2873H42.1605L38.1927 42.2937Z" stroke="white" stroke-miterlimit="10" stroke-linecap="round" stroke-linejoin="round"/>
<path d="M17.0326 20.7358C17.0326 18.7519 18.6197 17.1648 20.6036 17.1648C22.5875 17.1648 24.1746 18.7519 24.1746 20.7358V42.1616H16.9004V20.7358H17.0326Z" stroke="white" stroke-miterlimit="10" stroke-linecap="round" stroke-linejoin="round"/>
<path d="M20.3387 51.2873H0.5V46.2615H22.3226" stroke="white" stroke-miterlimit="10" stroke-linecap="round" stroke-linejoin="round"/>
<path d="M3.01172 46.2614V42.2937H17.0311" stroke="white" stroke-miterlimit="10" stroke-linecap="round" stroke-linejoin="round"/>
<path d="M17.0332 21.5288H24.3074" stroke="white" stroke-miterlimit="10" stroke-linecap="round" stroke-linejoin="round"/>
<path d="M17.0332 24.4387H24.3074" stroke="white" stroke-miterlimit="10" stroke-linecap="round" stroke-linejoin="round"/>
<path d="M17.1658 29.7292H5.92383V42.2938H17.1658V29.7292Z" stroke="white" stroke-miterlimit="10" stroke-linecap="round" stroke-linejoin="round"/>
<path d="M14.1224 34.7549H8.83203V42.2936H14.1224V34.7549Z" stroke="white" stroke-miterlimit="10" stroke-linecap="round" stroke-linejoin="round"/>
<path d="M31.1848 12.1387C33.0839 12.1387 34.6235 10.5991 34.6235 8.69995C34.6235 6.8008 33.0839 5.26123 31.1848 5.26123C29.2856 5.26123 27.7461 6.8008 27.7461 8.69995C27.7461 10.5991 29.2856 12.1387 31.1848 12.1387Z" stroke="white" stroke-miterlimit="10" stroke-linecap="round" stroke-linejoin="round"/>
<path d="M33.9609 6.58398C35.548 6.58398 36.8706 7.90658 36.8706 9.49368V12.2711" stroke="white" stroke-miterlimit="10" stroke-linecap="round" stroke-linejoin="round"/>
<path d="M25.6289 12.1388V9.36133C25.6289 7.77424 26.9515 6.45166 28.5386 6.45166" stroke="white" stroke-miterlimit="10" stroke-linecap="round" stroke-linejoin="round"/>
<path d="M31.1855 5.26128V0.5" stroke="white" stroke-miterlimit="10" stroke-linecap="round" stroke-linejoin="round"/>
<path d="M20.7363 17.1645V11.6096" stroke="white" stroke-miterlimit="10" stroke-linecap="round" stroke-linejoin="round"/>
<path d="M17.0335 29.7289C17.0335 26.687 14.5206 24.1741 11.4787 24.1741C8.43673 24.1741 5.92383 26.687 5.92383 29.7289" stroke="white" stroke-miterlimit="10" stroke-linecap="round" stroke-linejoin="round"/>
<path d="M11.4785 24.042V19.5452" stroke="white" stroke-miterlimit="10" stroke-linecap="round" stroke-linejoin="round"/>
<path d="M45.4681 20.7358C45.4681 18.7519 43.881 17.1648 41.8971 17.1648C39.9133 17.1648 38.3262 18.7519 38.3262 20.7358V42.1616H45.6004V20.7358H45.4681Z" stroke="white" stroke-miterlimit="10" stroke-linecap="round" stroke-linejoin="round"/>
<path d="M42.1616 51.2873H62.0003V46.2615H40.1777" stroke="white" stroke-miterlimit="10" stroke-linecap="round" stroke-linejoin="round"/>
<path d="M59.4862 46.2614V42.2937H45.4668" stroke="white" stroke-miterlimit="10" stroke-linecap="round" stroke-linejoin="round"/>
<path d="M45.4676 21.5288H38.1934" stroke="white" stroke-miterlimit="10" stroke-linecap="round" stroke-linejoin="round"/>
<path d="M45.4676 24.4387H38.1934" stroke="white" stroke-miterlimit="10" stroke-linecap="round" stroke-linejoin="round"/>
<path d="M45.3069 42.2229H56.5488V29.6584H45.3069V42.2229Z" stroke="white" stroke-miterlimit="10" stroke-linecap="round" stroke-linejoin="round"/>
<path d="M48.3483 42.1838H53.6387V34.6451H48.3483V42.1838Z" stroke="white" stroke-miterlimit="10" stroke-linecap="round" stroke-linejoin="round"/>
<path d="M41.7637 17.1645V11.6096" stroke="white" stroke-miterlimit="10" stroke-linecap="round" stroke-linejoin="round"/>
<path d="M45.4668 29.7289C45.4668 26.687 47.9797 24.1741 51.0216 24.1741C54.0636 24.1741 56.5765 26.687 56.5765 29.7289" stroke="white" stroke-miterlimit="10" stroke-linecap="round" stroke-linejoin="round"/>
<path d="M51.0215 24.042V19.5452" stroke="white" stroke-miterlimit="10" stroke-linecap="round" stroke-linejoin="round"/>
<path d="M17.0332 33.3H24.3074" stroke="white" stroke-miterlimit="10" stroke-linecap="round" stroke-linejoin="round"/>
<path d="M17.0332 35.9453H24.3074" stroke="white" stroke-miterlimit="10" stroke-linecap="round" stroke-linejoin="round"/>
<path d="M45.4676 35.9453H38.1934" stroke="white" stroke-miterlimit="10" stroke-linecap="round" stroke-linejoin="round"/>
<path d="M45.4676 33.3H38.1934" stroke="white" stroke-miterlimit="10" stroke-linecap="round" stroke-linejoin="round"/>
</svg>
