<svg width="56" height="61" viewBox="0 0 56 61" fill="none" xmlns="http://www.w3.org/2000/svg">
<path fill-rule="evenodd" clip-rule="evenodd" d="M27.7422 0.103193C27.6677 0.175716 27.6062 0.544474 27.6052 0.922633C27.6041 1.32688 27.3696 2.00799 27.0358 2.57609C26.5257 3.44446 26.3666 3.56744 25.458 3.7948C23.388 4.31282 21.0758 6.30492 20.1354 8.38067C19.9132 8.87126 19.6285 9.85819 19.5029 10.5736L19.2744 11.8747H18.4301H17.586V13.4095V14.9444H18.1754H18.7649V20.5084V26.0724H18.0772H17.3895V27.6073C17.3895 28.5027 17.4714 29.1422 17.586 29.1422C17.694 29.1422 17.7825 29.5255 17.7825 29.9942C17.7825 30.463 17.8709 30.8996 17.9789 30.9649C18.1029 31.0397 18.1754 33.2373 18.1754 36.9239V42.7643H17.4877C16.8851 42.7643 16.8 42.8238 16.8 43.244V43.7236H9.52982H2.25965V45.2585C2.25965 46.4949 2.31702 46.7934 2.55439 46.7934C2.71649 46.7934 2.86032 46.8151 2.87408 46.8414C2.88763 46.8677 2.95405 49.8866 3.02145 53.5498L3.14386 60.2103L1.57193 60.265C0.330498 60.3081 0 60.3801 0 60.6075C0 60.8588 1.0697 60.8952 8.44912 60.8952C15.8285 60.8952 16.8982 60.8588 16.8982 60.6075C16.8982 60.4025 16.6434 60.3035 16.014 60.2634L15.1298 60.2072L15.189 57.553C15.241 55.2192 15.2061 54.8576 14.8997 54.5583C14.6789 54.3428 14.5405 53.8944 14.5223 53.3357C14.5064 52.8503 14.4818 52.3973 14.4677 52.329C14.3965 51.9839 12.7888 50.4524 12.2827 50.2477C11.7665 50.039 11.6036 50.0687 10.8251 50.5142C9.77662 51.1143 9.23332 51.815 8.72755 53.22C8.41847 54.0786 8.35088 54.8013 8.35088 57.2451V60.2237H7.51579H6.6807L6.66655 54.2281C6.65889 50.9305 6.61468 47.9302 6.56831 47.5609C6.48657 46.9082 6.50445 46.8876 7.20926 46.8305C7.93392 46.7718 7.93432 46.7719 7.99523 47.5979C8.0809 48.761 8.60317 48.7358 8.76351 47.5609L8.8814 46.6975L8.91088 47.4809C8.94389 48.3602 9.05078 48.5403 9.45084 48.3905C9.62178 48.3264 9.72632 48.0041 9.72632 47.5403C9.72632 47.1296 9.81474 46.7934 9.92281 46.7934C10.0309 46.7934 10.1193 47.182 10.1193 47.6568V48.5202H10.9053H11.6912V47.6568C11.6912 46.5609 12.0416 46.5219 12.1221 47.6088C12.1807 48.4016 12.2015 48.4243 12.8702 48.4243C13.6392 48.4243 13.8699 47.8922 13.1449 47.7911C12.8224 47.7462 12.7521 47.6305 12.824 47.2635C12.9 46.875 13.0313 46.7934 13.5809 46.7934C14.2391 46.7934 14.2456 46.8021 14.2456 47.6683V48.5434L14.9825 48.4837C15.6987 48.426 15.722 48.4001 15.8175 47.5609C15.8975 46.8573 15.9885 46.6975 16.3088 46.6975C16.5271 46.6975 16.7018 46.5695 16.7018 46.4097C16.7018 46.1603 15.7782 46.1152 9.77544 46.0715L2.84912 46.021V45.1601V44.2992H9.82456H16.8V45.0667C16.8 45.621 16.8819 45.8341 17.0947 45.8341C17.3174 45.8341 17.3895 46.0686 17.3895 46.7934C17.3895 47.3211 17.4779 47.7527 17.586 47.7527C17.7129 47.7527 17.7825 49.9912 17.7825 54.0842C17.7825 58.0403 17.7111 60.4156 17.5921 60.4156C17.4875 60.4156 17.4527 60.5451 17.515 60.7034C17.6143 60.9561 19.5249 60.9908 33.1107 60.9864C46.1554 60.9824 48.6098 60.9396 48.6982 60.7145C48.8094 60.4317 48.4467 60.2237 47.8423 60.2237C47.5039 60.2237 47.4735 59.9868 47.4161 56.8993C47.3556 53.6366 47.3436 53.5542 46.7649 52.4574C46.146 51.2841 45.148 50.3526 44.2921 50.1499C43.9032 50.0576 43.5839 50.1786 42.9288 50.6665C42.4584 51.0169 42.1122 51.3582 42.1595 51.4252C42.2069 51.4919 42.0297 51.7174 41.7658 51.9261C41.3783 52.2325 41.2816 52.4934 41.2634 53.2828C41.2492 53.8879 41.1193 54.391 40.922 54.6037C40.657 54.89 40.6094 55.3896 40.6387 57.5858L40.6737 60.2239H39.7519C39.245 60.2237 38.7746 60.3114 38.7068 60.4187C38.3093 61.0466 38.2175 59.8559 38.2175 54.0728C38.2175 49.9874 38.2871 47.7527 38.414 47.7527C38.5221 47.7527 38.6105 47.3211 38.6105 46.7934C38.6105 46.0686 38.6826 45.8341 38.9053 45.8341C39.1181 45.8341 39.2 45.621 39.2 45.0667V44.2992H46.0772H52.9544V45.1601V46.021L46.0281 46.0715C40.0253 46.1152 39.1017 46.1603 39.1017 46.4097C39.1017 46.568 39.2959 46.7246 39.5332 46.7574C39.8871 46.8067 39.9754 46.9617 40.0245 47.6207C40.0819 48.393 40.1119 48.4266 40.7955 48.4824C41.5471 48.5436 41.7451 48.2834 41.7516 47.2251C41.754 46.8602 41.8607 46.7934 42.4421 46.7934C43.0394 46.7934 43.1298 46.8546 43.1298 47.2597C43.1298 47.5966 43.0076 47.7431 42.6897 47.7873C42.4476 47.821 42.2201 47.9999 42.1841 48.1844C42.1303 48.4597 42.2627 48.5202 42.919 48.5202H43.7193V47.6568C43.7193 46.5609 44.0696 46.5219 44.1502 47.6088C44.2088 48.4003 44.2321 48.426 44.9474 48.4837L45.6842 48.5434V47.6683C45.6842 47.0185 45.7601 46.7934 45.9789 46.7934C46.198 46.7934 46.2737 47.0191 46.2737 47.6727C46.2737 48.8051 46.739 48.7387 46.8252 47.5939C46.8586 47.1537 46.9795 46.7934 47.0938 46.7934C47.2088 46.7934 47.2534 46.9745 47.1937 47.1977C47.0581 47.7042 47.3844 48.5839 47.6487 48.4244C47.757 48.3592 47.8456 47.9655 47.8456 47.5496C47.8456 46.7954 47.8476 46.7934 48.6316 46.7934C49.3963 46.7934 49.4175 46.8113 49.4175 47.4536C49.4175 47.8168 49.3291 48.1672 49.2211 48.2324C49.0043 48.3632 48.9426 59.0423 49.1515 60.2761L49.2739 61L52.6371 60.9476C55.4714 60.9035 56 60.85 56 60.6075C56 60.3793 55.6636 60.3081 54.3789 60.264L52.7579 60.2082L52.7593 54.796C52.7608 48.6251 52.8795 46.7934 53.2776 46.7934C53.4794 46.7934 53.5439 46.4222 53.5439 45.2585V43.7236H46.3719H39.2V43.244C39.2 42.8238 39.1149 42.7643 38.5123 42.7643H37.8246V36.9239C37.8246 33.2373 37.8971 31.0397 38.021 30.9649C38.1291 30.8996 38.2175 30.4722 38.2175 30.0148C38.2175 29.5263 38.3189 29.1454 38.4632 29.0917C38.6382 29.0265 38.6901 28.5793 38.6441 27.5363L38.5795 26.0724H37.9073H37.2351V20.5084V14.9444H37.8246H38.414V13.4095V11.8747H37.5699H36.7256L36.4971 10.5736C36.0713 8.14871 35.0193 6.45208 33.0752 5.05456C32.3709 4.54824 31.3836 4.05055 30.7023 3.85811C29.6672 3.56591 29.4772 3.4316 29.0174 2.66934C28.7325 2.19659 28.4533 1.42646 28.3971 0.957743C28.3 0.15039 28.0407 -0.188245 27.7422 0.103193ZM27.7339 2.68354C27.2824 3.31303 27.3249 3.43276 28 3.43276C28.6557 3.43276 28.6913 3.34891 28.3165 2.68872L28.0576 2.23247L27.7339 2.68354ZM26.9456 4.40607C25.7679 5.3107 24.7435 8.03973 24.6384 10.5529L24.5871 11.7787H28.013H31.4386L31.3675 10.5316C31.1678 7.02996 29.6079 4.00834 28 4.00834C27.7049 4.00834 27.2305 4.18735 26.9456 4.40607ZM24.5559 4.8439C22.2257 5.93885 20.5506 8.11648 20.1502 10.5712C20.0592 11.1299 20.0248 11.6517 20.0741 11.7308C20.1233 11.8098 20.986 11.8747 21.9915 11.8747H23.8195L23.9525 10.4426C24.1344 8.48159 24.685 6.54168 25.4216 5.26753C25.7608 4.68043 26.0131 4.2002 25.982 4.2002C25.9512 4.2002 25.3092 4.48991 24.5559 4.8439ZM30.5815 5.27271C31.3152 6.54206 31.8658 8.48389 32.0475 10.4426L32.1805 11.8747H33.9873C34.9811 11.8747 35.8382 11.8315 35.8923 11.7789C35.9463 11.7262 35.9249 11.2116 35.8447 10.6354C35.4582 7.85439 33.4153 5.49066 30.4451 4.38803C29.9683 4.21095 29.9684 4.2121 30.5815 5.27271ZM18.2536 12.7198C18.1955 12.8679 18.176 13.2781 18.2108 13.6311C18.269 14.225 18.325 14.2729 18.9614 14.2729C19.6424 14.2729 19.6497 14.2641 19.7091 13.3616L19.769 12.4502H19.0642C18.6403 12.4502 18.3173 12.5577 18.2536 12.7198ZM20.3752 13.3286L20.4351 14.2069L27.9018 14.1971C32.0084 14.1918 35.4346 14.1851 35.5158 14.1822C35.5969 14.1793 35.6632 13.7885 35.6632 13.3136V12.4502H27.9892H20.3152L20.3752 13.3286ZM36.2426 13.3524C36.3489 14.2564 36.3633 14.2729 37.0386 14.2729C37.7226 14.2729 37.7263 14.2683 37.7263 13.4095V12.5462L36.9303 12.489L36.1341 12.4318L36.2426 13.3524ZM19.3544 20.5084V26.0724H20.3253C21.2156 26.0724 21.7274 26.3136 21.4376 26.5964C21.3729 26.6595 20.5903 26.7186 19.6986 26.7276L18.0772 26.7439L18.0173 27.6553L17.9573 28.5666H28H38.0427L37.9827 27.6553L37.9228 26.7439L35.5649 26.7105C34.2681 26.6923 31.2397 26.6706 28.8351 26.6626C25.0866 26.6501 24.4632 26.6069 24.4632 26.3602C24.4632 26.1127 25.0962 26.0724 28.9825 26.0724H33.5018L33.5047 23.3384C33.5078 20.6176 33.6823 19.713 34.0883 20.3166C34.1946 20.4748 34.283 21.8346 34.2848 23.3384L34.2877 26.0724H35.4667H36.6456V20.5084V14.9444H35.4667H34.2877V17.4526C34.2877 19.7381 34.2573 19.9553 33.9439 19.8966C33.6413 19.84 33.5933 19.5382 33.545 17.3884L33.49 14.9444H27.9941H22.4982V20.485C22.4982 24.8859 22.444 26.0693 22.2346 26.2391C22.0895 26.3565 21.9127 26.3961 21.8416 26.3266C21.7704 26.2572 21.7123 23.6678 21.7123 20.5723V14.9444H20.5333H19.3544V20.5084ZM27.0175 15.9373C25.4658 16.3679 24.2804 17.8552 24.271 19.3833C24.2641 20.509 25.1967 22.0305 26.2161 22.5569C27.7683 23.3583 29.9286 22.9652 30.879 21.7081C32.5338 19.5194 31.5378 16.6315 28.8842 15.9237C27.9784 15.6821 27.9363 15.6823 27.0175 15.9373ZM26.6737 16.7134C26.4304 16.8279 26.2316 17.0753 26.2316 17.2627C26.2316 17.4686 26.0589 17.6282 25.796 17.665C25.2641 17.7401 24.8235 18.9085 25.234 19.1562C25.4334 19.2767 25.4334 19.3814 25.234 19.6932C24.9182 20.1871 25.3397 21.3566 25.7747 21.1936C25.9417 21.131 26.1202 21.2774 26.2343 21.5708C26.4632 22.1588 27.3353 22.5351 27.7292 22.2158C27.9324 22.051 28.0676 22.051 28.2708 22.2158C28.6647 22.5351 29.5368 22.1588 29.7657 21.5708C29.8798 21.2774 30.0582 21.131 30.2253 21.1936C30.6603 21.3566 31.0818 20.1871 30.766 19.6932C30.5666 19.3814 30.5666 19.2767 30.766 19.1562C31.1765 18.9085 30.7359 17.7401 30.204 17.665C29.9419 17.6282 29.7684 17.4686 29.7684 17.2642C29.7684 16.9565 29.0459 16.4793 28.5802 16.4793C28.4773 16.4793 28.393 17.11 28.393 17.8807C28.393 19.2302 28.4183 19.306 29.0807 19.9328C30.293 21.0802 29.7476 21.3083 28.4283 20.2057L27.607 19.5192V17.9993C27.607 16.3917 27.5434 16.304 26.6737 16.7134ZM22.7794 26.2857C22.6032 26.5643 23.0472 26.8255 23.5396 26.7328C24.0362 26.6395 24.1409 26.5311 23.98 26.2771C23.8094 26.0076 22.9516 26.0137 22.7794 26.2857ZM18.614 29.7178C18.614 30.0871 18.6545 30.2383 18.7038 30.0535C18.7533 29.8688 18.7533 29.5668 18.7038 29.382C18.6545 29.1972 18.614 29.3484 18.614 29.7178ZM19.5509 30.0056C19.5509 30.741 19.4927 30.8689 19.1579 30.8689C18.7734 30.8689 18.7649 30.9969 18.7649 36.8166V42.7643H19.9439H21.1228L21.1214 37.2483C21.1201 31.5669 20.9943 29.1422 20.7013 29.1422C20.609 29.1422 20.5333 29.5307 20.5333 30.0056C20.5333 30.645 20.4569 30.8689 20.2386 30.8689C20.0203 30.8689 19.9439 30.645 19.9439 30.0056C19.9439 29.5307 19.8554 29.1422 19.7474 29.1422C19.6393 29.1422 19.5509 29.5307 19.5509 30.0056ZM21.6241 30.1495C21.7111 30.7034 21.7887 33.7685 21.7966 36.9605L21.8105 42.7645H28L34.1895 42.7643L34.2203 36.8646C34.2374 33.6198 34.3125 30.5549 34.3875 30.0535C34.4758 29.4637 34.4514 29.1422 34.3188 29.1422C34.206 29.1422 34.0867 29.509 34.0533 29.9576C33.968 31.1109 33.4452 31.0781 33.2856 29.9096C33.1773 29.1157 33.1652 29.1004 33.1353 29.7178C33.0687 31.093 32.3228 31.2588 32.3228 29.8983C32.3228 29.4824 32.2344 29.1422 32.1263 29.1422C32.0182 29.1422 31.9298 29.5307 31.9298 30.0056V30.8689H31.1439H30.3579V29.9896C30.3579 29.3709 30.285 29.1341 30.1123 29.1909C29.8792 29.2677 29.8382 29.4256 29.7892 30.4372C29.7714 30.8097 29.6603 30.8689 28.9825 30.8689H28.1965V30.0056C28.1965 29.1468 28.1928 29.1422 27.5088 29.1422C26.8792 29.1422 26.821 29.1898 26.821 29.7043C26.821 30.1347 26.9213 30.2811 27.2478 30.3279C28.0587 30.4445 27.8909 30.8689 27.0339 30.8689C26.3391 30.8689 26.2288 30.8112 26.2108 30.4372C26.1618 29.4256 26.1208 29.2677 25.8877 29.1909C25.715 29.1341 25.6421 29.3709 25.6421 29.9896V30.8689H24.8561H24.0702V30.0056C24.0702 29.5307 23.9818 29.1422 23.8737 29.1422C23.7656 29.1422 23.6772 29.5307 23.6772 30.0056V30.8689H22.793H21.9088V30.0056C21.9088 29.4929 21.8188 29.1422 21.6873 29.1422C21.5309 29.1422 21.5124 29.4386 21.6241 30.1495ZM22.7403 29.7178C22.7403 30.0871 22.7808 30.2383 22.8301 30.0535C22.8796 29.8688 22.8796 29.5668 22.8301 29.382C22.7808 29.1972 22.7403 29.3484 22.7403 29.7178ZM24.6596 29.7178C24.6596 30.0343 24.7481 30.2934 24.8561 30.2934C24.9642 30.2934 25.0526 30.0343 25.0526 29.7178C25.0526 29.4012 24.9642 29.1422 24.8561 29.1422C24.7481 29.1422 24.6596 29.4012 24.6596 29.7178ZM28.917 29.2702C28.7113 29.471 28.764 30.2934 28.9825 30.2934C29.0905 30.2934 29.1789 30.0343 29.1789 29.7178C29.1789 29.1217 29.1389 29.0534 28.917 29.2702ZM30.9474 29.7178C30.9474 30.0343 31.0358 30.2934 31.1439 30.2934C31.2519 30.2934 31.3403 30.0343 31.3403 29.7178C31.3403 29.4012 31.2519 29.1422 31.1439 29.1422C31.0358 29.1422 30.9474 29.4012 30.9474 29.7178ZM35.0737 29.7043C35.0737 30.1347 35.1739 30.2811 35.5005 30.3279C36.1927 30.4275 36.1786 30.8689 35.483 30.8689H34.8772V36.8166V42.7643H36.0561H37.2351V36.8166C37.2351 30.9969 37.2266 30.8689 36.8421 30.8689C36.5073 30.8689 36.4491 30.741 36.4491 30.0056C36.4491 29.1468 36.4454 29.1422 35.7614 29.1422C35.1318 29.1422 35.0737 29.1898 35.0737 29.7043ZM37.2807 29.7178C37.2807 30.0871 37.3211 30.2383 37.3705 30.0535C37.42 29.8688 37.42 29.5668 37.3705 29.382C37.3211 29.1972 37.2807 29.3484 37.2807 29.7178ZM24.7404 32.7666C23.1028 33.7417 22.6649 34.9838 22.737 38.4475L22.793 41.1335L23.7416 41.1926C24.5524 41.2431 24.7054 41.1959 24.7931 40.8688C24.888 40.514 25.0528 40.4875 27.0423 40.5073C28.4507 40.5213 29.2685 40.4513 29.4198 40.3035C29.5468 40.1796 30.0341 40.0783 30.5029 40.0783C31.3154 40.0783 31.3525 40.1028 31.2987 40.6059C31.2437 41.1186 31.27 41.1335 32.2246 41.1335H33.207L33.263 38.4475C33.3074 36.3111 33.2522 35.5905 32.9932 34.9258C32.5902 33.8923 31.7294 32.9119 30.9462 32.5951C30.4127 32.3795 30.276 32.4057 29.5753 32.8585C29.1471 33.1352 28.6596 33.6208 28.4916 33.938C28.1161 34.6471 27.9487 34.659 27.5911 34.0022C27.303 33.4733 25.9451 32.4033 25.5635 32.4046C25.4446 32.405 25.0742 32.5679 24.7404 32.7666ZM25.0905 33.8576C24.2087 34.4608 23.8737 35.4867 23.8737 37.5843V39.5182L25.4947 39.4624C27.0061 39.4106 27.1201 39.3776 27.1787 38.9751C27.2838 38.2518 27.8035 38.4511 27.8035 39.2149C27.8035 39.5842 27.8919 39.8864 28 39.8864C28.1155 39.8864 28.1965 39.2149 28.1965 38.2556C28.1965 36.6344 27.8827 35.9698 27.7662 37.3443C27.6689 38.4937 27.3233 38.1766 27.1912 36.8166C27.0435 35.2931 26.8317 34.7651 26.0954 34.0847C25.5629 33.5926 25.4993 33.5782 25.0905 33.8576ZM29.8238 34.1795C29.0198 35.0011 28.7474 36.0055 28.8225 37.8719L28.8842 39.4068L30.5053 39.4624L32.1263 39.5182L32.1232 37.5438C32.1202 35.8552 32.0564 35.4613 31.6811 34.8222C31.4396 34.4113 31.0602 33.9585 30.8375 33.8159C30.4732 33.5826 30.3724 33.6189 29.8238 34.1795ZM17.5221 43.4662C17.4492 43.5373 17.3895 43.9698 17.3895 44.4272V45.2585H28.0108H38.6321L38.5722 44.3472L38.5123 43.4359L28.0835 43.3862C22.3477 43.3589 17.5952 43.395 17.5221 43.4662ZM18.11 45.9621C17.9029 46.1641 17.9575 47.1772 18.1754 47.1772C18.2835 47.1772 18.3719 46.875 18.3719 46.5056C18.3719 45.8155 18.3362 45.7413 18.11 45.9621ZM19.1579 46.7934C19.1579 47.6205 19.1045 47.7527 18.7702 47.7527C18.3933 47.7527 18.381 47.9268 18.3281 53.9882L18.2737 60.2239L19.6 60.2237H20.9263V53.9996C20.9263 50.057 20.8542 47.7318 20.7298 47.6568C20.6218 47.5916 20.5333 47.1497 20.5333 46.6749C20.5333 46.1482 20.4567 45.8577 20.3368 45.9301C20.2288 45.9953 20.1404 46.4393 20.1404 46.9166C20.1404 48.0983 19.67 47.9394 19.5892 46.7305C19.509 45.53 19.1579 45.5813 19.1579 46.7934ZM21.3877 47.1292C21.4566 47.8414 21.5136 51.079 21.5144 54.324L21.5158 60.2237H22.8798H24.2437L24.3044 56.4345C24.3616 52.8507 24.3912 52.5932 24.8514 51.6859C25.4281 50.5487 26.7898 49.1589 27.4968 48.9856C27.7736 48.9177 28.215 48.915 28.4777 48.9793C29.0937 49.1303 30.4316 50.359 30.2655 50.6214C30.1954 50.732 30.265 50.8225 30.42 50.8225C30.7711 50.8225 31.3718 51.9888 31.1588 52.2565C30.9071 52.5725 31.1503 53.8923 31.46 53.8923C31.6824 53.8923 31.7333 54.4827 31.7333 57.058V60.2237H33.1088H34.4842L34.4856 54.324C34.4864 51.079 34.5434 47.8414 34.6123 47.1292C34.7009 46.2134 34.6717 45.8341 34.5127 45.8341C34.3738 45.8341 34.2877 46.201 34.2877 46.7934V47.7527H33.4035H32.5193V46.7934V45.8341H31.8316C31.1767 45.8341 31.1439 45.8662 31.1439 46.5056C31.1439 47.0998 31.2024 47.1772 31.6514 47.1772C32.4969 47.1772 32.0801 47.6509 31.1777 47.7157L30.3579 47.7748V46.8044C30.3579 46.2708 30.2695 45.8341 30.1614 45.8341C30.0533 45.8341 29.9649 46.2658 29.9649 46.7934V47.7527H29.0807H28.1965V46.7934C28.1965 45.5728 27.8448 45.5337 27.7652 46.7455C27.722 47.4016 27.6227 47.6568 27.4105 47.6568C27.1944 47.6568 27.1119 47.4264 27.1009 46.7934C27.0824 45.7313 26.7283 45.7294 26.7089 46.7911C26.701 47.2121 26.6407 47.6092 26.5745 47.6737C26.2927 47.9488 26.0351 47.4772 26.0351 46.6862C26.0351 46.2175 25.9467 45.8341 25.8386 45.8341C25.7305 45.8341 25.6421 46.2658 25.6421 46.7934V47.7527H24.7579H23.8737V46.7934C23.8737 46.2658 23.7853 45.8341 23.6772 45.8341C23.5691 45.8341 23.4807 46.2658 23.4807 46.7934V47.7527H22.5965H21.7123V46.7934C21.7123 46.201 21.6262 45.8341 21.4873 45.8341C21.3283 45.8341 21.2991 46.2134 21.3877 47.1292ZM22.4328 45.9621C22.2314 46.1588 22.2776 46.9481 22.4982 47.0812C22.6152 47.1518 22.6947 46.9233 22.6947 46.517C22.6947 45.8157 22.6594 45.7409 22.4328 45.9621ZM24.5942 45.9621C24.3928 46.1588 24.439 46.9481 24.6596 47.0812C24.7766 47.1518 24.8561 46.9233 24.8561 46.517C24.8561 45.8157 24.8208 45.7409 24.5942 45.9621ZM28.9327 45.975C28.8907 46.0557 28.9182 46.3809 28.9942 46.6975C29.1463 47.3305 29.1709 47.3201 29.2982 46.5678C29.379 46.0901 29.1049 45.6453 28.9327 45.975ZM33.3053 46.5056C33.3053 46.9195 33.3846 47.152 33.5018 47.0812C33.6098 47.016 33.6982 46.757 33.6982 46.5056C33.6982 46.2543 33.6098 45.9953 33.5018 45.9301C33.3846 45.8593 33.3053 46.0918 33.3053 46.5056ZM35.4667 46.5056C35.4667 46.9195 35.546 47.152 35.6632 47.0812C35.7712 47.016 35.8596 46.757 35.8596 46.5056C35.8596 46.2543 35.7712 45.9953 35.6632 45.9301C35.546 45.8593 35.4667 46.0918 35.4667 46.5056ZM36.4491 46.7934V47.7527H35.7614H35.0737V53.9882V60.2237H36.3509H37.6281V53.9882C37.6281 47.8807 37.62 47.7527 37.2351 47.7527C36.8946 47.7527 36.8421 47.6248 36.8421 46.7934C36.8421 46.2658 36.7537 45.8341 36.6456 45.8341C36.5375 45.8341 36.4491 46.2658 36.4491 46.7934ZM37.6281 46.4943C37.6281 46.8698 37.7165 47.1772 37.8246 47.1772C37.9326 47.1772 38.021 46.9233 38.021 46.6129C38.021 46.3025 37.9326 45.9953 37.8246 45.9301C37.7076 45.8595 37.6281 46.088 37.6281 46.4943ZM3.4386 47.2731C3.4386 47.5369 3.52702 47.7527 3.63509 47.7527C3.74316 47.7527 3.83158 47.5369 3.83158 47.2731C3.83158 47.0093 3.74316 46.7934 3.63509 46.7934C3.52702 46.7934 3.4386 47.0093 3.4386 47.2731ZM4.42105 47.6568C4.42105 48.3512 4.35366 48.5202 4.07719 48.5202C3.75731 48.5202 3.73333 48.9267 3.73333 54.372V60.2237H4.9618H6.19026L6.11343 54.4199C6.07138 51.2279 5.95034 48.1844 5.84463 47.6568C5.66916 46.7808 5.64991 46.7558 5.62319 47.369C5.56326 48.7435 4.81403 48.9106 4.81403 47.5496C4.81403 47.1336 4.72561 46.7934 4.61754 46.7934C4.50947 46.7934 4.42105 47.182 4.42105 47.6568ZM10.7088 47.2731C10.7088 47.5369 10.7972 47.7527 10.9053 47.7527C11.0133 47.7527 11.1018 47.5369 11.1018 47.2731C11.1018 47.0093 11.0133 46.7934 10.9053 46.7934C10.7972 46.7934 10.7088 47.0093 10.7088 47.2731ZM14.8351 47.2731C14.8351 47.5369 14.9235 47.7527 15.0316 47.7527C15.1396 47.7527 15.2281 47.5369 15.2281 47.2731C15.2281 47.0093 15.1396 46.7934 15.0316 46.7934C14.9235 46.7934 14.8351 47.0093 14.8351 47.2731ZM40.7206 47.1559C40.6672 47.3552 40.6998 47.6359 40.7929 47.7794C40.9081 47.9569 40.9633 47.841 40.9655 47.417C40.9688 46.719 40.8668 46.6102 40.7206 47.1559ZM44.7018 47.2731C44.7018 47.5369 44.7902 47.7527 44.8982 47.7527C45.0063 47.7527 45.0947 47.5369 45.0947 47.2731C45.0947 47.0093 45.0063 46.7934 44.8982 46.7934C44.7902 46.7934 44.7018 47.0093 44.7018 47.2731ZM49.9799 46.8414C49.965 46.8677 49.8987 49.8897 49.8325 53.5567L49.7123 60.2241L50.9403 60.2239L52.1684 60.2237V54.372C52.1684 48.6482 52.1598 48.5202 51.7754 48.5202C51.4406 48.5202 51.3825 48.3922 51.3825 47.6568C51.3825 46.5609 51.0321 46.5219 50.9516 47.6088C50.9183 48.0572 50.8028 48.4243 50.6947 48.4243C50.5867 48.4243 50.4711 48.0572 50.4379 47.6088C50.4045 47.1605 50.2941 46.7934 50.1923 46.7934C50.0903 46.7934 49.9948 46.8151 49.9799 46.8414ZM51.9719 47.2731C51.9719 47.5369 52.0604 47.7527 52.1684 47.7527C52.2765 47.7527 52.3649 47.5369 52.3649 47.2731C52.3649 47.0093 52.2765 46.7934 52.1684 46.7934C52.0604 46.7934 51.9719 47.0093 51.9719 47.2731ZM27.0415 50.7281C26.622 51.0984 26.0714 51.8538 25.8186 52.4069C25.3994 53.3231 25.3542 53.7162 25.3128 56.8182L25.2672 60.2237H28.0308H30.7947L30.6978 56.8182C30.6389 54.743 30.4996 53.1227 30.341 52.6703C30.0504 51.8403 28.5073 50.0551 28.0806 50.0551C27.9289 50.0551 27.4612 50.358 27.0415 50.7281ZM10.9465 51.6815C9.8448 52.5865 9.56559 53.6312 9.49485 57.1096L9.43158 60.2243H11.7895L14.1474 60.2245L14.0491 57.0104C13.9416 53.4923 13.799 52.9654 12.6413 51.8091C11.9131 51.0819 11.6961 51.0656 10.9465 51.6815ZM43.3328 51.7101C42.088 52.7327 41.8758 53.4481 41.7603 57.0104L41.6561 60.2245L44.0632 60.2241L46.4702 60.2237V57.4638C46.4702 54.2075 46.1845 53.0692 45.0839 51.9395C44.6911 51.5362 44.2744 51.2062 44.1579 51.2062C44.0413 51.2062 43.67 51.433 43.3328 51.7101Z" fill="white"/>
</svg>
