<svg width="46" height="36" viewBox="0 0 46 36" fill="none" xmlns="http://www.w3.org/2000/svg">
<rect x="1" y="1" width="44" height="34" rx="6" fill="white"/>
<path fill-rule="evenodd" clip-rule="evenodd" d="M5.00029 0.0604611C3.73054 0.275665 2.71777 0.815371 1.73503 1.80057C1.15732 2.37975 0.928134 2.69059 0.642549 3.28271C-0.0333492 4.68395 0.000275347 3.91359 0.000275347 18.0068C0.000275347 32.1001 -0.0333492 31.3297 0.642549 32.731C0.928134 33.3231 1.15732 33.6339 1.73503 34.2131C2.55171 35.0319 3.26482 35.47 4.30422 35.7918L4.97671 36H12.1349H19.293L19.5547 35.7084C19.8356 35.3953 19.8798 35.1203 19.7092 34.7474C19.4795 34.2452 19.683 34.2587 12.3908 34.2587C8.26932 34.2587 5.48709 34.2241 5.19065 34.169C3.64751 33.8822 2.33714 32.6385 1.92737 31.0715C1.72589 30.3012 1.72589 5.71246 1.92737 4.94219C2.33714 3.37522 3.64751 2.13151 5.19065 1.84469C5.86126 1.72012 40.0581 1.72137 40.7182 1.84612C42.2835 2.14169 43.5683 3.36058 43.9819 4.94219C44.0974 5.38376 44.1157 7.16763 44.1157 18.0068C44.1157 31.6792 44.1396 31.01 43.6129 32.0453C43.3112 32.6382 42.4885 33.4575 41.8933 33.7579C40.9094 34.2544 40.8828 34.256 33.5531 34.2574C26.2238 34.2588 26.4298 34.2451 26.2001 34.7474C26.0295 35.1203 26.0737 35.3953 26.3546 35.7084L26.6163 36H33.7744H40.9326L41.6051 35.7918C43.6376 35.1626 45.2367 33.4989 45.6966 31.5352C45.7771 31.1914 45.878 30.8404 45.9209 30.7551C46.0339 30.5298 46.0222 5.12319 45.909 5.19284C45.8585 5.22392 45.8194 5.15222 45.8194 5.0289C45.8194 4.65769 45.4612 3.61525 45.1242 3.00509C44.7083 2.2525 43.6161 1.16479 42.8604 0.750631C42.5398 0.574985 41.9951 0.337369 41.6499 0.222445L41.0222 0.0136701L23.2236 0.00107943C13.4344 -0.00579637 5.23396 0.0209029 5.00029 0.0604611ZM0.0439425 18.0068C0.0439425 25.0545 0.054523 27.9376 0.0675245 24.4138C0.080526 20.8899 0.080526 15.1236 0.0675245 11.5998C0.054523 8.07595 0.0439425 10.9591 0.0439425 18.0068ZM5.91103 7.56008C5.02612 7.7093 4.19528 8.3333 3.79142 9.15214L3.54206 9.65765V11.9347V14.2118L3.79142 14.7173C4.64271 16.4433 6.90156 16.8801 8.36383 15.6015C8.81547 15.2066 9.2733 14.2722 9.19314 13.9089C9.1128 13.5447 8.67254 13.1848 8.30743 13.1848C7.91604 13.1848 7.65206 13.3907 7.42413 13.8735C7.27349 14.1926 7.1476 14.3174 6.83853 14.4535C6.48704 14.6083 6.40535 14.6143 6.07735 14.5087C5.38926 14.287 5.33941 14.1332 5.3065 12.1294C5.27422 10.1641 5.33286 9.8116 5.74039 9.52263C6.31613 9.11437 7.11577 9.34243 7.42799 10.0041C7.76091 10.7094 8.34428 10.8941 8.86371 10.4589C9.27886 10.111 9.30451 9.79133 8.97113 9.11696C8.68949 8.54734 8.23507 8.08979 7.66488 7.8019C7.45381 7.69528 6.3555 7.43123 6.32761 7.48043C6.32438 7.48615 6.13689 7.52204 5.91103 7.56008ZM12.0813 7.56178C11.5467 7.69555 11.0436 7.98656 10.6233 8.40518C9.80027 9.22474 9.65537 9.82642 9.69778 12.2472C9.72782 13.9581 9.73903 14.0538 9.96444 14.5243C10.3134 15.2526 10.7727 15.7254 11.4569 16.0609C11.9928 16.3236 12.1378 16.3549 12.8206 16.3549C13.4587 16.3549 13.6676 16.3161 14.0885 16.1196C14.7973 15.7885 15.2835 15.3163 15.6236 14.6281L15.9159 14.0369V11.9366C15.9159 9.85401 15.9139 9.83205 15.6796 9.3344C15.1675 8.24659 14.1724 7.56142 13.025 7.50642C12.6917 7.49034 12.2671 7.51535 12.0813 7.56178ZM18.4116 7.57446C17.7781 7.74243 17.7546 7.81717 17.0964 11.7656C16.7658 13.7495 16.4959 15.4599 16.4969 15.5666C16.4994 15.8394 16.8978 16.28 17.1926 16.3361C17.4703 16.389 17.918 16.2315 18.0952 16.0187C18.1596 15.9414 18.3534 15.0425 18.5257 14.0209C18.6981 12.9995 18.8505 12.1525 18.8642 12.1387C18.8779 12.1251 19.1079 12.9267 19.3752 13.9201C19.9021 15.8785 20.0862 16.2345 20.6283 16.3424C20.9432 16.4051 21.3996 16.2408 21.6315 15.9812C21.7177 15.8848 22.0033 14.9891 22.2668 13.989C22.5302 12.9895 22.7675 12.2088 22.7943 12.2541C22.821 12.2995 22.9778 13.1192 23.1424 14.0758C23.4018 15.5821 23.4726 15.8493 23.6714 16.0709C24.1009 16.5496 24.9575 16.3444 25.1332 15.7207C25.2276 15.3861 24.0011 8.35786 23.7848 7.99317C23.4353 7.40399 22.4742 7.38408 22.0965 7.95817C22.019 8.07595 21.7024 9.12928 21.3928 10.2991C21.0386 11.6375 20.8096 12.3597 20.7749 12.2472C20.7446 12.149 20.4954 11.2449 20.221 10.2381C19.9467 9.23126 19.6793 8.2999 19.6266 8.16837C19.434 7.68706 18.9253 7.43828 18.4116 7.57446ZM29.3551 7.64045C29.2012 7.73385 29.0298 7.94057 28.974 8.09988C28.9051 8.29651 28.8726 9.53264 28.8726 11.9509C28.8726 15.8116 28.8897 15.9631 29.36 16.27C29.6521 16.4607 30.1733 16.3939 30.4363 16.1322C30.6109 15.9585 30.6235 15.8203 30.6659 13.6067L30.7107 11.265L32.3946 13.6852C33.4482 15.1994 34.1631 16.1438 34.3042 16.2078C34.7191 16.396 35.0539 16.3336 35.3823 16.0066L35.6871 15.703V11.8664C35.6871 8.13783 35.6819 8.02326 35.504 7.79779C35.1562 7.35756 34.4178 7.40391 34.1003 7.88584C33.9588 8.10068 33.9331 8.4117 33.8938 10.3887L33.849 12.6462L32.1454 10.1836C30.1923 7.36033 30.0419 7.22326 29.3551 7.64045ZM38.7648 7.59303C37.9108 7.87128 37.1571 8.5836 36.8801 9.37449C36.7419 9.76891 36.7183 10.1424 36.7183 11.9347C36.7183 13.7339 36.7416 14.0996 36.8815 14.4993C37.0983 15.1183 37.7174 15.791 38.3589 16.1048C39.0293 16.4326 40.073 16.4583 40.7194 16.1627C41.2548 15.9178 41.8209 15.4051 42.1256 14.889C42.3459 14.5158 42.37 14.3827 42.399 13.382C42.4476 11.7023 42.3006 11.4882 41.0988 11.4882C40.4386 11.4882 40.3353 11.5118 40.0877 11.7194C39.8654 11.9056 39.8118 12.0191 39.8118 12.303C39.8118 12.7373 40.0091 13.0532 40.3557 13.1735C40.5849 13.2531 40.6188 13.3089 40.6188 13.6068C40.6188 14.4151 39.7407 14.8692 39.0218 14.4327C38.53 14.1341 38.4668 13.8497 38.4668 11.9347C38.4668 10.0197 38.53 9.73534 39.0218 9.43673C39.6303 9.06722 40.2808 9.30725 40.6529 10.0385C40.9903 10.7016 41.5471 10.8718 42.0367 10.4616C42.1831 10.339 42.3292 10.1338 42.3615 10.0057C42.5225 9.36699 41.7322 8.21186 40.8352 7.77475C40.2437 7.48659 39.3362 7.40694 38.7648 7.59303ZM26.5344 7.8202L26.2723 8.08122V11.9347V15.7882L26.5344 16.0492C26.9744 16.4873 27.6759 16.3665 27.9654 15.8027C28.1113 15.5185 28.1049 8.36786 27.9584 8.04782C27.718 7.52231 26.9559 7.40051 26.5344 7.8202ZM12.1717 9.44923C11.5721 9.80463 11.4775 10.1432 11.4775 11.9347C11.4775 13.3032 11.4985 13.5291 11.6568 13.8546C12.1337 14.8357 13.5564 14.842 14.0219 13.8652C14.2345 13.4189 14.2345 10.4505 14.0219 10.0042C13.7019 9.3327 12.8164 9.06705 12.1717 9.44923ZM10.557 19.7056C10.0397 19.8357 9.58274 20.1001 9.22327 20.4772C8.69792 21.0284 8.56683 21.3555 8.56719 22.1145C8.56773 23.3206 8.99534 23.8179 10.5908 24.4677C12.1117 25.0871 12.5845 25.3489 12.6828 25.6264C12.8189 26.0103 12.6533 26.3283 12.1981 26.5569C11.4883 26.9135 10.577 26.7508 9.83004 26.1342C9.58964 25.9358 9.29886 25.75 9.18382 25.7211C8.66169 25.5907 8.11725 26.0641 8.13348 26.6344C8.14065 26.887 8.2252 27.0407 8.52334 27.3432C9.3011 28.1324 10.6221 28.6056 11.7863 28.512C14.3613 28.305 15.4715 25.4808 13.581 23.9461C13.2821 23.7034 12.7083 23.4125 11.8359 23.0611C11.1209 22.7731 10.4856 22.4977 10.4239 22.4491C10.2371 22.3015 10.2943 21.8941 10.533 21.6707C10.9778 21.2546 11.904 21.3327 12.7407 21.8568C13.2499 22.1758 13.6197 22.1863 13.9714 21.8915C14.7216 21.2629 14.21 20.4264 12.7372 19.8731C12.1731 19.6612 11.0704 19.5765 10.557 19.7056ZM18.0679 19.7337C17.1579 20.0339 16.5285 20.5536 16.1103 21.3501L15.8262 21.8912V24.036V26.1809L16.1185 26.7723C16.4586 27.4606 16.9446 27.9327 17.6536 28.2638C18.3294 28.5794 19.4538 28.5942 20.1149 28.2962C21.0642 27.8683 21.6689 27.1498 21.9283 26.1414C22.0456 25.6856 22.067 25.2346 22.0388 23.8227C21.9976 21.7658 21.8889 21.3592 21.1794 20.607C20.4127 19.7944 19.0466 19.4109 18.0679 19.7337ZM25.7791 19.6929C24.9103 19.922 24.0159 20.6671 23.6416 21.4737C23.4596 21.8657 23.4478 22.0252 23.4478 24.079V26.2667L23.7107 26.7838C24.031 27.4136 24.5913 27.9446 25.2703 28.2616C25.6984 28.4614 25.9 28.4987 26.5413 28.4965C27.4767 28.4934 28.1224 28.2322 28.7274 27.6123C29.5061 26.8144 29.6796 26.1707 29.6796 24.079C29.6796 23.3066 29.6386 22.4596 29.5885 22.1967C29.3084 20.7258 28.1483 19.709 26.6807 19.6482C26.3328 19.6338 25.9271 19.6539 25.7791 19.6929ZM31.4527 19.7489C31.3183 19.824 31.167 19.9624 31.1164 20.0564C31.0577 20.1657 31.0245 21.6276 31.0245 24.1057C31.0245 27.8761 31.0297 27.9903 31.2077 28.2159C31.5555 28.6561 32.2939 28.6098 32.6114 28.1278C32.7525 27.9136 32.7787 27.6042 32.8179 25.6905L32.8627 23.4985L34.4288 25.7616C35.2901 27.0062 36.1103 28.1213 36.2514 28.2395C36.6907 28.6076 37.4024 28.451 37.6746 27.9263C37.8608 27.5672 37.8979 20.6415 37.7159 20.2077C37.4484 19.5701 36.6866 19.4254 36.2476 19.9287C36.0495 20.1557 36.0458 20.2022 36.0458 22.4766C36.0458 23.7508 36.0156 24.7919 35.9786 24.7902C35.9415 24.7885 35.2052 23.7609 34.3422 22.5066C33.4791 21.2523 32.6721 20.1069 32.5489 19.9612C32.2768 19.6398 31.81 19.5493 31.4527 19.7489ZM18.2984 21.5565C17.6623 21.8795 17.6228 22.0132 17.5918 23.949C17.5682 25.4266 17.5863 25.7283 17.715 25.9983C18.1855 26.9858 19.6055 26.9862 20.0854 25.9988C20.2436 25.6734 20.2647 25.4474 20.2647 24.079C20.2647 22.6846 20.2456 22.4888 20.0759 22.1396C19.7544 21.4783 18.9635 21.2188 18.2984 21.5565ZM25.92 21.5565C25.2817 21.8806 25.2441 22.0099 25.2161 23.9736C25.1884 25.9135 25.2379 26.1445 25.7632 26.5283C26.1133 26.784 26.8806 26.7845 27.2241 26.5291C27.8281 26.08 27.8414 26.027 27.8414 24.079C27.8414 22.42 27.8294 22.2899 27.6538 22.054C27.1931 21.4348 26.5328 21.2453 25.92 21.5565ZM22.5162 34.3834C22.0152 34.6598 21.9241 35.2675 22.3178 35.7063C22.5329 35.946 22.6426 35.996 22.9546 35.996C23.8508 35.996 24.1766 34.7911 23.39 34.386C23.0854 34.2292 22.7971 34.2283 22.5162 34.3834Z" fill="#FF0000"/>
</svg>
