<svg width="16" height="16" viewBox="0 0 16 16" fill="none" xmlns="http://www.w3.org/2000/svg">
<path fill-rule="evenodd" clip-rule="evenodd" d="M12.9693 2.90513C13.1314 2.83692 13.3087 2.81339 13.483 2.837C13.6572 2.86061 13.8219 2.93048 13.96 3.03935C14.098 3.14822 14.2044 3.29211 14.268 3.45603C14.3316 3.61995 14.35 3.79792 14.3215 3.97141L12.8342 12.9929C12.6899 13.8631 11.7351 14.3622 10.9371 13.9287C10.2695 13.566 9.27795 13.0073 8.3861 12.4243C7.94017 12.1325 6.5742 11.198 6.74207 10.5331C6.88634 9.96453 9.18155 7.82802 10.4931 6.55779C11.0079 6.05874 10.7731 5.77086 10.1652 6.2299C8.65562 7.36963 6.23188 9.10284 5.43053 9.59074C4.7236 10.0209 4.35506 10.0944 3.91438 10.0209C3.1104 9.88715 2.36478 9.67993 1.75622 9.42745C0.933883 9.08645 0.973886 7.9559 1.75557 7.6267L12.9693 2.90513Z" fill="white"/>
</svg>
