<svg width="44" height="61" viewBox="0 0 44 61" fill="none" xmlns="http://www.w3.org/2000/svg">
<path d="M27.32 59.6677H40.974V22.4441H2.125V59.6677H15.779" stroke="white" stroke-miterlimit="10" stroke-linecap="round" stroke-linejoin="round"/>
<path d="M23.2568 29.271C28.2958 30.0837 32.3595 34.4725 32.3595 39.8366V59.505" stroke="white" stroke-miterlimit="10" stroke-linecap="round" stroke-linejoin="round"/>
<path d="M19.8429 29.271C14.6414 30.0837 10.7402 34.4725 10.7402 39.8366V59.505" stroke="white" stroke-miterlimit="10" stroke-linecap="round" stroke-linejoin="round"/>
<path d="M42.6 17.4048H0.5L2.12548 22.4438H40.9745L42.6 17.4048Z" stroke="white" stroke-miterlimit="10" stroke-linecap="round" stroke-linejoin="round"/>
<path d="M23.0937 27.4832H19.8428V30.8967H23.0937V27.4832Z" stroke="white" stroke-miterlimit="10" stroke-linecap="round" stroke-linejoin="round"/>
<path d="M27.3197 59.6677V39.8368C27.3197 36.5859 24.7189 33.9851 21.4679 33.9851C18.217 33.9851 15.6162 36.5859 15.6162 39.8368V59.5052" stroke="white" stroke-miterlimit="10" stroke-linecap="round" stroke-linejoin="round"/>
<path d="M40.974 13.9917H2.125V17.0801H40.974V13.9917Z" stroke="white" stroke-miterlimit="10" stroke-linecap="round" stroke-linejoin="round"/>
<path d="M40.974 10.5779H2.125V13.6663H40.974V10.5779Z" stroke="white" stroke-miterlimit="10" stroke-linecap="round" stroke-linejoin="round"/>
<path d="M34.3107 6.677H8.95312V10.2531H34.3107V6.677Z" stroke="white" stroke-miterlimit="10" stroke-linecap="round" stroke-linejoin="round"/>
<path d="M30.2467 1.47529V6.67684H13.0166V1.47529L17.4054 3.10077C18.2181 1.47529 19.6811 0.5 21.6317 0.5C23.5822 0.5 25.0452 1.63784 25.8579 3.10077L30.2467 1.47529Z" stroke="white" stroke-miterlimit="10" stroke-linecap="round" stroke-linejoin="round"/>
<path d="M8.95253 31.0589C10.0298 31.0589 10.9031 30.1856 10.9031 29.1083C10.9031 28.031 10.0298 27.1577 8.95253 27.1577C7.87525 27.1577 7.00195 28.031 7.00195 29.1083C7.00195 30.1856 7.87525 31.0589 8.95253 31.0589Z" stroke="white" stroke-miterlimit="10" stroke-linecap="round" stroke-linejoin="round"/>
<path d="M34.1478 31.0589C35.2251 31.0589 36.0984 30.1856 36.0984 29.1083C36.0984 28.031 35.2251 27.1577 34.1478 27.1577C33.0706 27.1577 32.1973 28.031 32.1973 29.1083C32.1973 30.1856 33.0706 31.0589 34.1478 31.0589Z" stroke="white" stroke-miterlimit="10" stroke-linecap="round" stroke-linejoin="round"/>
<path d="M2.125 43.2502H15.779" stroke="white" stroke-miterlimit="10" stroke-linecap="round" stroke-linejoin="round"/>
<path d="M2.125 54.9536H15.779" stroke="white" stroke-miterlimit="10" stroke-linecap="round" stroke-linejoin="round"/>
<path d="M40.9744 54.9536H27.3203" stroke="white" stroke-miterlimit="10" stroke-linecap="round" stroke-linejoin="round"/>
<path d="M40.9744 43.2502H27.3203" stroke="white" stroke-miterlimit="10" stroke-linecap="round" stroke-linejoin="round"/>
</svg>
