<svg width="65" height="52" viewBox="0 0 65 52" fill="none" xmlns="http://www.w3.org/2000/svg">
<path d="M27.2706 23.9248H21.275L18.4863 28.2472H46.5123L43.7237 23.9248H37.728" stroke="white" stroke-miterlimit="10" stroke-linecap="round" stroke-linejoin="round"/>
<path d="M21.6934 28.2471V42.3298" stroke="white" stroke-miterlimit="10" stroke-linecap="round" stroke-linejoin="round"/>
<path d="M24.3438 28.2471V42.3298" stroke="white" stroke-miterlimit="10" stroke-linecap="round" stroke-linejoin="round"/>
<path d="M27.1309 28.2471V42.3298" stroke="white" stroke-miterlimit="10" stroke-linecap="round" stroke-linejoin="round"/>
<path d="M43.3066 28.2471V42.3298" stroke="white" stroke-miterlimit="10" stroke-linecap="round" stroke-linejoin="round"/>
<path d="M40.6562 28.2471V42.3298" stroke="white" stroke-miterlimit="10" stroke-linecap="round" stroke-linejoin="round"/>
<path d="M37.8672 28.2471V42.3298" stroke="white" stroke-miterlimit="10" stroke-linecap="round" stroke-linejoin="round"/>
<path d="M43.3064 42.3296H21.6943L14.7227 50.9744H50.278L43.3064 42.3296Z" stroke="white" stroke-miterlimit="10" stroke-linecap="round" stroke-linejoin="round"/>
<path d="M34.8005 37.7283H30.1992V42.3295H34.8005V37.7283Z" stroke="white" stroke-miterlimit="10" stroke-linecap="round" stroke-linejoin="round"/>
<path d="M34.8005 30.7566H30.1992V35.3579H34.8005V30.7566Z" stroke="white" stroke-miterlimit="10" stroke-linecap="round" stroke-linejoin="round"/>
<path d="M37.7289 23.9246V17.7896H27.2715V23.9246" stroke="white" stroke-miterlimit="10" stroke-linecap="round" stroke-linejoin="round"/>
<path d="M34.9407 17.7896L33.5464 11.5151H31.4549L30.0605 17.7896" stroke="white" stroke-miterlimit="10" stroke-linecap="round" stroke-linejoin="round"/>
<path d="M27.6896 17.7899C26.5741 15.9772 25.877 13.7463 25.877 12.0731C25.877 8.44786 28.805 5.51978 32.4303 5.51978C36.0555 5.51978 38.9836 8.44786 38.9836 12.0731C38.9836 13.7463 38.2865 15.9772 37.171 17.7899" stroke="white" stroke-miterlimit="10" stroke-linecap="round" stroke-linejoin="round"/>
<path d="M32.4297 5.38014V0.5" stroke="white" stroke-miterlimit="10" stroke-linecap="round" stroke-linejoin="round"/>
<path d="M32.43 25.4582C34.0472 25.4582 35.3581 24.1473 35.3581 22.5301C35.3581 20.913 34.0472 19.6021 32.43 19.6021C30.8129 19.6021 29.502 20.913 29.502 22.5301C29.502 24.1473 30.8129 25.4582 32.43 25.4582Z" stroke="white" stroke-miterlimit="10" stroke-linecap="round" stroke-linejoin="round"/>
<path d="M22.9489 23.9247V15.9771H15.1406V50.9747" stroke="white" stroke-miterlimit="10" stroke-linecap="round" stroke-linejoin="round"/>
<path d="M22.9487 13.4675H15.1404L13.7461 15.9773H24.343L22.9487 13.4675Z" stroke="white" stroke-miterlimit="10" stroke-linecap="round" stroke-linejoin="round"/>
<path d="M22.9489 13.4674C22.9489 11.2364 21.1362 9.56323 19.0447 9.56323C16.9532 9.56323 15.1406 11.3759 15.1406 13.4674" stroke="white" stroke-miterlimit="10" stroke-linecap="round" stroke-linejoin="round"/>
<path d="M19.0449 9.42386V5.65918" stroke="white" stroke-miterlimit="10" stroke-linecap="round" stroke-linejoin="round"/>
<path d="M15.1404 23.9248H0.5V50.9748H15.1404" stroke="white" stroke-miterlimit="10" stroke-linecap="round" stroke-linejoin="round"/>
<path d="M6.49482 29.0838C6.49482 28.2472 5.79767 27.4106 4.82164 27.4106C3.84561 27.4106 3.14844 28.1078 3.14844 29.0838V32.1514H6.35539V29.0838H6.49482Z" stroke="white" stroke-miterlimit="10" stroke-linecap="round" stroke-linejoin="round"/>
<path d="M12.4909 29.0838C12.4909 28.2472 11.7937 27.4106 10.8177 27.4106C9.84169 27.4106 9.14453 28.1078 9.14453 29.0838V32.1514H12.3515V29.0838H12.4909Z" stroke="white" stroke-miterlimit="10" stroke-linecap="round" stroke-linejoin="round"/>
<path d="M6.49482 36.1947C6.49482 35.3581 5.79767 34.5215 4.82164 34.5215C3.84561 34.5215 3.14844 35.2186 3.14844 36.1947V39.2622H6.35539V36.1947H6.49482Z" stroke="white" stroke-miterlimit="10" stroke-linecap="round" stroke-linejoin="round"/>
<path d="M12.4909 36.1947C12.4909 35.3581 11.7937 34.5215 10.8177 34.5215C9.84169 34.5215 9.14453 35.2186 9.14453 36.1947V39.2622H12.3515V36.1947H12.4909Z" stroke="white" stroke-miterlimit="10" stroke-linecap="round" stroke-linejoin="round"/>
<path d="M6.49482 43.306C6.49482 42.4694 5.79767 41.6328 4.82164 41.6328C3.84561 41.6328 3.14844 42.33 3.14844 43.306V46.3735H6.35539V43.306H6.49482Z" stroke="white" stroke-miterlimit="10" stroke-linecap="round" stroke-linejoin="round"/>
<path d="M12.4909 43.306C12.4909 42.4694 11.7937 41.6328 10.8177 41.6328C9.84169 41.6328 9.14453 42.33 9.14453 43.306V46.3735H12.3515V43.306H12.4909Z" stroke="white" stroke-miterlimit="10" stroke-linecap="round" stroke-linejoin="round"/>
<path d="M0.5 23.9246V21.136H15.1404" stroke="white" stroke-miterlimit="10" stroke-linecap="round" stroke-linejoin="round"/>
<path d="M15.1406 33.406H21.694" stroke="white" stroke-miterlimit="10" stroke-linecap="round" stroke-linejoin="round"/>
<path d="M41.9121 23.9247V15.9771H49.8598V50.9747" stroke="white" stroke-miterlimit="10" stroke-linecap="round" stroke-linejoin="round"/>
<path d="M41.9119 13.4675H49.8596L51.2539 15.9773H40.5176L41.9119 13.4675Z" stroke="white" stroke-miterlimit="10" stroke-linecap="round" stroke-linejoin="round"/>
<path d="M41.9121 13.4674C41.9121 11.2364 43.7247 9.56323 45.8162 9.56323C47.9077 9.56323 49.7204 11.3759 49.7204 13.4674" stroke="white" stroke-miterlimit="10" stroke-linecap="round" stroke-linejoin="round"/>
<path d="M45.9551 9.42386V5.65918" stroke="white" stroke-miterlimit="10" stroke-linecap="round" stroke-linejoin="round"/>
<path d="M49.8594 23.9248H64.4998V50.9748H49.8594" stroke="white" stroke-miterlimit="10" stroke-linecap="round" stroke-linejoin="round"/>
<path d="M58.5039 29.0838C58.5039 28.2472 59.2011 27.4106 60.1771 27.4106C61.1531 27.4106 61.8503 28.1078 61.8503 29.0838V32.1514H58.6433V29.0838H58.5039Z" stroke="white" stroke-miterlimit="10" stroke-linecap="round" stroke-linejoin="round"/>
<path d="M52.5078 29.0838C52.5078 28.2472 53.205 27.4106 54.181 27.4106C55.157 27.4106 55.8542 28.1078 55.8542 29.0838V32.1514H52.6472V29.0838H52.5078Z" stroke="white" stroke-miterlimit="10" stroke-linecap="round" stroke-linejoin="round"/>
<path d="M58.5039 36.1947C58.5039 35.3581 59.2011 34.5215 60.1771 34.5215C61.1531 34.5215 61.8503 35.2186 61.8503 36.1947V39.2622H58.6433V36.1947H58.5039Z" stroke="white" stroke-miterlimit="10" stroke-linecap="round" stroke-linejoin="round"/>
<path d="M52.5078 36.1947C52.5078 35.3581 53.205 34.5215 54.181 34.5215C55.157 34.5215 55.8542 35.2186 55.8542 36.1947V39.2622H52.6472V36.1947H52.5078Z" stroke="white" stroke-miterlimit="10" stroke-linecap="round" stroke-linejoin="round"/>
<path d="M58.5039 43.306C58.5039 42.4694 59.2011 41.6328 60.1771 41.6328C61.1531 41.6328 61.8503 42.33 61.8503 43.306V46.3735H58.6433V43.306H58.5039Z" stroke="white" stroke-miterlimit="10" stroke-linecap="round" stroke-linejoin="round"/>
<path d="M52.5078 43.306C52.5078 42.4694 53.205 41.6328 54.181 41.6328C55.157 41.6328 55.8542 42.33 55.8542 43.306V46.3735H52.6472V43.306H52.5078Z" stroke="white" stroke-miterlimit="10" stroke-linecap="round" stroke-linejoin="round"/>
<path d="M64.4998 23.9246V21.136H49.8594" stroke="white" stroke-miterlimit="10" stroke-linecap="round" stroke-linejoin="round"/>
<path d="M49.86 33.406H43.3066" stroke="white" stroke-miterlimit="10" stroke-linecap="round" stroke-linejoin="round"/>
</svg>
