<svg width="17" height="17" viewBox="0 0 17 17" fill="none" xmlns="http://www.w3.org/2000/svg">
<path d="M13.2278 3.40957C12.5912 2.76655 11.8329 2.25672 10.9973 1.90982C10.1616 1.56291 9.26519 1.38587 8.36037 1.38902C4.56923 1.38902 1.47938 4.47887 1.47938 8.27002C1.47938 9.48513 1.79878 10.6655 2.39592 11.707L1.42383 15.276L5.06916 14.3178C6.07597 14.8663 7.20776 15.158 8.36037 15.158C12.1515 15.158 15.2414 12.0681 15.2414 8.27696C15.2414 6.43693 14.5262 4.70801 13.2278 3.40957ZM8.36037 13.9915C7.33274 13.9915 6.32593 13.7137 5.44411 13.1929L5.2358 13.068L3.06944 13.6373L3.64575 11.5265L3.50688 11.3113C2.93594 10.3996 2.63279 9.34573 2.632 8.27002C2.632 5.11767 5.20109 2.54858 8.35343 2.54858C9.881 2.54858 11.3183 3.14572 12.3945 4.22891C12.9274 4.75936 13.3498 5.39032 13.637 6.0852C13.9243 6.78007 14.0707 7.52505 14.0679 8.27696C14.0818 11.4293 11.5127 13.9915 8.36037 13.9915ZM11.4988 9.71426C11.3252 9.63094 10.4781 9.21433 10.3254 9.15184C10.1657 9.09629 10.0546 9.06852 9.93655 9.23516C9.81851 9.40875 9.49216 9.79758 9.39495 9.90868C9.29775 10.0267 9.19359 10.0406 9.02001 9.95034C8.84642 9.86702 8.29094 9.67954 7.63825 9.09629C7.12443 8.63802 6.7842 8.0756 6.68005 7.90201C6.58284 7.72842 6.66616 7.63816 6.75643 7.54789C6.83281 7.47151 6.93002 7.34653 7.01334 7.24932C7.09666 7.15211 7.13138 7.07574 7.18693 6.96464C7.24247 6.8466 7.2147 6.74939 7.17304 6.66607C7.13138 6.58275 6.7842 5.73564 6.64533 5.38847C6.50646 5.05518 6.36065 5.09684 6.2565 5.0899H5.92321C5.80517 5.0899 5.62464 5.13156 5.46494 5.30515C5.31218 5.47873 4.8678 5.89534 4.8678 6.74245C4.8678 7.58955 5.48577 8.40889 5.56909 8.51998C5.65241 8.63802 6.7842 10.3739 8.50619 11.1168C8.91585 11.2974 9.23525 11.4015 9.48522 11.4779C9.89489 11.6098 10.2698 11.589 10.5684 11.5473C10.9017 11.4987 11.5891 11.1307 11.728 10.728C11.8738 10.3253 11.8738 9.98506 11.8252 9.90868C11.7766 9.8323 11.6724 9.79758 11.4988 9.71426Z" fill="white"/>
</svg>
