<svg width="51" height="51" viewBox="0 0 51 51" fill="none" xmlns="http://www.w3.org/2000/svg">
<path fill-rule="evenodd" clip-rule="evenodd" d="M24.9574 2.44547V4.89095L24.6615 5.049C24.1839 5.304 23.9929 5.86813 23.9929 7.02465C23.9929 7.634 23.9434 8.05896 23.8723 8.05896C23.806 8.05896 23.7518 7.86422 23.7518 7.62606C23.7518 6.68978 23.1201 6.01415 22.2447 6.01415C21.3692 6.01415 20.7376 6.68978 20.7376 7.62606V8.05896H20.1348H19.5319V9.20165V10.3443H20.195H20.8582V11.3667V12.3892H17H13.1418V11.902C13.1418 11.2479 12.8777 10.7788 12.3754 10.541C11.8518 10.2931 11.5383 10.2931 11.0147 10.541C10.5124 10.7788 10.2482 11.2479 10.2482 11.902V12.3892H8.92199H7.59574V11.487V10.5849H8.07801H8.56028V9.44222V8.29953H7.35461H6.14894V7.81238C6.14894 6.51946 4.96243 5.7452 3.85575 6.31606C3.40434 6.54905 3.22011 6.88885 3.13933 7.63797L3.07447 8.23939L1.89894 8.27379L0.723404 8.30819V9.44655V10.5849H1.20567H1.68794V12.329V14.0731H0.843972H0V14.5542V15.0354H0.783688H1.56738V17.5613V20.0873H0.783688H0V20.5083V20.9292H0.783688H1.56738V23.6958V26.4623H0.783688H0V26.8833V27.3042H0.783688H1.56738V29.8903V32.4764H0.783688H0V32.9576V33.4387H0.783688H1.56738V35.8443V38.25H0.783688H0V38.7311V39.2123H0.783688H1.56738V41.4976V43.783H0.783688H0V44.2586V44.7343L0.81383 44.7698L1.62766 44.8054V47.5118V50.2182L0.81383 50.2538C0.000843968 50.2892 0 50.2896 0 50.6447V51H25.5H51V50.6392V50.2783H50.156H49.3121V47.5118V44.7453H50.156H51V44.2642V43.783H50.156H49.3121V41.4976V39.2123H50.156H51V38.7311V38.25H50.156H49.3121V35.8443V33.4387H50.156H51V32.9576V32.4764H50.156H49.3121V29.8903V27.3042H50.156H51V26.8833V26.4623H50.156H49.3121V23.6958V20.9292H50.156H51V20.5083V20.0873H50.156H49.3121V17.5613V15.0354H50.156H51V14.5542V14.0731H50.156H49.3121V12.329V10.5849H49.7943H50.2766V9.44643V8.30795L49.0408 8.27367L47.805 8.23939L47.7423 7.53573C47.6886 6.93347 47.6231 6.7818 47.2882 6.48325C46.729 5.9848 45.8667 5.9848 45.3075 6.48325C44.9726 6.7818 44.9071 6.93347 44.8535 7.53573L44.7908 8.23939L43.555 8.27367L42.3191 8.30795V9.44643V10.5849H42.8014H43.2837V11.487V12.3892H42.0177H40.7518V11.8965C40.7518 11.2768 40.4524 10.7621 39.9552 10.5267C39.4791 10.3013 39.1698 10.2969 38.6626 10.5084C38.1645 10.716 37.8742 11.1559 37.7793 11.8469L37.7048 12.3892H33.9233H30.1418V11.3667V10.3443H30.805H31.4681V9.20165V8.05896H30.8806H30.293L30.233 7.43493C30.0432 5.46422 27.2521 5.56983 27.2491 7.54776C27.2486 7.82898 27.199 8.05896 27.139 8.05896C27.0788 8.05896 27.0111 7.51143 26.9883 6.84218L26.9468 5.6254L26.4344 5.17193C25.9463 4.74011 25.922 4.68635 25.922 4.04319V3.36792H27.6099H29.2979V1.68396V0H27.1277H24.9574V2.44547ZM26.0024 1.04249C25.9582 1.08652 25.922 1.41128 25.922 1.76419V2.40566H27.1277H28.3333V1.68396V0.962264H27.2081C26.5891 0.962264 26.0465 0.998349 26.0024 1.04249ZM25.1021 5.91792C25.0128 6.00705 24.9574 6.44452 24.9574 7.06061V8.05896H25.5H26.0426V7.06061C26.0426 6.00838 25.9436 5.77359 25.5 5.77359C25.3607 5.77359 25.1817 5.83854 25.1021 5.91792ZM4.36502 7.16526C4.16645 7.30407 4.09929 7.47246 4.09929 7.83211V8.31336L4.6117 8.27631C5.12013 8.23963 5.12411 8.23566 5.12411 7.77293C5.12411 7.16213 4.77242 6.88055 4.36502 7.16526ZM21.8468 7.12075C21.7672 7.20014 21.7021 7.44371 21.7021 7.66203C21.7021 8.05223 21.7113 8.05896 22.2447 8.05896C22.7781 8.05896 22.7872 8.05223 22.7872 7.66203C22.7872 7.20495 22.6064 6.97642 22.2447 6.97642C22.1054 6.97642 21.9264 7.04137 21.8468 7.12075ZM28.3574 7.12075C28.2779 7.20014 28.2128 7.44371 28.2128 7.66203C28.2128 8.05223 28.2219 8.05896 28.7553 8.05896C29.2887 8.05896 29.2979 8.05223 29.2979 7.66203C29.2979 7.20495 29.117 6.97642 28.7553 6.97642C28.6161 6.97642 28.437 7.04137 28.3574 7.12075ZM45.8125 7.34316C45.7396 7.47884 45.6971 7.73588 45.7177 7.9145C45.7523 8.21377 45.798 8.23939 46.2979 8.23939C46.7977 8.23939 46.8434 8.21377 46.878 7.9145C46.9354 7.41761 46.7078 7.0967 46.2979 7.0967C46.0652 7.0967 45.8995 7.18078 45.8125 7.34316ZM20.4965 9.20165C20.4965 9.3591 21.1328 9.38208 25.5 9.38208C29.8672 9.38208 30.5035 9.3591 30.5035 9.20165C30.5035 9.0442 29.8672 9.02123 25.5 9.02123C21.1328 9.02123 20.4965 9.0442 20.4965 9.20165ZM1.62766 9.26179C1.43198 9.57754 1.80935 9.62264 4.64896 9.62264C7.51533 9.62264 7.59574 9.61603 7.59574 9.38208C7.59574 9.14813 7.51533 9.14151 4.64896 9.14151C2.81452 9.14151 1.67408 9.18686 1.62766 9.26179ZM43.3662 9.21957C43.3208 9.26492 43.2837 9.37498 43.2837 9.46435C43.2837 9.59726 43.8262 9.62096 46.2677 9.59462C48.8254 9.56707 49.2518 9.53676 49.2518 9.38208C49.2518 9.22763 48.8347 9.19708 46.3502 9.16954C44.7544 9.15185 43.4115 9.17435 43.3662 9.21957ZM21.9048 10.4228C21.8597 10.4679 21.8227 10.9287 21.8227 11.447V12.3892H25.5048H29.1871L29.152 11.3968L29.117 10.4045L25.552 10.3726C23.5912 10.3552 21.95 10.3777 21.9048 10.4228ZM2.53191 12.329V14.0731H4.58156H6.63121V12.329V10.5849H4.58156H2.53191V12.329ZM44.2482 12.329V14.0731H46.2979H48.3475V12.329V10.5849H46.2979H44.2482V12.329ZM11.2799 11.574C11.1767 11.721 11.0922 11.9646 11.0922 12.1153C11.0922 12.3638 11.1481 12.3892 11.695 12.3892C12.2419 12.3892 12.2979 12.3638 12.2979 12.1153C12.2979 11.7428 11.9727 11.3066 11.695 11.3066C11.5699 11.3066 11.3831 11.4269 11.2799 11.574ZM38.9017 11.5266C38.792 11.6476 38.7021 11.8912 38.7021 12.0679C38.7021 12.3742 38.7307 12.3892 39.32 12.3892H39.9379L39.8619 12.0097C39.721 11.3074 39.295 11.0931 38.9017 11.5266ZM7.59574 13.7123V14.0731H14.2269H20.8582V13.7123V13.3514H14.2269H7.59574V13.7123ZM21.8227 13.7123V14.0731H25.5H29.1773V13.7123V13.3514H25.5H21.8227V13.7123ZM30.1418 13.7123V14.0731H36.7128H43.2837V13.7123V13.3514H36.7128H30.1418V13.7123ZM2.65248 17.5613V20.0873H4.64184H6.63121V17.5613V15.0354H4.64184H2.65248V17.5613ZM7.62348 17.5312L7.65603 20.0271H11.4539H15.2518L15.2843 17.5312L15.317 15.0354H11.4539H7.5908L7.62348 17.5312ZM16.1838 17.5312L16.2163 20.0271L16.8493 20.0634L17.4823 20.0999V18.5679C17.4823 16.8165 17.6576 16.2625 18.362 15.7871C18.9203 15.4105 19.9417 15.4107 20.5022 15.7875C21.2517 16.2914 21.3956 16.7057 21.4427 18.4951L21.4847 20.0905L25.4817 20.0588L29.4787 20.0271L29.539 18.4033C29.6068 16.5791 29.7365 16.1929 30.4245 15.7687C30.967 15.4341 31.9809 15.4259 32.5165 15.7518C33.2342 16.1884 33.3306 16.4714 33.3972 18.337L33.4574 20.0271L34.0904 20.0634L34.7234 20.0999V17.5676V15.0354H25.4373H16.1511L16.1838 17.5312ZM35.6879 17.5613V20.0873H39.4858H43.2837V17.5613V15.0354H39.4858H35.6879V17.5613ZM44.276 17.5312L44.3085 20.0271L46.328 20.0601L48.3475 20.093V17.5642V15.0354H46.2955H44.2433L44.276 17.5312ZM19.0927 16.4778C18.5484 16.6968 18.4468 17.0332 18.4468 18.6154V20.097L19.4415 20.062L20.4362 20.0271L20.4726 18.8243C20.5217 17.2007 20.4508 16.8817 19.9775 16.5938C19.5535 16.3359 19.4719 16.3252 19.0927 16.4778ZM31.1494 16.4778C30.6052 16.6968 30.5035 17.0332 30.5035 18.6154V20.097L31.4982 20.062L32.4929 20.0271L32.5303 18.8243C32.576 17.3576 32.4315 16.7872 31.9517 16.5396C31.5566 16.3358 31.5109 16.3323 31.1494 16.4778ZM8.80142 17.862V19.125H9.2234H9.64539V17.862V16.5991H9.2234H8.80142V17.862ZM11.0922 17.862V19.125H11.5745H12.0567V17.862V16.5991H11.5745H11.0922V17.862ZM13.5035 17.862V19.125H13.9858H14.4681V17.862V16.5991H13.9858H13.5035V17.862ZM36.8936 17.862V19.125H37.3759H37.8582V17.862V16.5991H37.3759H36.8936V17.862ZM39.305 17.862V19.125H39.727H40.1489V17.862V16.5991H39.727H39.305V17.862ZM41.5957 17.862V19.125H42.078H42.5603V17.862V16.5991H42.078H41.5957V17.862ZM22.6667 18.0425V19.2453H23.1489H23.6312V18.0425V16.8396H23.1489H22.6667V18.0425ZM25.078 18.0425V19.2453H25.5H25.922V18.0425V16.8396H25.5H25.078V18.0425ZM27.3688 18.0425V19.2453H27.8511H28.3333V18.0425V16.8396H27.8511H27.3688V18.0425ZM2.65248 23.6958V26.4623H4.64184H6.63121V23.6958V20.9292H4.64184H2.65248V23.6958ZM7.65048 21.0808C7.61769 21.1661 7.60551 22.3983 7.62335 23.819L7.65603 26.4021H11.4539H15.2518V23.6958V20.9894L11.4809 20.9576C8.49156 20.9324 7.69774 20.958 7.65048 21.0808ZM16.21 21.0826C16.1776 21.1669 16.1658 22.3983 16.1836 23.819L16.2163 26.4021L25.4699 26.4329L34.7234 26.4637V23.6965V20.9292H25.4963C18.1302 20.9292 16.2572 20.9602 16.21 21.0826ZM35.6879 23.6958V26.4623H39.4858H43.2837V23.6958V20.9292H39.4858H35.6879V23.6958ZM44.3022 21.0826C44.2698 21.1669 44.258 22.3983 44.2758 23.819L44.3085 26.4021L46.328 26.4351L48.3475 26.468V23.6986V20.9292H46.3544C44.8505 20.9292 44.3467 20.9669 44.3022 21.0826ZM22.6667 23.9965V25.2594H23.1489H23.6312V23.9965V22.7335H23.1489H22.6667V23.9965ZM25.078 23.9965V25.2594H25.5H25.922V23.9965V22.7335H25.5H25.078V23.9965ZM27.3688 23.9965V25.2594H27.8511H28.3333V23.9965V22.7335H27.8511H27.3688V23.9965ZM17.7234 23.9965V24.8986H18.2057H18.6879V23.9965V23.0943H18.2057H17.7234V23.9965ZM32.0709 23.9965V24.8986H32.4929H32.9149V23.9965V23.0943H32.4929H32.0709V23.9965ZM2.65248 29.8903V32.4764H4.64184H6.63121V29.8903V27.3042H4.64184H2.65248V29.8903ZM7.67785 27.3828C7.63264 27.4278 7.59574 28.5931 7.59574 29.9722V32.4798L11.4238 32.448L15.2518 32.4163V29.8903V27.3644L11.5059 27.3326C9.44561 27.3152 7.72294 27.3377 7.67785 27.3828ZM16.2099 27.458C16.1774 27.5425 16.1656 28.6928 16.1835 30.014L16.2163 32.4163L16.8399 32.4524L17.4633 32.4883L17.503 30.8669C17.5376 29.4468 17.5739 29.2033 17.7948 28.9063C18.7084 27.6778 20.4057 27.7195 21.1531 28.9886C21.36 29.3399 21.4077 29.6619 21.4429 30.9428L21.4852 32.4764H25.5121H29.539L29.5409 30.9428C29.5427 29.578 29.5726 29.3576 29.8122 28.9406C30.49 27.7612 32.3752 27.6959 33.1194 28.8259C33.2925 29.089 33.3492 29.4889 33.3972 30.7863L33.4574 32.4163L34.0904 32.4526L34.7234 32.489V29.8966V27.3042H25.4963C18.1171 27.3042 16.2572 27.335 16.2099 27.458ZM35.6879 29.8903V32.4764H39.4858H43.2837V29.8903V27.3042H39.4858H35.6879V29.8903ZM44.3286 27.3845C44.2844 27.4285 44.2482 28.5922 44.2482 29.9706V32.4764H46.2979H48.3475V29.8903V27.3042H46.3783C45.2951 27.3042 44.3728 27.3403 44.3286 27.3845ZM19.2028 28.9614C19.0548 28.985 18.8243 29.1433 18.6904 29.3132C18.4771 29.5836 18.4468 29.7995 18.4468 31.0493V32.4764H19.4716H20.4965V31.1473C20.4965 30.2134 20.4438 29.7166 20.3192 29.4764C20.1313 29.1137 19.6474 28.8904 19.2028 28.9614ZM31.1494 28.9883C30.6104 29.203 30.5035 29.5466 30.5035 31.0647V32.4862L31.4982 32.4512L32.4929 32.4163V31.0054C32.4929 29.6582 32.4793 29.5813 32.1915 29.3037C31.8263 28.9514 31.4944 28.851 31.1494 28.9883ZM8.80142 30.3715V31.6344H9.2234H9.64539V30.3715V29.1085H9.2234H8.80142V30.3715ZM11.0922 30.3715V31.6344H11.5745H12.0567V30.3715V29.1085H11.5745H11.0922V30.3715ZM13.5035 30.3715V31.6344H13.9858H14.4681V30.3715V29.1085H13.9858H13.5035V30.3715ZM22.6667 30.3715V31.6344H23.1489H23.6312V30.3715V29.1085H23.1489H22.6667V30.3715ZM25.078 30.3715V31.6344H25.5H25.922V30.3715V29.1085H25.5H25.078V30.3715ZM27.3688 30.3715V31.6344H27.8511H28.3333V30.3715V29.1085H27.8511H27.3688V30.3715ZM36.8936 30.3715V31.6344H37.3759H37.8582V30.3715V29.1085H37.3759H36.8936V30.3715ZM39.305 30.3715V31.6344H39.727H40.1489V30.3715V29.1085H39.727H39.305V30.3715ZM41.5957 30.3715V31.6344H42.078H42.5603V30.3715V29.1085H42.078H41.5957V30.3715ZM2.65248 35.8443V38.25H4.64184H6.63121V35.8443V33.4387H4.64184H2.65248V35.8443ZM7.59574 35.846V38.2534L11.4238 38.2216L15.2518 38.1899L15.2844 35.8143L15.3171 33.4387H11.4564H7.59574V35.846ZM16.1836 35.8143L16.2163 38.1899L25.4699 38.2207L34.7234 38.2514V35.8451V33.4387H25.4372H16.151L16.1836 35.8143ZM35.6879 35.8443V38.25H39.4858H43.2837V35.8443V33.4387H39.4858H35.6879V35.8443ZM44.2482 35.8443V38.25H46.2979H48.3475V35.8443V33.4387H46.2979H44.2482V35.8443ZM22.6667 35.7842V37.0472H23.1489H23.6312V35.7842V34.5212H23.1489H22.6667V35.7842ZM25.078 35.7842V37.0472H25.5H25.922V35.7842V34.5212H25.5H25.078V35.7842ZM27.3688 35.7842V37.0472H27.8511H28.3333V35.7842V34.5212H27.8511H27.3688V35.7842ZM17.7234 35.7842V36.6863H18.2057H18.6879V35.7842V34.8821H18.2057H17.7234V35.7842ZM32.0709 35.7842V36.6863H32.4929H32.9149V35.7842V34.8821H32.4929H32.0709V35.7842ZM2.65248 41.4976V43.783H4.64184H6.63121V41.4976V39.2123H4.64184H2.65248V41.4976ZM7.59574 41.4976V43.783H8.19858H8.80142V42.7005V41.6179H9.2234H9.64539V42.7005V43.783H10.3688H11.0922V42.7005V41.6179H11.5745H12.0567V42.7005V43.783H12.7801H13.5035V42.7005V41.6179H13.9858H14.4681V42.7005V43.783H14.8901H15.3121V41.4976V39.2123H11.4539H7.59574V41.4976ZM16.185 44.7152L16.2163 50.2182H18.7482H21.2801L21.3404 47.0908C21.4002 43.9907 21.4035 43.9582 21.7215 43.3572C22.1117 42.6196 22.9706 41.8073 23.7306 41.4569C24.1781 41.2506 24.5181 41.1974 25.3794 41.1993C26.3824 41.2016 26.5223 41.2329 27.2282 41.6124C28.0694 42.0648 28.6667 42.7082 29.0846 43.6122C29.3422 44.1695 29.3603 44.3809 29.3958 47.2412L29.4335 50.2783H32.0784H34.7234V44.7453V39.2123H25.4385H16.1536L16.185 44.7152ZM35.6879 41.4976V43.783H36.2908H36.8936V42.7005V41.6179H37.3759H37.8582V42.7005V43.783H38.5816H39.305V42.7005V41.6179H39.727H40.1489V42.7005V43.783H40.8723H41.5957V42.7005V41.6179H42.078H42.5603V42.7005V43.783H42.922H43.2837V41.4976V39.2123H39.4858H35.6879V41.4976ZM44.2482 41.4976V43.783H46.2979H48.3475V41.4976V39.2123H46.2979H44.2482V41.4976ZM24.3242 42.2707C23.7693 42.4683 23.1218 42.9497 22.8167 43.3919C22.2843 44.1631 22.2447 44.4404 22.2447 47.3915V50.2182L25.357 50.2503L28.4692 50.2824L28.4315 47.3033C28.396 44.5177 28.3767 44.293 28.133 43.8432C27.3729 42.4407 25.7402 41.7666 24.3242 42.2707ZM17.7234 43.0613V43.9033H18.2057H18.6879V43.0613V42.2193H18.2057H17.7234V43.0613ZM32.0709 43.0613V43.9033H32.4929H32.9149V43.0613V42.2193H32.4929H32.0709V43.0613ZM2.6133 44.8244C2.56857 44.8691 2.53191 46.0874 2.53191 47.5319V50.158H8.92428H15.3166L15.2842 47.4817L15.2518 44.8054L8.97323 44.7743C5.52018 44.7572 2.65815 44.7797 2.6133 44.8244ZM35.6879 47.4517V50.158H42.0177H48.3475V47.4517V44.7453H42.0177H35.6879V47.4517Z" fill="white"/>
</svg>
