<svg width="53" height="46" viewBox="0 0 53 46" fill="none" xmlns="http://www.w3.org/2000/svg">
<path fill-rule="evenodd" clip-rule="evenodd" d="M11.0454 0.331097C9.44837 0.740394 7.13325 1.86001 5.76136 2.8863C4.45859 3.86089 3.10907 5.2613 2.05066 6.73721C0.925127 8.30684 0.953091 8.23743 1.54515 7.99048C3.5641 7.14875 7.85728 5.414 7.92187 5.414C7.96528 5.414 7.70614 5.75614 7.34592 6.17416C5.16517 8.7053 3.89556 12.0233 3.44226 16.3759C3.24677 18.2537 3.35889 22.7839 3.6488 24.7151C3.76931 25.5183 3.80554 26.1197 3.73482 26.1431C3.66757 26.1655 3.33852 26.3638 3.00374 26.584C1.74637 27.4108 0.69528 28.8915 0.207222 30.5234C-0.0600452 31.4171 -0.0705654 33.2596 0.186048 34.2167C0.612982 35.8092 1.724 37.3515 3.1132 38.2803L3.78423 38.7289H2.22391C0.688088 38.7289 0.662255 38.7339 0.583286 39.0459C0.539208 39.2203 0.523095 39.5029 0.547464 39.6739L0.591809 39.9848L3.0887 40.0208L5.58558 40.0567V39.7045V39.3522L6.40416 39.4372C6.85427 39.4839 7.69322 39.5221 8.26851 39.5221C9.22545 39.5221 9.31427 39.5446 9.31427 39.7865C9.31427 40.0471 9.40309 40.0509 15.3734 40.0509C21.3437 40.0509 21.4325 40.0471 21.4325 39.7865C21.4325 39.5303 21.5213 39.5221 24.2956 39.5221C27.0699 39.5221 27.1587 39.5303 27.1587 39.7865C27.1587 40.0485 27.2475 40.0509 37.1462 40.0509H47.1338V39.7369C47.1338 39.4653 47.2572 39.3837 48.0529 39.1296C51.0038 38.1877 52.9931 35.4529 52.9931 32.3384C52.9931 30.5476 52.2205 28.7318 50.8868 27.3881L50.0427 26.5375L50.2631 24.9985C50.6059 22.6045 50.672 18.6803 50.4074 16.4205C49.9263 12.31 48.7958 9.32136 46.7886 6.85315C46.3223 6.27979 45.9638 5.8106 45.992 5.8106C46.0201 5.8106 47.5591 6.43314 49.4117 7.1941C51.2645 7.95518 52.7938 8.56437 52.8102 8.54811C52.8847 8.47408 51.0394 6.04473 50.2582 5.1882C48.534 3.29811 45.8767 1.65801 43.2053 0.835315C41.5388 0.322107 39.8742 0.31748 38.5761 0.822623C35.9371 1.84944 32.9583 4.77811 30.567 8.69723C29.7551 10.0278 28.8437 11.7597 28.9552 11.7597C28.9931 11.7597 30.4694 11.1305 32.236 10.3615C34.0026 9.5925 35.491 9.0124 35.5436 9.07255C35.5962 9.13257 36.2924 11.6371 37.0907 14.6383C37.8892 17.6394 38.5555 20.0488 38.5715 19.9924C38.5876 19.9361 38.9042 17.1535 39.2749 13.8088C39.6456 10.4641 39.995 7.51931 40.0509 7.26482L40.1529 6.80212L40.9575 8.25634C41.4 9.05616 42.8313 11.6584 44.1382 14.0392C45.4451 16.4199 46.5388 18.3435 46.5688 18.3137C46.7384 18.1453 44.7135 9.91455 43.8262 7.16567C43.5387 6.2749 43.3446 5.5462 43.395 5.5462C43.5875 5.5462 45.2268 6.98363 45.7257 7.58991C47.5494 9.80667 48.7085 12.9286 49.1366 16.7775C49.3255 18.4759 49.2454 22.9626 48.9948 24.7155C48.9065 25.3335 48.8253 25.8499 48.8144 25.8631C48.8034 25.8763 48.3772 25.7722 47.8671 25.6318C47.3571 25.4914 46.8636 25.3765 46.7705 25.3765C46.6375 25.3765 46.6011 26.184 46.6011 29.1442V32.912H45.1363H43.6714V29.5387V26.1655L44.3925 24.2837C44.7891 23.2487 45.1551 22.2979 45.2058 22.1706C45.2923 21.9533 45.0431 21.9392 41.0735 21.9392H36.849L36.2319 21.4924C32.5787 18.8468 25.9655 18.0677 21.0049 19.6986C19.6429 20.1463 18.1528 20.8651 17.2865 21.4924C16.7967 21.847 16.5425 21.9392 16.0547 21.9392C15.6425 21.9392 15.44 21.8832 15.44 21.7692C15.44 21.4867 18.3217 8.72248 18.404 8.64091C18.4459 8.59927 20.418 9.40848 22.7863 10.4394C25.1544 11.4703 27.1747 12.3471 27.2755 12.3878C27.3763 12.4285 27.0217 11.8131 26.4873 11.0202C21.8155 4.08696 16.7912 -0.0327225 13.0483 0.000195795C12.6425 0.00376525 11.7412 0.152624 11.0454 0.331097ZM11.4449 1.57274C9.76451 2.04086 8.36305 2.67702 7.05042 3.5674C6.27179 4.09555 5.15372 5.05996 5.39915 4.99188C5.95619 4.83733 13.9694 1.49381 13.9719 1.41489C13.9779 1.22756 12.31 1.33187 11.4449 1.57274ZM13.5744 2.57324C12.6634 3.6799 11.904 5.18582 11.0749 7.52923C10.779 8.36541 10.4712 9.22802 10.3909 9.44616C10.254 9.81778 10.2579 9.82611 10.4505 9.57928C10.5635 9.43426 11.5677 7.66183 12.6818 5.64046C13.796 3.61896 14.7217 2.04205 14.7388 2.13618C14.756 2.23031 14.9845 4.89405 15.2467 8.05552C15.5091 11.2171 15.7437 13.824 15.7685 13.8485C15.8132 13.8929 15.9091 13.4896 16.886 9.1454C17.1686 7.88935 17.429 6.83266 17.4646 6.79709C17.5005 6.76166 18.8991 7.3263 20.5729 8.05209C22.2468 8.77774 23.6312 9.35666 23.6495 9.33841C23.6677 9.3203 23.1639 8.68269 22.5298 7.9216C21.0961 6.2006 19.2693 4.39393 17.957 3.39898C16.8828 2.58448 15.0524 1.58014 14.6423 1.58014C14.4918 1.58014 14.0655 1.97648 13.5744 2.57324ZM39.9437 1.81149C39.9445 1.89386 48.005 5.2617 48.505 5.38848C48.8092 5.46569 47.7297 4.58813 46.6483 3.87913C45.3471 3.0259 44.1251 2.46537 42.6245 2.03307C41.5709 1.72953 39.9417 1.59495 39.9437 1.81149ZM38.2889 2.36767C36.9012 3.0924 35.4377 4.38031 33.9261 6.20721C33.1326 7.16633 31.9363 8.87914 32.0094 8.95159C32.0413 8.98319 33.0383 8.58486 34.2251 8.0665C35.4119 7.54813 36.3986 7.14082 36.4178 7.16131C36.437 7.18193 36.7923 8.47659 37.2074 10.0384C37.6224 11.6003 37.9799 12.8957 38.0017 12.9174C38.0568 12.9722 38.1237 12.4302 38.6898 7.33093C38.9641 4.85875 39.2272 2.79071 39.2745 2.73519C39.3217 2.6798 40.1309 4.03606 41.0729 5.74913C42.015 7.4622 42.8627 8.96507 42.9566 9.08895C43.1944 9.402 42.2986 6.58412 41.7372 5.25271C41.2278 4.04452 39.6694 1.97675 39.2683 1.97675C39.1415 1.97675 38.7007 2.15271 38.2889 2.36767ZM9.74826 5.66373C7.11035 7.73388 5.36506 11.3692 4.7923 15.9867C4.59389 17.5872 4.62824 21.8618 4.85449 23.724C4.96063 24.5965 5.04865 25.3626 5.05012 25.4266C5.05171 25.4905 5.35254 25.5033 5.71875 25.455L6.38459 25.3674V29.1398V32.912H8.18235H9.9801L9.97132 29.5739L9.96253 26.2358L9.13076 24.1206L8.299 22.0053L11.6697 21.97L15.0405 21.9347L15.039 21.6395C15.0382 21.4772 14.7688 18.1318 14.4403 14.2054C14.1118 10.279 13.8428 6.92084 13.8425 6.74263C13.8422 6.5467 13.7949 6.46831 13.7229 6.54432C13.6574 6.61347 11.8502 9.85268 9.70698 13.7427C6.12025 20.2526 5.44602 21.4357 5.63872 20.8816C5.67667 20.7726 6.13303 19.1663 6.65292 17.3122C7.83212 13.106 8.9912 9.38958 9.85439 7.0463C10.2197 6.05478 10.4952 5.22032 10.4667 5.19203C10.4382 5.16374 10.115 5.37606 9.74826 5.66373ZM24.69 20.2354C23.1918 20.392 21.2529 20.9046 20.0891 21.4519L19.1021 21.9162H26.7592H34.4163L33.4293 21.4519C31.1241 20.3678 27.8225 19.9081 24.69 20.2354ZM10.2464 23.3262C10.2464 23.3617 10.4861 24.0168 10.7791 24.7816L11.3118 26.1722V29.542V32.912H11.8486C12.243 32.912 12.4051 32.8507 12.4591 32.6807C12.8231 31.538 13.6398 30.5872 14.6157 30.1699C15.3558 29.8535 16.7098 29.8863 17.4427 30.2385C18.2571 30.6299 18.9913 31.4066 19.2914 32.1944C19.4829 32.6973 19.6124 32.8549 19.8589 32.885C20.1493 32.9207 20.1928 32.8537 20.3407 32.1432C21.0785 28.5967 24.7952 26.2629 28.2732 27.1623C30.9457 27.8533 32.6211 29.6797 33.2143 32.5485C33.2712 32.8236 33.3673 32.912 33.6094 32.912C33.8614 32.912 33.9646 32.8064 34.0939 32.4162C34.5047 31.1765 35.5297 30.2681 36.8172 30.0028C38.5089 29.6542 40.2285 30.6096 40.8782 32.2593C41.1025 32.8288 41.1262 32.8459 41.6912 32.8459H42.2732L42.3448 29.2104L42.4166 25.5748L42.9019 24.418L43.3871 23.2613H41.9978H40.6086V23.9223V24.5833H27.0921H13.5756V23.9223V23.2613H11.911C10.9955 23.2613 10.2464 23.2905 10.2464 23.3262ZM4.0515 27.4782C2.12776 28.5738 0.968806 31.0342 1.32729 33.2618C1.53077 34.5258 2.03667 35.4888 3.00334 36.4516C3.90568 37.3503 4.82573 37.8496 5.97976 38.0668C7.017 38.2622 46.0899 38.2486 47.0274 38.0525C48.803 37.6813 50.4153 36.4102 51.1529 34.8001C52.0109 32.9269 51.7723 30.636 50.5471 28.9838C49.9858 28.2269 48.5298 27.0951 48.1174 27.0951C47.9646 27.0951 47.9328 27.7103 47.9328 30.6646V34.234H26.4929H5.05291V30.6646C5.05291 27.8965 5.01549 27.0954 4.88645 27.0963C4.79497 27.0971 4.41917 27.269 4.0515 27.4782ZM25.0718 28.5328C23.3247 29.1769 21.952 30.697 21.6172 32.3585L21.5324 32.7798H26.7451H31.9578L31.8751 32.4162C31.6928 31.6151 31.0083 30.381 30.4247 29.8018C29.4896 28.8734 28.2975 28.3734 26.8946 28.3213C26.0245 28.2889 25.6001 28.3382 25.0718 28.5328ZM15.2226 31.3372C14.8187 31.4534 13.842 32.3807 13.842 32.648C13.842 32.7301 14.6451 32.7798 15.9726 32.7798C17.3002 32.7798 18.1033 32.7301 18.1033 32.648C18.1033 32.5754 17.8877 32.2792 17.6242 31.9896C16.9718 31.2728 16.1872 31.0597 15.2226 31.3372ZM36.5124 31.4723C35.9704 31.7387 35.4151 32.327 35.4151 32.6349C35.4151 32.7339 36.091 32.7798 37.5492 32.7798H39.6832L39.4937 32.416C39.2426 31.9337 38.9058 31.6435 38.3109 31.3967C37.6477 31.1216 37.1866 31.141 36.5124 31.4723ZM51.1288 39.3899V40.0509L52.0277 40.051H52.9266L52.8804 39.39L52.8343 38.7289H51.9815H51.1288V39.3899ZM0.52709 42.067C0.528022 42.2307 0.565042 42.4982 0.609121 42.6619L0.689421 42.9594H7.46551H14.2415V42.3644V41.7695H7.38334H0.525225L0.52709 42.067ZM18.1033 42.3644V42.9594H27.8245H37.5457V42.3644V41.7695H27.8245H18.1033V42.3644ZM40.7418 42.3644V42.9594H44.6702H48.5986V42.3644V41.7695H44.6702H40.7418V42.3644ZM51.7138 41.9787C51.7583 42.0937 51.7946 42.3614 51.7946 42.5736C51.7946 42.9441 51.8189 42.9594 52.4095 42.9594C52.982 42.9594 53.0187 42.9389 52.9439 42.6619C52.8998 42.4982 52.8628 42.2307 52.8618 42.067C52.8601 41.8018 52.7934 41.7695 52.2465 41.7695C51.7418 41.7695 51.6474 41.8066 51.7138 41.9787ZM0.575163 45.0911C0.620973 45.3184 0.658393 45.6158 0.658393 45.7521C0.658393 45.9889 0.83444 46 4.58683 46H8.51526V45.339V44.678H4.5036H0.491933L0.575163 45.0911ZM14.2415 45.339V46H20.5003H26.7592V45.339V44.678H20.5003H14.2415V45.339ZM32.6185 45.339V46H37.8121H43.0056V45.339V44.678H37.8121H32.6185V45.339ZM46.4679 45.339V46H47.6665H48.865V45.339V44.678H47.6665H46.4679V45.339ZM51.1288 45.339V46H52.061C53.084 46 53.0914 45.9921 52.9099 45.0911C52.8271 44.6802 52.822 44.678 51.9777 44.678H51.1288V45.339Z" fill="white"/>
</svg>
