<svg width="54" height="47" viewBox="0 0 54 47" fill="none" xmlns="http://www.w3.org/2000/svg">
<path fill-rule="evenodd" clip-rule="evenodd" d="M26.6754 0.214642C26.5362 0.357009 26.4654 0.678768 26.4654 1.16844C26.4654 1.86347 26.4435 1.91252 26.0978 1.99081C24.6987 2.30737 23.8989 2.76685 23.0035 3.76833C22.6295 4.18655 22.2063 4.85179 22.0322 5.29474C21.7348 6.05248 21.7224 6.2439 21.6807 10.7594L21.6374 15.439H20.7766H19.9158V12.6668C19.9158 9.70837 19.7796 8.7532 19.2215 7.79558C18.8498 7.15807 18.2371 6.48245 17.5846 5.99072C17.0875 5.61609 17.06 5.55775 17.0917 4.94579C17.149 3.84225 16.7218 3.09517 15.7387 2.57981C15.3813 2.39249 15.2375 2.22772 15.2375 2.0057C15.2375 1.61672 15.0018 1.36628 14.636 1.36628C14.2703 1.36628 14.0345 1.61672 14.0345 2.00488C14.0345 2.21843 13.8984 2.38593 13.6001 2.54005C12.5528 3.08123 12.1294 3.78036 12.1795 4.88609C12.213 5.62634 12.1991 5.66022 11.7455 5.95384C11.0064 6.4319 10.067 7.5931 9.73139 8.44333C9.43065 9.20572 9.42316 9.34275 9.3832 14.8627L9.34243 20.5031L8.91496 20.161C8.51397 19.8401 8.48737 19.7647 8.48737 18.9514C8.48737 17.875 8.05469 17.1073 7.22891 16.7179C6.84315 16.5359 6.68876 16.379 6.68636 16.166C6.68208 15.8003 6.34818 15.439 6.01456 15.439C5.67304 15.439 5.34623 15.8039 5.34623 16.1854C5.34623 16.4023 5.24905 16.5273 5.0384 16.5813C4.59676 16.6947 3.77766 17.5796 3.59721 18.1384C3.51247 18.4009 3.47745 18.8716 3.51942 19.1846C3.5928 19.7318 3.57075 19.7757 2.94198 20.3291C2.51078 20.709 2.13772 21.2175 1.84566 21.8237L1.40309 22.7425L1.36674 34.1881L1.33038 45.6337H0.87498C0.11723 45.6337 -0.266791 46.2983 0.209593 46.7854C0.399131 46.9791 3.0143 47 27.0001 47C50.9858 47 53.601 46.9791 53.7905 46.7854C54.2666 46.2986 53.8829 45.6337 53.1258 45.6337H52.6712L52.634 34.1881L52.597 22.7425L52.1576 21.8305C51.8812 21.2566 51.4848 20.7083 51.0883 20.3515C50.4641 19.7897 50.4584 19.7769 50.4584 18.9325C50.4584 18.2171 50.3969 17.9898 50.075 17.5147C49.861 17.1989 49.464 16.8419 49.1762 16.7063C48.8112 16.5346 48.6598 16.3768 48.6573 16.166C48.6531 15.8003 48.3192 15.439 47.9855 15.439C47.644 15.439 47.3172 15.8039 47.3172 16.1854C47.3172 16.4023 47.22 16.5273 47.0094 16.5813C46.5678 16.6947 45.7487 17.5796 45.5682 18.1384C45.4835 18.4009 45.4494 18.8787 45.4925 19.2005C45.5659 19.7471 45.5407 19.8089 45.1075 20.1467L44.6439 20.5081V15.2014C44.6439 10.8677 44.6062 9.74676 44.4385 9.08822C44.1155 7.82127 43.4448 6.84369 42.3128 5.99072C41.8157 5.61609 41.7881 5.55775 41.8198 4.94579C41.8772 3.84225 41.45 3.09517 40.4669 2.57981C40.1094 2.39249 39.9656 2.22772 39.9656 2.0057C39.9656 1.61672 39.73 1.36628 39.3641 1.36628C38.9984 1.36628 38.7626 1.61672 38.7626 2.00488C38.7626 2.21843 38.6265 2.38593 38.3282 2.54005C37.2809 3.08123 36.8575 3.78036 36.9076 4.88609C36.9412 5.62634 36.9273 5.66022 36.4736 5.95384C35.7308 6.43436 34.7937 7.59569 34.4646 8.44333C34.1886 9.15475 34.158 9.49209 34.1124 12.3307L34.0624 15.439H33.2262H32.3898L32.3031 11.101C32.1906 5.47755 32.0292 4.81695 30.3977 3.29273C29.7358 2.67435 28.5293 2.04942 27.9975 2.04942C27.848 2.04942 27.802 1.8591 27.802 1.23935C27.802 0.378323 27.5981 0 27.1337 0C26.9972 0 26.791 0.0965958 26.6754 0.214642ZM25.9307 3.39862C24.7793 3.7861 23.9157 4.53167 23.3786 5.60174C23.1282 6.10085 23.0597 6.49283 23.0153 7.68532L22.9605 9.15407H26.9332H30.9059L30.8508 7.68532C30.8039 6.43408 30.7442 6.11533 30.447 5.53343C29.7602 4.18833 28.5809 3.40422 27.1337 3.33044C26.6559 3.30612 26.1145 3.33686 25.9307 3.39862ZM13.852 3.97218C13.6036 4.17193 13.4998 4.38316 13.4998 4.68948V5.12355H14.636H15.7721V4.68948C15.7721 4.14748 15.2514 3.68895 14.636 3.68895C14.3985 3.68895 14.0457 3.81643 13.852 3.97218ZM38.5802 3.97218C38.3317 4.17193 38.228 4.38316 38.228 4.68948V5.12355H39.3641H40.5003V4.68948C40.5003 4.14748 39.9795 3.68895 39.3641 3.68895C39.1266 3.68895 38.7738 3.81643 38.5802 3.97218ZM13.7316 6.56278C12.1153 6.97581 10.9248 8.33403 10.7336 9.98313L10.6556 10.657H14.636H18.6164L18.5385 9.9845C18.4421 9.15352 17.9453 8.13401 17.3546 7.55566C16.4897 6.7087 14.8833 6.26849 13.7316 6.56278ZM38.4597 6.56278C36.8435 6.97581 35.6529 8.33403 35.4618 9.98313L35.3837 10.657H39.3641H43.3445L43.2666 9.9845C43.1702 9.15352 42.6734 8.13401 42.0827 7.55566C41.2178 6.7087 39.6114 6.26849 38.4597 6.56278ZM22.9901 12.9797V15.439H27.0001H31.01V12.9797V10.5203H27.0001H22.9901V12.9797ZM24.1357 11.2815C23.9708 11.4502 23.9257 11.8123 23.9257 12.9682C23.9257 14.2208 23.9622 14.474 24.1702 14.6663C24.4879 14.9602 24.7666 14.9526 25.0412 14.6426C25.2178 14.4432 25.2624 14.1004 25.2624 12.9445C25.2624 11.414 25.1388 11.0669 24.5941 11.0669C24.4576 11.0669 24.2514 11.1635 24.1357 11.2815ZM26.5417 11.2815C26.3768 11.4502 26.3317 11.8123 26.3317 12.9682C26.3317 14.2208 26.3682 14.474 26.5762 14.6663C26.8939 14.9602 27.1726 14.9526 27.4472 14.6426C27.6237 14.4432 27.6684 14.1004 27.6684 12.9445C27.6684 11.414 27.5447 11.0669 27.0001 11.0669C26.8636 11.0669 26.6573 11.1635 26.5417 11.2815ZM28.9477 11.2815C28.7828 11.4502 28.7377 11.8123 28.7377 12.9682C28.7377 14.2208 28.7742 14.474 28.9822 14.6663C29.2999 14.9602 29.5786 14.9526 29.8531 14.6426C30.0297 14.4432 30.0744 14.1004 30.0744 12.9445C30.0744 11.414 29.9507 11.0669 29.406 11.0669C29.2696 11.0669 29.0633 11.1635 28.9477 11.2815ZM10.6929 13.7311V15.439H14.636H18.5791V13.7311V12.0233H14.636H10.6929V13.7311ZM35.421 13.7311V15.439H39.3641H43.3073V13.7311V12.0233H39.3641H35.421V13.7311ZM13.5266 13.1436C13.4383 13.2338 13.3662 13.4674 13.3662 13.6628C13.3662 14.2201 13.5999 14.3459 14.636 14.3459C15.672 14.3459 15.9058 14.2201 15.9058 13.6628C15.9058 13.1055 15.672 12.9797 14.636 12.9797C14.0761 12.9797 13.6212 13.0469 13.5266 13.1436ZM38.2547 13.1436C38.1665 13.2338 38.0943 13.4674 38.0943 13.6628C38.0943 14.2201 38.3281 14.3459 39.3641 14.3459C40.4002 14.3459 40.6339 14.2201 40.6339 13.6628C40.6339 13.1055 40.4002 12.9797 39.3641 12.9797C38.8042 12.9797 38.3493 13.0469 38.2547 13.1436ZM10.6929 21.5872V26.3692H11.5617H12.4305V24.3978C12.4305 22.7879 12.469 22.3872 12.6405 22.2117C12.8104 22.0382 13.1901 21.9971 14.6248 21.9971C16.9457 21.9971 16.8415 21.8825 16.8415 24.433V26.3692H17.7103H18.5791V21.5872V16.8052H14.636H10.6929V21.5872ZM19.9158 21.5872V26.3692H20.3836H20.8514V25.7147C20.8514 21.7288 24.7646 18.6075 28.5114 19.605C31.2838 20.3431 33.2823 22.9025 33.2823 25.7147C33.2823 26.3509 33.2936 26.3692 33.6833 26.3692H34.0843V21.5872V16.8052H27.0001H19.9158V21.5872ZM35.421 21.5872V26.3692H36.2898H37.1586V24.3978C37.1586 22.7879 37.1971 22.3872 37.3686 22.2117C37.5385 22.0382 37.9183 21.9971 39.3529 21.9971C41.6739 21.9971 41.5696 21.8825 41.5696 24.433V26.3692H42.4384H43.3073V21.5872V16.8052H39.3641H35.421V21.5872ZM5.15067 18.1904C4.95659 18.4262 4.81598 18.7397 4.83816 18.8873C4.87452 19.1295 4.98827 19.1555 6.01456 19.1555C7.04084 19.1555 7.15459 19.1295 7.19095 18.8873C7.21313 18.7397 7.07252 18.4262 6.87844 18.1904C6.59613 17.8476 6.42317 17.7616 6.01456 17.7616C5.60594 17.7616 5.43298 17.8476 5.15067 18.1904ZM47.1305 18.1568C46.8994 18.4034 46.7769 18.6654 46.8047 18.8537C46.8467 19.1377 46.9161 19.1555 47.9855 19.1555C49.0118 19.1555 49.1256 19.1295 49.1619 18.8873C49.1841 18.7397 49.0435 18.4262 48.8494 18.1904C48.3664 17.6037 47.6619 17.5899 47.1305 18.1568ZM4.99068 20.6902C4.20994 20.9399 3.63985 21.3906 3.19167 22.1131C2.47389 23.2699 2.36455 23.2267 6.01456 23.2267C9.66456 23.2267 9.55522 23.2699 8.83744 22.1131C8.37736 21.3716 7.8165 20.9382 6.98617 20.6827C6.24179 20.4537 5.72423 20.4558 4.99068 20.6902ZM46.9617 20.6902C46.1809 20.9399 45.6108 21.3906 45.1627 22.1131C44.4449 23.2699 44.3355 23.2267 47.9855 23.2267C51.6356 23.2267 51.5262 23.2699 50.8084 22.1131C50.3484 21.3716 49.7875 20.9382 48.9572 20.6827C48.2128 20.4537 47.6952 20.4558 46.9617 20.6902ZM25.7876 20.9455C23.7927 21.524 22.404 23.2649 22.2282 25.4073L22.1493 26.3692H27.0669H31.9844L31.9038 25.3863C31.7535 23.5529 30.6796 21.9804 29.0605 21.2228C28.1782 20.8098 26.6901 20.6838 25.7876 20.9455ZM13.7672 24.8663V26.3692H14.636H15.5048V24.8663V23.3634H14.636H13.7672V24.8663ZM38.4953 24.8663V26.3692H39.3641H40.2329V24.8663V23.3634H39.3641H38.4953V24.8663ZM2.67292 25.4811V26.3692H6.01456H9.35619V25.4811V24.593H6.01456H2.67292V25.4811ZM44.6439 25.4811V26.3692H47.9855H51.3272V25.4811V24.593H47.9855H44.6439V25.4811ZM2.67292 36.6846V45.6337H6.01456H9.35619V36.6846V27.7355H6.01456H2.67292V36.6846ZM10.6929 28.6235V29.5116H11.0938H11.4948V28.6235V27.7355H11.0938H10.6929V28.6235ZM12.8315 28.6235V29.5116H13.3662H13.9008V28.6235V27.7355H13.3662H12.8315V28.6235ZM15.2375 28.6235V29.5116H15.7721H16.3068V28.6235V27.7355H15.7721H15.2375V28.6235ZM17.6435 28.6235V29.5116H18.1113H18.5791V28.6235V27.7355H18.1113H17.6435V28.6235ZM19.9158 28.6235V29.5116H20.5841H21.2524V28.6235V27.7355H20.5841H19.9158V28.6235ZM22.5891 28.6235V29.5116H23.1906H23.7921V28.6235V27.7355H23.1906H22.5891V28.6235ZM25.1287 28.6235V29.5116H25.7302H26.3317V28.6235V27.7355H25.7302H25.1287V28.6235ZM27.6684 28.6235V29.5116H28.2699H28.8714V28.6235V27.7355H28.2699H27.6684V28.6235ZM30.208 28.6235V29.5116H30.8095H31.411V28.6235V27.7355H30.8095H30.208V28.6235ZM32.7477 28.6235V29.5116H33.416H34.0843V28.6235V27.7355H33.416H32.7477V28.6235ZM35.421 28.6235V29.5116H35.822H36.223V28.6235V27.7355H35.822H35.421V28.6235ZM37.5596 28.6235V29.5116H38.0943H38.629V28.6235V27.7355H38.0943H37.5596V28.6235ZM39.9656 28.6235V29.5116H40.5003H41.0349V28.6235V27.7355H40.5003H39.9656V28.6235ZM42.3716 28.6235V29.5116H42.8394H43.3073V28.6235V27.7355H42.8394H42.3716V28.6235ZM44.6439 36.6846V45.6337H47.9855H51.3272V36.6846V27.7355H47.9855H44.6439V36.6846ZM5.55622 29.7263C5.15522 30.1363 5.44313 30.8779 6.00333 30.8779C6.28483 30.8779 6.68288 30.4638 6.68288 30.171C6.68288 29.9081 6.26037 29.5116 5.9802 29.5116C5.86258 29.5116 5.67184 29.6082 5.55622 29.7263ZM47.5272 29.7263C47.1262 30.1363 47.4141 30.8779 47.9743 30.8779C48.2558 30.8779 48.6539 30.4638 48.6539 30.171C48.6539 29.9081 48.2314 29.5116 47.9512 29.5116C47.8336 29.5116 47.6428 29.6082 47.5272 29.7263ZM10.6929 38.2558V45.6337H14.636H18.5791V38.2558V30.8779H14.636H10.6929V38.2558ZM19.9158 38.2558V45.6337H21.5755H23.2352L23.2845 42.5938C23.3263 40.0312 23.3724 39.4625 23.5779 38.9723L23.8218 38.3908L23.3297 37.8342C22.4807 36.8736 22.2637 36.2086 22.2637 34.5669C22.2637 32.9604 22.4724 32.2909 23.2581 31.3762L23.6861 30.8779H21.801H19.9158V38.2558ZM25.8485 31.0988C25.0596 31.3848 24.2064 32.1882 23.8421 32.988C23.2563 34.2737 23.5388 36.2616 24.4208 37.0624C24.676 37.2941 24.7169 37.2893 25.4571 36.943C26.128 36.629 26.354 36.5906 27.2014 36.6462C27.9317 36.694 28.3236 36.7992 28.771 37.0672L29.3671 37.4243L29.7128 37.0544C30.6336 36.0695 30.8865 34.2935 30.2917 32.988C29.5306 31.3174 27.5586 30.479 25.8485 31.0988ZM30.7749 31.2536C30.9672 31.4602 31.2942 31.9675 31.5016 32.3808C31.8449 33.0645 31.8788 33.2617 31.8788 34.5669C31.8788 35.8713 31.8446 36.0696 31.5023 36.7529C31.2951 37.1662 30.9177 37.7238 30.6634 37.9918C30.2033 38.4771 30.2023 38.4815 30.4052 38.978C30.5675 39.3748 30.609 40.1053 30.609 42.5552V45.6337H32.3467H34.0843V38.2558V30.8779H32.2548H30.4254L30.7749 31.2536ZM35.421 38.2558V45.6337H39.3641H43.3073V38.2558V30.8779H39.3641H35.421V38.2558ZM14.1108 33.5519C13.8425 33.8261 13.8425 34.2146 14.1108 34.4888C14.3899 34.774 14.7448 34.7603 15.0163 34.4536C15.3038 34.1288 15.2963 33.844 14.993 33.5633C14.6861 33.2794 14.3814 33.2755 14.1108 33.5519ZM38.7053 33.5519C38.3043 33.9619 38.5922 34.7035 39.1524 34.7035C39.4339 34.7035 39.8319 34.2894 39.8319 33.9966C39.8319 33.7337 39.4094 33.3372 39.1293 33.3372C39.0116 33.3372 38.8209 33.4338 38.7053 33.5519ZM4.0363 37.6C3.92296 37.7159 3.87591 38.5132 3.87591 40.3159C3.87591 42.5228 3.90571 42.8931 4.09699 43.0553C4.25872 43.1925 4.77307 43.2427 6.01456 43.2427C7.25604 43.2427 7.77039 43.1925 7.93212 43.0553C8.1234 42.8931 8.1532 42.5228 8.1532 40.3159C8.1532 38.5132 8.10615 37.7159 7.99281 37.6C7.76972 37.372 4.25939 37.372 4.0363 37.6ZM12.5909 37.6C12.4776 37.7159 12.4305 38.5132 12.4305 40.3159C12.4305 42.5228 12.4603 42.8931 12.6516 43.0553C12.8133 43.1925 13.3277 43.2427 14.5692 43.2427C15.8106 43.2427 16.325 43.1925 16.4867 43.0553C16.678 42.8931 16.7078 42.5228 16.7078 40.3159C16.7078 38.5132 16.6608 37.7159 16.5474 37.6C16.3243 37.372 12.814 37.372 12.5909 37.6ZM37.1854 37.6C37.072 37.7159 37.025 38.5132 37.025 40.3159C37.025 42.5228 37.0548 42.8931 37.2461 43.0553C37.4078 43.1925 37.9221 43.2427 39.1636 43.2427C40.4051 43.2427 40.9194 43.1925 41.0812 43.0553C41.2725 42.8931 41.3023 42.5228 41.3023 40.3159C41.3023 38.5132 41.2552 37.7159 41.1419 37.6C40.9188 37.372 37.4085 37.372 37.1854 37.6ZM46.0073 37.6C45.8939 37.7159 45.8469 38.5132 45.8469 40.3159C45.8469 42.5228 45.8767 42.8931 46.068 43.0553C46.2297 43.1925 46.7441 43.2427 47.9855 43.2427C49.227 43.2427 49.7414 43.1925 49.9031 43.0553C50.0944 42.8931 50.1242 42.5228 50.1242 40.3159C50.1242 38.5132 50.0771 37.7159 49.9638 37.6C49.7407 37.372 46.2304 37.372 46.0073 37.6ZM25.9532 38.2758C25.6147 38.447 25.226 38.7973 25.0175 39.1192C24.6625 39.6672 24.6608 39.6824 24.6181 42.6517L24.5754 45.6337H26.9308H29.2864L29.2459 42.5254C29.2062 39.4734 29.1997 39.4091 28.8794 38.9727C28.4863 38.4371 27.6193 37.9826 26.9912 37.9827C26.7387 37.9827 26.2717 38.1145 25.9532 38.2758ZM5.1079 40.3394L5.14573 41.8765H6.01456H6.88338L6.92121 40.3394L6.95904 38.8023H6.01456H5.07007L5.1079 40.3394ZM13.6625 40.3394L13.7003 41.8765H14.5692H15.438L15.4758 40.3394L15.5136 38.8023H14.5692H13.6247L13.6625 40.3394ZM38.257 40.3394L38.2948 41.8765H39.1636H40.0324L40.0703 40.3394L40.1081 38.8023H39.1636H38.2191L38.257 40.3394ZM47.0789 40.3394L47.1167 41.8765H47.9855H48.8544L48.8922 40.3394L48.93 38.8023H47.9855H47.0411L47.0789 40.3394Z" fill="white"/>
</svg>
