<svg width="18" height="18" viewBox="0 0 18 18" fill="none" xmlns="http://www.w3.org/2000/svg">
<g clip-path="url(#clip0_133_1787)">
<path fill-rule="evenodd" clip-rule="evenodd" d="M14.5032 3.24873C14.6844 3.17246 14.8828 3.14616 15.0776 3.17256C15.2724 3.19895 15.4566 3.27709 15.611 3.39882C15.7653 3.52056 15.8843 3.68144 15.9554 3.86474C16.0265 4.04803 16.0471 4.24703 16.0152 4.44103L14.3522 14.5286C14.1908 15.5016 13.1232 16.0597 12.2308 15.575C11.4843 15.1695 10.3756 14.5447 9.3784 13.8929C8.87978 13.5666 7.35238 12.5216 7.54009 11.7781C7.70141 11.1424 10.2679 8.75338 11.7344 7.33304C12.31 6.77502 12.0475 6.45311 11.3678 6.9664C9.67977 8.24082 6.96961 10.1789 6.07356 10.7244C5.28309 11.2054 4.87099 11.2876 4.37824 11.2054C3.47925 11.0558 2.64552 10.8241 1.96505 10.5418C1.04553 10.1605 1.09026 8.89637 1.96432 8.52827L14.5032 3.24873Z" fill="black"/>
</g>
<defs>
<clipPath id="clip0_133_1787">
<rect width="17.5984" height="17.5985" fill="white"/>
</clipPath>
</defs>
</svg>
