<svg width="18" height="18" viewBox="0 0 18 18" fill="none" xmlns="http://www.w3.org/2000/svg">
<path d="M5.0903 3.66649C5.09011 4.05544 4.93541 4.42838 4.66024 4.70327C4.38508 4.97817 4.01198 5.13249 3.62303 5.13229C3.23408 5.1321 2.86114 4.9774 2.58625 4.70224C2.31136 4.42707 2.15703 4.05397 2.15723 3.66502C2.15742 3.27607 2.31212 2.90313 2.58728 2.62824C2.86245 2.35335 3.23555 2.19902 3.6245 2.19922C4.01345 2.19941 4.38639 2.35411 4.66128 2.62928C4.93617 2.90444 5.0905 3.27754 5.0903 3.66649ZM5.1343 6.21827H2.20122V15.3988H5.1343V6.21827ZM9.76856 6.21827H6.85015V15.3988H9.73922V10.5812C9.73922 7.89745 13.2369 7.64814 13.2369 10.5812V15.3988H16.1333V9.58397C16.1333 5.0597 10.9565 5.22835 9.73922 7.45016L9.76856 6.21827Z" fill="black"/>
</svg>
