<svg width="16" height="16" viewBox="0 0 16 16" fill="none" xmlns="http://www.w3.org/2000/svg">
<path d="M4.55181 3.27915C4.55163 3.627 4.41329 3.96053 4.1672 4.20637C3.92111 4.45221 3.58745 4.59022 3.2396 4.59005C2.89176 4.58987 2.55823 4.45152 2.31239 4.20544C2.06655 3.95935 1.92854 3.62569 1.92871 3.27784C1.92889 2.93 2.06723 2.59647 2.31332 2.35063C2.5594 2.10479 2.89307 1.96678 3.24091 1.96695C3.58876 1.96712 3.92229 2.10547 4.16813 2.35156C4.41397 2.59764 4.55198 2.93131 4.55181 3.27915ZM4.59115 5.56125H1.96806V13.7715H4.59115V5.56125ZM8.73565 5.56125H6.12567V13.7715H8.70941V9.4631C8.70941 7.06297 11.8375 6.84001 11.8375 9.4631V13.7715H14.4278V8.57125C14.4278 4.52512 9.798 4.67595 8.70941 6.66295L8.73565 5.56125Z" fill="white"/>
</svg>
