<svg width="68" height="69" viewBox="0 0 68 69" fill="none" xmlns="http://www.w3.org/2000/svg">
<path fill-rule="evenodd" clip-rule="evenodd" d="M25.7715 0.22209C25.3382 0.444226 24.7727 1.0644 24.7716 1.31835C24.7712 1.40502 24.3657 1.6099 23.8704 1.77353C19.7817 3.12495 16.3503 6.08199 14.4055 9.93001C13.6064 11.5112 13.1106 12.9531 12.8153 14.5554L12.6011 15.7183L11.8318 16.2087C9.1104 17.9435 9.19739 21.9032 11.9964 23.6916L12.4967 24.0114V25.6024C12.4967 26.4775 12.5598 27.5534 12.637 27.9932C13.1211 30.7559 14.9061 34.2335 17.0571 36.6053C17.5049 37.0989 17.8176 37.5476 17.7522 37.6025C17.6867 37.6573 17.303 37.8122 16.8994 37.9464C15.6232 38.3712 12.8775 39.7637 11.5628 40.6533C6.29562 44.2171 2.42325 50.1051 0.619876 57.2923C-0.356321 61.1835 -0.195423 63.1098 1.21571 64.424C2.45193 65.5752 3.91016 65.792 10.3621 65.7833C14.8809 65.7774 15.1936 65.7312 15.6101 65.008C15.8324 64.6224 15.8471 64.4881 15.7159 64.0456C15.4373 63.1064 15.5561 63.1254 9.54921 63.063C3.94991 63.0048 3.43306 62.9542 2.95237 62.4176C2.34693 61.7416 2.66326 59.3518 3.83278 55.7674C5.8867 49.4728 9.34135 44.9564 14.2996 42.0841C14.9529 41.7056 15.5261 41.396 15.5734 41.396C15.6207 41.396 15.6976 41.8997 15.7445 42.5153C15.9326 44.9879 16.7642 47.092 18.4429 49.3437C19.6035 50.9001 19.8426 51.101 20.535 51.101C21.0192 51.101 21.2198 50.9272 24.8747 47.3421C26.9823 45.2746 28.7527 43.5612 28.8089 43.5342C28.865 43.5073 30.3602 44.9107 32.1314 46.6529C33.9028 48.395 35.6764 50.1085 36.0729 50.4607C37.3151 51.564 37.8675 51.3437 39.4376 49.1189C41.0517 46.8317 41.7848 44.9331 41.9382 42.6428C41.9841 41.9572 42.0576 41.3968 42.1017 41.3979C42.3142 41.4029 44.3003 42.5843 45.2352 43.2618C46.5556 44.2187 48.168 45.715 48.0258 45.8514C47.8609 46.0096 46.5501 46.3729 45.5837 46.5282C43.9548 46.7901 43.766 47.1589 43.9026 49.8121C44.0116 51.9279 44.1668 53.0406 44.5901 54.7403C45.1746 57.087 46.3206 59.6427 47.7813 61.8562C48.1868 62.471 48.5188 63.0018 48.5188 63.0356C48.5188 63.0696 43.441 63.0974 37.2349 63.0974H25.9511L25.5611 63.4914C25.0287 64.0293 25.0284 64.684 25.5605 65.2856L25.9496 65.7258L38.3278 65.7629L50.7057 65.8001L51.5833 66.656C53.2968 68.3271 54.9533 69.1413 56.3125 68.9799C58.4549 68.7257 61.1916 66.2426 63.9466 62.0533C66.2428 58.5617 67.4792 55.1508 67.8606 51.2552C68.0804 49.012 68.0411 47.7379 67.7369 47.234C67.4835 46.8138 66.8507 46.5206 66.1936 46.5189C65.6158 46.5173 63.8648 45.9327 62.5648 45.3074C60.8337 44.4746 59.1309 43.2971 57.694 41.9388C56.5553 40.8624 56.1136 40.6215 55.5875 40.7901C55.429 40.841 54.7793 41.3654 54.1437 41.9555C53.5082 42.5455 52.4727 43.3854 51.8427 43.8219L50.6972 44.6155L49.8415 43.735C47.4425 41.2666 44.0743 39.0942 40.8813 37.9557L39.8479 37.5874L40.3886 36.9644C40.686 36.6217 41.311 35.831 41.7776 35.2074C44.2096 31.9561 45.311 28.7638 45.316 24.9515L45.3174 23.9406L45.9237 23.5535C47.2481 22.7082 47.9247 21.2918 47.8233 19.577C47.7306 18.0099 46.9488 16.7364 45.6528 16.0418C45.2808 15.8425 45.05 15.6261 45.05 15.4771C45.05 15.344 44.9573 14.7818 44.844 14.2275C44.1989 11.0728 42.6591 8.15157 40.4433 5.87967C38.798 4.19263 36.3199 2.61032 34.21 1.8997C33.7147 1.73283 33.3095 1.51811 33.3095 1.42267C33.3095 1.13004 32.6131 0.39341 32.1526 0.199041C31.4937 -0.0791676 26.3225 -0.0604316 25.7715 0.22209ZM27.1973 6.24927C27.0271 9.96815 26.7653 11.9578 26.17 14.0588C25.9875 14.703 25.8382 15.2943 25.8382 15.373C25.8382 15.4701 26.8747 15.5161 29.0558 15.5161H32.2732L32.1841 15.2129C31.2526 12.0458 30.9215 9.74993 30.8136 5.71011L30.7334 2.71101H29.0463H27.3593L27.1973 6.24927ZM23.6276 4.70888C20.5462 6.08226 18.092 8.43005 16.6282 11.405C15.9743 12.7339 15.2264 15.2144 15.4185 15.4172C15.4723 15.4741 17.1876 15.5044 19.2303 15.4846L22.9445 15.4488L23.2005 14.7074C23.6636 13.366 24.1021 11.4564 24.2962 9.93594C24.5414 8.01571 24.7126 4.3254 24.5561 4.3382C24.4907 4.34359 24.073 4.51047 23.6276 4.70888ZM33.443 5.7775C33.4433 9.05333 34.0691 12.8782 34.9539 15.0107L35.1637 15.5161H38.7727C40.7576 15.5161 42.3817 15.4633 42.3817 15.3986C42.3817 15.334 42.2387 14.7116 42.0639 14.0155C41.0716 10.0633 38.2528 6.63801 34.5827 4.92481C34.0387 4.671 33.5599 4.46329 33.5184 4.46329C33.4768 4.46329 33.4429 5.05475 33.443 5.7775ZM13.8232 18.2048C13.2148 18.3916 12.9038 18.6165 12.6982 19.018C12.2725 19.8499 12.5457 20.9097 13.3026 21.3612C13.6386 21.5619 15.0376 21.5817 28.8339 21.5817C45.334 21.5817 44.4642 21.622 44.9746 20.8349C45.2656 20.3861 45.2752 19.3844 44.9925 18.9487C44.8754 18.768 44.6179 18.5131 44.4203 18.3823C44.0831 18.1591 43.148 18.1432 29.1128 18.1223C20.8912 18.1101 14.0109 18.1471 13.8232 18.2048ZM15.0911 24.4242C14.9408 24.6698 15.1784 27.3813 15.4443 28.4561C15.5818 29.0121 16.0226 30.1342 16.4238 30.9497C18.9506 36.0865 24.4565 40.1829 28.8337 40.1829C33.3027 40.1829 38.8994 36.0063 41.387 30.8149C42.2169 29.083 42.5178 27.8805 42.6096 25.9288L42.6873 24.2776H28.9341C19.167 24.2776 15.1548 24.32 15.0911 24.4242ZM19.463 39.9124C19.0018 40.0416 18.5815 40.1909 18.5291 40.2438C18.4767 40.2969 18.4365 41.048 18.4398 41.9128C18.4452 43.3068 18.4915 43.6156 18.8468 44.6332C19.2233 45.7112 20.3725 47.7389 20.599 47.7249C20.6555 47.7212 21.8961 46.5495 23.3558 45.1207L26.0097 42.523L24.9568 42.1459C23.6892 41.6917 22.2978 40.9978 21.3021 40.3228C20.8986 40.0493 20.5083 39.7921 20.4349 39.7514C20.3616 39.7107 19.9242 39.7831 19.463 39.9124ZM36.7116 40.1369C35.7371 40.8046 33.6452 41.8561 32.6109 42.198L31.7122 42.4951L34.3273 45.0795C35.7656 46.5008 36.9924 47.6829 37.0534 47.7063C37.2221 47.7711 37.9578 46.6965 38.4573 45.6557C39.0762 44.3659 39.3502 43.0172 39.2931 41.5423C39.2674 40.881 39.2042 40.2971 39.1524 40.2449C39.1006 40.1927 38.6804 40.0442 38.2185 39.9149L37.3786 39.6799L36.7116 40.1369ZM54.789 44.935C52.5885 46.7399 49.937 48.1747 47.6122 48.8183C46.34 49.1706 46.408 48.985 46.6654 51.399C47.051 55.0166 48.5136 58.5373 51.0439 61.9384C52.9559 64.5086 54.9621 66.3324 55.8772 66.3324C57.091 66.3324 59.5044 63.9801 61.7483 60.6101C63.8348 57.4766 65.0376 54.0219 65.2734 50.4855L65.3639 49.1286L64.4459 48.8803C62.0413 48.2298 59.3237 46.7846 57.1238 44.9866L55.9229 44.005L54.789 44.935ZM59.2483 51.7677C59.0958 51.8315 58.3753 52.5396 57.6473 53.3411C56.9193 54.1424 56.0731 55.0725 55.7672 55.4077L55.2109 56.0172L54.6332 55.5768C53.3876 54.6274 52.8356 54.5453 52.1762 55.2114C51.8284 55.5628 51.7412 56.297 51.991 56.7688C52.1816 57.1284 54.6827 59.0214 55.1108 59.1301C55.3037 59.179 55.6307 59.1481 55.8374 59.0617C56.2543 58.8872 60.5803 54.1336 60.8865 53.5135C61.3566 52.5612 60.2271 51.3572 59.2483 51.7677ZM19.5575 63.4914C19.0464 64.0078 19.0297 64.6635 19.5129 65.2436C19.792 65.5787 19.9602 65.6584 20.3889 65.6584C21.0953 65.6584 21.4183 65.4634 21.6535 64.8947C22.2094 63.5508 20.579 62.4593 19.5575 63.4914Z" fill="white"/>
</svg>
