<svg width="16" height="16" viewBox="0 0 16 16" fill="none" xmlns="http://www.w3.org/2000/svg">
<path d="M13.1988 2.25938C12.487 1.54037 11.6392 0.970291 10.7048 0.582387C9.77032 0.194484 8.768 -0.00347837 7.75626 4.625e-05C3.5171 4.625e-05 0.0621123 3.45503 0.0621123 7.69419C0.0621123 9.05289 0.419257 10.3728 1.08696 11.5374L0 15.5281L4.07611 14.4567C5.2019 15.07 6.46743 15.3961 7.75626 15.3961C11.9954 15.3961 15.4504 11.9411 15.4504 7.70195C15.4504 5.64449 14.6507 3.71125 13.1988 2.25938ZM7.75626 14.0917C6.60718 14.0917 5.4814 13.7812 4.49537 13.1989L4.26245 13.0591L1.84007 13.6958L2.48449 11.3355L2.32921 11.0948C1.69081 10.0754 1.35183 8.89702 1.35094 7.69419C1.35094 4.16932 4.22363 1.29664 7.74849 1.29664C9.45658 1.29664 11.0637 1.96434 12.2672 3.17553C12.863 3.76867 13.3353 4.47419 13.6564 5.25118C13.9776 6.02818 14.1414 6.86119 14.1383 7.70195C14.1538 11.2268 11.2811 14.0917 7.75626 14.0917ZM11.2656 9.3091C11.0715 9.21594 10.1243 8.7501 9.95348 8.68022C9.7749 8.61811 9.65068 8.58705 9.51869 8.77339C9.3867 8.96749 9.02179 9.40227 8.9131 9.5265C8.8044 9.65849 8.68794 9.67401 8.49384 9.57308C8.29974 9.47991 7.67862 9.27029 6.9488 8.61811C6.37426 8.10568 5.99383 7.4768 5.87737 7.2827C5.76867 7.0886 5.86184 6.98766 5.96277 6.88673C6.04817 6.80133 6.15687 6.66157 6.25004 6.55288C6.34321 6.44418 6.38203 6.35878 6.44414 6.23455C6.50625 6.10256 6.47519 5.99387 6.42861 5.9007C6.38203 5.80753 5.99383 4.86032 5.83854 4.47212C5.68326 4.09945 5.52022 4.14603 5.40376 4.13827H5.03109C4.8991 4.13827 4.69723 4.18485 4.51866 4.37895C4.34785 4.57305 3.85096 5.03889 3.85096 5.98611C3.85096 6.93332 4.54195 7.84947 4.63512 7.97369C4.72829 8.10568 5.99383 10.0467 7.9193 10.8774C8.37738 11.0793 8.73453 11.1958 9.01403 11.2812C9.47211 11.4287 9.89137 11.4054 10.2252 11.3588C10.5979 11.3045 11.3665 10.893 11.5218 10.4427C11.6849 9.99234 11.6849 9.6119 11.6305 9.5265C11.5762 9.44109 11.4597 9.40227 11.2656 9.3091Z" fill="black"/>
</svg>
