<svg width="69" height="68" viewBox="0 0 69 68" fill="none" xmlns="http://www.w3.org/2000/svg">
<path fill-rule="evenodd" clip-rule="evenodd" d="M33.4175 0.177299C32.7225 0.405194 18.4861 8.06181 17.9244 8.50967C17.69 8.69655 17.3265 9.199 17.1166 9.62615L16.7351 10.4027L16.6678 19.6611L16.6006 28.9193L9.13385 32.9278C5.02716 35.1326 1.45525 37.1134 1.19627 37.3296C0.93729 37.546 0.574045 38.0195 0.389058 38.382L0.0527201 39.0409L0.0154538 48.3049C-0.0271939 58.9321 -0.0585406 58.5844 1.03577 59.647C1.55239 60.1486 3.00039 60.938 9.00349 63.99C13.0385 66.0416 16.6097 67.7927 16.9397 67.8816C17.2696 67.9703 17.8012 68.0072 18.1209 67.9633C18.8429 67.8644 24.2812 65.1727 24.7063 64.7038C24.8729 64.5203 25.009 64.2194 25.009 64.0353C25.009 63.6378 24.4564 63.0405 24.0884 63.0405C23.9454 63.0405 22.7089 63.6153 21.3406 64.3178C19.9724 65.0203 18.8149 65.5951 18.7685 65.5951C18.7219 65.5951 18.6996 61.5388 18.7186 56.5811L18.7531 47.5669L25.9867 43.8754C29.9652 41.845 33.2803 40.1838 33.3534 40.1838C33.4404 40.1838 33.4747 43.3016 33.4521 49.1584L33.4175 58.133L30.5468 59.612C28.9679 60.4254 27.5905 61.2085 27.4861 61.352C27.3816 61.4955 27.2961 61.7554 27.2961 61.9296C27.2961 62.3266 27.8613 62.9061 28.2488 62.9061C28.4094 62.9061 29.8721 62.2276 31.4991 61.3985L34.4573 59.8909L35.4173 60.394C35.9453 60.6707 39.4721 62.4684 43.2547 64.3891C50.513 68.0745 50.8335 68.2036 51.9478 67.8895C52.2633 67.8007 55.821 66.0477 59.8537 63.9942C67.8456 59.9245 68.2672 59.6576 68.611 58.4516C68.703 58.1285 68.8287 57.8066 68.8903 57.7364C69.0345 57.5717 69.0376 39.2048 68.8934 39.294C68.8335 39.3308 68.7116 39.0888 68.6226 38.756C68.341 37.7035 67.5472 37.089 64.1339 35.2809L61.0969 33.672L61.2904 33.1296C61.8721 31.4987 62.0637 29.0744 61.7419 27.4179C61.5063 26.206 60.7239 25.7129 59.985 26.3108C59.6394 26.5906 59.6192 26.858 59.8264 28.4193C60.3972 32.7202 57.5413 36.8781 53.2614 37.9774C52.2062 38.2485 50.2434 38.2782 49.2254 38.0386C46.8756 37.4856 44.7275 35.8897 43.488 33.7761C42.5156 32.1177 42.1354 29.6464 42.55 27.6798C43.0857 25.1389 44.9122 22.7732 47.2074 21.6475C50.6259 19.9707 54.4907 20.5649 57.3103 23.2007C58.0513 23.8932 58.5726 24.0075 59.0447 23.5806C59.7329 22.9582 59.1776 21.9474 57.4846 20.7401C53.9402 18.2124 49.2528 18.0134 45.5578 20.2338C44.407 20.9255 42.7334 22.5763 42.0136 23.7296C40.2266 26.5934 39.8707 30.3185 41.0829 33.4721C41.1467 33.638 40.5476 34.015 38.3586 35.1863C36.8152 36.0123 35.5106 36.688 35.4595 36.688C35.4082 36.688 35.382 32.6617 35.4009 27.7405L35.4355 18.7932L42.6727 15.1021C46.6531 13.0721 49.9678 11.4111 50.0385 11.4111C50.1144 11.4111 50.1671 12.2014 50.1671 13.3373C50.1671 15.1767 50.1811 15.2765 50.4784 15.5557C50.8629 15.9166 51.381 15.9303 51.8003 15.5907C52.1137 15.3368 52.1179 15.3001 52.1179 12.8008V10.2683L51.7002 9.53217C51.4704 9.12734 51.0769 8.6343 50.8257 8.43666C50.1761 7.92574 35.9276 0.307448 35.291 0.130779C34.6151 -0.0567814 34.0912 -0.0437395 33.4175 0.177299ZM32.0049 3.12811C30.8579 3.74645 27.6613 5.46326 24.9011 6.94304L19.8826 9.63355L27.1668 13.3374L34.451 17.0412L40.0556 14.1768C43.1381 12.6013 46.4106 10.9364 47.3279 10.477L48.9957 9.64148L41.8792 5.82171C37.9621 3.71916 34.6116 2.00234 34.4265 2.00275C34.2415 2.00329 33.1518 2.50963 32.0049 3.12811ZM18.6869 20.1169L18.6879 28.8226L19.1914 29.1062C20.2743 29.7162 33.0654 36.556 33.2698 36.6344C33.4682 36.7105 33.4837 35.9534 33.4521 27.7532L33.4175 18.7889L26.1908 15.0999C22.2161 13.0711 18.9014 11.4111 18.825 11.4111C18.7307 11.4111 18.6861 14.213 18.6869 20.1169ZM55.2122 25.9265C54.9863 26.0184 51.9574 29.1124 50.2779 30.9667L49.7973 31.4974L48.3696 30.1936C47.2257 29.1489 46.8613 28.8898 46.5366 28.8898C45.9906 28.8898 45.5929 29.3107 45.5929 29.8883C45.5929 30.3074 45.763 30.5072 47.481 32.1067C49.1175 33.6305 49.4285 33.8645 49.8165 33.8645C50.2216 33.8645 50.4862 33.6318 52.6069 31.4108C56.6773 27.1479 56.5351 27.3125 56.5351 26.8635C56.5351 26.2011 55.8063 25.6848 55.2122 25.9265ZM13.9771 32.5995C12.0163 33.6626 8.79604 35.3955 6.82119 36.4506C4.84621 37.5055 3.27215 38.4085 3.32327 38.457C3.37426 38.5055 6.63365 40.1843 10.5663 42.1875L17.7164 45.8298L24.9245 42.1665C28.8889 40.1516 32.134 38.4698 32.1359 38.429C32.1405 38.3322 17.8068 30.6333 17.6569 30.6521C17.5938 30.6599 15.938 31.5362 13.9771 32.5995ZM39.3707 36.9236C37.9092 37.7116 36.7152 38.3894 36.7171 38.4297C36.719 38.47 39.9694 40.151 43.9402 42.165L51.1596 45.8268L58.2983 42.1872C62.2245 40.1854 65.4785 38.5073 65.5294 38.4581C65.5803 38.4089 64.4057 37.7193 62.9191 36.9255L60.2162 35.4823L59.1401 36.6318C57.1213 38.7882 54.9562 39.8951 52.2138 40.1729C48.6847 40.5304 45.1264 39.0856 42.8894 36.387C42.5056 35.9241 42.1547 35.533 42.1097 35.5179C42.0646 35.503 40.8321 36.1354 39.3707 36.9236ZM0.0490877 48.587C0.0490877 53.6894 0.0659046 55.7573 0.0863539 53.1821C0.106803 50.607 0.106803 46.4323 0.0862194 43.905C0.06577 41.3777 0.0490877 43.4846 0.0490877 48.587ZM2.00348 48.8626C2.00348 56.2552 2.03295 57.5983 2.20219 57.9255C2.44247 58.3897 2.72163 58.543 10.6483 62.562L16.6697 65.615L16.6351 56.5632L16.6006 47.5114L9.40293 43.8503C5.44422 41.8366 2.15995 40.1879 2.10438 40.1865C2.04896 40.185 2.00348 44.0892 2.00348 48.8626ZM35.3682 49.1217V58.0596L35.6709 58.2472C36.0923 58.5083 50.0038 65.5951 50.0949 65.5951C50.1357 65.5951 50.1534 61.5371 50.1344 56.5773L50.0999 47.5595L42.9022 43.8776C38.9435 41.8524 35.629 40.1929 35.5364 40.1897C35.4035 40.185 35.3682 42.0579 35.3682 49.1217ZM59.4501 43.8567L52.2524 47.5248L52.2179 56.5696L52.1833 65.6145L58.6083 62.3606C66.3384 58.4458 66.3987 58.4126 66.65 57.9268C66.8203 57.5979 66.8495 56.2687 66.8495 48.8626C66.8495 44.0892 66.8042 40.1848 66.7486 40.1862C66.693 40.1877 63.4088 41.8394 59.4501 43.8567Z" fill="white"/>
</svg>
