<svg width="77" height="65" viewBox="0 0 77 65" fill="none" xmlns="http://www.w3.org/2000/svg">
<path fill-rule="evenodd" clip-rule="evenodd" d="M31.7841 2.54244C28.2229 3.93682 25.1878 5.1533 25.0393 5.24588C24.7908 5.40087 24.7695 5.83361 24.7701 10.7156C24.7709 16.687 24.895 17.9066 25.769 20.5306C26.0568 21.3952 26.57 22.657 26.9095 23.3347L27.5265 24.5671L25.9552 24.674C24.3425 24.7838 21.123 25.1721 20.4743 25.3351C20.1599 25.4141 20.1243 25.3825 20.2125 25.1033C20.4583 24.3259 19.6763 22.8408 18.7772 22.3771C18.238 22.0992 9.45122 19.6548 9.0066 19.6591C8.4553 19.6645 7.44767 20.1895 7.02849 20.6898C6.72848 21.0479 5.90523 23.7246 3.27823 32.8819C-0.432099 45.8165 -0.37737 45.5471 0.480414 46.6764C0.713514 46.9836 1.12298 47.335 1.39 47.4577C2.03441 47.7534 10.7094 50.1577 11.1164 50.1534C12.1168 50.1427 13.3584 49.0933 13.6914 47.9771L13.8755 47.3596L14.3892 47.8596C14.8649 48.3227 14.9029 48.432 14.9029 49.3418C14.9029 50.8272 15.5937 51.9328 16.848 52.4546C17.2812 52.6348 17.2924 52.6685 17.2924 53.7847C17.2924 54.807 17.3421 55.0007 17.7551 55.5908C18.0095 55.9543 18.5047 56.3959 18.8555 56.5718L19.4933 56.8918L19.4216 57.8982C19.3617 58.7392 19.409 59.0186 19.7087 59.5991C20.4502 61.0345 22.0423 61.7391 23.5103 61.2811L24.2139 61.0618L24.5421 61.6863C25.263 63.0578 27.0278 63.6756 28.5536 63.0905L29.2462 62.8248L30.1743 63.6876C31.2724 64.7087 32.3496 65.1088 33.64 64.975C35.3036 64.8026 36.9765 63.4712 37.4934 61.9082L37.7464 61.1432L38.5792 61.9074C39.6418 62.8828 40.6162 63.2286 42.0183 63.1275C43.2033 63.042 44.0243 62.6678 44.8471 61.8382C45.467 61.2132 46.0445 60.1605 46.0445 59.6556C46.0445 59.1854 46.1514 59.1527 46.9251 59.3867C48.5741 59.8851 50.0257 59.5005 51.2816 58.2327C52.569 56.933 52.9497 55.3985 52.4301 53.6017C52.3558 53.3448 52.3933 53.2533 52.5729 53.2533C52.7067 53.2533 53.1953 53.1109 53.6584 52.9369C54.6099 52.5794 55.5958 51.7004 56.0515 50.8035C56.356 50.2041 56.3711 50.1966 57.7922 49.936C59.4487 49.6321 61.1197 49.0968 62.3933 48.4623L63.2856 48.0177L63.4638 48.4498C63.8004 49.2657 65.0707 50.1568 65.8975 50.1568C66.4829 50.1568 75.5673 47.5275 75.9353 47.2514C76.6169 46.7405 76.9257 46.1788 76.9949 45.3247C77.0526 44.6121 76.6574 43.0966 73.9553 33.6676C72.2472 27.7067 70.7098 22.3974 70.5389 21.869C70.0093 20.2317 68.7152 19.4253 67.215 19.798C65.4197 20.2439 58.5801 22.1825 58.3008 22.3246C57.3821 22.7916 56.8354 23.6606 56.79 24.7265L56.7591 25.4475L54.3406 26.4907L51.9221 27.5338L50.6637 26.7742C49.9715 26.3565 49.2734 25.9727 49.1123 25.9213C48.705 25.7914 48.7349 25.6588 49.4424 24.4629C50.7098 22.3206 51.5787 19.8305 51.9844 17.1785C52.2246 15.608 52.3157 5.80806 52.0933 5.47348C52.031 5.37981 51.8266 5.22204 51.6391 5.1228C51.0553 4.81422 38.6314 -0.00788653 38.4401 9.68681e-06C38.3405 0.00419004 35.3454 1.14821 31.7841 2.54244ZM34.2508 3.4875C31.9614 4.38225 29.2663 5.43354 28.2616 5.8237L26.4348 6.53328L26.5088 11.6624C26.573 16.1167 26.624 16.9645 26.8963 18.1074C27.3376 19.9598 28.0576 21.8748 28.8195 23.2237C29.465 24.3662 29.4786 24.3784 30.1606 24.4272C30.634 24.4611 31.08 24.3682 31.5856 24.1304L32.3214 23.7842L32.0038 23.307C31.3548 22.3311 30.16 19.6888 29.7576 18.3397C29.3605 17.0077 29.3393 16.7609 29.2767 12.7402L29.2115 8.53427L29.5728 8.30652C29.7715 8.18142 31.8597 7.32878 34.213 6.41205L38.4919 4.74517L42.7693 6.40771C45.1219 7.32212 47.2026 8.17043 47.3935 8.29274C47.737 8.51306 47.7404 8.55037 47.7404 12.1331C47.7404 16.003 47.5927 17.2793 46.9127 19.2857C46.4836 20.5514 45.7488 22.0521 45.0036 23.1845C44.707 23.6351 44.4904 24.0239 44.5221 24.0485C44.5539 24.0731 45.1269 24.2847 45.7954 24.519C46.8066 24.8732 47.0451 24.9101 47.215 24.7387C47.6412 24.3089 48.8279 22.0292 49.2897 20.7528C50.3054 17.9464 50.3908 17.2904 50.4719 11.6663L50.5459 6.54117L49.9525 6.30336C48.0711 5.54935 38.5292 1.85144 38.4763 1.85578C38.4417 1.85856 36.5402 2.59291 34.2508 3.4875ZM37.6425 6.9767C37.2185 7.14547 35.5288 7.81122 33.8874 8.45608L30.9034 9.62844L30.9797 13.0551C31.0432 15.9117 31.1112 16.6878 31.3882 17.7204C31.7648 19.1245 33.0208 21.795 33.6731 22.5785L34.1085 23.1015L34.9196 22.9269C36.2016 22.6508 38.7415 22.7143 40.5676 23.0683C41.4642 23.242 42.2846 23.4176 42.3903 23.4583C42.773 23.6058 44.4651 20.942 45.1007 19.1912C45.8716 17.0685 45.9517 16.4853 45.9598 12.9515L45.9675 9.57595L42.4987 8.21285C40.5909 7.46317 38.8912 6.80933 38.7216 6.75979C38.552 6.71024 38.0664 6.80794 37.6425 6.9767ZM39.5029 14.8539L36.7043 17.6386L35.7087 16.6284C34.8698 15.7768 34.6411 15.6249 34.2543 15.6627C33.6347 15.7232 33.337 16.2933 33.6303 16.8581C33.8876 17.3536 36.3832 19.8105 36.6291 19.8105C37.0995 19.8105 37.8604 19.1514 40.6102 16.3625C42.6099 14.3343 43.5779 13.2441 43.5779 13.0204C43.5779 12.5937 43.056 12.0691 42.6314 12.0691C42.4105 12.0691 41.3782 12.988 39.5029 14.8539ZM8.36897 21.862C7.99882 22.4479 1.62017 44.9289 1.71575 45.3111C1.76339 45.5019 1.93744 45.7304 2.10256 45.8193C2.57523 46.0732 10.6175 48.2987 11.0633 48.2987C11.2833 48.2988 11.5698 48.1768 11.6997 48.0279C11.9475 47.7439 18.453 25.2363 18.4502 24.6729C18.4495 24.4945 18.3274 24.2403 18.1789 24.1079C17.861 23.8243 9.73412 21.5136 9.0547 21.5136C8.7399 21.5136 8.51789 21.6265 8.36897 21.862ZM63.157 22.7036C60.9101 23.342 58.9501 23.9732 58.8018 24.1064C58.6535 24.2395 58.5325 24.4945 58.533 24.6729C58.5334 24.8513 59.4626 28.237 60.5976 32.1968C61.7327 36.1565 63.1984 41.2774 63.8548 43.5766C64.5111 45.8758 65.1537 47.8789 65.2827 48.0279C65.4117 48.1768 65.6908 48.2988 65.9028 48.2988C66.3343 48.2988 74.4289 46.0606 74.8862 45.8149C75.0468 45.7285 75.2174 45.5019 75.265 45.3111C75.3606 44.9289 68.9819 22.4479 68.6118 21.862C68.274 21.3277 67.6771 21.4198 63.157 22.7036ZM34.8275 24.7669C34.2121 24.9288 33.4143 25.1927 33.0546 25.3532C30.4515 26.515 27.4283 29.5839 25.7261 32.7921C25.1916 33.7995 25.0779 34.1628 25.0779 34.8615C25.0779 36.6165 26.3434 37.9436 28.03 37.9571C29.4064 37.9683 29.7483 37.7229 32.4678 34.7718C34.6646 32.388 35.1123 31.9784 36.0021 31.5389C36.9233 31.0839 37.1547 31.0355 38.411 31.0355C40.7925 31.0355 40.6208 30.9049 48.2588 38.5289C51.8933 42.1567 55.1339 45.4587 55.4603 45.8668C55.7866 46.2748 56.173 46.989 56.319 47.4538C56.5339 48.1389 56.6481 48.2988 56.9216 48.2988C57.6445 48.2988 60.2778 47.516 61.5173 46.9328L62.8205 46.3195L60.3864 37.826C59.0476 33.1545 57.8045 28.8351 57.6242 28.2273L57.2959 27.122L54.6688 28.266C53.2238 28.895 51.9228 29.4099 51.7775 29.4099C51.6322 29.4099 51.1653 29.1745 50.74 28.8868C49.9534 28.3549 47.7322 27.163 46.8925 26.8224C44.6109 25.897 41.9702 25.1114 39.7453 24.696C38.0357 24.3769 36.2096 24.4032 34.8275 24.7669ZM10.9716 25.049C9.45415 25.7737 8.82268 27.4024 9.48853 28.8743C10.844 31.8713 15.2951 30.7463 15.025 27.475C14.8571 25.4424 12.7672 24.1915 10.9716 25.049ZM63.5246 25.0612C61.5163 25.9772 61.3092 28.8969 63.1651 30.1303C64.8706 31.2638 67.1574 30.3523 67.6028 28.3617C68.1349 25.9827 65.745 24.0485 63.5246 25.0612ZM25.0779 26.4938C23.087 26.6631 19.835 27.1779 19.6791 27.3486C19.6159 27.4178 18.4105 31.5138 17.0001 36.4506L14.4364 45.4268L15.2086 46.2025L15.981 46.978L17.4847 45.4771C19.1088 43.8559 19.7221 43.4992 20.8862 43.4992C22.352 43.4992 23.7647 44.694 23.9514 46.0918C24.0291 46.6736 24.0795 46.7311 24.5953 46.8258C25.9518 47.0746 27.0688 48.2027 27.319 49.5762C27.4087 50.0691 27.4846 50.1568 27.8214 50.1568C28.4367 50.1568 29.4816 50.736 29.9292 51.3253C30.152 51.6187 30.416 52.2039 30.5158 52.6257C30.684 53.3366 30.7372 53.3995 31.2436 53.4854C32.7506 53.741 33.8851 55.042 33.897 56.5278C33.9068 57.7678 33.5506 58.4099 31.9377 60.0586L30.4765 61.5522L31.1303 62.1844C31.9922 63.0177 32.3052 63.1623 33.2462 63.1623C34.1641 63.1623 34.7492 62.8982 35.3076 62.2318C36.1449 61.2324 36.1541 60.0051 35.3333 58.7966C34.886 58.138 34.8423 57.7133 35.1867 57.3673C35.7433 56.8085 36.1435 57.0387 38.2463 59.1273C40.3159 61.1828 40.7239 61.4592 41.6892 61.4592C43.6833 61.4592 45.0389 59.1171 44.0194 57.4337C43.8389 57.1356 42.1047 55.285 40.1657 53.321C36.5795 49.6884 36.3544 49.3822 36.8826 48.8517C37.5034 48.2284 37.7328 48.403 42.3384 53.0037C44.7583 55.4212 46.8898 57.4766 47.075 57.5712C47.5114 57.7943 48.898 57.793 49.3308 57.5691C49.8443 57.3036 50.3648 56.7865 50.6253 56.2835C50.9346 55.6863 50.9383 54.5322 50.6329 53.9457C50.4986 53.6878 48.4404 51.4931 46.0595 49.0686C41.6406 44.569 41.4257 44.2891 41.9701 43.7424C42.5795 43.1305 42.845 43.3258 46.8827 47.3558C50.1779 50.6448 50.8421 51.2379 51.3947 51.3853C52.8544 51.7749 54.3512 50.8453 54.6703 49.3509C55.0063 47.7775 55.2033 48.0268 47.5221 40.3096C42.8488 35.6146 40.3695 33.2329 39.955 33.0399C39.5794 32.8651 38.9754 32.7503 38.41 32.7458C36.9128 32.7343 36.3581 33.1243 33.5778 36.143C30.6209 39.3534 30.0679 39.7118 28.0946 39.696C26.6189 39.6841 25.6669 39.2984 24.6887 38.3162C23.6947 37.3178 23.315 36.374 23.3096 34.8877C23.3053 33.709 23.3461 33.5495 23.9637 32.333C24.7874 30.7103 26.2785 28.6105 27.531 27.3096L28.49 26.3133L27.5934 26.3348C27.1001 26.3466 25.9682 26.4181 25.0779 26.4938ZM11.3452 26.9207C10.8003 27.4678 10.7767 27.8616 11.2556 28.4207C11.5135 28.7218 11.7625 28.8421 12.1279 28.8421C12.7028 28.8421 13.3612 28.2251 13.3612 27.6862C13.3612 27.2718 12.5474 26.4681 12.1279 26.4681C11.9452 26.4681 11.5931 26.6717 11.3452 26.9207ZM64.2388 26.6672C63.4279 27.0792 63.4372 28.2982 64.2542 28.7226C65.4592 29.3482 66.5197 27.8184 65.5536 26.8482C65.1316 26.4243 64.8052 26.3794 64.2388 26.6672ZM20.2216 45.3494C20.052 45.4194 19.1674 46.2461 18.256 47.1866C16.7632 48.7266 16.5987 48.9524 16.5987 49.4611C16.5987 49.8787 16.716 50.1436 17.0493 50.4783C17.5494 50.9806 18.0755 51.054 18.7262 50.7123C19.3805 50.3687 22.1143 47.4841 22.2319 47.013C22.5133 45.8874 21.3165 44.897 20.2216 45.3494ZM21.3614 50.7207C20.1939 51.8823 19.1572 53.0305 19.0575 53.2724C18.6736 54.2032 19.3902 55.2661 20.4017 55.2661C20.9425 55.2661 21.1327 55.1139 23.2607 52.9767C25.4519 50.7761 25.5404 50.6627 25.5404 50.056C25.5404 49.1828 24.9712 48.6085 24.1057 48.6085C23.5134 48.6085 23.3828 48.7091 21.3614 50.7207ZM26.6966 52.154C25.9891 52.6023 21.4115 57.3041 21.255 57.7433C21.0697 58.2636 21.3017 59.0656 21.723 59.3621C21.9102 59.4937 22.3405 59.6013 22.6793 59.6013C23.2723 59.6013 23.3979 59.4981 26.0268 56.8531C27.7556 55.1136 28.7964 53.9476 28.8625 53.6762C29.0046 53.0928 28.6746 52.3587 28.1472 52.0848C27.5729 51.7866 27.2525 51.8018 26.6966 52.154ZM30.2301 55.344C29.9825 55.4519 28.8953 56.4423 27.8143 57.5453C25.716 59.686 25.5991 59.906 26.0727 60.8258C26.3457 61.3561 27.0763 61.6871 27.6572 61.5437C27.9178 61.4793 28.8798 60.6409 30.1268 59.3909C32.0838 57.4295 32.1695 57.3169 32.1695 56.7091C32.1695 55.6044 31.1998 54.9219 30.2301 55.344Z" fill="white"/>
</svg>
