<svg width="12" height="12" viewBox="0 0 12 12" fill="none" xmlns="http://www.w3.org/2000/svg">
<path d="M3.46585 0H8.48537C10.3976 0 11.9512 1.55366 11.9512 3.46585V8.48537C11.9512 9.40457 11.5861 10.2861 10.9361 10.9361C10.2861 11.5861 9.40457 11.9512 8.48537 11.9512H3.46585C1.55366 11.9512 0 10.3976 0 8.48537V3.46585C0 2.54665 0.365151 1.6651 1.01513 1.01513C1.6651 0.365151 2.54665 0 3.46585 0ZM3.34634 1.19512C2.7758 1.19512 2.22863 1.42177 1.8252 1.8252C1.42177 2.22863 1.19512 2.7758 1.19512 3.34634V8.60488C1.19512 9.79402 2.1572 10.7561 3.34634 10.7561H8.60488C9.17542 10.7561 9.72259 10.5295 10.126 10.126C10.5295 9.72259 10.7561 9.17542 10.7561 8.60488V3.34634C10.7561 2.1572 9.79402 1.19512 8.60488 1.19512H3.34634ZM9.11281 2.09146C9.31091 2.09146 9.5009 2.17016 9.64098 2.31024C9.78106 2.45032 9.85976 2.64031 9.85976 2.83841C9.85976 3.03652 9.78106 3.22651 9.64098 3.36659C9.5009 3.50667 9.31091 3.58537 9.11281 3.58537C8.9147 3.58537 8.72471 3.50667 8.58463 3.36659C8.44455 3.22651 8.36585 3.03652 8.36585 2.83841C8.36585 2.64031 8.44455 2.45032 8.58463 2.31024C8.72471 2.17016 8.9147 2.09146 9.11281 2.09146ZM5.97561 2.9878C6.76803 2.98781 7.52799 3.30259 8.08831 3.86291C8.64863 4.42323 8.96342 5.18319 8.96342 5.97561C8.96342 6.76803 8.64863 7.52799 8.08831 8.08831C7.52799 8.64863 6.76803 8.96342 5.97561 8.96342C5.18319 8.96342 4.42323 8.64863 3.86291 8.08831C3.30259 7.52799 2.9878 6.76803 2.9878 5.97561C2.9878 5.18319 3.30259 4.42323 3.86291 3.86291C4.42323 3.30259 5.18319 2.98781 5.97561 2.9878ZM5.97561 4.18293C5.50016 4.18293 5.04418 4.3718 4.70799 4.70799C4.3718 5.04418 4.18293 5.50016 4.18293 5.97561C4.18293 6.45106 4.3718 6.90704 4.70799 7.24323C5.04418 7.57942 5.50016 7.76829 5.97561 7.76829C6.45106 7.76829 6.90704 7.57942 7.24323 7.24323C7.57942 6.90704 7.76829 6.45106 7.76829 5.97561C7.76829 5.50016 7.57942 5.04418 7.24323 4.70799C6.90704 4.3718 6.45106 4.18293 5.97561 4.18293Z" fill="white"/>
</svg>
