<svg width="48" height="52" viewBox="0 0 48 52" fill="none" xmlns="http://www.w3.org/2000/svg">
<path fill-rule="evenodd" clip-rule="evenodd" d="M28.4646 0.115485C27.5436 0.45301 26.9502 1.29342 26.9502 2.26005L26.9501 2.77371L26.1108 3.06265C25.6491 3.22151 24.9403 3.51279 24.5356 3.70985L23.7997 4.06821L23.4406 3.75315C22.7146 3.11642 22.0671 2.9349 21.2301 3.13369C20.7319 3.25189 20.5772 3.37517 19.0814 4.84683C18.195 5.71894 17.3878 6.59259 17.2878 6.78823C16.8468 7.65028 16.9733 8.57251 17.6447 9.39096L18.0216 9.85045L17.5615 10.8348C17.3086 11.3762 17.02 12.082 16.9203 12.4035L16.7391 12.9879L16.1726 12.9888C15.3943 12.9901 14.6558 13.412 14.2628 14.0798L13.9784 14.5632L13.9458 16.7769C13.9083 19.3229 13.9823 19.7156 14.6162 20.3326C15.0933 20.7971 15.6148 21.0169 16.2391 21.0169H16.7261L16.9608 21.7029C17.0899 22.0803 17.3825 22.7871 17.611 23.2736L18.0264 24.1582L17.7085 24.52C17.5336 24.7189 17.313 25.0297 17.2184 25.2106C16.9863 25.6541 16.9906 26.6494 17.2265 27.1149C17.4449 27.5455 20.2643 30.4168 20.6932 30.6454C21.5293 31.0909 22.4989 30.9803 23.2996 30.3482L23.816 29.9403L24.6963 30.3482C25.1805 30.5725 25.8858 30.8554 26.2634 30.977L26.9502 31.1978L26.9524 31.7227C26.9536 32.0113 27.039 32.4329 27.1421 32.6596C27.3868 33.1978 28.0685 33.7728 28.629 33.9138C29.2082 34.0594 32.7296 34.0594 33.3088 33.9138C33.8693 33.7728 34.5511 33.1978 34.7957 32.6596C34.8988 32.4329 34.9842 32.0138 34.9854 31.7282L34.9876 31.2088L35.671 30.9847C36.0469 30.8614 36.7521 30.576 37.2381 30.3505L38.1218 29.9403L38.6383 30.3482C39.4389 30.9803 40.4085 31.0909 41.2446 30.6454C41.6736 30.4168 44.493 27.5455 44.7113 27.1149C44.9472 26.6494 44.9515 25.6541 44.7194 25.2106C44.6248 25.0297 44.4043 24.7189 44.2294 24.52L43.9114 24.1582L44.3268 23.2736C44.5553 22.7871 44.8479 22.0803 44.977 21.7029L45.2118 21.0169H45.6987C46.3231 21.0169 46.8445 20.7971 47.3216 20.3326C47.9555 19.7156 48.0295 19.3229 47.992 16.7769L47.9594 14.5632L47.675 14.0798C47.2821 13.412 46.5435 12.9901 45.7652 12.9888L45.1987 12.9879L45.0175 12.4035C44.9178 12.0821 44.63 11.3778 44.378 10.8384L43.9197 9.85776L44.3257 9.34462C44.7801 8.77049 45.0175 8.00427 44.9039 7.47873C44.7606 6.81608 44.4432 6.40802 42.8564 4.84683C41.3606 3.37517 41.206 3.25189 40.7077 3.13369C39.8707 2.9349 39.2233 3.11642 38.4972 3.75315L38.1381 4.06821L37.4022 3.70985C36.9975 3.51279 36.2887 3.22151 35.827 3.06265L34.9877 2.77371L34.9876 2.25172C34.9876 1.49109 34.5668 0.733925 33.9232 0.33603L33.4273 0.0296049L31.1299 0.00511127C29.4225 -0.0129795 28.738 0.0153762 28.4646 0.115485ZM29.055 2.07701C29.0165 2.11553 28.985 2.48385 28.985 2.89557C28.985 3.75508 28.8169 4.2476 28.4666 4.41519C28.332 4.47963 27.7578 4.67395 27.1905 4.84723C26.6233 5.02052 25.6223 5.43661 24.9662 5.772C24.3099 6.10729 23.6621 6.3817 23.5263 6.3817C23.3625 6.3817 23.0425 6.15932 22.5754 5.72108C22.1882 5.35774 21.8345 5.06046 21.7895 5.06046C21.7446 5.06046 21.0914 5.67748 20.338 6.4316L18.9682 7.80274L19.5394 8.38804C20.4351 9.30589 20.5115 9.58396 20.0784 10.3469C19.5304 11.3119 18.999 12.5302 18.757 13.3765C18.3244 14.8884 18.2817 14.9265 16.9288 15.0129L16.0132 15.0714V17.0024V18.9334L16.9288 18.9842C18.2417 19.0571 18.3582 19.1462 18.6584 20.3078C18.8845 21.1822 19.4485 22.5306 19.9394 23.3702C20.5066 24.3405 20.4819 24.5298 19.6758 25.3872C19.3121 25.774 19.0145 26.1289 19.0145 26.1756C19.0145 26.2225 19.6338 26.8733 20.3907 27.6221L21.767 28.9834L22.3492 28.4164C22.9912 27.7913 23.2583 27.6234 23.6115 27.6226C23.7411 27.6223 24.4423 27.9182 25.1697 28.2801C25.8972 28.6421 26.5953 28.9656 26.7213 28.9989L26.9502 29.0597V26.8698V24.6799L26.5178 24.4622C24.0241 23.2065 22.1271 20.4346 21.7605 17.5106C21.3719 14.4095 22.8296 11.0931 25.3838 9.26799C26.8178 8.24321 27.8024 8.14056 28.5458 8.93829C28.9822 9.40651 29.0073 9.63112 28.9921 12.9371C28.9751 16.6293 29.015 16.8756 29.739 17.5422C30.565 18.3028 31.3732 18.3024 32.2003 17.5408C32.9236 16.8747 32.9636 16.6277 32.9449 12.9371C32.9281 9.62777 32.9525 9.40976 33.392 8.93829C34.1365 8.13955 35.1173 8.24281 36.5612 9.27205C39.0875 11.0729 40.5549 14.3943 40.1811 17.4654C39.8216 20.4189 37.9305 23.1982 35.42 24.4622L34.9876 24.6799V26.8698V29.0597L35.2165 28.9989C35.3425 28.9656 36.0406 28.6421 36.7681 28.2801C37.4955 27.9182 38.1967 27.6223 38.3263 27.6226C38.6796 27.6234 38.9466 27.7913 39.5886 28.4164L40.1709 28.9834L41.5471 27.6221C42.304 26.8733 42.9233 26.2225 42.9233 26.1756C42.9233 26.1289 42.6257 25.774 42.262 25.3872C41.4559 24.5298 41.4312 24.3405 41.9984 23.3702C42.4893 22.5306 43.0533 21.1822 43.2794 20.3078C43.5796 19.1462 43.6961 19.0571 45.009 18.9842L45.9246 18.9334V17.0024V15.0714L45.009 15.0129C43.6507 14.9262 43.6118 14.8908 43.1749 13.3436C43.0328 12.8405 42.6205 11.8408 42.2587 11.1222C41.8968 10.4035 41.6007 9.72595 41.6007 9.61638C41.6007 9.30102 41.786 9.01573 42.3984 8.38804L42.9696 7.80274L41.5998 6.4316C40.8464 5.67748 40.1932 5.06046 40.1483 5.06046C40.1033 5.06046 39.7497 5.35774 39.3624 5.72108C38.8872 6.16694 38.5764 6.3817 38.4064 6.3817C38.2678 6.3817 37.6353 6.11216 37.0009 5.78287C36.3665 5.45348 35.3678 5.03739 34.7816 4.85811C33.0224 4.32026 33.0377 4.33592 32.9566 2.97698L32.902 2.06227L31.0135 2.03473C29.9748 2.01949 29.0934 2.03859 29.055 2.07701ZM26.3151 11.1086C25.2215 11.9662 24.3026 13.3955 23.9308 14.8173C23.7031 15.6881 23.7024 17.2963 23.9294 18.1712C24.3132 19.6497 25.3514 21.2101 26.5232 22.0693C26.7896 22.2648 27.3825 22.6114 27.8407 22.8399C28.299 23.0683 28.7324 23.3575 28.804 23.4826C28.9013 23.6528 28.9469 24.7485 28.985 27.8264L29.0359 31.9425H30.9689H32.902L32.9528 27.8264C32.992 24.6547 33.0348 23.6555 33.1396 23.4719C33.2144 23.3409 33.5349 23.1171 33.8518 22.9746C36.3207 21.865 37.8367 19.8344 38.1586 17.2057C38.4291 14.9959 37.4215 12.5544 35.654 11.1361C35.321 10.8689 35.0234 10.6503 34.9927 10.6502C34.9619 10.6502 34.9504 11.8631 34.967 13.3457C34.9848 14.9378 34.9533 16.278 34.8901 16.6196C34.5608 18.3987 33.2277 19.7725 31.5285 20.0839C29.9977 20.3644 28.2377 19.4074 27.4622 17.8729C27.0094 16.9769 26.9356 16.2939 26.9701 13.3181C26.9871 11.8507 26.9782 10.6502 26.9502 10.6503C26.9222 10.6504 26.6364 10.8566 26.3151 11.1086ZM1.86433 33.9019C1.09253 34.1744 0.659529 34.5578 0.232426 35.3472C0.0511259 35.6824 0.0383066 36.0393 0.0106334 41.5326C-0.0221268 48.0307 -0.020092 48.0544 0.646914 48.8329C0.845001 49.064 1.24484 49.3714 1.53551 49.5162C2.06374 49.7791 2.06496 49.7792 4.71457 49.7769C7.15968 49.7749 7.4008 49.7587 7.82312 49.5679C8.38147 49.3157 8.89383 48.8405 9.15673 48.3309L9.35339 47.9498H10.5657H11.7782L17.4584 49.4681C20.5826 50.3031 23.7789 51.1666 24.5611 51.3868C26.4181 51.9094 27.3274 52.0555 28.2713 51.9824C29.7639 51.8668 30.9405 51.3741 32.8966 50.0457C34.5365 48.9319 34.8859 48.5936 34.8859 48.1196C34.8859 47.701 34.468 47.1594 34.1228 47.1304C33.6286 47.0889 33.4271 47.1832 32.3321 47.9679C30.3652 49.3775 29.0196 49.9824 27.8511 49.9824C27.2685 49.9824 26.2408 49.773 24.8703 49.3749C24.3076 49.2114 21.1928 48.3665 17.9487 47.4974L12.0501 45.9171H10.7494H9.44872L9.47528 41.7755L9.50183 37.634L10.621 37.5832C11.6393 37.5369 11.8776 37.4846 13.2662 37.0015C14.1056 36.7096 15.2272 36.3958 15.7588 36.3041C18.3276 35.8611 20.4691 36.6258 23.0332 38.902C24.1918 39.9304 23.8719 39.8629 27.8658 39.9207C31.1739 39.9686 31.3963 39.9835 31.7319 40.1805C32.6497 40.7191 32.8081 42.001 32.0561 42.8044C31.5191 43.3781 31.5373 43.3763 26.3888 43.3763C21.2482 43.3763 21.2197 43.3792 20.9674 43.9324C20.7738 44.3568 20.8239 44.6699 21.1427 45.0262L21.4397 45.3581H26.5603H31.6811L32.3653 45.0343C33.1898 44.6442 33.8557 43.9902 34.2381 43.1951C34.4701 42.7125 34.5214 42.459 34.5401 41.6993L34.5627 40.7846L38.7128 38.6569C42.1941 36.8722 42.9458 36.5232 43.3765 36.4916C44.3293 36.4217 45.0599 37.0614 45.0599 37.9655C45.0599 38.807 44.8074 39.081 42.5452 40.6951C40.4493 42.1903 40.3154 42.3263 40.3566 42.9171C40.3926 43.4309 40.8118 43.7828 41.3879 43.7828C41.71 43.7828 41.7981 43.7271 44.1836 42.0166C46.6501 40.2482 47.0437 39.694 47.0437 37.9897C47.0437 37.2123 47.0004 36.9308 46.822 36.5448C46.0864 34.9536 44.1616 34.0882 42.4579 34.5827C42.1263 34.679 39.9887 35.717 37.7077 36.8893L33.5605 39.021L33.163 38.7064C32.9444 38.5334 32.5444 38.29 32.2742 38.1654C31.8044 37.9488 31.6301 37.9366 28.3093 37.8881L24.8357 37.8373L24.2906 37.3221C22.8387 35.95 20.9682 34.8557 19.3197 34.414C18.6078 34.2233 18.2122 34.1841 17.0814 34.1923C15.4599 34.204 14.7689 34.3385 12.7036 35.0449C11.3325 35.5138 11.1542 35.5505 10.2474 35.5505C9.31849 35.5505 9.26661 35.539 9.21106 35.3218C9.11339 34.9396 8.58709 34.3917 8.01195 34.0734L7.46704 33.7719L4.92354 33.7459C2.69534 33.7231 2.31616 33.7424 1.86433 33.9019ZM2.27373 36.0033L2.02396 36.2527V41.7964C2.02396 47.2045 2.02895 47.345 2.22744 47.5432C2.41902 47.7346 2.56654 47.7465 4.75516 47.7465C6.87766 47.7465 7.09406 47.7304 7.24779 47.5606C7.40019 47.3924 7.41606 46.8456 7.41464 41.7929C7.41372 38.723 7.37944 36.1608 7.33833 36.0993C7.13933 35.8016 6.77012 35.7538 4.67123 35.7538C2.52645 35.7538 2.5231 35.7542 2.27373 36.0033ZM37.3565 44.4652C37.0058 44.531 36.6155 45.0631 36.6155 45.4754C36.6155 46.2913 37.7194 46.7546 38.2947 46.1799C39.033 45.4424 38.392 44.2706 37.3565 44.4652Z" fill="black"/>
</svg>
