<svg width="70" height="52" viewBox="0 0 70 52" fill="none" xmlns="http://www.w3.org/2000/svg">
<path fill-rule="evenodd" clip-rule="evenodd" d="M24.1654 0.246471C23.9853 0.445281 23.9338 0.787395 23.9338 1.78438C23.9338 2.81743 23.8939 3.06657 23.7287 3.06657C23.4417 3.06657 22.5669 3.86111 22.2821 4.38051C22.0762 4.7559 22.0384 5.38238 22 9.04316L21.9558 13.272L21.6115 13.3584C21.422 13.4058 21.2057 13.5592 21.1309 13.699C21.0558 13.8389 20.9945 15.027 20.9945 16.3393V18.7253H10.7289C0.589946 18.7253 0.46006 18.7288 0.206166 19.0091C0.00251934 19.2338 -0.023234 19.3723 0.0822985 19.6732C0.208826 20.0337 0.26817 20.0556 1.22762 20.0946L2.23942 20.1357V22.2267V24.3177H1.35135C0.647051 24.3177 0.411913 24.3744 0.214984 24.5917C-0.117569 24.9587 -0.0568252 25.1418 1.18633 27.5238L2.23942 29.5417V40.0018V50.4621H1.43085C0.506668 50.4621 0 50.7295 0 51.2173C0 51.3932 0.11519 51.6414 0.255993 51.7686C0.492672 51.9827 3.10593 52 35.0152 52C68.2637 52 69.5269 51.9906 69.7501 51.7443C70.3648 51.0658 69.8002 50.4621 68.5509 50.4621H67.7423V45.2923V40.1226L67.3924 39.8936C67.0683 39.6815 67.0168 39.6815 66.6926 39.8936L66.3427 40.1226V45.2923V50.4621H64.5932H62.8436V44.4078V38.3536L62.4986 37.6619C62.3088 37.2817 61.8208 36.6443 61.4139 36.2455C60.6577 35.5045 58.4237 34.0198 57.8476 33.8753C57.2357 33.7218 54.603 35.3199 53.5503 36.4838C53.2581 36.8069 52.8683 37.3946 52.6841 37.7897L52.3492 38.5084L52.3478 44.4852L52.3464 50.4621H50.6668H48.9872V40.2549V30.0478L57.63 30.0837L66.2727 30.1198L66.3427 33.5854C66.4008 36.4606 66.4485 37.0735 66.6226 37.1834C66.9161 37.3683 67.0736 37.3525 67.4312 37.1023C67.7393 36.8868 67.7423 36.8483 67.7423 33.2268V29.5689L68.8621 27.3766C69.4779 26.1708 69.9818 25.0933 69.9818 24.9823C69.9818 24.553 69.4948 24.3177 68.6061 24.3177H67.7423V22.2267V20.1357L68.7541 20.0946C69.7136 20.0556 69.7729 20.0337 69.8995 19.6732C70.005 19.3723 69.9792 19.2338 69.7756 19.0091C69.5217 18.7288 69.3918 18.7253 59.2529 18.7253H48.9872V16.3393C48.9872 15.027 48.9259 13.8389 48.8509 13.699C48.776 13.5592 48.5598 13.4058 48.3703 13.3584L48.026 13.272L47.9817 9.04316C47.9477 5.78895 47.8933 4.73367 47.7455 4.46467C47.4662 3.95646 46.8752 3.35123 46.4329 3.1204C46.0572 2.92439 46.048 2.88985 46.048 1.68651C46.048 0.624936 46.0085 0.417878 45.7639 0.196699C45.5388 -0.00672457 45.4004 -0.0324499 45.099 0.0731064C44.7239 0.204667 44.7178 0.226618 44.6782 1.57299C44.6447 2.71467 44.5987 2.95333 44.3983 3.02365C43.8688 3.2096 43.2039 3.83455 42.9566 4.37855C42.7409 4.85306 42.6945 5.30353 42.692 6.9463L42.6889 8.93859H34.9909H27.2929L27.2898 6.9463C27.2873 5.30353 27.2408 4.85306 27.0251 4.37855C26.7768 3.83245 26.113 3.20988 25.5783 3.0217C25.3682 2.94788 25.3334 2.74627 25.3334 1.60794C25.3334 0.43829 25.3012 0.262969 25.0627 0.135463C24.6714 -0.0736929 24.4283 -0.043634 24.1654 0.246471ZM23.8575 4.6681C23.5753 4.94981 23.5139 5.14974 23.5139 5.78657V6.56182H24.7209H25.928L25.8622 5.76924C25.8087 5.12639 25.7246 4.91486 25.4171 4.65076C24.9176 4.2214 24.2975 4.22839 23.8575 4.6681ZM44.5647 4.65076C44.2572 4.91486 44.173 5.12639 44.1196 5.76924L44.0538 6.56182H45.2608H46.4679V5.78657C46.4679 5.14974 46.4064 4.94981 46.1243 4.6681C45.6842 4.22839 45.0642 4.2214 44.5647 4.65076ZM23.5139 10.6862V13.2727H24.7036H25.8933V10.6862V8.09973H24.7036H23.5139V10.6862ZM44.0885 10.6862V13.2727H45.2782H46.4679V10.6862V8.09973H45.2782H44.0885V10.6862ZM27.2929 11.7795V13.2222L27.7478 13.4223C28.1073 13.5803 28.2173 13.7247 28.2726 14.1115L28.3426 14.6009H34.9909H41.6391L41.7091 14.1115C41.7644 13.7247 41.8744 13.5803 42.234 13.4223L42.6889 13.2222V11.7795V10.3367H34.9909H27.2929V11.7795ZM22.5341 32.6363V50.4621H24.7036H26.873V32.6363V14.8106H24.7036H22.5341V32.6363ZM43.1088 32.6363V50.4621H45.2782H47.4476V32.6363V14.8106H45.2782H43.1088V32.6363ZM28.2726 17.3971V18.7253H34.9909H41.7091V17.3971V16.0689H34.9909H28.2726V17.3971ZM3.73241 20.2166C3.68104 20.2678 3.63905 21.2115 3.63905 22.3138V24.3177H12.3168H20.9945V22.2205V20.1234H12.4101C7.68862 20.1234 3.78363 20.1653 3.73241 20.2166ZM28.3672 20.2152C28.3152 20.2672 28.2726 21.2115 28.2726 22.3138V24.3177H34.9947H41.7165L41.6779 22.2555L41.6391 20.1933L35.0505 20.1569C31.4268 20.1369 28.4193 20.1632 28.3672 20.2152ZM48.9872 22.2194V24.3177H57.6688H66.3501L66.3115 22.2555L66.2727 20.1933L57.63 20.1572L48.9872 20.1213V22.2194ZM2.68758 27.2516L3.42911 28.6474L12.2118 28.6497L20.9945 28.6518V27.2537V25.8556H11.4703H1.94619L2.68758 27.2516ZM28.2771 29.3858C28.281 32.5553 28.303 32.8874 28.4914 32.6363C29.3211 31.5311 30.1739 30.6141 31.1076 29.8232C32.199 28.8985 34.2324 27.5884 34.7948 27.4474C35.1472 27.3591 36.0671 27.7967 37.3872 28.681C38.9931 29.7568 40.2082 30.928 41.4904 32.6363C41.6788 32.8873 41.7007 32.5548 41.7047 29.3858L41.7091 25.8556H34.9909H28.2726L28.2771 29.3858ZM48.9872 27.2537V28.6518L57.7699 28.6497L66.5527 28.6474L67.2942 27.2516L68.0356 25.8556H58.5115H48.9872V27.2537ZM33.5872 29.7865C32.0453 30.7809 30.4353 32.35 29.436 33.8317C28.1653 35.7162 28.2726 34.86 28.2726 43.1151V50.4621H34.9909H41.7091V43.0771V35.6919L40.9043 34.3908C39.8272 32.6495 38.0888 30.8738 36.3946 29.7839C35.6655 29.315 35.0338 28.9314 34.9909 28.9314C34.9479 28.9314 34.3163 29.3161 33.5872 29.7865ZM3.73241 30.1431C3.68104 30.1943 3.63905 34.787 3.63905 40.3492V50.4621H5.3886H7.13814V44.4078V38.3536L7.49967 37.6288C7.96476 36.6966 9.26783 35.5044 10.8644 34.5503C12.3375 33.6702 12.4163 33.6721 14.0262 34.6282C15.6016 35.5638 16.6866 36.5864 17.2063 37.6253L17.6354 38.483V44.4726V50.4621H19.315H20.9945V40.256V30.0499H12.4101C7.68862 30.0499 3.78363 30.0918 3.73241 30.1431ZM11.5012 35.8711C10.4403 36.4684 9.06852 37.713 8.7634 38.3553C8.56717 38.7685 8.53778 39.5864 8.53778 44.6461V50.4621H12.3868H16.2358V44.7254C16.2358 38.4024 16.2358 38.4028 15.3539 37.4812C14.8592 36.9642 13.4655 35.9384 12.7978 35.5999C12.3837 35.3899 12.3399 35.3991 11.5012 35.8711ZM56.6945 35.8949C55.4579 36.6418 54.3142 37.6917 54.0112 38.3581C53.7727 38.8826 53.7519 39.3848 53.7491 44.6949L53.746 50.4621H57.595H61.444V44.6461C61.444 39.5639 61.4153 38.7698 61.2163 38.3508C60.9124 37.7112 59.4312 36.3799 58.3998 35.8194L57.568 35.3672L56.6945 35.8949Z" fill="white"/>
</svg>
