<svg width="48" height="48" viewBox="0 0 48 48" fill="none" xmlns="http://www.w3.org/2000/svg">
<path fill-rule="evenodd" clip-rule="evenodd" d="M9.78514 0.230156C9.6584 0.356719 9.55475 0.557063 9.55494 0.675469C9.55532 1.00528 11.3167 5.08716 11.539 5.27344C11.7989 5.49131 12.1031 5.48062 12.4054 5.24316C12.569 5.11481 12.6528 4.95862 12.6528 4.78266C12.6528 4.42003 10.9118 0.369 10.6679 0.164062C10.3946 -0.0655312 10.0558 -0.0402188 9.78514 0.230156ZM37.283 0.137719C37.0398 0.307781 35.2788 4.36678 35.2788 4.75716C35.2788 5.31038 35.9698 5.63184 36.3885 5.27344C36.5996 5.09269 38.3769 0.963656 38.3769 0.653813C38.3769 0.393469 37.9683 0 37.698 0C37.578 0 37.3912 0.0619687 37.283 0.137719ZM23.4704 0.944813C22.9232 1.05047 22.1816 1.46822 21.9102 1.82353C21.7869 1.98487 21.1912 3.10659 20.5864 4.31625C19.9814 5.52591 19.4171 6.59381 19.3324 6.68925C19.036 7.02319 18.6808 7.11337 16.3391 7.44956C15.0417 7.63584 13.777 7.85737 13.5286 7.94184C12.878 8.16328 12.1499 8.91525 11.9565 9.56569C11.6563 10.5747 11.8431 11.546 12.4621 12.1957C12.7244 12.471 12.8854 12.5625 13.1077 12.5625C13.7549 12.5625 13.9833 11.8794 13.5331 11.29C13.048 10.655 13.1942 9.72684 13.837 9.36159C14.0056 9.26587 15.0308 9.07697 16.549 8.86191C19.2258 8.48287 19.8862 8.27812 20.4004 7.66781C20.5371 7.50563 21.1712 6.33056 21.8095 5.05659C22.5526 3.57328 23.0608 2.66897 23.2223 2.54203C23.5538 2.28169 24.2283 2.27569 24.6449 2.52928C24.8958 2.68209 25.152 3.12028 26.1206 5.05359C26.7653 6.34022 27.4197 7.53741 27.5749 7.71384C28.0831 8.29181 28.6907 8.47434 31.3826 8.85778C34.1003 9.24487 34.3155 9.31809 34.5652 9.94116C34.7506 10.4039 34.7541 10.6242 34.5809 10.95C34.507 11.0892 33.6168 12.0258 32.6029 13.0312C31.5889 14.0367 30.6714 15.0281 30.564 15.2344C30.2263 15.8828 30.2461 16.5865 30.671 19.0312C30.8815 20.243 31.0539 21.4122 31.0539 21.6295C31.0541 22.3671 30.2077 22.9995 29.4998 22.7909C29.3477 22.7461 28.6652 22.4105 27.9833 22.045C24.7255 20.2996 24.2927 20.1426 23.384 20.3773C23.0843 20.4548 21.9167 21.0034 20.7891 21.5964C19.6616 22.1895 18.6098 22.7197 18.4517 22.7748C17.854 22.9829 17.0686 22.5382 16.8894 21.8901C16.8256 21.6591 16.905 21.0045 17.2153 19.2064C17.4411 17.8983 17.6264 16.6353 17.6271 16.3995C17.6302 15.5279 17.4079 15.1382 16.2277 13.9453C15.3106 13.0184 15.0924 12.8438 14.8519 12.8438C14.4511 12.8438 14.155 13.1468 14.155 13.5569C14.155 13.8533 14.2569 13.9873 15.1328 14.8423C16.1711 15.8558 16.318 16.1295 16.1839 16.7994C16.1517 16.9604 15.9542 18.1014 15.7452 19.3349C15.4061 21.3361 15.3766 21.6322 15.4707 22.0847C15.765 23.5001 17.2438 24.5029 18.591 24.2004C18.872 24.1373 20.0525 23.584 21.3371 22.9135C23.5031 21.7827 23.6084 21.7388 24.0597 21.7798C24.4314 21.8136 24.9495 22.045 26.5476 22.8908C29.073 24.2274 29.0935 24.2358 29.8335 24.2277C31.2879 24.2118 32.4424 23.1179 32.4746 21.7253C32.4814 21.429 32.3044 20.1005 32.0814 18.773C31.8134 17.1782 31.6994 16.2639 31.7454 16.0781C31.794 15.8817 32.3922 15.2312 33.7284 13.9219C35.9526 11.7422 36.0727 11.5646 36.0752 10.4531C36.0766 9.79519 36.0426 9.64144 35.7981 9.20072C35.4557 8.58356 34.9227 8.11462 34.3502 7.92703C34.1122 7.84903 32.8824 7.63472 31.6173 7.45069C30.3522 7.26675 29.2327 7.09219 29.1294 7.06294C28.7311 6.95006 28.4619 6.53512 27.3444 4.3125C26.1056 1.84837 25.839 1.48059 25.0455 1.14084C24.5101 0.911625 23.9821 0.845906 23.4704 0.944813ZM3.96436 6.04266C3.83762 6.16922 3.73388 6.37772 3.73388 6.50616C3.73388 7.00781 4.03562 7.16934 6.36778 7.91653C7.58414 8.30616 8.71121 8.625 8.87241 8.625C9.07726 8.625 9.2241 8.55056 9.36004 8.37797C9.60442 8.06775 9.60554 7.87116 9.36464 7.56525C9.21095 7.37016 8.72792 7.17956 6.83842 6.56831C5.55353 6.15262 4.43312 5.8125 4.34853 5.8125C4.26394 5.8125 4.0911 5.91609 3.96436 6.04266ZM40.9855 6.59409C38.6155 7.37578 38.3864 7.49409 38.3799 7.94006C38.3757 8.23172 38.7638 8.64853 39.0394 8.64816C39.1656 8.64797 40.2828 8.32341 41.522 7.92684C44.0123 7.12997 44.2665 6.98569 44.1591 6.43003C44.0937 6.09113 43.7917 5.80903 43.5066 5.82066C43.3962 5.82516 42.2616 6.17325 40.9855 6.59409ZM7.86475 12.6596C6.16649 13.2678 5.82551 13.4979 5.94061 13.9585C6.0329 14.3278 6.2647 14.5312 6.59319 14.5312C7.04309 14.5312 9.94662 13.4522 10.1414 13.2126C10.2318 13.1014 10.3057 12.9078 10.3057 12.7822C10.3057 12.4913 9.9102 12.0921 9.6293 12.0993C9.51082 12.1024 8.71675 12.3546 7.86475 12.6596ZM37.8563 12.3239C37.5691 12.6107 37.562 12.9517 37.8371 13.2497C38.0666 13.4982 40.8603 14.5312 41.3031 14.5312C41.8768 14.5312 42.1948 13.8014 41.7947 13.403C41.6058 13.2149 38.5897 12.0938 38.2726 12.0938C38.1704 12.0938 37.9831 12.1973 37.8563 12.3239ZM2.09091 14.3752C0.919996 14.7634 0.116821 15.7058 0.0103575 16.8167C-0.0149911 17.0808 0.00782263 20.2289 0.0609607 23.8125C0.168457 31.0624 0.159726 30.9651 0.823765 32.2393C1.1333 32.8334 1.93741 33.7867 5.61709 37.9219C8.04877 40.6547 10.1187 43.0594 10.2169 43.2656C10.3745 43.5964 10.3958 43.8708 10.3975 45.5902C10.3996 47.5339 10.4003 47.5404 10.6301 47.7698L10.8605 48H15.6894C20.2193 48 20.5313 47.9894 20.7292 47.8294C20.9173 47.6773 21.0375 47.1382 21.8317 42.8841C22.6888 38.2936 22.7234 38.057 22.7293 36.75C22.735 35.4449 22.7227 35.3537 22.4192 34.4642C21.8986 32.938 21.5581 32.5128 17.7392 28.6167C15.8453 26.6846 13.9528 24.7387 13.5336 24.2923C12.5305 23.2241 11.998 22.9268 11.1037 22.9354C10.3431 22.9426 9.90015 23.1082 9.376 23.581C8.62972 24.2543 8.36243 25.5743 8.7927 26.4619C8.90761 26.699 10.0935 28.0872 11.574 29.718C14.1339 32.5376 14.155 32.5642 14.155 32.9751C14.155 33.7974 13.34 34.2098 12.6695 33.7266C12.2096 33.3952 6.85907 27.5143 6.65628 27.1172C6.41228 26.6397 6.40796 26.5991 6.03205 21.2569C5.8271 18.3437 5.65473 16.4496 5.57306 16.2127C5.30474 15.4352 4.69937 14.8044 3.88287 14.4519C3.46875 14.2732 2.52137 14.2326 2.09091 14.3752ZM44.367 14.3756C43.5073 14.6176 42.9018 15.1668 42.5035 16.0659C42.3293 16.4592 42.2633 17.1105 41.9476 21.5556C41.643 25.8428 41.5618 26.6606 41.4061 27.0104C41.2854 27.2814 40.236 28.4938 38.3315 30.5625C36.7412 32.2898 35.351 33.7544 35.2421 33.817C34.9123 34.0067 34.4741 33.9592 34.1662 33.7006C33.7925 33.3865 33.7104 32.994 33.9329 32.5841C34.0277 32.4096 35.2037 31.0606 36.5462 29.5864C38.1172 27.8615 39.062 26.7473 39.1972 26.4608C39.6364 25.5299 39.3785 24.1973 38.6388 23.5759C38.074 23.1013 37.6247 22.9332 36.9217 22.9334C35.7977 22.9338 35.8134 22.9207 31.1479 27.7063C28.8501 30.0632 26.807 32.2078 26.6076 32.4721C25.7369 33.6265 25.3267 34.8287 25.2599 36.4219C25.2133 37.5331 25.2239 37.6076 26.1246 42.5156C26.626 45.2484 27.0752 47.5572 27.1227 47.6463C27.1702 47.7353 27.2898 47.8513 27.3885 47.9041C27.5041 47.9659 29.2754 48 32.3665 48H37.165L37.3954 47.7698C37.6256 47.5401 37.6259 47.5372 37.6259 45.5575C37.6259 43.9821 37.655 43.5145 37.7677 43.2798C37.8961 43.0123 38.41 42.4147 41.5544 38.8758C42.6471 37.6459 42.7518 37.3718 42.2826 36.9687C41.9686 36.6991 41.7608 36.693 41.4413 36.9439C41.3055 37.0506 40.1949 38.2635 38.9733 39.6392C37.2593 41.5695 36.6858 42.2798 36.4614 42.75L36.1707 43.3594L36.188 44.9766L36.2055 46.5938H32.2702H28.3349L28.2857 46.3828C28.2585 46.2668 27.8739 44.1891 27.4308 41.7656C26.6906 37.7156 26.6291 37.2874 26.6704 36.4688C26.7233 35.4203 26.9599 34.6076 27.4605 33.7564C27.9485 32.9262 36.1545 24.535 36.6322 24.3776C37.4889 24.0953 38.3323 25.1461 37.8808 25.933C37.818 26.0423 36.6682 27.3395 35.3257 28.8155C33.9832 30.2916 32.7847 31.688 32.6623 31.9186C31.8347 33.4791 32.9767 35.3457 34.7573 35.3428C35.8443 35.3411 35.9314 35.2699 39.2213 31.6926C40.8456 29.9265 42.2779 28.3296 42.4043 28.1438C42.9475 27.3456 42.9721 27.1825 43.3554 21.8259C43.5693 18.8374 43.761 16.7046 43.8273 16.5759C44.1784 15.8952 44.8401 15.5693 45.5071 15.7487C45.9553 15.8692 46.4149 16.3052 46.5255 16.7148C46.635 17.1207 46.4749 29.8195 46.3525 30.428C46.1681 31.3449 45.7833 31.9522 44.3661 33.5625C43.6174 34.4133 42.9761 35.1995 42.9412 35.3095C42.787 35.7945 43.3975 36.3254 43.8647 36.1128C44.1883 35.9656 46.6514 33.1721 47.0525 32.4975C47.6858 31.4323 47.7801 30.966 47.8614 28.5C47.9014 27.2883 47.9489 24.082 47.967 21.375L48 16.4531L47.739 15.9224C47.1203 14.6643 45.6834 14.0051 44.367 14.3756ZM2.39519 15.7902C1.91817 15.9602 1.76213 16.1035 1.56103 16.5564C1.39833 16.9228 1.39458 17.2522 1.48039 23.5102C1.53503 27.493 1.61013 30.2558 1.67106 30.5275C1.78419 31.0315 2.13823 31.7809 2.46269 32.2031C2.58155 32.3578 4.60774 34.6562 6.96526 37.3105C10.0038 40.7316 11.326 42.2874 11.5064 42.6543C11.7506 43.1509 11.7621 43.2414 11.7902 44.8828L11.8195 46.5938H15.7493H19.6792L19.7332 46.3359C20.1209 44.486 21.384 37.1852 21.384 36.7942C21.384 35.9889 21.1239 34.8977 20.7508 34.1374C20.3547 33.33 20.1415 33.0966 15.1571 28.009C11.2701 24.0416 11.3429 24.0966 10.509 24.4973C10.2161 24.6382 10.0241 25.0321 10.0241 25.4922C10.0241 25.924 9.79087 25.6363 13.0218 29.19C14.1872 30.4718 15.2428 31.7164 15.3675 31.9556C15.9789 33.1285 15.3551 34.7325 14.1015 35.2106C13.5718 35.4126 12.644 35.3602 12.1346 35.0996C11.8853 34.9721 10.7525 33.8182 8.73243 31.634C5.55785 28.2015 5.26493 27.8155 5.05407 26.7863C4.99886 26.5171 4.80434 24.1506 4.62173 21.5272C4.39388 18.2528 4.24958 16.6805 4.16161 16.5116C3.97328 16.1503 3.61953 15.8517 3.25667 15.7477C2.85991 15.6341 2.82893 15.6357 2.39519 15.7902Z" fill="black"/>
</svg>
