<svg width="50" height="65" viewBox="0 0 50 65" fill="none" xmlns="http://www.w3.org/2000/svg">
<path fill-rule="evenodd" clip-rule="evenodd" d="M22.1435 0.137997C11.9463 1.23185 3.41459 8.64449 0.802979 18.6792C0.146902 21.2001 0 22.4064 0 25.2705C0 28.1064 0.143416 29.3026 0.784056 31.811C1.35909 34.0621 2.35765 36.4571 3.55079 38.4472C4.80916 40.546 5.84967 41.7602 10.2951 46.3183C12.7633 48.8489 14.7583 50.941 14.7284 50.9671C14.6985 50.9933 14.1418 51.0855 13.4913 51.1717C6.73843 52.0681 1.6016 54.1311 0.47494 56.3995C0.12138 57.1112 0.066479 58.1718 0.347833 58.8586C0.604662 59.4856 1.45009 60.369 2.34569 60.946C6.45533 63.5937 16.1896 65.2179 26.5008 64.9763C34.8899 64.7797 41.1602 63.7007 45.7972 61.6559C46.5305 61.3324 47.8564 60.4184 48.3057 59.9264C49.6539 58.4505 49.5285 56.6273 47.9813 55.2082C46.1762 53.5526 41.4823 51.9572 36.2735 51.2291C35.4176 51.1095 34.6928 50.9909 34.6629 50.9655C34.633 50.9402 36.628 48.8489 39.0962 46.3183C43.6097 41.6905 44.5868 40.5436 45.8855 38.3479C47.172 36.1729 48.0347 34.0625 48.6582 31.5648C49.2336 29.2597 49.4 27.8473 49.4 25.2705C49.4 22.6928 49.2336 21.2814 48.6573 18.9731C45.6421 6.89353 34.2974 -1.16566 22.1435 0.137997ZM22.8283 1.97366C22.6571 2.00402 22.0176 2.09241 21.407 2.17013C14.2267 3.08479 7.56581 7.99793 4.21284 14.8529C0.301771 22.849 1.18978 32.2705 6.53924 39.5343C6.99314 40.1506 10.3766 43.7177 14.8488 48.2944C23.3144 56.9584 23.0156 56.7031 24.6957 56.7031C26.3757 56.7031 26.0769 56.9584 34.5425 48.2944C42.0678 40.5931 42.9678 39.5864 44.2517 37.4342C46.8249 33.1213 47.9981 27.8181 47.4705 22.8843C46.3448 12.3573 38.7245 4.0585 28.4927 2.21649C27.4291 2.02497 23.4926 1.85631 22.8283 1.97366ZM22.268 5.41118C16.457 6.2993 11.5924 9.36077 8.49178 14.0815C6.98741 16.372 6.10239 18.4859 5.50084 21.2263C5.24825 22.3772 5.21252 22.8784 5.21252 25.2705C5.21252 27.6626 5.24825 28.1638 5.50084 29.3147C6.13339 32.1962 7.33836 34.9611 8.86576 37.0357C9.61907 38.0589 9.73596 38.1646 10.154 38.2C10.4877 38.2284 10.684 38.1674 10.8698 37.9778C11.2942 37.5448 11.1893 37.1113 10.3818 35.9613C8.66533 33.5169 7.60863 30.8818 7.14253 27.8825C6.93774 26.565 6.97309 23.691 7.21175 22.2558C8.42742 14.9463 13.9791 9.10626 21.2099 7.53057C22.7127 7.20303 26.6786 7.20303 28.1815 7.53057C35.6056 9.14843 41.0606 15.0147 42.2488 22.6585C42.4536 23.976 42.4182 26.85 42.1796 28.2852C40.9214 35.8495 35.0464 41.8335 27.6224 43.1125C25.9889 43.3939 23.3911 43.3945 21.7701 43.1138C19.1571 42.6613 16.4382 41.5052 14.3005 39.9375C13.0867 39.0474 12.6714 38.934 12.2393 39.3748C12.0534 39.5644 11.9936 39.7647 12.0214 40.105C12.0561 40.5313 12.1597 40.6508 13.1567 41.4147C15.5063 43.2149 18.5894 44.5193 21.7078 45.0325C23.1151 45.2641 26.0188 45.2904 27.3893 45.0839C34.7171 43.98 40.7718 38.9234 43.1653 31.9086C44.012 29.427 44.1788 28.3338 44.1784 25.2705C44.178 22.2897 44.0723 21.5192 43.3423 19.1745C41.4785 13.1889 36.7019 8.26387 30.858 6.30235C28.7389 5.59102 27.7899 5.44077 25.1314 5.39607C23.762 5.37296 22.4735 5.37981 22.268 5.41118ZM18.6529 10.65C18.0227 10.9421 17.1464 11.9438 16.9571 12.5887L16.8131 13.0785H16.0379C14.9609 13.0785 14.0728 13.5539 13.5554 14.4076C13.2244 14.954 13.1801 15.1406 13.1801 15.9898C13.1801 16.7688 13.2413 17.0788 13.5011 17.6143L13.8221 18.276L13.4216 19.1173C12.5799 20.8856 12.2494 22.4077 12.1545 24.953C12.0856 26.8001 12.0729 26.8715 11.7342 27.3025C10.1873 29.2705 11.251 32.3476 13.6691 32.8996C14.2993 33.0434 14.3405 33.079 14.6694 33.7633C16.1983 36.9432 18.9274 39.128 22.3925 39.9458C23.6711 40.2475 25.8533 40.2206 27.2347 39.8858C30.5204 39.0898 33.1817 36.8983 34.7655 33.6843C35.0685 33.0693 35.2193 32.8899 35.4349 32.8877C35.8874 32.8832 36.7986 32.4032 37.3111 31.8993C37.948 31.2732 38.2798 30.5823 38.3553 29.7247C38.4341 28.8301 38.2478 28.1251 37.7225 27.3288C37.314 26.7095 37.3079 26.6792 37.2341 24.8749C37.1929 23.8701 37.0753 22.646 36.9728 22.1547C36.5226 19.9988 35.3166 17.4698 34.6283 17.2381C34.1793 17.0868 33.6395 17.3539 33.4844 17.8039C33.383 18.0976 33.4685 18.3544 34.0764 19.5816C34.9713 21.3881 35.2824 22.6098 35.315 24.445L35.3398 25.842L34.5306 25.802C31.7421 25.6639 28.3038 23.9093 26.6726 21.7918C26.3727 21.4024 25.9017 20.6686 25.6261 20.161C25.1535 19.2906 25.0981 19.2357 24.6527 19.198C24.0568 19.1477 23.9211 19.2669 23.3813 20.3147C22.3167 22.3814 20.1931 24.1892 17.7241 25.1307C16.6626 25.5354 15.1279 25.9055 14.5105 25.9055H13.9512L14.0279 24.4767C14.1282 22.6068 14.4602 21.3134 15.2562 19.6914C15.6138 18.9628 15.8979 18.2531 15.8877 18.1144C15.8773 17.9756 15.6906 17.6087 15.4726 17.2991C14.3433 15.6948 15.2801 14.4567 17.0269 15.245C17.973 15.6719 18.4523 15.33 18.539 14.1661C18.6267 12.989 19.0999 12.3165 19.8404 12.3165C20.3584 12.3165 20.6783 12.6008 21.0418 13.3845C21.3821 14.1182 21.5302 14.1716 22.7341 13.994C25.6952 13.5572 28.3418 14.1063 30.5517 15.6157C31.0753 15.9733 31.6239 16.2509 31.8091 16.2518C32.3038 16.2544 32.676 15.8819 32.6903 15.3703C32.7005 15.0051 32.6128 14.8541 32.1538 14.4475C31.4088 13.7876 29.1006 12.6435 27.808 12.2933C26.9201 12.0529 26.4073 12.0047 24.622 11.9937L22.4941 11.9807L22.0076 11.4302C21.7401 11.1275 21.297 10.7757 21.0231 10.6484C20.3754 10.3474 19.3042 10.3482 18.6529 10.65ZM24.2792 22.4774C23.8713 23.1819 22.2958 24.6897 21.1754 25.4479C19.9329 26.2888 17.8686 27.1949 16.4512 27.5216L15.4897 27.7432L15.4157 28.2531C15.3088 28.9912 15.5611 30.8014 15.9218 31.8832C16.8352 34.6228 19.0472 36.8608 21.7497 37.7795C26.5777 39.4209 31.8389 36.7741 33.4695 31.8832C33.8383 30.7771 34.0762 29.0189 33.962 28.2428C33.8861 27.7262 33.851 27.6848 33.4276 27.613C29.8387 27.0056 27.0004 25.295 24.7351 22.3744L24.5083 22.0819L24.2792 22.4774ZM18.1367 27.5574C17.9872 27.6189 17.8051 27.783 17.7321 27.922C17.5607 28.2489 17.5603 29.7844 17.7316 30.111C18.0512 30.7201 19.0386 30.6628 19.3263 30.0184C19.5065 29.6148 19.508 28.4224 19.3288 28.021C19.2527 27.8508 19.054 27.6481 18.8872 27.5705C18.5371 27.4078 18.5021 27.4073 18.1367 27.5574ZM30.4287 27.6077C30.261 27.7041 30.0828 27.8893 30.0328 28.019C29.8895 28.3909 29.91 29.6716 30.065 30.0184C30.3527 30.6628 31.3401 30.7201 31.6597 30.111C31.8837 29.6838 31.8255 28.1333 31.5739 27.8299C31.2866 27.4836 30.8066 27.3905 30.4287 27.6077ZM35.8339 28.4773C35.8722 28.7042 35.8576 29.3043 35.8012 29.8108C35.7448 30.3172 35.7342 30.7315 35.7776 30.7315C35.8211 30.7315 35.9849 30.5922 36.1418 30.4219C36.5657 29.9615 36.628 29.0942 36.2786 28.5174C35.9361 27.9521 35.7423 27.9346 35.8339 28.4773ZM13.1164 28.6043C12.7884 29.1532 12.801 29.8298 13.1489 30.3537C13.5004 30.8828 13.7807 31.0053 13.6787 30.5852C13.6388 30.4213 13.5942 29.8159 13.5798 29.2399C13.5654 28.664 13.5107 28.1924 13.4583 28.1922C13.406 28.1918 13.2521 28.3773 13.1164 28.6043ZM22.391 28.9552C22.0509 29.3387 22.1035 29.9102 22.5199 30.3536C23.6474 31.5542 25.7439 31.5542 26.8714 30.3536C27.8416 29.3205 26.6219 28.0921 25.5444 29.017C25.2901 29.2352 25.0248 29.3345 24.6957 29.3345C24.3665 29.3345 24.1012 29.2352 23.8469 29.017C23.3832 28.6191 22.7145 28.5907 22.391 28.9552ZM15.6699 52.794C14.5027 52.9083 10.9915 53.4919 9.71157 53.7844C6.44774 54.5301 3.61602 55.6885 2.57899 56.7022C2.12435 57.1466 2.03795 57.309 2.03795 57.7191C2.03795 58.1277 2.12435 58.2915 2.56804 58.7251C4.49718 60.6104 10.4799 62.201 18.222 62.887C20.5898 63.0968 28.8016 63.0968 31.1693 62.887C39.054 62.1883 44.8586 60.6451 46.8233 58.7251C47.2594 58.299 47.3534 58.1241 47.3534 57.7391C47.3534 55.8386 41.5319 53.7055 33.9721 52.8358L32.8534 52.7072L30.4241 55.1677C27.7309 57.8954 27.1665 58.2911 25.5713 58.5702C24.8862 58.69 24.5036 58.6898 23.8134 58.569C22.183 58.2838 21.7731 57.9974 19.0248 55.2228C17.6518 53.8367 16.4474 52.7123 16.3482 52.7239C16.2491 52.7358 15.9438 52.7673 15.6699 52.794Z" fill="white"/>
</svg>
