<svg width="42" height="70" viewBox="0 0 42 70" fill="none" xmlns="http://www.w3.org/2000/svg">
<path fill-rule="evenodd" clip-rule="evenodd" d="M20.3262 0.267093C20.0396 0.53422 20.0272 0.650012 20.0272 3.04841C20.0272 5.86159 20.0743 6.00349 21.007 6.00349C21.8833 6.00349 21.9393 5.82441 21.9393 3.02463C21.9393 0.650695 21.9266 0.534084 21.6403 0.267093C21.2585 -0.089031 20.708 -0.089031 20.3262 0.267093ZM8.37661 4.05964C7.88834 4.59978 8.06562 5.10218 9.39332 6.94049C10.08 7.89129 10.7629 8.77689 10.9109 8.90854C11.2683 9.22652 11.7156 9.21066 12.1554 8.86438C12.8104 8.34872 12.6685 7.93408 11.106 5.79843C9.7405 3.93196 9.69215 3.88356 9.15717 3.84378C8.7574 3.81412 8.5457 3.87263 8.37661 4.05964ZM31.3949 5.08071C30.8852 5.77615 30.2393 6.66106 29.9597 7.04712C29.3361 7.90797 29.2913 8.45521 29.8111 8.86438C30.2509 9.21066 30.6982 9.22652 31.0556 8.90854C31.2036 8.77689 31.8865 7.89129 32.5732 6.94049C33.5717 5.55796 33.8218 5.11722 33.8218 4.74017C33.8218 4.13962 33.4717 3.81617 32.8219 3.81617C32.3488 3.81617 32.2713 3.88479 31.3949 5.08071ZM19.4126 9.15365C17.6342 9.42994 15.2095 10.4032 14.4797 11.1336C14.0616 11.5522 14.0653 12.0788 14.4895 12.5033C14.9452 12.9593 15.2329 12.9284 16.3801 12.2998C17.8465 11.4964 19.2494 11.1444 20.9832 11.1451C22.7062 11.1458 23.7426 11.3902 25.3538 12.1763C26.2998 12.6378 26.745 12.9731 27.7579 13.987C28.7708 15.0008 29.1058 15.4465 29.5669 16.3933C30.3527 18.007 30.5966 19.0434 30.5966 20.7679C30.5966 21.6784 30.5118 22.5283 30.3647 23.092C30.0216 24.4062 29.1666 26.0337 28.2101 27.1932C26.655 29.0786 25.6488 30.8519 25.1395 32.6052L24.9247 33.3451H24.2423C23.656 33.3451 23.5699 33.3114 23.632 33.1058C23.8676 32.3229 26.4465 21.8291 26.4465 21.6529C26.4465 21.5353 26.2955 21.2881 26.1112 21.1036L25.776 20.7679H20.9832H16.1905L15.8553 21.1036C15.671 21.2881 15.52 21.5353 15.52 21.6529C15.52 21.8291 18.0989 32.3229 18.3345 33.1058C18.3966 33.3114 18.3105 33.3451 17.7242 33.3451H17.0418L16.8155 32.559C16.5296 31.5658 15.6725 29.7189 15.139 28.9468C14.9142 28.6214 14.3292 27.8736 13.8389 27.2849C12.8028 26.0408 12.1223 24.8068 11.6778 23.3654C11.427 22.5521 11.3623 22.0291 11.3651 20.8363C11.3691 19.1065 11.6002 18.0629 12.3141 16.55C12.575 15.9971 12.7884 15.3972 12.7884 15.2171C12.7884 14.6989 12.3137 14.3198 11.7264 14.3691C11.3151 14.4035 11.1619 14.5082 10.8654 14.9579C10.4122 15.6445 9.85687 17.0401 9.55161 18.2589C9.38608 18.9202 9.31833 19.7388 9.32147 21.0414L9.32584 22.8869L8.36951 23.5021C7.8434 23.8405 6.69749 24.8248 5.82297 25.6894C2.91586 28.5637 1.13935 31.8414 0.26565 35.9425C-0.0932827 37.6279 -0.0872727 42.2069 0.276304 43.9399C0.785476 46.3672 2.02713 49.3541 3.32847 51.2818C4.05084 52.3518 5.59242 54.1401 6.24459 54.6647C7.30978 55.5216 7.249 55.1136 7.32522 61.9107C7.39064 67.7506 7.40525 68.0229 7.67882 68.5474C7.83575 68.8481 8.22501 69.2787 8.54379 69.5043C9.07809 69.8823 9.22997 69.9181 10.485 69.9616C11.2339 69.9876 12.0009 69.9701 12.1895 69.9226C12.9006 69.7441 13.0317 68.4187 12.3734 68.066C12.236 67.9925 11.6014 67.9322 10.9633 67.9322C10.0907 67.9322 9.74993 67.8789 9.58849 67.7174C9.40083 67.5296 9.37392 66.8426 9.37392 62.2491C9.37392 59.3596 9.3996 56.9955 9.43115 56.9955C9.46256 56.9955 9.93718 57.2108 10.4857 57.474C11.0343 57.7372 11.5953 57.9525 11.7323 57.9525C12.1181 57.9525 12.6518 57.3351 12.6518 56.8889C12.6518 56.3944 12.2742 56.0462 11.2276 55.5754C8.38494 54.2966 5.4374 51.2958 3.78341 47.9962C3.12592 46.6849 2.44124 44.5006 2.19007 42.9138C1.86091 40.833 1.98274 37.465 2.45462 35.6008C3.51476 31.413 5.85261 27.8716 9.13559 25.4805L9.95999 24.8801L10.4851 25.9341C10.7741 26.5138 11.3487 27.4188 11.762 27.9451C12.1755 28.4714 12.7541 29.2097 13.0482 29.5856C13.6549 30.3616 14.3024 31.5882 14.7215 32.7554C14.9386 33.3601 15.0309 34.0579 15.1077 35.6731C15.2325 38.2985 15.4778 38.917 16.627 39.5042C17.0809 39.736 17.1253 39.8134 17.1957 40.4975C17.3345 41.8426 18.2254 43.077 19.4687 43.6468C20.4403 44.0921 21.7951 44.044 22.7348 43.5308C23.1347 43.3123 23.6482 42.8979 23.8762 42.61C24.3807 41.9723 24.8075 40.8909 24.8075 40.2502C24.8075 39.8398 24.8765 39.7407 25.3197 39.5143C26.4909 38.9159 26.7334 38.3104 26.8588 35.6731C26.9352 34.0658 27.0283 33.3591 27.2422 32.7635C27.7188 31.4368 28.4612 30.162 29.5396 28.8191C30.873 27.1584 31.5842 25.9488 32.0591 24.5344C33.7535 19.4875 31.8582 13.9583 27.4221 11.0063C25.1588 9.50034 21.9535 8.75884 19.4126 9.15365ZM0.793125 14.1122C0.439655 14.4888 0.407558 15.1117 0.723605 15.4612C0.927519 15.6868 5.30027 17.2135 5.74239 17.2135C6.12577 17.2135 6.64231 16.6534 6.64231 16.2377C6.64231 15.4432 6.49249 15.3473 4.00645 14.5507C2.71058 14.1356 1.5241 13.7958 1.37018 13.7958C1.21611 13.7958 0.956475 13.9383 0.793125 14.1122ZM37.9224 14.5535C36.6273 14.9751 35.598 15.3871 35.4981 15.5241C35.1943 15.9398 35.2836 16.6149 35.6841 16.9301C35.882 17.086 36.1179 17.2135 36.2083 17.2135C36.6453 17.2135 41.041 15.6846 41.2415 15.4629C41.7674 14.8812 41.2772 13.7793 40.5055 13.8083C40.3225 13.8153 39.16 14.1505 37.9224 14.5535ZM17.8851 22.9211C17.9177 22.9774 18.5113 25.346 19.2042 28.1843L20.464 33.3451H20.9838H21.5036L22.5452 29.0729C23.118 26.7234 23.7016 24.3549 23.842 23.8097L24.0974 22.8186H20.9615C19.2369 22.8186 17.8524 22.8648 17.8851 22.9211ZM34.7779 25.7877C33.8397 26.1268 33.8626 26.8748 34.8482 28.0783C36.5869 30.2013 37.7042 32.8994 38.0203 35.7375C38.1705 37.0865 38.0483 37.8511 37.5551 38.6451C36.9678 39.5907 36.7852 40.2265 36.8559 41.0795C36.9107 41.7402 37.0646 42.0344 38.4422 44.1099C39.3924 45.5415 39.9679 46.5409 39.9679 46.7594C39.9679 47.1969 39.68 47.4466 38.807 47.7667C37.8414 48.1206 37.5448 48.3421 37.1624 48.9954C36.8529 49.524 36.8258 49.7126 36.8152 51.4025C36.8091 52.411 36.759 54.2204 36.7039 55.4234C36.6136 57.3942 36.5679 57.6856 36.2409 58.3677C35.5497 59.8101 34.3263 60.9011 32.7953 61.4409C32.2153 61.6452 31.5655 61.6831 28.405 61.6964L24.6956 61.712L24.1103 62.1233C23.7616 62.3684 23.388 62.8011 23.1862 63.1935C22.8868 63.7758 22.8405 64.0692 22.7869 65.7213C22.7536 66.7494 22.6647 67.6674 22.5893 67.7613C22.487 67.8888 21.6756 67.9322 19.3896 67.9322H16.3271L15.9919 68.2678C15.5616 68.6984 15.5648 69.2198 16.0005 69.6559L16.3444 70L19.7344 69.9572L23.1244 69.9144L23.6687 69.5366C24.6224 68.8745 24.8075 68.3643 24.8075 66.396C24.8075 64.4514 24.9483 63.8693 25.4492 63.7436C25.6368 63.6964 27.0593 63.6871 28.61 63.7229C31.9456 63.8 32.9403 63.667 34.446 62.9422C35.2097 62.5744 35.7562 62.1747 36.472 61.4601C38.1126 59.8221 38.7387 58.2661 38.7387 55.8267C38.7387 55.0649 38.7789 53.4229 38.8279 52.1777L38.9171 49.9135L39.8346 49.5532C40.8706 49.1463 41.6539 48.4538 41.8908 47.7351C41.9769 47.474 42.0214 46.9018 41.9899 46.4636C41.9356 45.7147 41.8406 45.5289 40.4038 43.364C39.557 42.0882 38.8753 40.9196 38.8753 40.744C38.8753 40.5695 39.0874 40.0792 39.3466 39.6543C40.0075 38.5711 40.1565 37.8357 40.066 36.1029C39.8892 32.7143 38.3313 28.8354 36.2574 26.6204C35.5352 25.8491 35.1727 25.6451 34.7779 25.7877ZM17.2078 35.6025C17.1632 35.7187 17.1539 36.1893 17.187 36.6483C17.2311 37.2574 17.3163 37.5335 17.5025 37.6697C17.8811 37.9469 24.0941 37.9404 24.4741 37.6624C24.6948 37.501 24.7392 37.3007 24.7392 36.4662V35.464L21.014 35.4277C17.7582 35.3958 17.2785 35.418 17.2078 35.6025ZM19.2083 40.2146C19.2095 40.9538 20.2316 41.956 20.9854 41.9571C21.8089 41.9584 22.7588 41.0261 22.7588 40.2168C22.7588 39.9109 22.7371 39.9071 20.9832 39.9071C19.2328 39.9071 19.2077 39.9114 19.2083 40.2146Z" fill="white"/>
</svg>
