<svg width="36" height="36" viewBox="0 0 36 36" fill="none" xmlns="http://www.w3.org/2000/svg">
<path fill-rule="evenodd" clip-rule="evenodd" d="M16.6561 0.124976C16.1653 0.288402 15.727 0.558748 15.3898 0.906001L15.1371 1.16622H12.991C10.6163 1.16622 10.499 1.18574 10.1793 1.6339C10.0381 1.83188 10.0123 1.97616 9.99111 2.68519L9.96653 3.50702L8.26679 3.52911C5.78452 3.56132 5.87 3.46284 5.87 6.28951V8.19845L5.04453 8.22311C4.33177 8.24439 4.18773 8.27007 3.98962 8.41141C3.62318 8.67288 3.522 8.97514 3.522 9.80864V10.5401L3.26445 10.582C3.12284 10.6049 2.91233 10.6912 2.79661 10.7736C2.44852 11.0215 2.348 11.3336 2.348 12.1665V12.9076H1.33352C0.367976 12.9076 0.311403 12.9159 0.159517 13.0774C0.0717607 13.1709 0 13.3333 0 13.4384C0 13.9749 0.237001 14.0818 1.42714 14.0818H2.348V17.63V21.1781L1.98876 21.4014C1.34467 21.8018 1.03569 22.6154 1.23982 23.3735C1.33609 23.731 1.81244 24.2982 2.12538 24.4279L2.348 24.5201V26.0522V27.5844H1.92052C1.56861 27.5844 1.46493 27.6144 1.33352 27.7542C1.17635 27.9216 1.13034 28.1925 1.21957 28.425C1.29023 28.6091 1.64631 28.7586 2.01414 28.7586H2.348V31.573C2.348 34.3721 2.34888 34.3888 2.51368 34.6367C2.60481 34.7739 2.82773 34.9613 3.00896 35.0531L3.33856 35.22L7.70438 35.1998C11.9211 35.1803 12.0785 35.1746 12.3137 35.0329C12.4477 34.9521 12.6293 34.7705 12.7173 34.6293C12.877 34.3729 12.8773 34.3637 12.8978 29.4557L12.9183 24.539L13.2115 24.3706C13.5895 24.1536 13.9041 23.7155 14.0154 23.2515C14.169 22.611 13.9552 21.9989 13.4169 21.5381C13.2469 21.3925 13.0641 21.2734 13.0109 21.2734C12.8767 21.2734 12.8857 20.6324 13.0283 20.027C13.2349 19.1503 13.6009 18.5153 14.3001 17.8202C15.2738 16.8523 16.2728 16.4334 17.6129 16.4312C18.3833 16.4298 18.9371 16.5647 19.7012 16.9399C21.1177 17.6353 22.0961 19.064 22.2688 20.6894L22.3198 21.1695L21.9537 21.3971C21.3024 21.8021 20.9927 22.6117 21.1978 23.3735C21.2941 23.731 21.7704 24.2982 22.0834 24.4279L22.306 24.5201V29.4537V34.3874L22.4717 34.6367C22.5628 34.7739 22.7857 34.9613 22.967 35.0531L23.2966 35.22L27.6624 35.1998C31.8791 35.1803 32.0365 35.1746 32.2717 35.0329C32.4057 34.9521 32.5873 34.7705 32.6753 34.6293C32.8314 34.3787 32.8358 34.3036 32.857 31.5655L32.8785 28.7586H33.2478C33.5581 28.7586 33.6513 28.7243 33.8315 28.5441C34.0733 28.3022 34.0929 28.1815 33.9387 27.8832C33.8081 27.6306 33.6988 27.5844 33.2329 27.5844H32.872L32.8726 26.0617L32.8731 24.539L33.168 24.3706C33.547 24.1541 33.8618 23.7166 33.9734 23.2515C34.127 22.611 33.9132 21.9989 33.3749 21.5381C33.2049 21.3925 33.0221 21.2734 32.9689 21.2734C32.89 21.2734 32.872 20.607 32.872 17.6776V14.0818H33.8315H34.791L35.0055 13.8673C35.1235 13.7493 35.22 13.5991 35.22 13.5334C35.22 13.352 35.0203 13.0046 34.8865 12.9532C34.8212 12.9282 34.3412 12.9076 33.8199 12.9076H32.872V12.226C32.872 11.665 32.8428 11.4866 32.7069 11.2176C32.527 10.8614 32.1432 10.5594 31.8706 10.5594C31.7017 10.5594 31.698 10.5445 31.698 9.87776C31.698 9.07979 31.5329 8.65218 31.1185 8.37677C30.8999 8.23147 30.7756 8.21107 30.1096 8.21107H29.35V6.35534C29.35 4.57659 29.3432 4.48603 29.1849 4.17276C29.0941 3.99297 28.9076 3.77135 28.7705 3.6802C28.5303 3.52059 28.4611 3.5145 26.8811 3.5145H25.241V2.83291C25.241 2.03494 25.0759 1.60733 24.6615 1.33192C24.4168 1.1693 24.3721 1.16622 22.2477 1.16622H20.0833L19.7252 0.831223C19.5282 0.646956 19.1498 0.394515 18.8842 0.270203C18.2561 -0.0237727 17.2914 -0.0866627 16.6561 0.124976ZM16.9306 1.27109C16.5864 1.39393 16.4899 1.46665 16.028 1.95099L15.6568 2.34036H13.4049H11.153V2.92743V3.5145H17.61H24.067V2.93037V2.34631L21.7567 2.32495L19.4464 2.30367L19.1007 1.90828C18.5155 1.23916 17.6951 0.998244 16.9306 1.27109ZM7.044 6.44986V8.21107H7.91107H8.77822L8.51642 7.68366C8.26863 7.18443 8.25469 7.11699 8.25469 6.41779C8.25469 5.65981 8.26004 5.64051 8.71585 4.74368C8.73126 4.71345 8.36137 4.68864 7.8939 4.68864H7.044V6.44986ZM10.4959 4.80437C9.59165 5.19668 9.14509 6.22949 9.5058 7.09432C9.73041 7.63288 10.317 8.08441 10.9169 8.18032C11.968 8.34844 13.0514 7.26493 12.8833 6.21371C12.7874 5.6138 12.3359 5.02709 11.7974 4.80246C11.4546 4.65944 10.8278 4.66039 10.4959 4.80437ZM13.7279 5.1106C14.1656 5.96428 14.1674 6.90697 13.7331 7.73165C13.6261 7.93478 13.5273 8.1258 13.5136 8.15603C13.5 8.18627 15.3346 8.21107 17.5905 8.21107H21.6922L21.4304 7.68366C21.1826 7.18443 21.1687 7.11699 21.1687 6.41779C21.1687 5.65981 21.174 5.64051 21.6299 4.74368C21.6453 4.71345 19.825 4.68864 17.5848 4.68864H13.5116L13.7279 5.1106ZM23.4099 4.80437C22.5057 5.19668 22.0591 6.22949 22.4198 7.09432C22.6444 7.63288 23.231 8.08441 23.8309 8.18032C24.882 8.34844 25.9654 7.26493 25.7973 6.21371C25.7014 5.6138 25.2499 5.02709 24.7114 4.80246C24.3686 4.65944 23.7418 4.66039 23.4099 4.80437ZM26.6419 5.1106C27.0796 5.96428 27.0814 6.90697 26.6471 7.73165C26.5401 7.93478 26.4413 8.1258 26.4276 8.15603C26.414 8.18627 26.8018 8.21107 27.2894 8.21107H28.176V6.44986V4.68864H27.3008H26.4256L26.6419 5.1106ZM4.696 9.97228V10.5594H17.61H30.524V9.97228V9.38521H17.61H4.696V9.97228ZM3.522 12.3206V12.9076H17.61H31.698V12.3206V11.7335H17.61H3.522V12.3206ZM3.522 17.6042V21.1266H7.631H11.74V17.6042V14.0818H7.631H3.522V17.6042ZM12.914 15.8122V17.5426L13.2923 17.1287C14.1345 16.207 15.4528 15.5073 16.7478 15.2944L17.023 15.2492V14.6655V14.0818H14.9685H12.914V15.8122ZM18.197 14.6675C18.197 15.2472 18.1991 15.2536 18.3988 15.2953C19.9982 15.63 20.6976 15.9886 21.7373 17.007L22.306 17.5641V15.823V14.0818H20.2515H18.197V14.6675ZM23.48 17.6042V21.1266H27.589H31.698V17.6042V14.0818H27.589H23.48V17.6042ZM6.97062 15.3245C6.01125 15.6175 5.36415 16.4323 5.29907 17.4296C5.23611 18.3937 5.68165 19.2051 6.50932 19.6336C7.14533 19.9629 7.63372 20.0105 8.29981 19.8082C8.74916 19.6717 8.89107 19.5846 9.25112 19.2245C9.61117 18.8644 9.69827 18.7225 9.83474 18.2731C10.034 17.6168 9.99074 17.1376 9.67486 16.5054C9.28333 15.7217 8.50057 15.25 7.61185 15.2622C7.3601 15.2657 7.07152 15.2937 6.97062 15.3245ZM26.9286 15.3245C26.3167 15.5114 25.7603 15.9832 25.4518 16.5768C25.3095 16.8507 25.28 17.0198 25.2789 17.5675C25.2779 18.1197 25.3068 18.2872 25.4555 18.5892C25.8093 19.3083 26.534 19.8192 27.3433 19.9203C27.6366 19.957 27.8568 19.93 28.2578 19.8082C28.7072 19.6717 28.8491 19.5846 29.2091 19.2245C29.5692 18.8644 29.6563 18.7225 29.7927 18.2731C29.992 17.6168 29.9487 17.1376 29.6329 16.5054C29.2413 15.7217 28.4586 15.25 27.5699 15.2622C27.3181 15.2657 27.0295 15.2937 26.9286 15.3245ZM7.06 16.5521C6.69928 16.7299 6.50579 17.0507 6.47256 17.5261C6.4369 18.0364 6.63317 18.3684 7.11796 18.6174C7.8374 18.9869 8.64247 18.5449 8.76919 17.7109C8.82576 17.3386 8.57776 16.8299 8.22548 16.5958C7.92516 16.3962 7.41513 16.3771 7.06 16.5521ZM27.018 16.5521C26.6573 16.7299 26.4638 17.0507 26.4306 17.5261C26.3949 18.0364 26.5912 18.3684 27.076 18.6174C27.7954 18.9869 28.6005 18.5449 28.7272 17.7109C28.7838 17.3386 28.5358 16.8299 28.1835 16.5958C27.8832 16.3962 27.3731 16.3771 27.018 16.5521ZM2.50752 22.4706C2.35035 22.638 2.30434 22.9088 2.39357 23.1414C2.52021 23.4715 2.57502 23.4749 7.66967 23.4749H12.4851L12.6995 23.2604C12.8175 23.1424 12.914 22.9922 12.914 22.9265C12.914 22.7452 12.7143 22.3977 12.5805 22.3463C12.5152 22.3213 10.258 22.3008 7.56445 22.3008H2.66711L2.50752 22.4706ZM22.4655 22.4706C22.3083 22.638 22.2623 22.9088 22.3516 23.1414C22.4782 23.4715 22.533 23.4749 27.6277 23.4749H32.4431L32.6575 23.2604C32.7755 23.1424 32.872 22.9922 32.872 22.9265C32.872 22.7452 32.6723 22.3977 32.5385 22.3463C32.4732 22.3213 30.216 22.3008 27.5224 22.3008H22.6251L22.4655 22.4706ZM3.522 26.1167V27.5844H6.457H9.392V26.1167V24.6491H6.457H3.522V26.1167ZM10.566 26.1167V27.5844H11.153H11.74V26.1167V24.6491H11.153H10.566V26.1167ZM23.48 26.1167V27.5844H24.067H24.654V26.1167V24.6491H24.067H23.48V26.1167ZM25.828 26.1167V27.5844H28.763H31.698V26.1167V24.6491H28.763H25.828V26.1167ZM3.522 31.4004V34.0422H6.457H9.392V31.4004V28.7586H6.457H3.522V31.4004ZM10.566 31.4004V34.0422H11.153H11.74V31.4004V28.7586H11.153H10.566V31.4004ZM23.48 31.4004V34.0422H24.067H24.654V31.4004V28.7586H24.067H23.48V31.4004ZM25.828 31.4004V34.0422H28.763H31.698V31.4004V28.7586H28.763H25.828V31.4004Z" fill="white"/>
</svg>
