<svg width="63" height="43" viewBox="0 0 63 43" fill="none" xmlns="http://www.w3.org/2000/svg">
<path fill-rule="evenodd" clip-rule="evenodd" d="M15.3035 0.193056C14.3824 0.508071 13.6038 0.99722 13.0646 1.5998C12.7322 1.97129 11.9199 3.49146 10.4469 6.49928C9.27248 8.89775 8.29574 10.8602 8.27656 10.8602C8.25738 10.8602 7.9886 10.6112 7.67912 10.3068C7.36572 9.99855 6.75168 9.58559 6.2927 9.37421C5.5401 9.02775 5.33821 8.99063 3.95904 8.9454C2.0787 8.88373 1.48681 9.02581 0.798141 9.70422C0.188537 10.3046 -0.00351708 10.8918 4.85782e-05 12.1439C0.00410605 13.5612 0.421042 14.3733 1.41131 14.8925C1.8178 15.1055 2.18481 15.1611 3.52722 15.2122L5.1512 15.274L4.80139 15.826C4.60897 16.1297 4.29458 16.7827 4.10289 17.2772L3.7542 18.1763L3.7119 22.6226C3.67219 26.7996 3.6851 27.129 3.92449 28.06C4.23728 29.2768 4.74692 30.3687 5.46178 31.3539L6.00449 32.102L6.04396 34.7528C6.08073 37.2122 6.1031 37.4396 6.3543 37.9014C6.77037 38.6664 7.17071 39.0748 7.88692 39.465L8.54263 39.8222H11.3091C14.4379 39.8222 14.7536 39.7518 15.6699 38.8508C16.4113 38.1215 16.6384 37.4872 16.6962 35.9828L16.7462 34.6828L26.5997 34.6853L36.4531 34.688L36.8053 35.1774C37.9066 36.708 40.6217 39.09 43.0141 40.6241C44.5161 41.5875 47.1141 42.8859 47.7391 42.9857C48.1045 43.0439 48.423 42.9406 49.6143 42.3772C56.01 39.3524 60.4471 34.8475 62.1428 29.6567C62.845 27.5072 62.846 27.4954 62.9426 18.9018C62.992 14.5122 63.0137 10.898 62.991 10.8702C62.9682 10.8425 62.9467 11.3323 62.943 11.9585L62.9364 13.0973L62.7165 12.4212C62.4508 11.6047 61.8966 10.7857 61.2294 10.2241C60.7129 9.78923 53.8049 6.50714 52.114 5.8932C50.5747 5.33439 49.229 5.13898 47.3842 5.20645L45.7739 5.26546L44.9866 3.68906C44.0447 1.80332 43.3953 1.0722 42.1117 0.45184L41.2536 0.0371804L28.5868 0.00973023C16.817 -0.0157854 15.8762 -0.00272539 15.3035 0.193056ZM15.7969 2.06041C15.2903 2.23878 14.6877 2.65175 14.3886 3.02577C14.2512 3.19749 13.3186 5.01696 12.3161 7.06885C11.3135 9.12086 10.1603 11.439 9.7536 12.2206L9.01403 13.6415H21.0259H33.0376L33.1098 13.0422C33.2143 12.1746 33.754 11.1888 34.509 10.4865C35.1915 9.85175 35.8657 9.50807 41.4942 6.92604C42.7791 6.33664 43.852 5.83939 43.8783 5.821C43.9923 5.7418 42.8199 3.42568 42.4518 3.00268C42.2291 2.74692 41.7596 2.39671 41.4083 2.22451L40.7697 1.91155L28.4678 1.9211C20.0393 1.92763 16.0496 1.97153 15.7969 2.06041ZM46.8502 7.11625C46.4147 7.17478 45.6782 7.33634 45.2135 7.47517C44.1959 7.77906 36.5479 11.3188 35.9667 11.7548C35.741 11.9242 35.4399 12.2992 35.2976 12.5881C35.0449 13.1014 35.0392 13.2563 35.0392 19.5234C35.0392 24.8736 35.072 26.1214 35.2377 27.0701C36.1992 32.5755 40.2858 37.4064 46.4793 40.3592L47.9771 41.0733L48.8732 40.6717C50.4167 39.9799 52.7086 38.5918 54.0355 37.5448C55.0937 36.71 56.9171 34.9026 57.655 33.9572C59.521 31.5665 60.5822 28.9991 60.8671 26.1861C60.9428 25.4388 61.0576 24.7172 61.1223 24.5827C61.1935 24.4345 61.2255 22.1226 61.2033 18.7178L61.1668 13.0973L60.826 12.527C60.6385 12.2133 60.3065 11.8253 60.0883 11.6647C59.7028 11.3811 53.6309 8.50934 51.9917 7.83541C50.4386 7.19691 48.3864 6.90983 46.8502 7.11625ZM46.105 10.086C44.992 10.3777 38.4734 13.4728 38.0733 13.8995L37.7262 14.2697L37.7732 20.3344L37.82 26.3993L38.1505 27.6086C38.5349 29.0152 39.3602 30.7667 40.1703 31.8947C41.5048 33.7532 43.9813 35.888 46.3525 37.2238C47.8442 38.0642 48.0714 38.0694 49.4359 37.2954C51.8253 35.9402 54.1094 34.0186 55.4877 32.2038C56.4363 30.9549 57.3325 29.1336 57.7487 27.6086L58.0787 26.3993L58.1254 20.2792L58.1722 14.1589L57.8867 13.8456C57.5388 13.4638 50.8 10.3492 49.7371 10.0791C48.822 9.84643 47.0055 9.84981 46.105 10.086ZM2.16809 11.0813C2.02202 11.24 1.9646 11.5276 1.9646 12.1004C1.9646 12.8185 1.99706 12.9234 2.28859 13.1489C2.587 13.3798 2.77475 13.3996 4.66713 13.3996C6.58225 13.3996 6.73718 13.3828 6.94976 13.1517C7.17206 12.9101 7.17194 12.8928 6.94275 12.4743C6.62541 11.8946 5.72244 11.1324 5.17652 10.9831C4.93148 10.9163 4.20015 10.8612 3.55132 10.8609C2.564 10.8603 2.33838 10.8962 2.16809 11.0813ZM0.0416069 12.0694C0.0416069 12.7013 0.0623861 12.9598 0.0877146 12.6438C0.113043 12.3279 0.113043 11.811 0.0877146 11.495C0.0623861 11.179 0.0416069 11.4376 0.0416069 12.0694ZM46.6583 11.8759C46.3202 11.9578 44.6149 12.6996 42.869 13.5244L39.6944 15.0242L39.7408 20.6513C39.7937 27.0564 39.8101 27.1811 40.8777 29.3019C42.0287 31.588 44.0552 33.585 47.0221 35.3565L47.9723 35.9239L48.4833 35.6465C51.3466 34.092 54.0219 31.477 55.199 29.0819C56.1763 27.0938 56.2202 26.7487 56.2782 20.5873C56.3199 16.1546 56.299 15.114 56.1662 15.0095C55.7713 14.699 49.9935 12.0546 49.3493 11.8895C48.508 11.674 47.5137 11.669 46.6583 11.8759ZM6.64693 16.3112C6.31077 16.782 5.90822 17.5303 5.75232 17.9739C5.47764 18.7559 5.46878 18.9104 5.46878 22.9529V27.1249L5.81478 28.0877C6.66709 30.4594 8.50353 32.1719 10.6696 32.6147C11.3366 32.7511 35.1621 32.8177 35.1621 32.6833C35.1621 32.6476 35.069 32.4788 34.9552 32.3079C34.8413 32.137 34.5451 31.4996 34.2968 30.8913L33.8453 29.7853L27.7918 29.7248L21.7383 29.6643L21.5033 29.3788C21.1761 28.9813 21.2038 28.4471 21.5702 28.0868L21.8719 27.79H27.6696C33.031 27.79 33.4612 27.7748 33.3884 27.5884C33.3451 27.4775 33.2761 27.0708 33.2352 26.6848L33.1605 25.9829L27.4495 25.9493L21.7383 25.9156L21.5033 25.6301C21.1761 25.2326 21.2038 24.6983 21.5702 24.3381L21.8719 24.0412H27.472H33.0719V19.7483V15.4554H20.165H7.25801L6.64693 16.3112ZM9.26609 19.0727C8.98772 19.197 8.60042 19.5043 8.40541 19.7554C8.05844 20.2025 8.05008 20.2486 8.01553 21.9151C7.97261 23.9866 8.08438 24.2996 9.03444 24.7668L9.64921 25.0691H13.3993C17.4435 25.0691 17.9032 25.0108 18.276 24.4514C18.5538 24.0344 18.451 22.4635 18.1028 21.8041C17.7805 21.1937 17.1686 20.5798 16.5968 20.2928C16.141 20.0642 10.6282 18.8383 10.0796 18.8436C9.91049 18.8453 9.54446 18.9484 9.26609 19.0727ZM52.1683 20.1621C52.0289 20.2899 50.8485 21.7592 49.5454 23.4271C48.2422 25.0951 47.1398 26.4598 47.0956 26.4598C47.0516 26.4598 46.3291 25.9428 45.4902 25.3109C44.5625 24.6122 43.852 24.1621 43.6764 24.1621C43.2571 24.1621 42.6924 24.4828 42.5984 24.7744C42.4265 25.3071 42.7848 25.7064 44.7596 27.1833C46.8029 28.7112 47.0773 28.87 47.5272 28.7854C47.9096 28.7135 48.0592 28.5395 51.0673 24.6658C53.8917 21.0288 53.9949 20.8418 53.5367 20.1985C53.2877 19.8487 52.5323 19.8286 52.1683 20.1621ZM9.91565 20.7359C9.87053 20.7802 9.83364 21.316 9.83364 21.9264V23.0364L11.4013 23.1152C12.2636 23.1583 13.7573 23.194 14.7211 23.1942C16.368 23.1947 16.4731 23.1808 16.4731 22.9622C16.4731 22.6931 15.9501 22.0422 15.5752 21.8449C15.3137 21.7073 10.5565 20.6553 10.1956 20.6553C10.0867 20.6553 9.96065 20.6915 9.91565 20.7359ZM7.86638 35.0548C7.86638 37.7471 7.96524 37.8276 11.2665 37.8251C13.8199 37.8232 14.0137 37.78 14.4715 37.112C14.7101 36.7636 14.7518 36.5458 14.7518 35.6459V34.5888L12.5694 34.5366C10.5896 34.4892 10.2956 34.4535 9.40331 34.1525C8.86231 33.9701 8.29512 33.7414 8.14303 33.6443L7.86638 33.468V35.0548Z" fill="black"/>
</svg>
