<svg width="43" height="36" viewBox="0 0 43 36" fill="none" xmlns="http://www.w3.org/2000/svg">
<path fill-rule="evenodd" clip-rule="evenodd" d="M11.0893 2.0068V4.01359H11.7891H12.489V6.83395V9.65431H7.42878H2.3686V11.2272V12.8001H1.1843H0V23.9731V35.146L5.78691 35.153C8.96976 35.1569 14.8683 35.1807 18.8949 35.2062C22.9215 35.2317 29.9103 35.2208 34.4254 35.1819L42.6347 35.1113V23.9557V12.8001H42.0964H41.5581V11.2272V9.65431H36.0673H30.5764V6.83395V4.01359H31.0609H31.5454V2.0068V0H21.3174H11.0893V2.0068ZM12.166 2.0068V2.92884H21.3174H30.4688V2.0068V1.08475H21.3174H12.166V2.0068ZM13.4823 5.88479L13.5118 7.75599H14.9652H16.4187L16.4482 5.88479L16.4776 4.01359H14.9652H13.4529L13.4823 5.88479ZM17.4658 5.88479L17.4953 7.75599L21.3981 7.78441L25.3009 7.81294V5.91321V4.01359H21.3686H17.4364L17.4658 5.88479ZM26.3775 5.91484V7.81598L27.9656 7.78604L29.5536 7.75599L29.5831 5.88479L29.6125 4.01359H27.9951H26.3775V5.91484ZM13.5304 8.8581C13.4906 8.89824 13.4579 9.3623 13.4579 9.88938V10.8475H21.5368H29.6155L29.5846 9.84414L29.5536 8.84075L21.5782 8.81298C17.1918 8.79768 13.5702 8.81797 13.5304 8.8581ZM3.44523 11.7696V12.8001H7.91326H12.3813V11.7696V10.7391H7.91326H3.44523V11.7696ZM30.6841 11.7696V12.8001H35.5828H40.4815V11.7696V10.7391H35.5828H30.6841V11.7696ZM13.4579 12.3662V12.8001H14.9652H16.4725V13.5052V14.2103H21.3174H26.1622V13.5052V12.8001H27.8848H29.6074V12.3662V11.9323H21.5327H13.4579V12.3662ZM0.992549 15.2137L1.0228 16.5425L1.85719 16.5742L2.69159 16.6059V15.2454V13.8849H1.82694H0.962296L0.992549 15.2137ZM3.7918 15.2137L3.82205 16.5425L4.97943 16.5733L6.13682 16.6041V15.2445V13.8849H4.94918H3.76155L3.7918 15.2137ZM7.21345 15.2445V16.6041L8.37083 16.5733L9.52821 16.5425L9.55847 15.2137L9.58872 13.8849H8.40109H7.21345V15.2445ZM10.5746 15.2137L10.6048 16.5425L11.7622 16.5733L12.9196 16.6041V15.2445V13.8849H11.732H10.5443L10.5746 15.2137ZM13.9962 15.246V16.607L14.6691 16.5748L15.342 16.5425L15.3723 15.2137L15.4025 13.8849H14.6994H13.9962V15.246ZM27.2624 15.2137L27.2927 16.5425L28.1271 16.5742L28.9615 16.6059V15.2454V13.8849H28.0968H27.2322L27.2624 15.2137ZM30.0381 15.2445V16.6041L31.1955 16.5733L32.3529 16.5425L32.3831 15.2137L32.4134 13.8849H31.2257H30.0381V15.2445ZM33.4833 15.2408V16.5967H34.6138H35.7443V15.2408V13.8849H34.6138H33.4833V15.2408ZM36.8445 15.2137L36.8747 16.5425H38.0052H39.1357L39.1659 15.2137L39.1962 13.8849H38.0052H36.8142L36.8445 15.2137ZM40.2661 15.246V16.607L40.939 16.5748L41.6119 16.5425L41.6422 15.2137L41.6724 13.8849H40.9693H40.2661V15.246ZM16.4725 24.6782V34.0613H16.8461H17.2196L17.2498 27.6316L17.28 21.2021L17.6325 20.4808C18.0713 19.5829 18.9213 18.7706 19.7835 18.4253C20.264 18.2329 20.6186 18.1769 21.3712 18.1749C22.2379 18.1727 22.4163 18.2086 23.0616 18.5153C23.8652 18.8974 24.6328 19.6032 24.971 20.2712C25.4995 21.315 25.5162 21.5523 25.5162 28.0094V34.0613H25.8392H26.1622V24.6782V15.295H21.3174H16.4725V24.6782ZM1.04154 17.6446C1.00159 17.6847 0.968971 21.3949 0.968971 25.8895V34.0613H8.18307H15.3973L15.3696 25.8443L15.342 17.6273L8.22807 17.5994C4.31537 17.5841 1.08137 17.6044 1.04154 17.6446ZM27.3114 17.6446C27.2715 17.6847 27.2389 21.3949 27.2389 25.8895V34.0613H34.4529H41.6672L41.6395 25.8443L41.6119 17.6273L34.498 17.5994C30.5852 17.5841 27.3513 17.6044 27.3114 17.6446ZM4.09121 21.5324V23.9731H4.62953H5.16785V21.5324V19.0917H4.62953H4.09121V21.5324ZM7.6441 21.5324V23.9731H8.18242H8.72074V21.5324V19.0917H8.18242H7.6441V21.5324ZM11.6277 21.5324V23.9731H12.166H12.7043V21.5324V19.0917H12.166H11.6277V21.5324ZM30.3611 21.5324V23.9731H30.8456H31.3301V21.5324V19.0917H30.8456H30.3611V21.5324ZM33.914 21.5324V23.9731H34.4523H34.9906V21.5324V19.0917H34.4523H33.914V21.5324ZM37.8975 21.5324V23.9731H38.4358H38.9742V21.5324V19.0917H38.4358H37.8975V21.5324ZM20.2756 19.3778C19.642 19.604 18.8563 20.3395 18.5575 20.9859L18.3049 21.5324L18.3039 27.7968L18.3028 34.0613H21.3712H24.4396V28.0064C24.4396 21.3111 24.4355 21.2654 23.7591 20.3718C23.2367 19.6818 22.2499 19.1975 21.3887 19.2087C21.0238 19.2134 20.5229 19.2895 20.2756 19.3778Z" fill="white"/>
</svg>
