<svg width="77" height="55" viewBox="0 0 77 55" fill="none" xmlns="http://www.w3.org/2000/svg">
<path fill-rule="evenodd" clip-rule="evenodd" d="M36.8476 0.0955814C33.9218 0.540046 31.5804 1.82958 29.4725 4.15722C27.9804 5.80482 26.7834 6.82591 25.2835 7.73098C22.8434 9.20329 20.4146 9.85267 16.7901 10.0019C13.7112 10.1287 12.9408 10.441 12.048 11.9241L11.6778 12.5388L7.6711 12.5841C3.86651 12.6271 3.62961 12.6462 2.97732 12.9603C1.8616 13.4974 1.09296 14.2429 0.555514 15.309L0.0613053 16.2892L0.0120645 20.3269C-0.0406291 24.6416 0.0628066 25.7975 0.653696 27.4951C1.34427 29.4788 2.32833 30.9853 4.10295 32.7757C6.20124 34.8927 8.95121 36.4176 11.8774 37.0864L13.3351 37.4197L13.8652 38.6666C14.537 40.247 15.7002 42.2521 16.9503 43.9849C18.1444 45.6401 20.9175 48.3902 22.7067 49.6935C27.2821 53.0266 33.036 54.9791 38.343 54.9998C45.7946 55.029 53.6597 51.3555 58.6327 45.5232C60.5213 43.3082 62.1698 40.6722 63.1042 38.3732L63.4918 37.4197L64.954 37.087C67.762 36.4481 70.173 35.1626 72.3359 33.1514C74.7061 30.9476 76.3091 28.1873 76.6417 25.7369C76.6954 25.3416 76.7979 24.9826 76.8697 24.9394C76.9413 24.896 77 22.9793 77 20.68C77 18.3807 76.9454 16.5324 76.8787 16.5727C76.8119 16.6129 76.6805 16.3693 76.5867 16.0313C76.3342 15.1217 75.6091 14.1052 74.7935 13.5174C73.5784 12.6415 73.0528 12.5561 68.8804 12.5561H65.1687L64.7934 11.9327C63.8949 10.44 63.1297 10.1289 60.046 10.0019C54.4787 9.77273 50.9758 8.16899 47.4305 4.22616C46.1408 2.79185 45.0064 1.90556 43.5394 1.18621C41.6019 0.236108 38.8618 -0.210556 36.8476 0.0955814ZM37.2921 2.52811C36.3405 2.67025 35.1502 3.06836 34.1571 3.57634C33.1217 4.10617 32.4104 4.7249 30.3113 6.92229C28.9239 8.37465 27.2508 9.59788 25.3751 10.531C22.799 11.8124 20.5139 12.3502 16.9757 12.5073C14.9634 12.5966 14.7574 12.6318 14.4417 12.9403C14.1574 13.2181 14.0979 13.4335 14.0979 14.1854V15.0947L16.9128 15.0104C18.8818 14.9514 20.1873 14.8342 21.2571 14.6203C25.4126 13.7895 29.2207 11.7759 31.8877 8.9991C32.4656 8.39724 33.3182 7.50757 33.7822 7.02204C35.7226 4.99129 38.656 4.45265 41.2012 5.65975C42.1925 6.12988 42.6718 6.54647 44.5416 8.56329C46.7136 10.9057 49.6465 12.8039 52.7267 13.8606C54.9451 14.6218 56.7906 14.9166 59.9234 15.0104L62.7382 15.0947V14.1854C62.7382 13.4335 62.6787 13.2181 62.3944 12.9403C62.0781 12.6312 61.8732 12.5966 59.821 12.5055C58.5862 12.4507 56.9186 12.2726 56.0838 12.1064C52.3757 11.368 49.0472 9.56282 46.5248 6.92229C43.853 4.12539 42.8359 3.39151 40.8361 2.81723C39.9822 2.57197 38.0518 2.41442 37.2921 2.52811ZM37.7164 7.58312C36.8113 7.74667 36.2423 8.07584 35.5238 8.85167C32.0717 12.5796 29.8506 14.2405 26.4081 15.6687C23.3417 16.9409 21.1051 17.3754 16.977 17.5007L14.0763 17.5887L14.1331 24.1304C14.186 30.2363 14.2125 30.779 14.5303 32.2776C15.9817 39.1226 19.6138 44.5983 25.1664 48.3123C29.6359 51.3017 35.5279 52.9402 40.0703 52.4568C50.074 51.3925 58.2502 44.9384 61.3754 35.6389C62.5731 32.075 62.6391 31.5017 62.7032 24.1078L62.7601 17.5435L60.9101 17.5434C55.0484 17.5431 50.8213 16.3753 46.5309 13.5712C45.2355 12.7245 42.9769 10.685 41.2884 8.837C40.3242 7.78188 39.064 7.33947 37.7164 7.58312ZM3.96484 15.2809C3.27907 15.6303 3.02206 15.9082 2.75649 16.5876C2.54811 17.1206 2.52124 17.8024 2.56778 21.3737C2.62137 25.4865 2.62723 25.5525 3.04037 26.7115C4.07142 29.6026 6.42222 32.1139 9.45788 33.567C10.5142 34.0725 12.3208 34.7311 12.4105 34.6434C12.4336 34.6209 12.3443 34.1471 12.2122 33.5907C11.6392 31.1786 11.5518 29.6875 11.5488 22.2742L11.5458 15.0498L7.98036 15.0507C5.04048 15.0514 4.33594 15.0919 3.96484 15.2809ZM65.2903 22.0895C65.2903 29.2982 65.2004 30.9539 64.6811 33.3012C64.5218 34.0211 64.4107 34.6288 64.4341 34.6519C64.4577 34.6748 65.0223 34.509 65.6889 34.2834C69.5303 32.9837 72.5749 30.1402 73.7962 26.7115C74.2087 25.553 74.2149 25.4849 74.2683 21.3737C74.3299 16.6486 74.2637 16.2553 73.2831 15.5241L72.7456 15.1232L69.0179 15.0793L65.2903 15.0354V22.0895ZM0.052448 20.844C0.0525981 23.1837 0.0733152 24.1203 0.0985361 22.9253C0.123757 21.7304 0.123757 19.8162 0.098386 18.6714C0.0731651 17.5266 0.052448 18.5043 0.052448 20.844ZM21.454 21.3128C20.9173 21.5082 20.5533 22.0005 20.5533 22.5309C20.5533 23.3904 20.9751 23.6569 22.7343 23.9085C31.3371 25.1395 40.745 25.3222 49.6504 24.4317C55.6558 23.8311 56.2828 23.6551 56.2828 22.569C56.2828 21.3188 55.7693 21.1476 53.1092 21.5117C47.0615 22.3393 40.3386 22.6598 34.3398 22.4064C29.7185 22.2113 25.3116 21.811 22.0545 21.2907C21.8481 21.2577 21.5779 21.2676 21.454 21.3128ZM20.8909 29.1663C20.4357 29.6398 20.4371 30.4409 20.8938 30.8601C21.7424 31.6392 28.2414 33.0311 33.3889 33.5363C35.519 33.7453 41.3027 33.744 43.5223 33.5341C48.4127 33.0713 55.0949 31.6305 55.9451 30.8554C56.4183 30.4242 56.4052 29.5888 55.9183 29.1418C55.4572 28.7185 54.8909 28.7621 52.57 29.3994C50.4694 29.9763 47.7908 30.5068 45.2487 30.8493C43.708 31.0568 42.2857 31.1121 38.4931 31.1121C32.4952 31.1121 29.8973 30.8114 24.9069 29.5394C21.8365 28.7569 21.3299 28.7098 20.8909 29.1663ZM20.842 37.9218C20.0238 38.7213 20.3299 39.4808 21.7366 40.1414C25.6036 41.9571 30.5103 43.2431 35.1153 43.6479C41.7214 44.2285 48.7696 43.0078 54.9658 40.2099C55.918 39.7799 56.433 39.253 56.433 38.7088C56.433 38.2657 55.6708 37.4931 55.2335 37.4931C55.0565 37.4931 54.1523 37.8222 53.2241 38.2246C43.7268 42.3414 32.8249 42.2952 23.3108 38.0979C22.5567 37.7652 21.7915 37.4931 21.6103 37.4931C21.4291 37.4931 21.0834 37.686 20.842 37.9218Z" fill="white"/>
</svg>
