<svg width="60" height="65" viewBox="0 0 60 65" fill="none" xmlns="http://www.w3.org/2000/svg">
<path fill-rule="evenodd" clip-rule="evenodd" d="M7.86722 0.0227901C7.72858 0.0546792 7.3032 0.143486 6.92194 0.219969C5.12931 0.57977 3.30933 1.74696 1.98808 3.38385C0.382243 5.3733 -0.368561 8.38422 0.176046 10.6501C0.699605 12.829 1.82474 14.9398 5.18893 20.0548C6.55794 22.1363 7.67816 23.8656 7.67816 23.8975C7.67816 23.9293 7.39874 24.3871 7.05705 24.9145C6.32755 26.0411 5.32076 28.0934 4.85921 29.395C3.48175 33.2791 3.15809 37.7936 3.96611 41.8512C5.55947 49.8529 11.5899 56.668 19.3358 59.2212C23.4314 60.5712 27.4312 60.7253 32.0349 59.7107L32.3815 59.6344V62.0053C32.3815 64.3533 32.3845 64.3794 32.6909 64.6881L33.0002 65H46.1599H59.3194L59.6597 64.7301L60 64.4604L59.9577 59.7435L59.9153 55.0267L59.5271 54.0059C58.9265 52.4273 58.1657 51.3504 56.9272 50.3266C55.5608 49.1968 54.0372 48.63 52.0707 48.5196L50.7747 48.4468L50.3283 47.642L49.8817 46.8372L50.4974 46.2066C51.6665 45.0095 52.1693 43.6453 52.1693 41.6702C52.1693 40.555 52.193 40.4538 52.6746 39.5053C53.6819 37.5219 53.8006 35.9593 53.0593 34.4414C52.7997 33.9099 52.4593 33.4587 52.082 33.1461C51.7635 32.8822 51.355 32.5027 51.1744 32.3027C49.9633 30.9625 49.6317 30.6595 48.9697 30.2877C48.2615 29.8901 48.2117 29.8288 47.8737 28.9384C45.0807 21.5809 38.8512 16.2843 31.0024 14.5936C29.5451 14.2796 29.1848 14.2523 26.4577 14.2484C23.8566 14.2447 23.3219 14.2798 22.0673 14.5359C19.4856 15.0632 16.7672 16.1269 14.4842 17.5032L13.791 17.9212L14.0362 17.5438C15.3895 15.4606 16.6182 13.0699 17.1554 11.4749C18.9151 6.24955 14.8246 0.339013 9.23245 0.0268556C8.62016 -0.00732035 8.00586 -0.00909902 7.86722 0.0227901ZM7.33484 1.91352C6.38313 2.13217 5.04839 2.82293 4.25978 3.50506C2.38699 5.12454 1.35462 8.22655 1.93288 10.4963C2.19453 11.5233 3.09973 13.4466 4.14521 15.1971C5.12666 16.8404 8.68633 22.1861 8.79573 22.181C8.89871 22.1763 12.479 16.7675 13.4059 15.2164C14.3164 13.6928 14.9921 12.3308 15.4324 11.1315C16.0721 9.38892 15.8134 7.10662 14.7731 5.31727C14.3073 4.51611 13.2058 3.35082 12.4551 2.86537C10.9778 1.90971 8.97307 1.53708 7.33484 1.91352ZM29.0415 5.34637C27.4471 6.35539 26.036 7.32172 25.9057 7.49361C25.7459 7.70426 25.6947 7.91058 25.7485 8.12657C25.8405 8.49628 31.0003 12.993 31.477 13.1191C32.1264 13.2908 32.6459 12.6929 32.4588 11.9891C32.4171 11.8319 31.6734 11.108 30.8061 10.3804C29.9389 9.65292 29.2536 9.03318 29.2832 9.00333C29.3963 8.88924 32.2533 9.38777 33.8263 9.79598C40.7203 11.5848 46.7041 16.0217 50.5344 22.1847C51.3905 23.5624 52.6504 26.2208 53.1837 27.7748C53.4114 28.4387 53.6847 29.0846 53.7909 29.2104C54.0803 29.5529 54.7887 29.4515 55.1055 29.0222L55.3568 28.6813L54.8876 27.3123C51.3583 17.0133 42.4796 9.37736 31.9403 7.57696C29.2218 7.11247 29.3015 7.2836 31.232 6.05441C32.2789 5.38779 32.9513 4.87565 33.0205 4.69207C33.2306 4.13522 32.7773 3.50607 32.1692 3.51014C32.0433 3.51103 30.6358 4.33722 29.0415 5.34637ZM7.79525 4.56413C5.40987 5.24371 4.15945 7.63032 4.95815 9.97931C5.29013 10.9553 6.34796 12.0196 7.36307 12.3987C9.32433 13.1313 11.536 12.224 12.4741 10.3024C12.7326 9.77299 12.7825 9.48484 12.7815 8.52702C12.7805 7.53706 12.7355 7.2977 12.4462 6.74326C12.0436 5.97183 11.1364 5.09977 10.3904 4.76703C9.67409 4.44763 8.52072 4.35755 7.79525 4.56413ZM8.04543 6.29809C6.34229 6.81835 5.93872 9.34623 7.3816 10.4556C7.84579 10.8125 8.6484 10.9605 9.3745 10.8233C9.92288 10.7195 10.6791 10.077 10.9109 9.51775C11.2586 8.67872 10.9943 7.34408 10.3697 6.78494C9.78828 6.26455 8.81943 6.06165 8.04543 6.29809ZM23.2599 16.1522C20.2804 16.6379 17.3378 17.7831 14.7985 19.4453C13.645 20.2005 11.4416 22.0771 10.9152 22.753L10.5603 23.2087L15.2004 23.1732C20.4404 23.133 20.8556 23.1871 21.7831 24.0319C22.912 25.0599 22.7535 26.753 21.218 30.0635C20.3554 31.9234 20.281 32.2609 20.6781 32.5151C20.8415 32.6198 21.5562 32.7962 22.2665 32.9072C23.7746 33.143 24.4672 33.439 25.3209 34.2126C26.5142 35.2941 26.9438 36.8497 26.5347 38.6069C26.3375 39.4538 25.8905 40.4808 25.4368 41.1295C25.2102 41.4534 25.2108 41.4801 25.4603 42.1955C26.5943 45.4479 25.609 48.4498 22.8791 50.059C22.4211 50.3291 22.0464 50.5756 22.0464 50.6067C22.0464 50.638 22.3916 51.2297 22.8136 51.9219C24.2077 54.2086 24.9453 56.2133 24.9453 57.7157V58.509L25.4044 58.5959C26.3552 58.7756 30.366 58.3554 31.9403 57.911L32.3184 57.8041L32.4041 56.5101C32.5638 54.1021 33.2313 52.5738 34.8333 50.9488C36.4347 49.3245 38.4031 48.4915 40.653 48.4859C41.6398 48.4835 41.6134 48.5005 42.1551 47.5122L42.5136 46.8584L41.8621 46.1399C40.9785 45.1653 40.4761 44.0655 40.3106 42.743C40.2379 42.162 40.213 41.4507 40.2554 41.1624C40.3223 40.7079 40.2565 40.4892 39.7601 39.5165C39.4451 38.8997 39.1875 38.3223 39.1875 38.2333C39.1875 38.1444 39.0599 37.9888 38.9039 37.8875C38.3721 37.5423 37.7539 37.5253 36.272 37.8152C34.2449 38.2119 32.6266 38.1378 31.4773 37.5956C29.8936 36.8486 29.0986 35.6304 29.003 33.8046C28.9348 32.5017 29.1219 31.6087 29.7272 30.3468C30.949 27.8003 33.4015 26.2448 35.6434 26.5946C36.6069 26.7449 37.6351 27.1969 38.4626 27.8338C39.1642 28.3737 39.8904 28.7614 40.3885 28.8619C40.6693 28.9184 40.8599 28.8645 41.1269 28.6526C41.4723 28.3788 41.4845 28.3326 41.4268 27.5199C41.3512 26.4542 40.8814 25.526 39.7133 24.1341C38.3607 22.5223 37.481 20.9539 37.1593 19.5802C37.0774 19.2308 36.9904 18.8703 36.9658 18.7789C36.9035 18.5474 34.5725 17.4471 33.16 16.9825C30.8921 16.2366 29.7817 16.0631 26.9619 16.0145C25.1299 15.983 24.0527 16.023 23.2599 16.1522ZM39.3135 20.339C39.3135 20.5468 39.8608 21.4448 40.4384 22.1847C42.4789 24.7987 42.761 25.2838 43.0505 26.6789C43.6638 29.6331 41.7288 31.4464 39.1565 30.3283C38.8615 30.2001 38.1125 29.7461 37.4919 29.3195C36.126 28.3805 35.3832 28.1625 34.3465 28.3964C32.4181 28.8314 30.743 31.2234 30.743 33.542C30.743 34.8882 31.4111 35.8198 32.6187 36.158C33.3076 36.3509 34.7961 36.3126 35.8843 36.0742C36.4186 35.957 37.3236 35.8634 37.8956 35.8659C38.8196 35.8701 38.9354 35.8448 38.9354 35.639C38.9354 34.997 39.4863 33.9601 40.177 33.302C41.0117 32.5066 41.1211 32.3928 41.9822 31.4234C42.8617 30.4332 44.1085 29.8005 45.3577 29.7104C45.846 29.6752 46.2453 29.6112 46.2449 29.5683C46.2447 29.5252 45.9103 28.7959 45.5019 27.9476C44.3108 25.4731 42.7576 23.3243 40.9211 21.6105C39.9833 20.7351 39.3135 20.2054 39.3135 20.339ZM8.61638 25.7421C7.24232 27.8883 6.17076 30.5899 5.63951 33.2473C5.3926 34.4826 5.35025 35.0778 5.35492 37.2399C5.35983 39.4959 5.39827 39.9604 5.69698 41.382C6.90467 47.1272 10.136 52.0041 14.7878 55.1019C16.8974 56.5068 19.8782 57.744 22.204 58.1799L23.1807 58.363V57.6928C23.1807 56.3616 22.3411 54.3944 20.6701 51.8112C19.4702 49.9565 19.489 49.611 20.8158 49.1171C21.7398 48.7731 22.8888 47.9939 23.3566 47.3944C24.377 46.0861 24.4543 44.0967 23.5619 42.114C23.2232 41.3616 23.2376 41.2448 23.7645 40.4726C25.1114 38.499 25.29 36.8541 24.2831 35.698C23.7456 35.081 23.353 34.9092 21.8163 34.6187C21.0763 34.4789 20.171 34.2275 19.8042 34.0601C19.2373 33.8011 19.098 33.6654 18.8733 33.1536C18.6321 32.6037 18.6222 32.4803 18.7597 31.7278C18.8425 31.2748 19.2137 30.2429 19.5845 29.4347C20.6469 27.1194 20.991 25.8667 20.6896 25.4117C20.3759 24.9382 20.1035 24.9163 14.556 24.9163H9.14511L8.61638 25.7421ZM45.3683 31.4788C44.3294 31.6496 43.4948 32.1786 42.9271 33.0268C42.6617 33.4233 42.1975 33.919 41.8956 34.1284C40.8449 34.8572 40.4727 35.788 40.7181 37.0743L40.8561 37.7979L41.6443 36.9914C44.3207 34.2534 49.141 34.235 51.1218 36.9551C51.5745 37.5767 51.5984 37.5912 51.6804 37.2951C52.0143 36.09 51.6122 35.0166 50.496 34.1323C50.0956 33.8151 49.6037 33.289 49.4029 32.9632C48.6911 31.808 47.0472 31.2031 45.3683 31.4788ZM45.3691 36.863C43.9379 37.2678 42.8016 38.0599 42.3026 39.0005C42.056 39.4654 42.0239 39.7122 42.0287 41.1149C42.0355 43.1242 42.2443 43.8897 43.023 44.7629C43.3311 45.1082 43.941 45.5849 44.3786 45.8223C45.0958 46.2113 45.2736 46.2536 46.1825 46.2512C47.0198 46.2491 47.3118 46.1897 47.9043 45.9013C48.8666 45.4328 49.5955 44.6879 50.05 43.709C50.4258 42.8994 50.4272 42.8876 50.3825 40.9572C50.3433 39.2642 50.3028 38.9527 50.0635 38.4984C49.7387 37.8818 49.0233 37.2186 48.3995 36.9559C47.7401 36.6781 46.1905 36.6306 45.3691 36.863ZM43.6023 48.5225L43.1673 49.3431L44.6558 51.342C45.9049 53.0193 46.1714 53.3131 46.3124 53.1675C46.4049 53.0721 47.1027 52.1649 47.8632 51.1517L49.2461 49.3095L48.8192 48.5472C48.3515 47.7122 48.4187 47.7349 47.0953 47.9618C46.287 48.1003 45.7288 48.0631 44.4166 47.7829C44.0543 47.7054 44.0177 47.7387 43.6023 48.5225ZM39.09 50.4462C37.0311 50.9488 35.2677 52.5626 34.4959 54.6505C34.2333 55.3607 34.213 55.6513 34.1713 59.3146L34.1267 63.2213H35.7749H37.4229V60.6452C37.4229 57.6711 37.4698 57.5042 38.3052 57.5042C39.1406 57.5042 39.1875 57.6711 39.1875 60.6452V63.2213H46.1825H53.1776L53.1795 60.7121C53.1816 57.8036 53.2355 57.5897 53.9806 57.5275C54.3044 57.5005 54.5415 57.5592 54.7024 57.706C54.9233 57.9077 54.9421 58.1315 54.9421 60.573V63.2213H56.5806H58.2191V59.5636C58.2191 56.6891 58.1778 55.7459 58.0261 55.1591C57.2683 52.2261 54.6812 50.2571 51.6021 50.2698L50.7199 50.2734L48.7663 52.8892C47.6918 54.3279 46.6893 55.562 46.5385 55.6315C45.9531 55.9009 45.7093 55.673 43.652 52.9333L41.6463 50.2624L40.7005 50.2732C40.1803 50.2792 39.4556 50.357 39.09 50.4462Z" fill="white"/>
</svg>
