<svg width="189" height="51" viewBox="0 0 189 51" fill="none" xmlns="http://www.w3.org/2000/svg">
<path fill-rule="evenodd" clip-rule="evenodd" d="M9.33045 0.443072C5.23018 1.01385 2.52471 2.97382 0.962513 6.50591C0.176886 8.28166 0.0888745 9.44435 0.0465948 18.5802L0 28.6898L3.26762 28.8158L6.53524 28.9418V19.8499C6.53524 12.9682 6.68408 10.4013 7.1483 9.29033C8.57675 5.87214 14.2064 5.44158 16.3441 8.58711C17.0029 9.55652 17.1246 10.9992 17.2488 19.3063L17.3925 28.9056H20.5924H23.7923V19.0371C23.7923 8.39599 23.5468 6.84932 21.4147 4.05368C19.2973 1.27788 14.2241 -0.23815 9.33045 0.443072ZM123.471 11.3249C123.494 25.3394 123.83 26.619 127.982 28.5255C131.408 30.0989 136.983 29.255 139.132 26.8377C140.155 25.6875 141.097 23.0399 141.121 21.2477L141.14 19.8456H138.12C135.417 19.8456 135.1 19.9336 135.1 20.6843C135.1 21.1459 134.635 22.064 134.067 22.7249C133.159 23.7802 132.884 23.8743 131.811 23.4968C129.971 22.8501 129.472 21.4419 129.597 17.257L129.707 13.5899L133.698 13.4657L137.689 13.3419V10.5699V7.79803L133.698 7.67421L129.707 7.54996L129.583 3.77498L129.458 0H126.455H123.452L123.471 11.3249ZM76.1929 1.24251C71.958 3.16581 70.8177 6.33204 70.8177 16.1655C70.8177 22.5166 70.9014 23.2789 71.7884 25.0292C72.7626 26.9516 74.3248 28.1622 76.5341 28.7067L77.7205 28.9992V19.217C77.7205 12.6076 77.8832 9.12898 78.2223 8.4922C78.8444 7.32432 79.8876 6.49857 80.7405 6.49944C81.6629 6.5003 83.4477 8.08795 83.1207 8.61644C82.716 9.27135 83.2959 9.15487 84.0133 8.4374C84.4913 7.95938 84.9249 7.91581 85.8818 8.2493C87.4337 8.79031 88.7482 10.1536 88.1028 10.5527C87.85 10.7089 87.6433 10.5337 87.6433 10.164C87.6433 9.79424 87.4492 9.49138 87.2119 9.49138C86.9746 9.49138 86.7805 9.57248 86.7805 9.67171C86.7805 9.77094 86.6718 10.1351 86.5393 10.4806C86.3668 10.9302 86.6127 11.1092 87.4022 11.1092C88.0092 11.1092 88.5062 10.9185 88.5062 10.6856C88.5062 10.4526 88.7974 10.3736 89.1533 10.5104C90.1706 10.9004 89.9101 10.0716 88.7219 9.13718C88.1287 8.67037 87.6433 8.16129 87.6433 8.00511C87.6433 7.84936 88.2926 8.21694 89.086 8.82224C91.26 10.4806 91.9908 10.1122 90.0162 8.35371C88.1956 6.73198 88.6719 6.80402 90.9196 8.49004C92.3588 9.56946 92.8205 9.71658 92.8205 9.09662C92.8205 8.87962 91.829 7.97448 90.6176 7.08488C88.5342 5.55547 88.3358 5.4968 86.9531 5.99682C85.4375 6.54473 84.6186 6.36094 84.6298 5.47523C84.6342 5.15942 84.7907 5.20516 85.0358 5.59258C85.3848 6.14394 85.6161 6.1379 86.8629 5.54339C88.2788 4.86821 88.3095 4.87641 90.448 6.5236C91.634 7.43736 92.7583 8.1876 92.9456 8.19105C93.1332 8.19451 93.846 7.78379 94.5289 7.27859C95.9655 6.21685 97.5855 6.41229 98.7668 7.79069C99.4057 8.53577 99.5373 10.0311 99.7233 18.6721L99.939 28.6898L101.165 28.6031C101.839 28.5557 103.073 27.9961 103.907 27.3598C106.452 25.4188 106.71 24.2259 106.551 15.1431C106.423 7.86576 106.322 6.95416 105.465 5.35184C102.622 0.0383964 97.0156 -1.03111 93.3049 3.03163C92.0814 4.37121 92.0715 4.37337 90.4614 3.70077C89.5731 3.32932 88.6852 3.12482 88.4894 3.24605C88.2931 3.36728 87.2305 3.6352 86.1277 3.84142C84.1993 4.20166 84.0729 4.16025 82.7954 2.75639C82.065 1.95393 80.7699 1.10359 79.9178 0.866736C77.9876 0.330474 78.2603 0.303295 76.1929 1.24251ZM29.4008 14.8501V28.9056H32.6214H35.842L35.965 24.4834L36.0879 20.0613L37.6557 19.9306L39.2235 19.7994L41.7543 24.3454L44.285 28.8909L48.3012 28.8982C51.4014 28.9038 52.2431 28.7826 51.9916 28.3663C51.8125 28.0699 50.4233 25.9007 48.9047 23.5459L46.1436 19.2649L47.1557 18.4862C47.7123 18.0582 48.3055 17.7031 48.4733 17.698C48.6411 17.6928 49.3206 16.7665 49.9833 15.6392C51.0127 13.888 51.1878 13.1188 51.1878 10.3542C51.1878 6.32082 49.9104 3.80518 47.0237 2.15238C45.2449 1.13422 44.7402 1.07123 37.2743 0.936628L29.4008 0.794257V14.8501ZM56.4784 10.2464C56.349 22.1494 56.44 24.2172 57.2334 27.3956C58.101 30.8724 60.8475 36.3282 63.2669 39.3815C67.0013 44.0943 73.6358 48.356 79.662 49.9126C84.1975 51.0839 91.6267 50.9717 95.8297 49.6679C104.797 46.8861 111.422 41.3539 115.268 33.4355C118.039 27.7312 118.339 25.8489 118.586 12.6192L118.805 0.862852H115.335H111.865L111.706 12.6192C111.561 23.3082 111.461 24.6331 110.603 27.2109C108.029 34.9442 101.258 41.3112 93.4452 43.3462C90.203 44.1905 84.6523 44.1905 81.4101 43.3462C75.0254 41.6831 68.9479 36.8891 65.9206 31.1278C63.4485 26.424 63.068 23.819 63.0594 11.5407L63.0521 0.862852H59.8164H56.5807L56.4784 10.2464ZM36.0702 7.4408C35.9369 7.7881 35.8865 9.31363 35.9581 10.831L36.0879 13.5899L39.1355 13.715C41.7016 13.8203 42.3665 13.6961 43.3419 12.9285C44.8325 11.7564 44.9658 9.18291 43.5999 7.94687C42.398 6.85924 36.4469 6.45931 36.0702 7.4408ZM175.87 7.24537C172.831 7.55255 170.506 8.68504 168.63 10.7723C166.47 13.174 165.728 15.2423 165.741 18.8171C165.757 23.259 167.754 26.5185 171.556 28.3115C175.4 30.1243 179.362 29.4617 181.746 26.6065L182.528 25.6699L182.543 27.3076L182.557 28.9448L185.406 28.8175L188.254 28.6898L188.19 22.0191C188.12 14.8713 187.619 12.7534 185.448 10.4254C183.487 8.32307 179.22 6.9067 175.87 7.24537ZM149.545 7.93565C147.77 8.70877 145.598 11.2792 145.049 13.2547C144.8 14.1508 144.595 18.0392 144.594 21.8949L144.592 28.9056H147.574H150.557L150.702 21.7482C150.843 14.8307 150.881 14.5632 151.866 13.7668C153.929 12.0976 157.103 13.2974 157.103 15.7471C157.103 16.8015 157.175 16.8256 160.339 16.8256C163.407 16.8256 163.574 16.7756 163.572 15.8549C163.564 12.7284 161.222 9.04355 158.526 7.9171C156.758 7.1785 151.256 7.18972 149.545 7.93565ZM84.421 8.75493C84.2364 9.18032 84.2066 9.64971 84.3542 9.79769C84.7925 10.2356 85.1458 9.62037 84.9439 8.77003C84.7653 8.01633 84.742 8.0159 84.421 8.75493ZM85.8098 8.87745C85.6316 9.05693 85.4862 9.59837 85.4862 10.0811C85.4862 10.7158 85.6165 10.8279 85.9582 10.4862C86.2175 10.227 86.3633 9.68509 86.2818 9.283C86.2002 8.88048 85.988 8.69798 85.8098 8.87745ZM89.8117 13.2344C88.9488 13.6102 87.7128 13.7897 86.8996 13.6577L85.4862 13.4286V21.1671V28.9056H88.7219H91.9576V20.7085C91.9576 16.2001 91.8122 12.5273 91.634 12.5467C91.4559 12.5657 90.6361 12.8755 89.8117 13.2344ZM173.974 14.049C171.472 16.1552 171.363 20.5091 173.767 22.3996C177.321 25.1957 182.126 22.7478 182.126 18.141C182.126 13.832 177.182 11.35 173.974 14.049Z" fill="white"/>
</svg>
