<svg width="43" height="48" viewBox="0 0 43 48" fill="none" xmlns="http://www.w3.org/2000/svg">
<path fill-rule="evenodd" clip-rule="evenodd" d="M30.7169 0.107924C29.1297 0.480742 27.7376 2.11186 27.5631 3.80341C27.4634 4.76927 27.8023 6.872 28.2121 7.83025C28.2707 7.96742 28.1956 8.03643 27.8772 8.13802C26.5144 8.57299 24.9079 9.70869 24.015 10.8683C23.3023 11.7939 23.0168 12.4235 22.2037 14.8647C21.4745 17.0538 21.4254 17.3688 21.7608 17.7031C21.8926 17.8345 21.8766 18.0018 21.643 18.9303C21.4136 19.8422 21.3316 20.024 21.1034 20.1278C20.848 20.2437 20.7508 20.169 19.2054 18.67C18.3094 17.8012 17.5852 17.0164 17.5957 16.9262C17.6064 16.8361 17.7137 16.497 17.8342 16.1728C17.9941 15.7424 18.0542 15.3184 18.0567 14.6009C18.0586 14.059 18.1381 13.3155 18.2337 12.9432C18.4885 11.9519 18.4013 10.6989 18.0243 9.93063C17.485 8.83179 16.3459 8.04457 14.9812 7.82768C14.3825 7.73241 14.2736 7.67218 13.8121 7.18031C13.5321 6.88208 13.0311 6.50476 12.6986 6.34198C12.1743 6.08533 11.9653 6.046 11.1264 6.046C10.3045 6.046 10.0675 6.08875 9.55167 6.32976C8.29809 6.91562 7.52375 8.05036 7.44183 9.42161C7.38442 10.3831 7.50633 10.8862 7.99074 11.6882C8.21112 12.0531 8.3829 12.5073 8.42773 12.8437C8.46826 13.1486 8.58071 13.5636 8.67757 13.7661C8.77432 13.9684 8.8328 14.1498 8.80743 14.169C8.78206 14.1883 8.32722 14.4903 7.79659 14.8402C6.67384 15.5804 4.88489 17.2538 4.041 18.3529C2.4933 20.369 1.36603 22.9946 0.973216 25.4988C0.889795 26.0306 0.000430081 42.0195 7.29076e-08 42.995C-0.000107429 43.1009 0.118683 43.3058 0.26381 43.4504C0.523858 43.7098 0.554496 43.7135 2.41385 43.7135H4.29998V45.5937C4.29998 47.4472 4.30374 47.4777 4.56389 47.7369C4.91295 48.085 5.40703 48.085 5.75609 47.7369C6.01625 47.4777 6.02001 47.4472 6.02001 45.5937V43.7135H7.31003H8.60006V45.5937C8.60006 47.4472 8.60382 47.4777 8.86398 47.7369C9.21303 48.085 9.70711 48.085 10.0562 47.7369C10.3163 47.4777 10.3201 47.4472 10.3201 45.5937V43.7135H11.6101H12.9001V45.5937C12.9001 47.4472 12.9039 47.4777 13.1641 47.7369C13.3304 47.9028 13.5507 48 13.7602 48C13.9696 48 14.19 47.9028 14.3563 47.7369C14.6164 47.4777 14.6202 47.4472 14.6202 45.5937V43.7135H15.6463C16.5925 43.7135 16.693 43.693 16.9363 43.4504L17.2002 43.1875V35.9633V28.7393L17.614 28.4664C18.1128 28.1373 18.6301 27.3875 18.876 26.6371C18.9754 26.3336 19.0676 26.0719 19.0811 26.0556C19.0944 26.0392 19.4606 26.2441 19.8948 26.5111C20.329 26.7779 20.789 26.9962 20.9172 26.9962C21.0454 26.9962 21.6401 26.6775 22.2387 26.288L23.3273 25.5797L24.6983 26.6001C25.4522 27.1613 26.2022 27.6808 26.3648 27.7543L26.6604 27.8879V37.6809V47.4739L26.9243 47.7369C27.0906 47.9028 27.311 48 27.5204 48C27.7298 48 27.9502 47.9028 28.1165 47.7369L28.3804 47.4739V39.1639V30.854H32.6805H36.9806V39.1639V47.4739L37.2445 47.7369C37.5936 48.085 38.0877 48.085 38.4367 47.7369L38.7006 47.4739V39.798C38.7006 33.6988 38.7283 32.1337 38.835 32.1782C40.2712 32.778 41.4357 32.6162 42.3242 31.6936C43.0126 30.9787 43.0008 31.1241 42.9999 23.4196C42.9994 19.1981 42.9557 16.1655 42.8892 15.7442C42.4104 12.7075 40.4573 10.0596 37.709 8.72087C37.1932 8.46968 36.525 8.20114 36.2241 8.1243C35.7472 8.00246 35.686 7.95638 35.7467 7.76541C36.1236 6.57891 36.1629 6.20599 36.0273 5.10661C35.8053 3.308 35.6119 2.62516 35.1165 1.89046C34.122 0.415908 32.3914 -0.285361 30.7169 0.107924ZM30.6493 1.9883C30.0091 2.30636 29.5208 2.89361 29.3333 3.57098C29.1944 4.07314 29.3662 5.86768 29.6419 6.79442C29.9446 7.81203 30.9618 8.56206 32.0413 8.56367C32.5908 8.56452 33.506 8.07404 33.8575 7.59053C34.3523 6.90962 34.4553 6.34712 34.3043 5.15076C34.0991 3.52383 33.9189 3.01695 33.3419 2.44235C32.5515 1.65545 31.6316 1.50028 30.6493 1.9883ZM10.1915 7.92573C9.6381 8.217 9.2297 8.78849 9.16477 9.36202C9.07715 10.1373 9.21357 10.5578 9.747 11.1566C10.222 11.6898 10.2361 11.7255 10.1753 12.2379C10.0978 12.8903 10.271 13.3433 10.7521 13.7469L11.1058 14.0436L11.7401 13.4205C12.1512 13.0165 12.5116 12.5215 12.7645 12.0135C13.3336 10.87 13.5552 10.8009 14.5595 11.4532C15.2593 11.9077 15.9943 12.2078 16.4075 12.2078C16.6467 12.2078 16.6626 12.1692 16.661 11.5916C16.6574 10.3766 15.8262 9.61332 14.3514 9.47047C13.2948 9.36824 13.2495 9.34606 12.8596 8.73834C12.2457 7.78181 11.1175 7.43814 10.1915 7.92573ZM29.0254 9.57988C29.0254 9.60807 29.1448 9.94702 29.2907 10.3332C29.6495 11.2839 30.1901 12.0664 31.0269 12.8466L31.7263 13.4989L32.022 13.2891C32.4744 12.9679 33.1771 12.1711 33.6472 11.446C34.0938 10.7571 34.5604 9.65243 34.4509 9.54324C34.4153 9.50776 34.2078 9.58096 33.9898 9.70601C33.4359 10.0239 32.5179 10.2789 31.928 10.2789C31.343 10.2789 30.4014 10.022 29.9265 9.73291C29.6268 9.55042 29.0254 9.44829 29.0254 9.57988ZM36.1181 10.2319C35.3516 12.2414 34.4512 13.4925 32.7556 14.9036C31.9174 15.6011 31.734 15.59 30.6491 14.775C29.1682 13.6628 28.2117 12.3909 27.5775 10.6907L27.3913 10.1917L26.999 10.4171C26.3689 10.7792 25.239 11.9921 24.8499 12.7242C24.5128 13.3582 23.3937 16.4885 23.4751 16.5696C23.4955 16.5901 24.2906 16.8665 25.242 17.1839L26.9716 17.761L27.3086 16.7525C27.6672 15.6797 27.8799 15.4227 28.4092 15.4227C28.781 15.4227 29.2405 15.8519 29.2405 16.1992C29.2405 16.337 29.0231 17.0987 28.7573 17.8919C28.2584 19.381 28.0435 19.7092 27.5669 19.7092C27.347 19.7092 27.2851 19.8076 27.0865 20.4723C26.9611 20.892 26.8986 21.2714 26.9475 21.3152C26.9966 21.359 27.6897 21.9015 28.4879 22.5207C29.4667 23.2799 30.0181 23.7868 30.1816 24.0776C30.9122 25.3775 30.3279 27.088 28.9302 27.7407L28.3804 27.9973V28.5684V29.1395H32.6805H36.9806V23.4015V17.6633L37.2445 17.4004C37.5936 17.0523 38.0877 17.0523 38.4367 17.4004C38.6801 17.6429 38.7006 17.7431 38.7006 18.6863V19.7092H39.9907H41.2807V18.1112C41.2807 15.7358 40.9711 14.4244 40.0889 13.0638C39.2934 11.8369 38.186 10.8365 36.9043 10.1869C36.326 9.89376 36.2453 9.89837 36.1181 10.2319ZM13.6573 13.8269C13.4529 14.1293 13.0302 14.6 12.718 14.8729C12.3876 15.1617 12.1498 15.4594 12.149 15.5854C12.147 15.9099 12.6253 16.5469 13.0847 16.8317C13.6907 17.2072 14.7424 17.1907 15.3404 16.7962C16.0257 16.3442 16.2651 15.8616 16.3198 14.822L16.3664 13.937L15.9502 13.8698C15.7212 13.8328 15.2679 13.7055 14.9427 13.587C14.6175 13.4685 14.2789 13.3502 14.1902 13.3242C14.0877 13.2942 13.8936 13.4774 13.6573 13.8269ZM9.24346 15.9595C5.91423 17.9541 3.47597 21.4539 2.74711 25.2843C2.64509 25.82 2.44191 28.9239 2.20874 33.5092C2.00266 37.5597 1.81646 41.1269 1.79507 41.4363L1.75594 41.9989H8.61812H15.4802V35.5692V29.1395H15.231C14.7799 29.1395 13.8839 28.8177 13.5464 28.5346C12.8763 27.9726 12.7194 27.2738 13.1641 26.8306C13.5061 26.4895 14.0074 26.4828 14.3405 26.8148C14.4768 26.9508 14.6092 27.1243 14.6347 27.2004C14.7128 27.4342 15.6397 27.4751 16.1821 27.2686C17.0038 26.9558 17.4229 26.1302 17.5713 24.5315C17.6273 23.9274 17.4823 21.6693 17.3809 21.5682C17.361 21.5484 17.1262 21.7411 16.8589 21.9963C14.9917 23.7798 11.8608 23.2395 10.708 20.9349C10.3573 20.234 10.2474 19.5626 10.4282 19.2258C10.61 18.8871 11.0972 18.7187 11.4776 18.8628C11.8294 18.9961 11.8859 19.0796 12.0881 19.7649C12.268 20.3748 12.7694 20.9496 13.3241 21.1818C13.7617 21.365 14.5514 21.3778 14.9997 21.2089C15.9655 20.8451 16.591 19.5235 16.2369 18.5951L16.1337 18.3244L15.6188 18.5603C15.2173 18.7442 14.9027 18.7965 14.1902 18.7972C13.1054 18.7985 12.3635 18.5105 11.5673 17.7789C11.0606 17.3132 10.4276 16.2099 10.4276 15.7921C10.4276 15.3786 10.1467 15.4183 9.24346 15.9595ZM23.4918 18.5629C23.4699 18.6335 23.2538 19.5133 23.0116 20.518C22.6324 22.0918 22.5884 22.3936 22.6941 22.696C22.7911 22.9731 23.2708 23.3872 24.9711 24.6617C26.8055 26.0366 27.1942 26.284 27.5888 26.3284C28.0079 26.3755 28.0882 26.3444 28.4313 26.0025C28.8165 25.6185 28.8954 25.3185 28.7047 24.9633C28.6465 24.8549 27.9571 24.272 27.1728 23.6681C25.2468 22.1851 25.0476 21.9901 25.0493 21.5903C25.0501 21.4103 25.1902 20.8049 25.3607 20.245C25.5312 19.6851 25.6395 19.1971 25.6012 19.1604C25.5629 19.1239 25.0816 18.9455 24.5316 18.7643C23.8259 18.5317 23.5199 18.4724 23.4918 18.5629ZM5.42391 19.9723L5.15999 20.2352V23.1384V26.0415L5.42391 26.3045C5.56904 26.4491 5.76254 26.5676 5.85392 26.5676C5.99733 26.5676 6.02001 26.8199 6.02001 28.4127V30.2579L7.11793 31.9065C8.36388 33.7773 8.89945 34.3154 9.76549 34.5664C11.7758 35.149 13.8617 33.6187 13.3256 31.9547C13.254 31.7325 12.742 30.9427 12.1877 30.1997L11.1801 28.8487V27.7082C11.1801 26.7508 11.2068 26.5676 11.3462 26.5676C11.4376 26.5676 11.6311 26.4491 11.7762 26.3045C12.0246 26.0568 12.0401 25.972 12.0401 24.853C12.0401 23.734 12.0246 23.6491 11.7762 23.4015C11.6099 23.2356 11.3895 23.1384 11.1801 23.1384C10.6312 23.1384 10.3201 23.5437 10.3201 24.2587V24.853H8.60006H6.88002V22.5442C6.88002 20.2356 6.88002 20.2352 6.61611 19.9723C6.4498 19.8064 6.22942 19.7092 6.02001 19.7092C5.81059 19.7092 5.59022 19.8064 5.42391 19.9723ZM19.0647 21.1471C19.1074 21.2601 19.168 21.887 19.1994 22.5402C19.2308 23.1933 19.2756 23.8242 19.299 23.9421C19.3241 24.069 19.6533 24.348 20.1058 24.626C20.9282 25.1313 20.9581 25.1317 21.5973 24.6479L21.8556 24.4524L21.5323 24.0365C21.1492 23.5437 20.9819 23.1328 20.9267 22.5495C20.9014 22.2816 20.8301 22.1173 20.7364 22.1104C20.6539 22.1044 20.5058 22.092 20.4071 22.083C20.3083 22.0741 19.9485 21.8135 19.6073 21.5041C19.2567 21.1862 19.0208 21.0309 19.0647 21.1471ZM38.7239 25.5954C38.7533 29.6168 38.7623 29.7776 38.9761 30.0628C39.3288 30.5335 39.7144 30.7663 40.239 30.8252C40.66 30.8726 40.7648 30.8423 41.0038 30.604L41.2807 30.328V25.8758V21.4238H39.987H38.6934L38.7239 25.5954ZM7.74004 28.1444V29.7214L8.72809 31.2065C9.7542 32.7486 10.0235 32.9976 10.6641 32.9969C11.0099 32.9965 11.7203 32.6536 11.7149 32.4899C11.7134 32.4448 11.2055 31.7366 10.5862 30.9162L9.46007 29.4245V27.996V26.5676H8.60006H7.74004V28.1444ZM32.0844 33.689L31.8205 33.952V40.713V47.4739L32.0844 47.7369C32.4335 48.085 32.9276 48.085 33.2766 47.7369L33.5405 47.4739V40.713V33.952L33.2766 33.689C33.1103 33.5231 32.8899 33.4259 32.6805 33.4259C32.4711 33.4259 32.2507 33.5231 32.0844 33.689Z" fill="black"/>
</svg>
