<svg width="1003" height="882" viewBox="0 0 1003 882" fill="none" xmlns="http://www.w3.org/2000/svg">
<path d="M-788.318 47.8646C-779.813 44.4876 -770.868 42.3954 -761.446 41.698C-769.035 33.3657 -776.623 24.9233 -784.249 16.3342C-797.263 12.0396 -809.287 10.3511 -820.469 11.0485C-809.691 23.5285 -798.949 35.8617 -788.318 47.8646ZM-727.206 78.0369C-718.81 75.2472 -710.049 73.4486 -700.92 72.6778C-709.462 63.795 -718.041 54.7653 -726.692 45.5521C-738.46 42.6156 -749.605 41.5511 -760.126 42.2119C-749.092 54.4349 -738.094 66.3644 -727.206 78.0369ZM-751.255 89.1955C-743.776 84.6807 -735.967 81.0101 -727.865 78.2571C-738.79 66.5112 -749.825 54.5084 -760.896 42.322C-770.354 42.9827 -779.336 45.0382 -787.841 48.4152C-775.56 62.29 -763.389 75.9079 -751.255 89.1955ZM-772.884 105.309C-766.138 99.2896 -759.136 94.004 -751.804 89.5625C-763.939 76.2016 -776.147 62.5837 -788.464 48.6721C-796.456 51.9022 -804.082 56.2335 -811.304 61.666C-798.399 76.5319 -785.605 91.0308 -772.884 105.309ZM-665.397 108.209C-657.258 105.86 -648.826 104.208 -640.138 103.364C-649.743 94.004 -659.385 84.5338 -669.136 74.8068C-679.731 73.0082 -689.812 72.531 -699.527 73.2284C-688.053 85.1578 -676.688 96.7936 -665.397 108.209ZM-689.666 117.753C-682.04 113.935 -674.195 110.815 -666.093 108.429C-677.458 96.9771 -688.859 85.268 -700.37 73.3385C-709.535 74.0359 -718.297 75.8345 -726.729 78.6242C-714.265 91.9117 -701.91 104.979 -689.666 117.753ZM-712.248 131.444C-705.136 126.305 -697.804 121.827 -690.252 118.01C-702.533 105.236 -714.924 92.132 -727.389 78.771C-735.527 81.4872 -743.336 85.1578 -750.815 89.6727C-737.874 103.951 -725.006 117.863 -712.248 131.444ZM-733.291 148.99C-726.656 142.676 -719.8 136.95 -712.725 131.848C-725.483 118.23 -738.35 104.282 -751.328 90.0397C-758.623 94.4811 -765.662 99.7668 -772.407 105.787C-759.283 120.506 -746.232 134.931 -733.291 148.99ZM-752.941 169.985C-746.745 162.607 -740.367 155.707 -733.768 149.43C-746.709 135.372 -759.76 120.909 -772.921 106.19C-779.556 112.137 -785.898 118.817 -792.057 126.158C-778.896 141.098 -765.882 155.707 -752.941 169.985ZM-771.344 194.064C-765.515 185.732 -759.54 177.84 -753.344 170.462C-766.248 156.184 -779.299 141.575 -792.424 126.636C-798.473 133.903 -804.265 141.832 -809.874 150.311C-796.933 165.214 -784.102 179.823 -771.344 194.064ZM-788.648 220.896C-783.149 211.683 -777.54 202.911 -771.711 194.578C-784.468 180.336 -797.299 165.764 -810.24 150.861C-815.776 159.304 -821.092 168.297 -826.261 177.804C-813.613 192.486 -801.075 206.838 -788.648 220.896ZM-602.782 138.235C-595.01 136.179 -587.091 134.674 -578.953 133.757C-589.767 124.066 -600.619 114.192 -611.543 104.061C-620.892 103.18 -629.91 103.144 -638.672 103.915C-626.647 115.624 -614.659 127.113 -602.782 138.235ZM-626.904 146.493C-619.315 143.263 -611.507 140.584 -603.515 138.455C-615.429 127.26 -627.417 115.734 -639.515 103.988C-648.24 104.796 -656.672 106.411 -664.847 108.76C-652.126 121.607 -639.442 134.234 -626.904 146.493ZM-650.073 158.313C-642.741 153.945 -635.226 150.091 -627.527 146.787C-640.101 134.527 -652.786 121.864 -665.543 108.98C-673.682 111.366 -681.564 114.486 -689.189 118.267C-676.028 131.885 -662.977 145.282 -650.073 158.313ZM-672.252 173.436C-665.214 168.003 -657.991 163.048 -650.623 158.606C-663.564 145.613 -676.615 132.178 -689.776 118.524C-697.364 122.341 -704.696 126.819 -711.808 131.921C-698.537 146.09 -685.34 159.965 -672.252 173.436ZM-693.478 191.679C-686.733 185.255 -679.841 179.309 -672.765 173.839C-685.816 160.332 -699.014 146.457 -712.322 132.325C-719.397 137.427 -726.252 143.19 -732.888 149.467C-719.654 163.855 -706.493 177.951 -693.478 191.679ZM-713.678 212.748C-707.226 205.443 -700.664 198.543 -693.918 192.082C-706.933 178.354 -720.094 164.259 -733.328 149.87C-739.927 156.184 -746.305 163.048 -752.501 170.426C-739.487 184.851 -726.509 199.02 -713.678 212.748ZM-732.998 236.386C-726.839 228.274 -720.533 220.566 -714.118 213.225C-726.949 199.497 -739.927 185.328 -752.941 170.94C-759.1 178.318 -765.112 186.173 -770.941 194.542C-758.183 208.784 -745.536 222.805 -732.998 236.386ZM-751.438 262.374C-745.536 253.565 -739.523 245.049 -733.401 236.9C-745.939 223.282 -758.587 209.297 -771.308 195.055C-777.1 203.388 -782.709 212.16 -788.208 221.374C-775.853 235.322 -763.572 249.013 -751.438 262.374ZM-769.108 290.418C-763.426 280.947 -757.67 271.771 -751.768 262.888C-763.939 249.527 -776.183 235.872 -788.538 221.924C-794 231.101 -799.279 240.718 -804.485 250.702C-792.607 264.21 -780.802 277.46 -769.108 290.418ZM-786.155 320.333C-780.693 310.276 -775.12 300.475 -769.475 290.968C-781.169 278.011 -792.937 264.797 -804.815 251.289C-809.984 261.236 -815.006 271.551 -819.919 282.195C-808.554 295.189 -797.299 307.89 -786.155 320.333ZM-539.14 167.93C-531.991 166.168 -524.696 164.736 -517.29 163.709C-529.425 153.835 -541.633 143.704 -553.95 133.243C-561.979 133.022 -569.824 133.353 -577.486 134.197C-564.618 145.759 -551.824 157.028 -539.14 167.93ZM-562.675 175.198C-555.233 172.445 -547.645 170.059 -539.91 168.113C-552.594 157.175 -565.425 145.869 -578.329 134.307C-586.504 135.225 -594.46 136.73 -602.268 138.749C-588.924 151.265 -575.763 163.378 -562.675 175.198ZM-586.138 185.475C-578.659 181.731 -571.071 178.354 -563.299 175.454C-576.386 163.635 -589.621 151.486 -602.928 138.969C-610.92 141.098 -618.729 143.741 -626.354 146.971C-612.863 160.148 -599.445 172.995 -586.138 185.475ZM-609.234 198.616C-601.902 193.918 -594.386 189.623 -586.761 185.769C-600.069 173.289 -613.486 160.442 -627.014 147.264C-634.712 150.568 -642.264 154.422 -649.596 158.79C-636.032 172.408 -622.578 185.695 -609.234 198.616ZM-631.706 214.51C-624.521 208.93 -617.226 203.755 -609.747 198.946C-623.091 186.026 -636.545 172.702 -650.11 159.084C-657.515 163.525 -664.737 168.444 -671.776 173.876C-658.358 187.788 -644.977 201.332 -631.706 214.51ZM-653.519 233.009C-646.554 226.623 -639.442 220.566 -632.22 214.913C-645.49 201.736 -658.835 188.191 -672.326 174.28C-679.401 179.749 -686.293 185.732 -693.038 192.119C-679.731 206.104 -666.607 219.722 -653.519 233.009ZM-674.672 253.822C-667.89 246.664 -660.998 239.873 -653.996 233.413C-667.046 220.126 -680.207 206.544 -693.478 192.559C-700.224 199.02 -706.823 205.92 -713.238 213.225C-700.297 227.1 -687.429 240.571 -674.672 253.822ZM-695.165 276.836C-688.603 269.018 -681.894 261.493 -675.112 254.299C-687.869 241.085 -700.7 227.614 -713.678 213.702C-720.13 221.043 -726.399 228.752 -732.558 236.864C-719.984 250.518 -707.519 263.806 -695.165 276.836ZM-715.034 301.796C-708.656 293.354 -702.167 285.169 -695.568 277.314C-707.922 264.283 -720.387 250.995 -732.961 237.377C-739.12 245.489 -745.132 254.005 -750.998 262.851C-738.937 276.066 -726.912 289.133 -715.034 301.796ZM-734.318 328.482C-728.122 319.525 -721.817 310.789 -715.438 302.31C-727.316 289.647 -739.303 276.616 -751.365 263.365C-757.267 272.211 -763.022 281.388 -768.705 290.895C-757.157 303.668 -745.682 316.222 -734.318 328.482ZM-753.088 356.745C-747.039 347.275 -740.88 338.025 -734.684 328.996C-746.049 316.736 -757.487 304.219 -769.035 291.445C-774.717 300.952 -780.253 310.753 -785.715 320.81C-774.754 333.033 -763.902 345.036 -753.088 356.745ZM-771.491 386.477C-765.552 376.566 -759.54 366.839 -753.454 357.296C-764.232 345.55 -775.084 333.584 -786.045 321.397C-791.507 331.492 -796.896 341.879 -802.175 352.451C-791.874 364.013 -781.646 375.355 -771.491 386.477ZM-474.178 197.148C-467.799 195.606 -461.347 194.285 -454.785 193.22C-468.533 183.346 -482.39 173.142 -496.358 162.534C-502.92 162.791 -509.372 163.378 -515.714 164.222C-501.783 175.565 -487.926 186.54 -474.178 197.148ZM-496.724 203.645C-489.575 201.259 -482.317 199.167 -474.985 197.368C-488.732 186.723 -502.626 175.711 -516.594 164.333C-524.036 165.324 -531.331 166.718 -538.517 168.48C-524.476 180.557 -510.545 192.303 -496.724 203.645ZM-520.223 212.674C-512.745 209.408 -505.156 206.471 -497.421 203.865C-511.242 192.523 -525.209 180.74 -539.286 168.627C-547.022 170.573 -554.647 172.922 -562.126 175.675C-548.048 188.412 -534.081 200.745 -520.223 212.674ZM-543.979 224.237C-536.39 220.126 -528.692 216.382 -520.883 212.968C-534.741 201.002 -548.708 188.669 -562.822 175.968C-570.594 178.868 -578.219 182.208 -585.698 185.952C-571.621 199.093 -557.726 211.83 -543.979 224.237ZM-567.551 238.222C-559.999 233.34 -552.337 228.752 -544.565 224.53C-558.35 212.124 -572.244 199.387 -586.285 186.209C-593.946 190.063 -601.425 194.358 -608.794 199.056C-594.9 212.528 -581.152 225.558 -567.551 238.222ZM-590.794 254.482C-583.315 248.866 -575.763 243.544 -568.065 238.552C-581.702 225.889 -595.413 212.821 -609.27 199.423C-616.749 204.195 -624.044 209.371 -631.23 214.95C-617.665 228.531 -604.175 241.672 -590.794 254.482ZM-613.67 272.946C-606.338 266.632 -598.896 260.612 -591.344 254.886C-604.725 242.076 -618.179 228.898 -631.78 215.391C-639.038 221.043 -646.114 227.063 -653.116 233.487C-639.845 246.921 -626.684 260.135 -613.67 272.946ZM-636.032 293.281C-628.847 286.38 -621.551 279.699 -614.146 273.349C-627.16 260.576 -640.321 247.361 -653.556 233.89C-660.594 240.351 -667.486 247.141 -674.232 254.299C-661.401 267.586 -648.643 280.617 -636.032 293.281ZM-657.918 315.451C-650.879 307.963 -643.731 300.695 -636.509 293.721C-649.12 281.058 -661.877 268.027 -674.708 254.739C-681.527 261.934 -688.199 269.458 -694.761 277.277C-682.334 290.307 -670.089 303.008 -657.918 315.451ZM-679.401 339.237C-672.472 331.235 -665.433 323.453 -658.321 315.892C-670.493 303.485 -682.774 290.785 -695.128 277.754C-701.727 285.646 -708.216 293.795 -714.595 302.237C-702.79 314.864 -691.059 327.197 -679.401 339.237ZM-700.444 364.49C-693.662 356.048 -686.77 347.752 -679.804 339.714C-691.462 327.674 -703.157 315.378 -714.998 302.751C-721.377 311.23 -727.682 319.966 -733.878 328.922C-722.66 341.035 -711.515 352.891 -700.444 364.49ZM-721.157 391.065C-714.448 382.219 -707.702 373.52 -700.847 365.004C-711.882 353.405 -723.026 341.549 -734.244 329.473C-740.476 338.502 -746.599 347.789 -752.648 357.222C-742.09 368.711 -731.568 380.017 -721.157 391.065ZM-741.576 418.852C-734.941 409.639 -728.269 400.535 -721.523 391.579C-731.935 380.531 -742.419 369.262 -753.014 357.773C-759.1 367.317 -765.112 377.044 -771.051 386.954C-761.153 397.819 -751.365 408.391 -741.576 418.852ZM-407.31 225.558C-401.921 224.273 -396.532 223.099 -391.07 222.034C-406.834 212.381 -422.744 202.287 -438.801 191.715C-443.64 192.192 -448.406 192.853 -453.172 193.587C-437.738 204.672 -422.451 215.354 -407.31 225.558ZM-428.573 231.431C-421.828 229.339 -415.046 227.467 -408.154 225.778C-423.294 215.537 -438.618 204.856 -454.052 193.734C-460.614 194.799 -467.103 196.12 -473.518 197.662C-458.414 209.334 -443.421 220.566 -428.573 231.431ZM-451.852 239.543C-444.41 236.68 -436.932 234.037 -429.306 231.651C-444.19 220.786 -459.184 209.554 -474.325 197.845C-481.694 199.644 -488.952 201.736 -496.138 204.122C-481.254 216.345 -466.48 228.164 -451.852 239.543ZM-476.048 249.894C-468.313 246.26 -460.467 242.92 -452.549 239.837C-467.176 228.458 -481.95 216.602 -496.871 204.379C-504.606 206.985 -512.195 209.921 -519.71 213.152C-505.009 225.815 -490.455 238.075 -476.048 249.894ZM-500.573 262.374C-492.692 258.043 -484.736 253.969 -476.671 250.188C-491.079 238.332 -505.633 226.072 -520.333 213.408C-528.142 216.822 -535.877 220.566 -543.466 224.677C-529.022 237.634 -514.724 250.225 -500.573 262.374ZM-525.172 276.873C-517.254 271.881 -509.262 267.146 -501.197 262.705C-515.347 250.518 -529.645 237.965 -544.052 225.008C-551.824 229.229 -559.486 233.817 -567.075 238.699C-552.961 251.766 -538.993 264.54 -525.172 276.873ZM-549.588 293.244C-541.706 287.665 -533.751 282.269 -525.722 277.203C-539.543 264.87 -553.51 252.133 -567.588 239.029C-575.287 244.021 -582.875 249.307 -590.317 254.96C-576.643 268.064 -563.042 280.874 -549.588 293.244ZM-573.71 311.377C-565.938 305.247 -558.056 299.3 -550.101 293.648C-563.555 281.278 -577.156 268.467 -590.83 255.327C-598.382 261.053 -605.824 267.073 -613.193 273.386C-599.922 286.417 -586.761 299.043 -573.71 311.377ZM-597.612 331.124C-589.914 324.444 -582.105 317.984 -574.223 311.78C-587.274 299.447 -600.399 286.82 -613.67 273.79C-621.075 280.177 -628.37 286.82 -635.556 293.721C-622.798 306.495 -610.15 318.975 -597.612 331.124ZM-621.185 352.341C-613.56 345.22 -605.898 338.282 -598.089 331.528C-610.627 319.379 -623.274 306.935 -636.032 294.162C-643.291 301.136 -650.403 308.403 -657.478 315.892C-645.27 328.298 -633.173 340.484 -621.185 352.341ZM-644.464 374.878C-636.949 367.353 -629.323 359.975 -621.661 352.781C-633.649 340.962 -645.747 328.775 -657.918 316.369C-665.03 323.93 -672.069 331.712 -678.998 339.714C-667.376 351.717 -655.865 363.389 -644.464 374.878ZM-667.486 398.627C-660.008 390.698 -652.492 382.917 -644.904 375.318C-656.305 363.866 -667.78 352.157 -679.401 340.191C-686.366 348.266 -693.258 356.525 -700.04 364.967C-689.079 376.42 -678.228 387.652 -667.486 398.627ZM-690.252 423.44C-682.847 415.218 -675.405 407.069 -667.89 399.104C-678.631 388.129 -689.482 376.897 -700.37 365.481C-707.226 373.997 -713.971 382.696 -720.68 391.579C-710.489 402.371 -700.334 413.015 -690.252 423.44ZM-712.908 449.171C-705.576 440.655 -698.171 432.213 -690.692 423.88C-700.774 413.456 -710.892 402.848 -721.12 392.02C-727.865 400.976 -734.574 410.042 -741.173 419.292C-731.678 429.46 -722.256 439.37 -712.908 449.171ZM-337.51 252.757C-333.44 251.729 -329.335 250.775 -325.229 249.894C-343.705 240.828 -362.365 231.211 -381.245 220.97C-383.958 221.41 -386.671 221.888 -389.347 222.365C-371.86 233.046 -354.593 243.14 -337.51 252.757ZM-357.233 258.153C-351.001 256.281 -344.732 254.556 -338.39 252.977C-355.51 243.361 -372.777 233.23 -390.227 222.548C-395.726 223.576 -401.152 224.751 -406.577 226.035C-389.97 237.267 -373.51 247.949 -357.233 258.153ZM-380.182 265.641C-372.85 263.035 -365.481 260.612 -358.039 258.41C-374.353 248.206 -390.813 237.488 -407.42 226.292C-414.312 227.981 -421.168 229.853 -427.913 231.945C-411.856 243.617 -395.946 254.886 -380.182 265.641ZM-404.818 275.111C-396.936 271.844 -388.944 268.761 -380.915 265.898C-396.679 255.143 -412.589 243.838 -428.683 232.129C-436.308 234.514 -443.824 237.121 -451.266 240.02C-435.649 252.17 -420.141 263.916 -404.818 275.111ZM-430.296 286.49C-422.121 282.599 -413.873 278.892 -405.514 275.405C-420.838 264.173 -436.308 252.427 -451.926 240.277C-459.881 243.361 -467.726 246.737 -475.461 250.335C-460.284 262.815 -445.217 274.891 -430.296 286.49ZM-456.105 299.631C-447.783 295.153 -439.388 290.858 -430.919 286.784C-445.84 275.185 -460.907 263.145 -476.121 250.628C-484.186 254.409 -492.178 258.483 -500.06 262.815C-485.286 275.515 -470.622 287.775 -456.105 299.631ZM-482.097 314.423C-473.702 309.395 -465.233 304.549 -456.691 299.961C-471.209 288.105 -485.836 275.845 -500.647 263.145C-508.749 267.586 -516.741 272.322 -524.659 277.314C-510.362 290.051 -496.138 302.457 -482.097 314.423ZM-507.979 330.721C-499.62 325.215 -491.188 319.892 -482.683 314.754C-496.724 302.787 -510.912 290.418 -525.246 277.644C-533.311 282.746 -541.266 288.105 -549.148 293.684C-535.254 306.458 -521.58 318.718 -507.979 330.721ZM-533.787 348.45C-525.429 342.467 -516.997 336.667 -508.529 331.088C-522.13 319.122 -535.804 306.825 -549.661 294.088C-557.616 299.778 -565.498 305.687 -573.27 311.817C-559.999 324.334 -546.802 336.594 -533.787 348.45ZM-559.376 367.427C-551.091 361.077 -542.732 354.873 -534.301 348.817C-547.315 336.997 -560.513 324.738 -573.747 312.184C-581.629 318.424 -589.437 324.884 -597.136 331.528C-584.452 343.861 -571.877 355.791 -559.376 367.427ZM-584.891 387.615C-576.643 380.861 -568.284 374.254 -559.889 367.83C-572.354 356.195 -584.928 344.265 -597.612 332.005C-605.384 338.723 -613.083 345.697 -620.708 352.818C-608.684 364.674 -596.733 376.31 -584.891 387.615ZM-610.15 408.794C-601.938 401.747 -593.69 394.809 -585.368 388.019C-597.209 376.713 -609.16 365.077 -621.185 353.221C-628.883 360.416 -636.472 367.794 -644.024 375.318C-632.623 386.734 -621.368 397.893 -610.15 408.794ZM-635.372 430.965C-627.197 423.624 -618.949 416.356 -610.663 409.198C-621.845 398.296 -633.136 387.174 -644.464 375.759C-652.053 383.394 -659.605 391.175 -667.046 399.067C-656.415 409.932 -645.857 420.577 -635.372 430.965ZM-660.411 453.906C-652.273 446.308 -644.061 438.82 -635.812 431.368C-646.297 420.981 -656.855 410.373 -667.45 399.508C-674.965 407.473 -682.407 415.622 -689.812 423.844C-679.951 434.085 -670.163 444.105 -660.411 453.906ZM-685.413 477.545C-677.275 469.763 -669.099 461.981 -660.851 454.31C-670.566 444.509 -680.391 434.488 -690.216 424.321C-697.694 432.653 -705.1 441.096 -712.432 449.611C-703.377 459.118 -694.395 468.405 -685.413 477.545ZM-254.292 281.682C-237.098 285.903 -220.051 289.757 -203.114 293.281C-241.461 281.535 -280.613 267.697 -320.573 251.436C-298.21 262.301 -276.104 272.395 -254.292 281.682ZM-281.127 282.966C-276.141 281.498 -271.155 280.103 -266.133 278.745L-266.059 278.708L-265.986 278.745C-263.383 279.406 -260.817 280.066 -258.214 280.69C-279.954 271.33 -301.986 261.236 -324.276 250.298C-328.418 251.179 -332.561 252.17 -336.667 253.161C-317.933 263.732 -299.42 273.643 -281.127 282.966ZM-303.929 290.161C-296.671 287.701 -289.375 285.426 -282.007 283.223C-300.336 273.9 -318.85 263.953 -337.583 253.418C-343.925 254.996 -350.231 256.721 -356.5 258.594C-338.793 269.679 -321.269 280.213 -303.929 290.161ZM-329.151 299.227C-321.049 296.144 -312.911 293.207 -304.736 290.454C-322.076 280.47 -339.599 269.972 -357.343 258.85C-364.821 261.09 -372.227 263.475 -379.559 266.082C-362.549 277.681 -345.758 288.729 -329.151 299.227ZM-355.656 309.945C-347.115 306.311 -338.536 302.824 -329.884 299.521C-346.491 288.986 -363.282 277.938 -380.255 266.338C-388.32 269.202 -396.276 272.285 -404.194 275.552C-387.844 287.555 -371.677 298.97 -355.656 309.945ZM-382.895 322.242C-374.096 318.094 -365.261 314.093 -356.353 310.239C-372.373 299.264 -388.54 287.848 -404.891 275.845C-413.249 279.332 -421.498 283.003 -429.71 286.931C-413.946 299.154 -398.329 310.936 -382.895 322.242ZM-410.427 335.896C-401.518 331.271 -392.573 326.83 -383.555 322.572C-398.989 311.303 -414.606 299.484 -430.333 287.261C-438.801 291.298 -447.196 295.593 -455.555 300.071C-440.378 312.441 -425.31 324.371 -410.427 335.896ZM-438.178 350.836C-429.196 345.807 -420.141 340.925 -411.05 336.19C-425.934 324.701 -440.964 312.771 -456.178 300.365C-464.72 304.99 -473.188 309.798 -481.584 314.827C-466.956 327.27 -452.512 339.273 -438.178 350.836ZM-465.893 366.949C-456.911 361.554 -447.856 356.305 -438.765 351.166C-453.099 339.604 -467.543 327.601 -482.17 315.194C-490.675 320.296 -499.107 325.655 -507.466 331.161C-493.461 343.458 -479.604 355.424 -465.893 366.949ZM-493.608 384.128C-484.626 378.402 -475.571 372.749 -466.48 367.28C-480.19 355.754 -494.048 343.788 -508.052 331.492C-516.557 337.108 -524.989 342.907 -533.347 348.853C-519.93 361.003 -506.732 372.749 -493.608 384.128ZM-521.286 402.334C-512.305 396.278 -503.25 390.331 -494.121 384.495C-507.246 373.079 -520.443 361.37 -533.787 349.257C-542.219 355.277 -550.578 361.48 -558.9 367.867C-546.288 379.65 -533.714 391.175 -521.286 402.334ZM-548.891 421.311C-539.946 414.998 -530.928 408.794 -521.873 402.664C-534.264 391.542 -546.838 379.98 -559.449 368.234C-567.845 374.694 -576.166 381.302 -584.452 388.019C-572.464 399.471 -560.623 410.483 -548.891 421.311ZM-576.46 441.096C-567.515 434.562 -558.496 428.065 -549.405 421.678C-561.172 410.85 -572.977 399.838 -584.928 388.422C-593.25 395.213 -601.498 402.151 -609.71 409.198C-598.529 420.1 -587.458 430.744 -576.46 441.096ZM-604.028 461.577C-595.046 454.824 -586.028 448.106 -576.973 441.463C-587.971 431.112 -599.042 420.467 -610.187 409.639C-618.509 416.796 -626.721 424.027 -634.932 431.405C-624.558 441.683 -614.256 451.74 -604.028 461.577ZM-631.56 482.61C-622.615 475.709 -613.596 468.809 -604.541 461.981C-614.733 452.144 -625.034 442.087 -635.372 431.846C-643.621 439.26 -651.833 446.785 -659.971 454.383C-650.44 463.927 -640.945 473.36 -631.56 482.61ZM-659.128 504.083C-650.146 497.035 -641.128 489.988 -632.036 482.977C-641.421 473.764 -650.879 464.33 -660.411 454.75C-668.66 462.422 -676.835 470.167 -684.973 477.985C-676.321 486.868 -667.706 495.531 -659.128 504.083ZM-134.303 311.817C-119.933 312.258 -105.672 312.551 -91.4845 312.661C-123.672 308.477 -156.373 303.228 -189.587 296.694C-170.963 302.2 -152.523 307.229 -134.303 311.817ZM-183.574 309.615C-168.067 310.532 -152.67 311.193 -137.346 311.707C-156.849 306.752 -176.572 301.283 -196.515 295.299C-214.405 291.666 -232.442 287.665 -250.626 283.26C-227.97 292.84 -205.607 301.576 -183.574 309.615ZM-220.821 311.964C-216.752 310.606 -212.646 309.284 -208.577 308H-208.54H-208.467C-200.915 308.55 -193.363 309.064 -185.811 309.505C-208.393 301.246 -231.306 292.216 -254.512 282.306C-258.361 281.351 -262.21 280.397 -266.059 279.406C-270.825 280.69 -275.554 282.012 -280.284 283.407C-260.194 293.611 -240.397 303.118 -220.821 311.964ZM-247.289 321.177C-238.784 318.094 -230.279 315.121 -221.737 312.258C-241.314 303.375 -261.11 293.868 -281.2 283.664C-288.569 285.829 -295.901 288.142 -303.196 290.601C-284.316 301.429 -265.693 311.597 -247.289 321.177ZM-275.371 331.895C-266.316 328.298 -257.224 324.811 -248.096 321.471C-266.499 311.891 -285.123 301.686 -303.966 290.858C-312.178 293.611 -320.353 296.547 -328.491 299.667C-310.565 311.01 -292.858 321.728 -275.371 331.895ZM-304.296 343.861C-294.948 339.861 -285.562 335.933 -276.141 332.189C-293.628 322.021 -311.335 311.267 -329.225 299.924C-337.876 303.228 -346.491 306.715 -355.033 310.349C-337.913 322.095 -321.013 333.253 -304.296 343.861ZM-333.697 356.965C-324.165 352.561 -314.597 348.303 -304.992 344.155C-321.709 333.547 -338.61 322.352 -355.73 310.643C-364.638 314.46 -373.51 318.461 -382.308 322.609C-365.921 334.648 -349.718 346.027 -333.697 356.965ZM-363.392 371.097C-353.75 366.362 -344.109 361.774 -334.357 357.259C-350.377 346.321 -366.581 334.905 -382.968 322.939C-391.987 327.234 -400.968 331.675 -409.877 336.263C-394.223 348.376 -378.716 359.975 -363.392 371.097ZM-393.233 386.183C-383.555 381.155 -373.803 376.236 -364.015 371.428C-379.339 360.306 -394.846 348.707 -410.5 336.63C-419.628 341.365 -428.647 346.247 -437.665 351.276C-422.671 363.352 -407.897 374.988 -393.233 386.183ZM-423.148 402.04C-413.433 396.755 -403.681 391.579 -393.856 386.514C-408.484 375.318 -423.294 363.719 -438.215 351.643C-447.306 356.745 -456.361 362.031 -465.343 367.427C-451.156 379.319 -437.078 390.882 -423.148 402.04ZM-453.099 418.595C-443.347 413.089 -433.596 407.656 -423.771 402.334C-437.702 391.212 -451.742 379.65 -465.966 367.72C-475.095 373.19 -484.15 378.842 -493.131 384.568C-479.641 396.278 -466.296 407.62 -453.099 418.595ZM-483.087 435.847C-473.335 430.157 -463.547 424.504 -453.685 418.962C-466.883 407.987 -480.227 396.645 -493.645 384.972C-502.736 390.808 -511.791 396.755 -520.81 402.811C-508.125 414.153 -495.551 425.092 -483.087 435.847ZM-513.111 453.649C-503.323 447.776 -493.498 441.94 -483.637 436.177C-496.101 425.459 -508.639 414.484 -521.323 403.142C-530.378 409.235 -539.396 415.475 -548.378 421.788C-536.537 432.653 -524.769 443.298 -513.111 453.649ZM-543.246 471.929C-533.457 465.909 -523.596 459.926 -513.698 453.979C-525.356 443.628 -537.087 433.02 -548.928 422.119C-557.983 428.505 -567.001 435.002 -575.983 441.536C-564.985 451.924 -554.06 462.055 -543.246 471.929ZM-573.454 490.612C-563.629 484.482 -553.73 478.352 -543.796 472.259C-554.61 462.385 -565.498 452.254 -576.496 441.903C-585.588 448.547 -594.606 455.264 -603.588 462.018C-593.47 471.782 -583.425 481.325 -573.454 490.612ZM-603.698 509.626C-593.836 503.422 -583.938 497.182 -574.003 490.979C-583.975 481.656 -593.983 472.149 -604.101 462.422C-613.156 469.249 -622.175 476.15 -631.12 483.05C-621.918 492.043 -612.79 500.926 -603.698 509.626ZM-634.126 528.823C-624.228 522.546 -614.256 516.269 -604.248 509.956C-613.303 501.293 -622.431 492.447 -631.596 483.454C-640.688 490.465 -649.706 497.513 -658.688 504.56C-650.44 512.746 -642.264 520.858 -634.126 528.823ZM-33.415 318.534C-21.2073 316.442 -9.03613 314.35 3.09833 312.221C-24.5067 313.065 -52.4416 313.506 -80.7064 313.396C-64.796 315.341 -49.0322 317.029 -33.415 318.534ZM-74.7675 325.435C-61.7532 323.306 -48.7755 321.14 -35.8345 318.938C-52.4782 317.323 -69.2319 315.488 -86.1321 313.359C-101.126 313.249 -116.193 312.992 -131.334 312.551C-112.271 317.286 -93.4274 321.581 -74.7675 325.435ZM-116.523 332.079C-103.142 330.023 -89.8347 327.894 -76.5272 325.729C-95.5903 321.764 -114.874 317.36 -134.377 312.441C-149.957 311.964 -165.648 311.267 -181.448 310.386C-159.525 318.314 -137.859 325.545 -116.523 332.079ZM-156.446 339.2C-154.613 338.539 -152.817 337.878 -150.984 337.218H-150.947H-150.91C-139.876 335.639 -128.914 333.988 -117.953 332.299C-139.582 325.655 -161.468 318.314 -183.648 310.275C-191.86 309.798 -200.108 309.248 -208.393 308.66C-212.243 309.872 -216.092 311.12 -219.904 312.404C-198.495 322.058 -177.342 330.978 -156.446 339.2ZM-187.094 350.799C-177.196 346.945 -167.297 343.201 -157.362 339.53C-178.259 331.308 -199.412 322.352 -220.858 312.661C-229.436 315.524 -238.015 318.498 -246.52 321.581C-226.467 332.042 -206.634 341.769 -187.094 350.799ZM-218.511 363.352C-208.357 359.205 -198.165 355.13 -187.937 351.129C-207.477 342.063 -227.273 332.336 -247.326 321.875C-256.491 325.215 -265.583 328.702 -274.674 332.299C-255.721 343.311 -236.988 353.625 -218.511 363.352ZM-250.332 376.677C-239.994 372.272 -229.656 367.904 -219.281 363.646C-237.758 353.919 -256.454 343.604 -275.408 332.593C-284.866 336.337 -294.251 340.264 -303.599 344.265C-285.636 355.681 -267.892 366.472 -250.332 376.677ZM-282.41 390.698C-271.998 386.073 -261.55 381.485 -251.065 377.007C-268.589 366.803 -286.369 356.011 -304.332 344.596C-313.937 348.743 -323.542 353.001 -333.074 357.406C-315.99 369.042 -299.09 380.164 -282.41 390.698ZM-314.671 405.307C-304.186 400.462 -293.664 395.727 -283.106 391.029C-299.787 380.494 -316.65 369.372 -333.734 357.736C-343.449 362.214 -353.127 366.839 -362.768 371.574C-346.565 383.284 -330.508 394.589 -314.671 405.307ZM-347.041 420.43C-336.52 415.438 -325.962 410.483 -315.367 405.638C-331.204 394.919 -347.261 383.614 -363.465 371.868C-373.253 376.677 -383.005 381.595 -392.72 386.624C-377.323 398.333 -362.072 409.602 -347.041 420.43ZM-379.522 435.993C-368.964 430.855 -358.333 425.789 -347.701 420.724C-362.732 409.932 -377.946 398.663 -393.306 386.918C-403.131 391.983 -412.883 397.195 -422.598 402.444C-408.08 414.043 -393.71 425.239 -379.522 435.993ZM-412.076 451.924C-401.481 446.675 -390.813 441.463 -380.145 436.287C-394.333 425.532 -408.703 414.374 -423.221 402.775C-433.046 408.097 -442.834 413.529 -452.586 419.035C-438.948 430.341 -425.42 441.352 -412.076 451.924ZM-444.74 468.185C-434.109 462.862 -423.404 457.54 -412.699 452.254C-426.044 441.683 -439.535 430.708 -453.172 419.402C-463.034 424.982 -472.822 430.598 -482.573 436.287C-469.852 447.189 -457.241 457.907 -444.74 468.185ZM-477.514 484.666C-466.81 479.27 -456.105 473.874 -445.327 468.478C-457.791 458.201 -470.439 447.519 -483.123 436.617C-492.985 442.38 -502.81 448.216 -512.598 454.089C-500.83 464.551 -489.136 474.792 -477.514 484.666ZM-510.472 501.367C-499.73 495.934 -488.952 490.465 -478.138 484.996C-489.722 475.122 -501.417 464.881 -513.184 454.42C-523.083 460.366 -532.944 466.349 -542.732 472.369C-531.918 482.243 -521.14 491.97 -510.472 501.367ZM-543.539 518.141C-536.06 514.361 -528.582 510.58 -521.103 506.763L-511.058 501.66C-521.726 492.264 -532.468 482.573 -543.319 472.699C-553.254 478.793 -563.115 484.922 -572.977 491.052C-563.079 500.302 -553.291 509.332 -543.539 518.141ZM-576.863 534.989C-566.012 529.52 -555.087 524.014 -544.162 518.472C-553.877 509.662 -563.665 500.633 -573.527 491.456C-583.462 497.659 -593.36 503.863 -603.221 510.103C-594.386 518.508 -585.588 526.841 -576.863 534.989ZM-610.407 551.764C-599.445 546.332 -588.484 540.826 -577.449 535.283C-586.175 527.171 -594.936 518.839 -603.771 510.396C-613.78 516.71 -623.714 522.987 -633.649 529.263C-625.877 536.861 -618.105 544.423 -610.407 551.764ZM53.3959 309.578C63.9539 305.761 74.5121 301.98 85.0701 298.309C78.2514 299.521 71.4326 300.732 64.6138 301.943C47.237 305.027 29.7868 308.147 12.2266 311.23C26.0108 310.789 39.7583 310.239 53.3959 309.578ZM17.9089 322.645C29.0536 318.461 40.1982 314.35 51.3063 310.312C36.8256 310.973 22.2715 311.56 7.64417 312.037C-5.18683 314.276 -18.0544 316.516 -30.9587 318.718C-14.4984 320.296 1.77856 321.581 17.9089 322.645ZM-17.358 336.116C-6.06665 331.748 5.22461 327.417 16.4792 323.196C-0.0177612 322.095 -16.6248 320.773 -33.3784 319.158C-46.5393 321.397 -59.7369 323.636 -73.0079 325.802C-54.2379 329.656 -35.7246 333.07 -17.358 336.116ZM-52.6249 349.991C-41.2603 345.477 -29.8956 340.998 -18.5311 336.594C-37.081 333.51 -55.8142 330.023 -74.7675 326.096C-88.1484 328.298 -101.603 330.427 -115.094 332.519C-94.014 338.943 -73.1911 344.742 -52.6249 349.991ZM-87.7819 364.16C-76.3806 359.535 -65.0159 354.91 -53.6514 350.395C-74.3643 345.109 -95.3338 339.237 -116.56 332.74C-127.961 334.501 -139.362 336.19 -150.837 337.842C-152.413 338.429 -153.99 338.98 -155.566 339.567C-132.617 348.596 -110.034 356.745 -87.7819 364.16ZM-122.975 378.585C-111.538 373.85 -100.136 369.152 -88.6984 364.527C-110.951 357.112 -133.534 348.927 -156.446 339.897C-166.418 343.568 -176.352 347.312 -186.287 351.166C-164.878 361.077 -143.762 370.216 -122.975 378.585ZM-158.132 393.304C-146.694 388.496 -135.257 383.687 -123.819 378.952C-144.605 370.547 -165.721 361.444 -187.13 351.496C-197.359 355.497 -207.587 359.572 -217.778 363.719C-197.615 374.327 -177.745 384.165 -158.132 393.304ZM-193.289 408.17C-181.815 403.288 -170.377 398.443 -158.902 393.635C-178.479 384.495 -198.348 374.621 -218.511 364.05C-228.886 368.308 -239.261 372.639 -249.599 377.08C-230.609 388.129 -211.839 398.48 -193.289 408.17ZM-228.52 423.22C-217.045 418.301 -205.57 413.383 -194.059 408.501C-212.573 398.774 -231.342 388.422 -250.369 377.374C-260.854 381.852 -271.302 386.44 -281.75 391.065C-263.786 402.444 -246.043 413.126 -228.52 423.22ZM-263.75 438.379C-252.239 433.424 -240.764 428.469 -229.253 423.55C-246.776 413.419 -264.483 402.738 -282.446 391.432C-293.005 396.131 -303.526 400.903 -314.011 405.748C-297.074 417.2 -280.32 428.028 -263.75 438.379ZM-299.127 453.649L-292.345 450.713C-283.07 446.712 -273.795 442.711 -264.483 438.71C-281.053 428.359 -297.77 417.53 -314.744 406.041C-325.339 410.923 -335.933 415.879 -346.455 420.871C-330.471 432.286 -314.744 443.188 -299.127 453.649ZM-334.614 468.919C-323.029 463.927 -311.445 458.935 -299.86 453.943C-315.44 443.518 -331.204 432.616 -347.115 421.164C-357.746 426.193 -368.377 431.295 -378.936 436.434C-363.978 447.703 -349.204 458.531 -334.614 468.919ZM-370.137 484.152C-358.516 479.196 -346.931 474.204 -335.273 469.212C-349.901 458.825 -364.638 448.033 -379.559 436.728C-390.227 441.903 -400.895 447.115 -411.49 452.364C-397.596 463.376 -383.811 473.911 -370.137 484.152ZM-405.844 499.348C-394.186 494.393 -382.492 489.437 -370.797 484.445C-384.435 474.204 -398.219 463.67 -412.15 452.695C-422.854 457.98 -433.559 463.303 -444.19 468.625C-431.286 479.233 -418.528 489.401 -405.844 499.348ZM-441.771 514.471C-430.04 509.552 -418.308 504.634 -406.541 499.642C-419.188 489.694 -431.946 479.527 -444.85 468.919C-455.592 474.314 -466.333 479.71 -477.038 485.106C-465.16 495.237 -453.429 504.927 -441.771 514.471ZM-477.918 529.447C-466.113 524.602 -454.309 519.683 -442.431 514.764C-454.089 505.258 -465.783 495.53 -477.624 485.436C-488.439 490.906 -499.217 496.375 -509.958 501.807C-499.18 511.277 -488.512 520.454 -477.918 529.447ZM-514.321 544.239C-502.443 539.468 -490.529 534.622 -478.577 529.74C-489.172 520.747 -499.804 511.608 -510.545 502.138L-520.846 507.35C-528.252 511.13 -535.657 514.875 -543.026 518.619C-533.384 527.355 -523.816 535.87 -514.321 544.239ZM-550.944 558.738C-538.993 554.076 -527.005 549.305 -514.981 544.496C-524.476 536.164 -534.044 527.611 -543.649 518.912C-554.574 524.455 -565.498 529.961 -576.35 535.43C-567.808 543.358 -559.376 551.103 -550.944 558.738ZM-587.898 572.943C-575.836 568.392 -563.739 563.73 -551.604 558.995C-559.999 551.36 -568.468 543.652 -576.973 535.724C-588.008 541.266 -598.969 546.772 -609.93 552.241C-602.525 559.289 -595.193 566.116 -587.898 572.943ZM-625.877 587.002C-632.036 581.092 -638.158 575.293 -644.354 569.236C-702.827 597.793 -760.163 624.148 -816.289 645.988C-754.334 630.719 -690.729 610.457 -625.877 587.002ZM-643.731 568.942C-637.499 574.999 -631.376 580.835 -625.217 586.745C-613.046 582.34 -600.802 577.825 -588.557 573.164C-595.853 566.336 -603.148 559.546 -610.517 552.498C-621.625 558.077 -632.696 563.547 -643.731 568.942ZM-664.26 548.607C-657.552 555.251 -650.843 561.968 -644.207 568.465C-633.173 563.069 -622.101 557.6 -610.957 552.058C-618.619 544.716 -626.391 537.155 -634.162 529.594L-637.205 531.502C-646.297 537.265 -655.279 542.955 -664.26 548.607ZM-686.403 526.4C-679.144 533.741 -671.922 541.009 -664.737 548.167C-655.719 542.477 -646.664 536.751 -637.535 530.988L-634.639 529.153C-642.778 521.225 -650.953 513.113 -659.165 504.927C-668.293 512.085 -677.385 519.243 -686.403 526.4ZM-710.012 502.321C-702.24 510.36 -694.542 518.178 -686.843 525.96C-677.825 518.802 -668.733 511.644 -659.641 504.487C-668.183 495.971 -676.798 487.272 -685.413 478.462C-693.662 486.354 -701.874 494.319 -710.012 502.321ZM-734.977 476.15C-726.766 484.812 -718.59 493.438 -710.489 501.844C-702.35 493.842 -694.138 485.877 -685.89 477.985C-694.835 468.845 -703.853 459.559 -712.908 450.089C-720.277 458.714 -727.645 467.414 -734.977 476.15ZM-761.299 448.033C-752.611 457.393 -743.996 466.643 -735.417 475.709C-728.085 466.937 -720.753 458.274 -713.311 449.648C-722.66 439.848 -732.081 429.974 -741.54 419.843C-748.175 429.129 -754.774 438.526 -761.299 448.033ZM-789.014 417.824C-779.886 427.881 -770.794 437.829 -761.739 447.556C-755.214 438.049 -748.615 428.652 -741.98 419.366C-751.731 408.941 -761.519 398.37 -771.418 387.542C-777.32 397.452 -783.185 407.583 -789.014 417.824ZM-818.086 385.449C-808.481 396.278 -798.949 406.886 -789.418 417.347C-783.625 407.106 -777.723 397.012 -771.784 387.064C-781.939 375.942 -792.13 364.6 -802.432 353.075C-807.748 363.646 -812.953 374.438 -818.086 385.449ZM-830 0C-826.994 3.48707 -823.988 6.93743 -821.019 10.4245C-809.617 9.65367 -797.299 11.3421 -784.029 15.7469L-783.955 15.7836L-783.919 15.857C-776.147 24.593 -768.411 33.1455 -760.713 41.6613C-749.971 40.9271 -738.607 41.9916 -726.509 45.0015L-726.436 45.0382L-726.362 45.1116C-717.564 54.4716 -708.839 63.6481 -700.15 72.6778C-690.216 71.9437 -679.841 72.3842 -668.989 74.2195H-668.88L-668.806 74.2929C-658.908 84.1668 -649.083 93.8204 -639.332 103.327C-630.313 102.52 -621.038 102.52 -611.433 103.437H-611.323L-611.25 103.511C-600.142 113.825 -589.107 123.846 -578.146 133.683C-570.227 132.802 -562.162 132.435 -553.877 132.655H-553.767L-553.694 132.729C-541.193 143.337 -528.765 153.614 -516.447 163.635C-509.848 162.754 -503.14 162.13 -496.321 161.873H-496.211L-496.138 161.947C-481.95 172.702 -467.873 183.053 -453.942 193.11C-448.919 192.303 -443.897 191.642 -438.801 191.128H-438.691L-438.618 191.201C-422.341 201.92 -406.174 212.16 -390.19 221.924C-387.221 221.374 -384.251 220.86 -381.245 220.383H-381.135L-381.062 220.419C-361.925 230.807 -342.972 240.571 -324.239 249.747C-324.056 249.711 -323.872 249.674 -323.689 249.637H-323.616L-323.542 249.674C-280.21 267.44 -237.831 282.306 -196.405 294.786C-159.012 302.347 -122.279 308.257 -86.1688 312.808C-54.5312 313.028 -23.2969 312.515 7.57086 311.523C26.634 308.183 45.6239 304.806 64.4672 301.429C72.6057 299.998 80.7076 298.53 88.8094 297.098C432.167 178.061 759.687 145.025 1002.96 442.857V443.848C760.787 146.861 434.843 178.464 92.9153 296.364C447.088 233.45 761.594 186.319 1003 481.949V482.94C760.787 185.842 444.851 234.441 89.0294 297.612C77.8847 301.466 66.7401 305.43 55.5955 309.468C109.669 306.899 162.496 303.155 214.04 299.484C524.807 277.46 789.015 258.74 1003 521.041V522.032C789.089 259.364 524.88 278.084 214.077 300.108C161.873 303.815 108.349 307.596 53.5425 310.165C42.2146 314.276 30.85 318.424 19.4854 322.682C117.074 329.106 209.751 327.894 297.771 326.756C575.764 323.123 807.565 320.149 1003.04 560.17V561.161C807.639 320.773 575.801 323.747 297.771 327.38C209.311 328.518 116.158 329.766 18.0557 323.196C6.69104 327.454 -4.67358 331.822 -16.0748 336.227C115.828 358.03 237.576 360.563 350.635 362.912C607.145 368.234 818.93 372.639 1003.04 599.225V600.216C818.967 373.3 607.182 368.858 350.635 363.573C237.246 361.223 115.095 358.691 -17.2479 336.704C-28.6492 341.145 -40.0872 345.587 -51.5251 350.138C109.596 390.992 254.329 396.865 386.195 402.261C627.858 412.098 826.262 420.173 1003.04 638.317V639.308C826.262 420.834 627.858 412.722 386.159 402.921C254.036 397.562 108.972 391.653 -52.5516 350.579C-63.9528 355.13 -75.3907 359.755 -86.792 364.38C100.357 426.523 264.154 435.039 410.978 442.711C642.009 454.713 831.065 464.587 1003.07 677.445V678.436C831.101 465.248 642.046 455.374 410.978 443.335C263.898 435.7 99.8074 427.111 -87.6719 364.747C-99.1098 369.409 -110.584 374.107 -122.022 378.842C88.9927 463.78 269.213 474.168 428.574 483.381C651.834 496.265 834.181 506.799 1003.11 716.537V717.528C834.217 507.46 651.87 496.889 428.538 484.042C268.993 474.865 88.5161 464.404 -122.865 379.209C-134.34 383.944 -145.778 388.753 -157.253 393.598C76.1617 502.358 270.863 513.92 441.039 524.014C658.579 536.898 836.05 547.469 1003.11 755.592V756.583C836.087 548.093 658.616 537.559 441.002 524.638C270.643 514.544 75.7218 502.945 -158.059 393.892C-169.534 398.737 -181.008 403.582 -192.483 408.464C62.1942 541.817 269.983 553.966 449.764 564.391C663.125 576.797 837.04 586.965 1003.11 794.611V795.602C837.04 587.589 663.125 577.422 449.764 565.015C269.836 554.554 61.791 542.404 -193.216 408.758C-204.727 413.639 -216.202 418.558 -227.713 423.513C47.4202 582.083 267.234 594.196 455.703 604.547C665.984 616.11 837.333 625.58 1003.11 833.666V834.657C837.333 626.204 665.984 616.734 455.666 605.171C267.014 594.783 47.017 582.67 -228.446 423.807C-239.958 428.762 -251.469 433.681 -262.98 438.636C31.9497 622.827 262.908 634.499 459.442 644.41C667.561 654.908 837.077 663.46 1003.15 872.721V873.712C837.077 664.121 667.561 655.532 459.442 645.034C262.761 635.123 31.5831 623.414 -263.677 438.93C-273.098 443.004 -282.556 447.042 -291.978 451.116L-298.357 453.869C15.8926 664.084 257.372 674.913 461.422 684.016C668.074 693.229 836.38 700.79 1003.11 911.739V912.767C836.343 701.451 668.037 693.89 461.385 684.676C257.152 675.573 15.4894 664.708 -299.09 454.163C-310.711 459.155 -322.296 464.184 -333.88 469.139C-0.640991 705.745 250.81 715.362 462.008 723.401C667.744 731.256 835.317 737.68 1003.11 950.795V951.822C835.317 738.34 667.744 731.917 461.972 724.062C250.59 715.987 -1.04425 706.406 -334.577 469.433C-346.198 474.425 -357.856 479.417 -369.441 484.409C-17.5779 747.664 243.441 755.812 461.458 762.603C666.754 768.99 833.997 774.202 1003.11 989.85V990.877C833.961 774.863 666.754 769.614 461.458 763.264C243.258 756.473 -17.9445 748.324 -370.1 484.702C-381.795 489.694 -393.49 494.686 -405.147 499.642C-34.8448 789.839 235.376 796.299 459.992 801.585C659.716 806.283 823.439 810.174 989.399 1011.8H988.593C822.889 810.798 659.386 806.907 459.955 802.209C235.193 796.923 -35.248 790.463 -405.844 499.898C-417.612 504.891 -429.38 509.846 -441.111 514.728C-52.5149 832.234 226.651 836.749 457.646 840.383C644.098 843.319 799.207 845.779 955.195 1011.8H954.315C798.62 846.439 643.732 843.943 457.609 841.007C226.431 837.373 -52.9182 832.858 -441.807 514.985C-453.649 519.94 -465.49 524.859 -477.294 529.704C-70.4783 874.85 217.413 877.162 454.676 878.998C626.245 880.319 771.345 881.494 915.823 1011.76H914.869C770.722 882.118 625.878 880.943 454.676 879.622C217.266 877.786 -70.8449 875.474 -477.954 529.961C-489.905 534.879 -501.82 539.724 -513.698 544.496C-88.6983 917.686 207.734 917.612 451.157 917.502C605.129 917.429 737.911 917.429 868.568 1011.8H867.431C737.142 918.09 604.689 918.089 451.157 918.163C207.588 918.273 -89.0283 918.346 -514.358 544.79C-526.382 549.635 -538.37 554.37 -550.358 559.032C-107.175 960.595 197.653 958.026 447.088 955.86C578.33 954.722 694.249 953.768 806.869 1011.76H805.439C693.26 954.392 577.781 955.383 447.088 956.484C197.506 958.613 -107.542 961.182 -551.018 559.252C-563.152 563.987 -575.25 568.649 -587.311 573.2C-125.945 1003.5 187.242 998.365 442.615 994.071C537.015 992.492 623.496 991.061 706.677 1011.73H703.964C621.626 991.722 535.988 993.116 442.615 994.695C187.058 998.989 -126.312 1004.13 -588.008 573.421C-600.289 578.045 -612.496 582.56 -624.704 587.002C-334.32 865.27 -101.933 972.157 94.2717 1011.73H91.0457C-104.609 971.607 -336.263 864.315 -625.364 587.222C-692.012 611.375 -757.413 632.113 -820.982 647.53C-823.988 648.704 -826.994 649.842 -830 650.98V650.283C-828.607 649.769 -827.251 649.255 -825.858 648.704C-827.251 649.035 -828.607 649.365 -830 649.695V649.035C-827.067 648.337 -824.098 647.64 -821.165 646.943C-763.646 624.809 -704.843 597.83 -644.831 568.539C-651.429 562.078 -658.138 555.398 -664.81 548.754C-721.047 584.432 -776 618.495 -830 647.75V647.016C-776.147 617.835 -721.34 583.845 -665.287 548.497C-672.472 541.376 -679.658 534.145 -686.916 526.804C-694.871 533.117 -702.79 539.431 -710.709 545.708C-751.108 577.862 -790.774 609.392 -830 638.243V637.436C-790.884 608.658 -751.365 577.201 -711.038 545.157C-703.157 538.88 -695.275 532.604 -687.319 526.327C-695.018 518.545 -702.68 510.763 -710.452 502.725C-728.159 520.087 -745.646 537.522 -763.022 554.847C-785.568 577.348 -807.858 599.592 -830 620.991V620.111C-808.004 598.821 -785.862 576.761 -763.462 554.407C-746.122 537.118 -728.635 519.646 -710.929 502.321C-719.03 493.952 -727.206 485.326 -735.381 476.664C-758.513 504.377 -781.206 532.677 -803.605 560.684C-812.44 571.732 -821.238 582.707 -830 593.572V592.581C-821.385 581.9 -812.733 571.108 -804.082 560.28C-781.646 532.273 -758.99 503.973 -735.821 476.223C-744.399 467.193 -753.014 457.907 -761.666 448.584C-784.982 482.5 -807.638 517.628 -830 552.572V551.434C-807.784 516.71 -785.275 481.802 -762.106 448.106C-771.124 438.379 -780.216 428.469 -789.344 418.411C-803.202 442.821 -816.693 468.038 -830 493.548V492.227C-816.839 467.01 -803.495 442.123 -789.784 417.934C-799.279 407.473 -808.811 396.902 -818.416 386.073C-822.302 394.442 -826.151 402.921 -830 411.474V409.969C-826.298 401.747 -822.595 393.598 -818.819 385.559C-822.558 381.375 -826.261 377.154 -830 372.933V371.978C-826.188 376.31 -822.338 380.641 -818.562 384.935C-813.43 373.96 -808.224 363.169 -802.908 352.561C-811.89 342.503 -820.909 332.262 -830 321.875V320.92C-820.835 331.418 -811.67 341.806 -802.615 351.973C-797.336 341.402 -791.947 331.014 -786.485 320.92C-797.629 308.477 -808.884 295.777 -820.212 282.856C-823.548 290.087 -826.811 297.428 -830.037 304.953V303.411C-826.957 296.291 -823.841 289.28 -820.652 282.379C-823.768 278.818 -826.884 275.221 -830.037 271.624V270.67C-826.811 274.377 -823.585 278.084 -820.359 281.755C-815.446 271.11 -810.424 260.796 -805.255 250.849C-813.43 241.452 -821.715 231.982 -830 222.365V221.41C-821.605 231.137 -813.247 240.754 -804.925 250.188C-799.756 240.241 -794.44 230.624 -788.978 221.41C-801.405 207.425 -813.943 193.073 -826.591 178.428C-827.727 180.557 -828.9 182.722 -830 184.925V183.603C-829.01 181.695 -828.021 179.823 -826.994 177.951L-830 174.427V173.472L-826.701 177.327C-821.568 167.82 -816.216 158.79 -810.68 150.384C-817.096 143.006 -823.548 135.555 -830 128.03V127.076C-823.401 134.748 -816.876 142.346 -810.314 149.87C-804.705 141.355 -798.913 133.463 -792.864 126.195C-805.145 112.173 -817.536 97.9682 -830 83.4327V82.4783C-817.389 97.1974 -804.888 111.586 -792.46 125.718C-786.338 118.377 -779.959 111.696 -773.324 105.75C-786.045 91.4713 -798.876 76.9357 -811.817 62.0698C-818.159 66.8049 -824.208 72.4209 -830 78.8077V77.8533C-824.355 71.6867 -818.416 66.2176 -812.257 61.5192C-818.122 54.7286 -824.061 47.8279 -830 40.8904V39.9361C-823.878 47.0938 -817.792 54.178 -811.744 61.1521C-804.522 55.7197 -796.933 51.3516 -788.941 48.1215C-799.646 36.0453 -810.424 23.6386 -821.238 11.1219C-824.208 11.3054 -827.141 11.7092 -830 12.2598V11.5624C-827.324 11.0485 -824.575 10.6814 -821.788 10.4612C-824.538 7.30449 -827.251 4.14777 -830 0.954355V0Z" fill="#005653"/>
</svg>
