<svg width="63" height="63" viewBox="0 0 63 63" fill="none" xmlns="http://www.w3.org/2000/svg">
<path fill-rule="evenodd" clip-rule="evenodd" d="M27.5626 0.0815448C26.6502 0.369491 25.97 0.939738 25.5116 1.80082C25.3061 2.18685 25.2565 2.65665 25.2014 4.73622L25.1358 7.21206L24.0867 7.59454C23.5096 7.80489 22.579 8.19223 22.0185 8.45536L20.9996 8.93383L19.2624 7.23215C17.3908 5.3989 17.0743 5.21468 15.7969 5.21468C14.6504 5.21468 14.0868 5.6187 11.2673 8.46271C8.82537 10.9257 8.68247 11.0977 8.46976 11.8296C8.02689 13.354 8.38473 14.1355 10.526 16.3209L12.0857 17.9126L11.551 19.0277C11.2569 19.641 10.8791 20.5507 10.7115 21.0492L10.4067 21.9558L7.92966 22.0226C5.72148 22.0823 5.39579 22.1201 4.92786 22.3717C4.24145 22.7407 3.75934 23.2617 3.42945 23.9909C3.18119 24.5398 3.1619 24.8439 3.15927 28.2677C3.15599 32.4194 3.21832 32.8 4.03989 33.6465C4.57015 34.1929 5.40143 34.6192 5.94482 34.6236L6.30568 34.6264V33.576C6.30568 32.7161 6.26893 32.5256 6.10294 32.5256C5.9914 32.5256 5.75521 32.3805 5.57806 32.2033L5.25591 31.881V28.3546C5.25591 24.6196 5.23229 24.7925 5.81872 24.2269C5.83394 24.2122 7.22501 24.1678 8.91001 24.1284L11.9736 24.0566L12.3975 22.6779C12.9163 20.9902 13.3695 19.9191 14.1402 18.5601L14.7298 17.5204L12.6199 15.4051C11.0013 13.7823 10.49 13.1888 10.4239 12.8558C10.3402 12.4336 10.4059 12.3533 12.8772 9.8687C16.1824 6.54557 15.7021 6.58286 18.5772 9.42674L20.7116 11.5378L21.6115 11.0318C22.9919 10.2554 24.5385 9.58653 25.7961 9.22191C26.4233 9.03992 27.0186 8.89115 27.1188 8.89115C27.2688 8.89115 27.3017 8.35308 27.3051 5.83837C27.3095 2.63879 27.328 2.52942 27.9156 2.21613C28.3151 2.00329 34.6849 2.00329 35.0844 2.21613C35.6719 2.52929 35.6905 2.63958 35.6949 5.8238L35.6991 8.86187L36.1817 8.95247C37.527 9.2051 39.764 10.1245 41.8307 11.2742L42.3857 11.5829L44.5222 9.44919C46.4683 7.50578 46.6998 7.31553 47.118 7.31553C47.5391 7.31553 47.7826 7.52141 50.0624 9.80502C52.3623 12.1087 52.5478 12.3296 52.5478 12.7644C52.5478 13.1966 52.3759 13.4066 50.4083 15.378L48.2688 17.5218L48.8805 18.583C49.5908 19.8153 50.2681 21.4405 50.7105 22.9751L51.0225 24.0566L54.088 24.1284C55.7741 24.1678 57.1661 24.2122 57.1813 24.2269C57.7677 24.7925 57.7441 24.6196 57.7441 28.3546V31.881L57.4219 32.2033C57.2448 32.3805 57.0086 32.5256 56.8971 32.5256C56.7311 32.5256 56.6943 32.7161 56.6943 33.576V34.6264L57.0552 34.6236C57.5986 34.6192 58.4298 34.1929 58.9601 33.6465C59.7817 32.8 59.844 32.4194 59.8407 28.2677C59.8381 24.8439 59.8188 24.5398 59.5705 23.9909C59.2407 23.2617 58.7586 22.7407 58.0721 22.3717C57.6043 22.1201 57.2784 22.0822 55.0726 22.0226L52.598 21.9558L52.1742 20.774C51.9411 20.1241 51.5597 19.2169 51.3268 18.7581L50.9032 17.924L52.4684 16.3266C54.6157 14.1351 54.9734 13.3549 54.5302 11.8296C54.3175 11.0977 54.1746 10.9257 51.7327 8.46271C48.9132 5.6187 48.3496 5.21468 47.2032 5.21468C45.9258 5.21468 45.6091 5.39903 43.7388 7.23097L42.0026 8.9316L40.7891 8.36739C40.1217 8.05712 39.1904 7.67332 38.7199 7.51471L37.8642 7.22611L37.7986 4.74331C37.7267 2.02312 37.6267 1.63709 36.7937 0.863845C35.9052 0.0392654 35.8538 0.0305993 31.6968 0.00302579C29.6039 -0.0108923 27.7434 0.0245595 27.5626 0.0815448ZM29.5973 13.766C22.7909 14.6167 17.4353 20.2894 16.854 27.2635L16.7655 28.3239H17.8342H18.9028V27.8159C18.9028 27.5365 18.9893 26.8128 19.0951 26.2075C19.993 21.0654 23.8333 17.1237 29.0724 15.9668C30.3413 15.6866 33.053 15.7492 34.4363 16.0907C39.3268 17.2983 43.0424 21.2683 43.9049 26.2075C44.0107 26.8128 44.0972 27.5365 44.0972 27.8159V28.3239H45.1658H46.2345L46.146 27.2635C45.4409 18.8028 37.9808 12.7182 29.5973 13.766ZM30.2547 24.2765C28.6687 24.5792 26.9909 25.773 26.1234 27.216C23.6224 31.3761 26.6467 36.7241 31.5 36.7241C33.1526 36.7241 34.5078 36.1773 35.7602 35.005C37.4973 33.3789 38.1544 31.1249 37.5581 28.8385C36.7282 25.6577 33.5197 23.6535 30.2547 24.2765ZM30.5466 26.3583C29.3427 26.6608 28.3254 27.481 27.7317 28.6276C27.4324 29.2056 27.3782 29.4775 27.3729 30.4248C27.3675 31.3894 27.4166 31.6426 27.7348 32.2911C28.9862 34.8411 32.422 35.4233 34.4202 33.4238C35.3303 32.5131 35.6291 31.7897 35.6313 30.4904C35.6336 29.2434 35.2634 28.3116 34.4376 27.4853C33.4838 26.5309 31.8004 26.0432 30.5466 26.3583ZM12.4087 28.4782C10.8227 28.7809 9.14489 29.9747 8.27739 31.4177C5.77646 35.5777 8.8007 40.9258 13.654 40.9258C15.3066 40.9258 16.6619 40.3789 17.9142 39.2067C19.6513 37.5806 20.3085 35.3266 19.7121 33.0402C18.8822 29.8594 15.6738 27.8552 12.4087 28.4782ZM48.1007 28.4782C46.5146 28.7809 44.8369 29.9747 43.9694 31.4177C41.4684 35.5777 44.4927 40.9258 49.346 40.9258C50.9986 40.9258 52.3538 40.3789 53.6062 39.2067C55.3433 37.5806 56.0004 35.3266 55.404 33.0402C54.5742 29.8594 51.3657 27.8552 48.1007 28.4782ZM12.7006 30.56C11.4968 30.8625 10.4794 31.6826 9.88576 32.8293C9.58645 33.4073 9.53225 33.6792 9.52687 34.6264C9.52149 35.5911 9.57057 35.8443 9.88878 36.4928C11.1402 39.0428 14.576 39.625 16.5742 37.6255C17.4843 36.7148 17.7831 35.9913 17.7854 34.6921C17.7876 33.4451 17.4174 32.5133 16.5917 31.687C15.6378 30.7325 13.9544 30.2449 12.7006 30.56ZM48.3925 30.56C47.1887 30.8625 46.1714 31.6826 45.5777 32.8293C45.2784 33.4073 45.2242 33.6792 45.2188 34.6264C45.2135 35.5911 45.2625 35.8443 45.5807 36.4928C46.8322 39.0428 50.2679 39.625 52.2662 37.6255C53.1763 36.7148 53.4751 35.9913 53.4773 34.6921C53.4796 33.4451 53.1094 32.5133 52.2836 31.687C51.3298 30.7325 49.6463 30.2449 48.3925 30.56ZM25.9231 37.9093C23.6152 38.2566 21.4963 39.4628 20.0598 41.247L19.4389 42.0181L14.2174 41.993C10.0507 41.973 8.76921 42.008 7.87494 42.1665C5.28465 42.6255 3.0522 44.0664 1.64131 46.1901C0.904379 47.2994 0.489066 48.2996 0.215865 49.6232C-0.0637654 50.9774 -0.0743943 55.9509 0.199594 57.2442C0.619106 59.2253 2.08261 61.1502 3.89017 62.0983C5.5568 62.9724 5.69865 62.9878 12.1069 62.9878H17.8531V61.9374V60.8869H13.1291H8.4052V55.1096V49.3323H7.35544H6.30568V55.0582V60.7841L5.94482 60.6966C4.81869 60.4232 3.61657 59.5189 2.90575 58.4106C2.18837 57.292 2.07644 56.5091 2.13523 53.0248C2.1847 50.0872 2.20517 49.8768 2.52102 49.0462C2.70446 48.5639 3.04511 47.8722 3.27803 47.5091C3.87954 46.5712 5.22927 45.356 6.19886 44.8796C7.66577 44.1587 8.35206 44.0851 13.6212 44.0825C16.2375 44.0813 18.378 44.1154 18.378 44.1585C18.378 44.2016 18.2747 44.5708 18.1483 44.9791C17.9426 45.6443 17.9187 46.4044 17.9187 52.2866C17.9187 58.4648 17.9338 58.8923 18.1738 59.5397C18.7145 60.9984 20.0452 62.2705 21.5082 62.7274C22.183 62.938 22.7154 62.9878 24.2967 62.9878H26.2512V54.5844V46.1811H25.2014H24.1517V53.534V60.8869H23.2588C21.7078 60.8869 20.4418 59.9848 20.0737 58.6174C19.9867 58.2941 19.9544 55.904 19.9833 51.9182C20.0271 45.8364 20.0336 45.7064 20.3292 44.9044C21.1321 42.7264 22.9288 40.956 25.0608 40.2425C25.879 39.9688 26.1849 39.9516 31.0431 39.9081C36.7356 39.8571 37.3422 39.9157 38.9175 40.6681C39.9111 41.1426 41.2587 42.3448 41.876 43.3074C42.1089 43.6706 42.4524 44.3623 42.6393 44.8445L42.9792 45.7215L43.0204 51.9182C43.0467 55.8927 43.013 58.295 42.9263 58.6174C42.5582 59.9848 41.2922 60.8869 39.7412 60.8869H38.8483V53.534V46.1811H37.7986H36.7488V54.5844V62.9878H38.6932C40.8703 62.9878 41.6583 62.828 42.6796 62.1791C43.5346 61.636 44.1853 60.8751 44.6695 59.8527L45.0813 58.9831V52.3523C45.0813 46.4076 45.0576 45.6447 44.8517 44.9791C44.7254 44.5708 44.622 44.2016 44.622 44.1585C44.622 44.1154 46.7626 44.0813 49.3788 44.0825C54.6479 44.0851 55.3342 44.1587 56.8011 44.8796C57.7707 45.356 59.1205 46.5712 59.722 47.5091C59.9549 47.8722 60.2954 48.5639 60.4787 49.0462C60.7934 49.8743 60.8149 50.0931 60.8649 52.9698C60.9207 56.1799 60.848 56.8827 60.3509 57.9407C59.7712 59.1748 58.3081 60.3989 57.0552 60.698L56.6943 60.7841V55.0582V49.3323H55.6446H54.5948V55.1096V60.8869H49.8709H45.1469V61.9435V63L51.2159 62.9611C57.2573 62.9223 57.2884 62.9207 58.0721 62.6094C59.1614 62.1767 60.5219 61.2529 61.1518 60.5182C61.8912 59.6557 62.579 58.2898 62.8004 57.2442C63.0744 55.9509 63.0638 50.9774 62.7841 49.6232C62.1209 46.4099 60.0433 43.925 56.9621 42.6593C55.4891 42.0542 54.4074 41.9659 48.7987 41.9929L43.593 42.018L42.9483 41.2437C41.4375 39.4291 39.4144 38.2902 37.0517 37.924C35.9933 37.7599 26.9944 37.748 25.9231 37.9093ZM27.3009 61.9374V62.9878H31.5H35.6991V61.9374V60.8869H31.5H27.3009V61.9374Z" fill="white"/>
</svg>
