<svg width="14" height="14" viewBox="0 0 14 14" fill="none" xmlns="http://www.w3.org/2000/svg">
<path d="M3.87542 0H9.48811C11.6263 0 13.3635 1.73726 13.3635 3.87543V9.48811C13.3635 10.5159 12.9552 11.5017 12.2284 12.2284C11.5017 12.9552 10.5159 13.3635 9.48811 13.3635H3.87542C1.73726 13.3635 0 11.6263 0 9.48811V3.87543C0 2.8476 0.408302 1.86187 1.13509 1.13509C1.86187 0.408303 2.8476 0 3.87542 0ZM3.74179 1.33635C3.10383 1.33635 2.492 1.58978 2.04089 2.04089C1.58978 2.492 1.33635 3.10383 1.33635 3.74179V9.62174C1.33635 10.9514 2.41212 12.0272 3.74179 12.0272H9.62174C10.2597 12.0272 10.8715 11.7738 11.3226 11.3226C11.7737 10.8715 12.0272 10.2597 12.0272 9.62174V3.74179C12.0272 2.41212 10.9514 1.33635 9.62174 1.33635H3.74179ZM10.1897 2.33862C10.4112 2.33862 10.6236 2.42661 10.7803 2.58325C10.9369 2.73988 11.0249 2.95233 11.0249 3.17384C11.0249 3.39535 10.9369 3.6078 10.7803 3.76443C10.6236 3.92106 10.4112 4.00906 10.1897 4.00906C9.96818 4.00906 9.75573 3.92106 9.5991 3.76443C9.44247 3.6078 9.35447 3.39535 9.35447 3.17384C9.35447 2.95233 9.44247 2.73988 9.5991 2.58325C9.75573 2.42661 9.96818 2.33862 10.1897 2.33862ZM6.68176 3.34088C7.56782 3.34088 8.41759 3.69287 9.04412 4.31941C9.67066 4.94594 10.0226 5.79571 10.0226 6.68177C10.0226 7.56782 9.67066 8.41759 9.04412 9.04413C8.41759 9.67067 7.56782 10.0227 6.68176 10.0227C5.79571 10.0227 4.94594 9.67067 4.3194 9.04413C3.69287 8.41759 3.34088 7.56782 3.34088 6.68177C3.34088 5.79571 3.69287 4.94594 4.3194 4.31941C4.94594 3.69287 5.79571 3.34088 6.68176 3.34088ZM6.68176 4.67724C6.15013 4.67724 5.64027 4.88843 5.26435 5.26435C4.88843 5.64027 4.67723 6.15013 4.67723 6.68177C4.67723 7.2134 4.88843 7.72326 5.26435 8.09918C5.64027 8.47511 6.15013 8.6863 6.68176 8.6863C7.2134 8.6863 7.72326 8.47511 8.09918 8.09918C8.4751 7.72326 8.68629 7.2134 8.68629 6.68177C8.68629 6.15013 8.4751 5.64027 8.09918 5.26435C7.72326 4.88843 7.2134 4.67724 6.68176 4.67724Z" fill="black"/>
</svg>
