<svg width="57" height="55" viewBox="0 0 57 55" fill="none" xmlns="http://www.w3.org/2000/svg">
<mask id="path-1-outside-1_174_19446" maskUnits="userSpaceOnUse" x="-0.800781" y="-0.800049" width="58" height="56" fill="black">
<rect fill="white" x="-0.800781" y="-0.800049" width="58" height="56"/>
<path fill-rule="evenodd" clip-rule="evenodd" d="M16.8747 0.261096C16.8319 0.304319 16.7969 0.875582 16.7969 1.53064V2.72169L16.2239 3.1495C15.1198 3.97392 14.3695 5.02118 13.8473 6.46693C13.4596 7.53988 13.195 8.97989 13.195 10.0165C13.195 10.9245 13.2806 10.9982 14.3339 10.9982H15.0505V17.3382V23.6783H13.5837H12.117L12.0829 20.839L12.049 17.9998L11.7548 17.4367C11.593 17.1269 11.3351 16.7227 11.1816 16.5383C10.778 16.0539 9.92767 15.536 9.28064 15.3808L8.71995 15.2463V13.1312C8.71995 11.968 8.69015 10.9378 8.6537 10.8419C8.56638 10.6119 8.00034 10.6119 7.91302 10.8419C7.87656 10.9378 7.84677 11.9733 7.84677 13.1429V15.2695L7.48527 15.3288C6.46768 15.4957 5.44333 16.2752 4.89214 17.3023L4.51776 17.9998L4.48381 20.839L4.44976 23.6783H2.45912C1.05625 23.6783 0.429739 23.7173 0.3374 23.8106C0.153158 23.9967 0.153158 27.7703 0.3374 27.9564C0.418278 28.0381 0.815576 28.0887 1.37605 28.0887H2.28383L2.25469 31.0382L2.22566 33.9877L1.3576 34.0203C0.880192 34.0382 0.425919 34.1063 0.347987 34.1716C0.241677 34.2608 0.206422 34.78 0.206422 36.2576C0.206422 38.5597 0.145955 38.4533 1.45376 38.4533H2.27881L2.30675 46.3094L2.3348 54.1655L28.4097 54.1933C47.5934 54.2138 54.5236 54.1883 54.6324 54.0971C54.7543 53.9949 54.7803 52.5985 54.7803 46.1581V38.343L55.2988 38.3395C56.195 38.3334 56.1992 38.3229 56.1992 36.0916C56.1992 34.9152 56.1588 34.1652 56.0976 34.2035C56.0417 34.2384 55.9652 34.2165 55.9274 34.1549C55.8898 34.0932 55.6163 34.0428 55.3196 34.0428H54.7803V31.0658V28.0887H55.1951C55.4232 28.0887 55.6688 28.0292 55.7408 27.9564C55.925 27.7703 55.925 23.9967 55.7408 23.8106C55.6497 23.7185 55.0689 23.6783 53.8307 23.6783H52.0516L52.0455 20.9493C52.0404 18.6487 52.0103 18.1482 51.8545 17.7607C51.3823 16.587 50.352 15.6504 49.2396 15.3834L48.6723 15.2473L48.6429 12.9849L48.6135 10.7226L48.2979 10.6862C48.1186 10.6655 47.9425 10.7131 47.8902 10.7964C47.8396 10.877 47.7975 11.9166 47.7965 13.1063L47.7948 15.2695L47.4333 15.3288C46.413 15.4961 45.3288 16.3448 44.7727 17.4112L44.4658 17.9998L44.4319 20.839L44.3978 23.6783H42.932H41.466L41.468 17.3382L41.4698 10.9982H42.1291C43.0729 10.9982 43.2107 10.8958 43.21 10.195C43.2091 9.35677 42.9287 7.63361 42.6598 6.81293C42.2019 5.4157 41.7125 4.6044 40.7415 3.63366L39.8271 2.71926V1.57971C39.8271 0.349305 39.7415 0.142786 39.26 0.211699C39.0162 0.246652 39.0075 0.287008 38.9759 1.51576L38.9434 2.78376L38.3858 3.16769C37.3464 3.88351 36.4253 5.22627 35.9064 6.7825C35.6316 7.60615 35.353 9.29502 35.3524 10.1398C35.3519 10.9095 35.4697 10.9982 36.4908 10.9982H37.2075V13.424V15.8497H28.2574H19.3073V13.4364V11.0231L20.0693 10.9796C20.4885 10.9557 20.8912 10.8756 20.9645 10.8016C21.1608 10.6033 20.9103 8.30708 20.5584 7.08042C20.1121 5.52486 19.6249 4.68742 18.5269 3.58922L17.5684 2.6305L17.5373 1.43913C17.5066 0.255252 17.5046 0.247534 17.2294 0.215117C17.0771 0.197145 16.9174 0.217874 16.8747 0.261096ZM16.6628 3.89255C15.2905 4.89868 14.3652 6.89033 14.1172 9.37187L14.0428 10.1161H17.1117H20.1805L20.18 9.86805C20.1798 9.73166 20.1066 9.16535 20.0174 8.60964C19.7147 6.72428 19.0254 5.21646 18.0317 4.26601C17.1834 3.4547 17.2394 3.46992 16.6628 3.89255ZM38.7985 3.93489C37.853 4.68831 37.1138 5.83028 36.7241 7.13908C36.5657 7.67076 36.2276 9.5978 36.2258 9.97831C36.2253 10.0854 36.9118 10.1161 39.2964 10.1161H42.3676L42.2934 9.28863C42.1135 7.28419 41.3667 5.4286 40.3044 4.34694C39.4187 3.44522 39.4145 3.44401 38.7985 3.93489ZM15.9237 13.424V15.8497H17.1789H18.4341V13.424V10.9982H17.1789H15.9237V13.424ZM38.0807 13.424V15.8497H39.3359H40.5911V13.424V10.9982H39.3359H38.0807V13.424ZM7.3973 16.2157C6.1576 16.6845 5.33637 17.7235 5.33637 18.8232V19.2678H8.34754H11.3587L11.2866 18.7992C11.0523 17.2786 9.91883 16.2034 8.45024 16.1088C8.06026 16.0837 7.63131 16.1272 7.3973 16.2157ZM47.3454 16.2157C46.1187 16.6795 45.2844 17.7654 45.2844 18.8983V19.2678H48.2756H51.2668L51.2125 18.7992C51.1382 18.1585 50.6917 17.2427 50.2851 16.897C49.4479 16.1854 48.1941 15.8948 47.3454 16.2157ZM15.9237 35.0352V53.3385H17.1789H18.4341V35.0352V16.7318H17.1789H15.9237V35.0352ZM19.3073 18.937V21.1423H28.2574H37.2075V18.937V16.7318H28.2574H19.3073V18.937ZM38.0807 35.0352V53.3385H39.3359H40.5911V35.0352V16.7318H39.3359H38.0807V35.0352ZM5.33637 21.9141V23.6783H8.33793H11.3395V21.9141V20.1499H8.33793H5.33637V21.9141ZM45.2844 21.9141V23.6783H48.286H51.2876V21.9141V20.1499H48.286H45.2844V21.9141ZM19.3073 25.1117V28.3092H28.2574H37.2075V25.1117V21.9141H28.2574H19.3073V25.1117ZM21.1701 24.6567C21.0214 24.9375 21.0193 25.8331 21.1666 26.1113C21.2288 26.2286 21.3701 26.3245 21.4807 26.3245C21.832 26.3245 21.9391 26.0557 21.9048 25.2594C21.8735 24.5328 21.8616 24.504 21.5794 24.4711C21.3757 24.4472 21.2512 24.5038 21.1701 24.6567ZM24.5537 24.6567C24.405 24.9375 24.4028 25.8331 24.5502 26.1113C24.6124 26.2286 24.7536 26.3245 24.8643 26.3245C25.2156 26.3245 25.3226 26.0557 25.2884 25.2594C25.257 24.5328 25.2451 24.504 24.963 24.4711C24.7593 24.4472 24.6348 24.5038 24.5537 24.6567ZM27.9565 24.5777C27.7922 24.7436 27.7764 25.8141 27.9338 26.1113C27.996 26.2286 28.1372 26.3245 28.2479 26.3245C28.5991 26.3245 28.7062 26.0557 28.6719 25.2594C28.6412 24.5467 28.6244 24.5035 28.3658 24.4729C28.2153 24.4552 28.0311 24.5023 27.9565 24.5777ZM31.2546 24.704C31.2199 24.8437 31.2067 25.2231 31.2252 25.5472C31.2632 26.2105 31.489 26.4749 31.832 26.2574C32.0662 26.1088 32.1639 24.8534 31.9606 24.6059C31.7523 24.3524 31.3273 24.4115 31.2546 24.704ZM34.7096 24.6003C34.5019 24.8531 34.5956 26.1064 34.8335 26.2574C34.9725 26.3455 35.0766 26.3454 35.2156 26.2568C35.3694 26.1588 35.4066 25.9764 35.4066 25.3202C35.4066 24.5257 35.3995 24.5043 35.1243 24.472C34.9691 24.4538 34.7825 24.5115 34.7096 24.6003ZM1.0796 25.8835V27.2066H8.06506H15.0505V25.8835V24.5604H8.06506H1.0796V25.8835ZM41.4643 25.8835V27.2066H48.2314H54.9986V25.8835V24.5604H48.2314H41.4643V25.8835ZM3.48784 25.2685C3.29749 25.5002 3.38557 26.4415 3.61085 26.5843C3.90315 26.7693 4.24489 26.3867 4.24489 25.8742C4.24489 25.2539 3.79542 24.8942 3.48784 25.2685ZM5.57649 25.244C5.50445 25.3168 5.44551 25.6084 5.44551 25.8921C5.44551 26.5257 5.64624 26.749 6.0491 26.5636C6.28159 26.4566 6.3187 26.3662 6.3187 25.9079C6.3187 25.358 6.18368 25.1117 5.88211 25.1117C5.78606 25.1117 5.64853 25.1712 5.57649 25.244ZM7.75945 25.244C7.58961 25.4155 7.58961 26.3514 7.75945 26.523C8.09901 26.866 8.50165 26.4969 8.50165 25.8426C8.50165 25.353 8.35747 25.1117 8.06506 25.1117C7.96901 25.1117 7.83148 25.1712 7.75945 25.244ZM9.9424 25.244C9.77257 25.4155 9.77257 26.3514 9.9424 26.523C10.4156 27.001 10.9353 26.0114 10.5716 25.3249C10.4443 25.0845 10.1391 25.0453 9.9424 25.244ZM12.1225 25.2077C12.043 25.2588 11.952 25.4944 11.9206 25.7314C11.8468 26.2869 12.1869 26.785 12.506 26.5888C12.7557 26.4354 12.8517 25.3496 12.6283 25.2065C12.4471 25.0904 12.3051 25.0907 12.1225 25.2077ZM43.8874 25.244C43.8153 25.3168 43.7564 25.6127 43.7564 25.9017C43.7564 26.5076 44.0134 26.7602 44.4113 26.5451C44.5826 26.4524 44.6296 26.3142 44.6296 25.9017C44.6296 25.3575 44.4937 25.1117 44.193 25.1117C44.0969 25.1117 43.9594 25.1712 43.8874 25.244ZM46.0703 25.244C45.9005 25.4155 45.9005 26.3514 46.0703 26.523C46.4099 26.866 46.8125 26.4969 46.8125 25.8426C46.8125 25.353 46.6683 25.1117 46.3759 25.1117C46.2799 25.1117 46.1423 25.1712 46.0703 25.244ZM48.2524 25.2065C48.0397 25.3428 48.1239 26.4337 48.3587 26.5824C48.6769 26.784 48.8863 26.484 48.8863 25.8267C48.8863 25.3985 48.8409 25.2279 48.7136 25.1786C48.4901 25.0919 48.4251 25.0959 48.2524 25.2065ZM50.3091 25.3249C49.9454 26.0114 50.4651 27.001 50.9383 26.523C51.1081 26.3514 51.1081 25.4155 50.9383 25.244C50.7416 25.0453 50.4364 25.0845 50.3091 25.3249ZM52.51 25.244C52.3402 25.4155 52.3402 26.3514 52.51 26.523C52.8496 26.866 53.2522 26.4969 53.2522 25.8426C53.2522 25.353 53.108 25.1117 52.8156 25.1117C52.7196 25.1117 52.5821 25.1712 52.51 25.244ZM3.12634 30.9831C3.09382 32.575 3.08956 33.9146 3.11674 33.9601C3.14403 34.0057 5.84019 34.0428 9.1084 34.0428H15.0505V31.0658V28.0887H9.11801H3.18561L3.12634 30.9831ZM41.4898 31.0382L41.5188 33.9877L47.713 34.0161L53.9071 34.0447V31.0667V28.0887H47.684H41.4607L41.4898 31.0382ZM19.3073 31.6171V34.0428H28.2574H37.2075V31.6171V29.1913H28.2574H19.3073V31.6171ZM21.2941 30.829C21.1938 30.8934 21.1619 31.1577 21.1849 31.737L21.2174 32.5543H21.5448H21.8723L21.9047 31.737C21.9364 30.9381 21.8644 30.7384 21.5448 30.7384C21.4848 30.7384 21.3719 30.7792 21.2941 30.829ZM24.6777 30.829C24.5774 30.8934 24.5455 31.1577 24.5685 31.737L24.6009 32.5543H24.9284H25.2558L25.2882 31.737C25.32 30.9381 25.248 30.7384 24.9284 30.7384C24.8684 30.7384 24.7555 30.7792 24.6777 30.829ZM27.9923 30.9082C27.779 31.1238 27.7595 32.1517 27.9634 32.4335C28.051 32.5545 28.2087 32.6157 28.3727 32.5923C28.6221 32.5567 28.6415 32.5052 28.6719 31.8001C28.7141 30.8208 28.4378 30.4582 27.9923 30.9082ZM31.3214 30.8908C31.118 31.1383 31.2157 32.3937 31.45 32.5423C31.8133 32.7727 32.0194 32.4977 32.0557 31.7338C32.0901 31.0112 31.9754 30.735 31.641 30.735C31.5357 30.735 31.3918 30.8051 31.3214 30.8908ZM34.7009 30.9482C34.5398 31.2524 34.5612 32.1996 34.7347 32.4392C34.8428 32.5886 34.9578 32.6226 35.1713 32.5684C35.4494 32.498 35.4611 32.4645 35.4611 31.7473C35.4611 31.3128 35.4062 30.9442 35.3302 30.8673C35.1335 30.6686 34.8283 30.7079 34.7009 30.9482ZM0.251719 36.2481C0.251719 37.37 0.267982 37.8289 0.287738 37.268C0.307602 36.707 0.307602 35.789 0.287738 35.2281C0.267982 34.6671 0.251719 35.1261 0.251719 36.2481ZM1.0796 36.1378V37.4609H8.06506H15.0505V36.1378V34.8147H8.06506H1.0796V36.1378ZM19.3073 44.0766V53.3385H20.6171H21.9268V52.397C21.9268 48.5496 23.144 44.5436 25.297 41.3057C26.1 40.0979 27.7869 38.0913 28.1016 37.9692C28.3668 37.8665 28.6621 38.0947 29.612 39.1362C30.8192 40.4598 31.7533 41.8287 32.6088 43.5273C33.9373 46.1656 34.6345 48.8552 34.773 51.8776L34.8399 53.3385H36.0237H37.2075V44.0766V34.8147H28.2574H19.3073V44.0766ZM41.4643 36.1378V37.4609H48.3406H55.2169V36.1378V34.8147H48.3406H41.4643V36.1378ZM5.6231 35.5074C5.363 35.6996 5.41222 36.6659 5.6911 36.8426C6.02171 37.0521 6.25943 36.7947 6.2984 36.1853C6.32459 35.7737 6.28803 35.616 6.14111 35.5074C6.03568 35.4296 5.91922 35.366 5.88211 35.366C5.845 35.366 5.72853 35.4296 5.6231 35.5074ZM7.79034 35.5191C7.54508 35.7003 7.60664 36.6732 7.87405 36.8426C8.29078 37.1065 8.6335 36.4632 8.45636 35.7498C8.38344 35.4566 8.03723 35.3366 7.79034 35.5191ZM9.99588 35.4932C9.77497 35.618 9.73546 36.5682 9.9424 36.7773C10.2957 37.1342 10.686 36.7864 10.683 36.1175C10.6804 35.5543 10.3764 35.2781 9.99588 35.4932ZM12.106 35.5839C11.8388 35.8539 11.8117 36.4888 12.0567 36.7364C12.4428 37.1263 12.7584 36.8489 12.7584 36.1196C12.7584 35.7091 12.7113 35.5687 12.5426 35.4775C12.3713 35.3849 12.2814 35.4068 12.106 35.5839ZM3.44451 35.5498C3.31943 35.676 3.36505 36.6383 3.50268 36.7773C3.9622 37.2415 4.47999 36.3465 4.13192 35.6895C4.02321 35.4844 3.59524 35.3974 3.44451 35.5498ZM43.8921 35.6038C43.7039 35.7939 43.7194 36.6311 43.9141 36.7943C44.0009 36.8671 44.185 36.9103 44.3234 36.8905C44.5541 36.8575 44.575 36.7998 44.575 36.1929C44.575 35.5688 44.5595 35.5295 44.3014 35.499C44.1508 35.4813 43.9667 35.5284 43.8921 35.6038ZM46.0121 35.5498C45.9211 35.6416 45.9164 36.5004 46.0056 36.7352C46.0836 36.9407 46.4945 36.9663 46.6815 36.7773C46.8193 36.6382 46.859 35.9474 46.7463 35.6507C46.6804 35.4773 46.1552 35.4052 46.0121 35.5498ZM48.1669 35.6281C48.1352 35.7115 48.1245 36.0217 48.143 36.3172C48.1729 36.7916 48.2081 36.8589 48.4436 36.8925C48.911 36.9591 49.1737 36.2391 48.8825 35.6895C48.7516 35.4426 48.2536 35.3998 48.1669 35.6281ZM50.3318 35.6038C50.1535 35.7839 50.1578 36.4838 50.3386 36.7336C50.4263 36.8547 50.584 36.9159 50.7479 36.8925C50.997 36.857 51.0147 36.8107 51.0147 36.1929C51.0147 35.5688 50.9992 35.5295 50.7411 35.499C50.5906 35.4813 50.4064 35.5284 50.3318 35.6038ZM52.4294 35.7299C52.2474 36.4621 52.5844 37.1111 53.0067 36.8419C53.1501 36.7505 53.1977 36.572 53.1977 36.1258C53.1977 35.5371 53.1943 35.531 52.8466 35.4971C52.5527 35.4684 52.4849 35.5062 52.4294 35.7299ZM3.11707 38.4166C3.07701 38.4569 3.04426 39.2508 3.04426 40.1807V41.8714H9.04739H15.0505V40.1072V38.343H9.12019C5.85842 38.343 3.15701 38.3761 3.11707 38.4166ZM41.4643 40.1072V41.8714H47.6857H53.9071V40.1072V38.343H47.6857H41.4643V40.1072ZM27.8067 39.5305C24.8053 42.7072 23.0097 47.1055 22.8337 51.7122L22.7674 53.4488H28.3669H33.9665L33.8992 51.8776C33.7097 47.4467 32.2744 43.6761 29.5027 40.3277C28.2961 38.8701 28.3894 38.9138 27.8067 39.5305ZM3.04426 48.046V53.3385H4.35404H5.66381V51.2478C5.66381 48.7822 5.78682 48.2819 6.6015 47.4351C7.30561 46.7034 7.91957 46.4505 8.99282 46.4505C10.0446 46.4505 10.6558 46.6938 11.3395 47.3844C12.178 48.2315 12.2622 48.5572 12.3026 51.1058L12.3379 53.3385H13.6942H15.0505V48.046V42.7535H9.04739H3.04426V48.046ZM41.4643 48.046V53.3385H42.9297H44.3952L44.4305 51.1058C44.4638 49.0042 44.4813 48.8411 44.7303 48.3302C45.0669 47.6391 45.6457 47.0544 46.3298 46.7144C47.1353 46.3139 48.3816 46.3322 49.2382 46.7572C49.9882 47.1292 50.5529 47.7626 50.8501 48.5651C51.0412 49.0812 51.0693 49.424 51.0693 51.2478V53.3385H52.4882H53.9071V48.046V42.7535H47.6857H41.4643V48.046ZM8.44708 47.1567C7.92393 47.2854 7.45929 47.5693 7.13381 47.9593C6.58185 48.6206 6.53699 48.8629 6.53699 51.1849V53.3385H8.99282H11.4486V51.1872C11.4486 49.224 11.4283 48.9924 11.2168 48.5378C10.9258 47.9123 10.3507 47.4256 9.65513 47.2159C9.07304 47.0404 8.94545 47.0341 8.44708 47.1567ZM47.1945 47.1567C46.6714 47.2854 46.2067 47.5693 45.8813 47.9593C45.3293 48.6206 45.2844 48.8629 45.2844 51.1849V53.3385H47.7403H50.1961V51.1682C50.1961 49.1993 50.1751 48.954 49.9704 48.5267C49.6675 47.8946 49.1186 47.43 48.4315 47.2238C47.82 47.0403 47.6954 47.0336 47.1945 47.1567Z"/>
</mask>
<path fill-rule="evenodd" clip-rule="evenodd" d="M16.8747 0.261096C16.8319 0.304319 16.7969 0.875582 16.7969 1.53064V2.72169L16.2239 3.1495C15.1198 3.97392 14.3695 5.02118 13.8473 6.46693C13.4596 7.53988 13.195 8.97989 13.195 10.0165C13.195 10.9245 13.2806 10.9982 14.3339 10.9982H15.0505V17.3382V23.6783H13.5837H12.117L12.0829 20.839L12.049 17.9998L11.7548 17.4367C11.593 17.1269 11.3351 16.7227 11.1816 16.5383C10.778 16.0539 9.92767 15.536 9.28064 15.3808L8.71995 15.2463V13.1312C8.71995 11.968 8.69015 10.9378 8.6537 10.8419C8.56638 10.6119 8.00034 10.6119 7.91302 10.8419C7.87656 10.9378 7.84677 11.9733 7.84677 13.1429V15.2695L7.48527 15.3288C6.46768 15.4957 5.44333 16.2752 4.89214 17.3023L4.51776 17.9998L4.48381 20.839L4.44976 23.6783H2.45912C1.05625 23.6783 0.429739 23.7173 0.3374 23.8106C0.153158 23.9967 0.153158 27.7703 0.3374 27.9564C0.418278 28.0381 0.815576 28.0887 1.37605 28.0887H2.28383L2.25469 31.0382L2.22566 33.9877L1.3576 34.0203C0.880192 34.0382 0.425919 34.1063 0.347987 34.1716C0.241677 34.2608 0.206422 34.78 0.206422 36.2576C0.206422 38.5597 0.145955 38.4533 1.45376 38.4533H2.27881L2.30675 46.3094L2.3348 54.1655L28.4097 54.1933C47.5934 54.2138 54.5236 54.1883 54.6324 54.0971C54.7543 53.9949 54.7803 52.5985 54.7803 46.1581V38.343L55.2988 38.3395C56.195 38.3334 56.1992 38.3229 56.1992 36.0916C56.1992 34.9152 56.1588 34.1652 56.0976 34.2035C56.0417 34.2384 55.9652 34.2165 55.9274 34.1549C55.8898 34.0932 55.6163 34.0428 55.3196 34.0428H54.7803V31.0658V28.0887H55.1951C55.4232 28.0887 55.6688 28.0292 55.7408 27.9564C55.925 27.7703 55.925 23.9967 55.7408 23.8106C55.6497 23.7185 55.0689 23.6783 53.8307 23.6783H52.0516L52.0455 20.9493C52.0404 18.6487 52.0103 18.1482 51.8545 17.7607C51.3823 16.587 50.352 15.6504 49.2396 15.3834L48.6723 15.2473L48.6429 12.9849L48.6135 10.7226L48.2979 10.6862C48.1186 10.6655 47.9425 10.7131 47.8902 10.7964C47.8396 10.877 47.7975 11.9166 47.7965 13.1063L47.7948 15.2695L47.4333 15.3288C46.413 15.4961 45.3288 16.3448 44.7727 17.4112L44.4658 17.9998L44.4319 20.839L44.3978 23.6783H42.932H41.466L41.468 17.3382L41.4698 10.9982H42.1291C43.0729 10.9982 43.2107 10.8958 43.21 10.195C43.2091 9.35677 42.9287 7.63361 42.6598 6.81293C42.2019 5.4157 41.7125 4.6044 40.7415 3.63366L39.8271 2.71926V1.57971C39.8271 0.349305 39.7415 0.142786 39.26 0.211699C39.0162 0.246652 39.0075 0.287008 38.9759 1.51576L38.9434 2.78376L38.3858 3.16769C37.3464 3.88351 36.4253 5.22627 35.9064 6.7825C35.6316 7.60615 35.353 9.29502 35.3524 10.1398C35.3519 10.9095 35.4697 10.9982 36.4908 10.9982H37.2075V13.424V15.8497H28.2574H19.3073V13.4364V11.0231L20.0693 10.9796C20.4885 10.9557 20.8912 10.8756 20.9645 10.8016C21.1608 10.6033 20.9103 8.30708 20.5584 7.08042C20.1121 5.52486 19.6249 4.68742 18.5269 3.58922L17.5684 2.6305L17.5373 1.43913C17.5066 0.255252 17.5046 0.247534 17.2294 0.215117C17.0771 0.197145 16.9174 0.217874 16.8747 0.261096ZM16.6628 3.89255C15.2905 4.89868 14.3652 6.89033 14.1172 9.37187L14.0428 10.1161H17.1117H20.1805L20.18 9.86805C20.1798 9.73166 20.1066 9.16535 20.0174 8.60964C19.7147 6.72428 19.0254 5.21646 18.0317 4.26601C17.1834 3.4547 17.2394 3.46992 16.6628 3.89255ZM38.7985 3.93489C37.853 4.68831 37.1138 5.83028 36.7241 7.13908C36.5657 7.67076 36.2276 9.5978 36.2258 9.97831C36.2253 10.0854 36.9118 10.1161 39.2964 10.1161H42.3676L42.2934 9.28863C42.1135 7.28419 41.3667 5.4286 40.3044 4.34694C39.4187 3.44522 39.4145 3.44401 38.7985 3.93489ZM15.9237 13.424V15.8497H17.1789H18.4341V13.424V10.9982H17.1789H15.9237V13.424ZM38.0807 13.424V15.8497H39.3359H40.5911V13.424V10.9982H39.3359H38.0807V13.424ZM7.3973 16.2157C6.1576 16.6845 5.33637 17.7235 5.33637 18.8232V19.2678H8.34754H11.3587L11.2866 18.7992C11.0523 17.2786 9.91883 16.2034 8.45024 16.1088C8.06026 16.0837 7.63131 16.1272 7.3973 16.2157ZM47.3454 16.2157C46.1187 16.6795 45.2844 17.7654 45.2844 18.8983V19.2678H48.2756H51.2668L51.2125 18.7992C51.1382 18.1585 50.6917 17.2427 50.2851 16.897C49.4479 16.1854 48.1941 15.8948 47.3454 16.2157ZM15.9237 35.0352V53.3385H17.1789H18.4341V35.0352V16.7318H17.1789H15.9237V35.0352ZM19.3073 18.937V21.1423H28.2574H37.2075V18.937V16.7318H28.2574H19.3073V18.937ZM38.0807 35.0352V53.3385H39.3359H40.5911V35.0352V16.7318H39.3359H38.0807V35.0352ZM5.33637 21.9141V23.6783H8.33793H11.3395V21.9141V20.1499H8.33793H5.33637V21.9141ZM45.2844 21.9141V23.6783H48.286H51.2876V21.9141V20.1499H48.286H45.2844V21.9141ZM19.3073 25.1117V28.3092H28.2574H37.2075V25.1117V21.9141H28.2574H19.3073V25.1117ZM21.1701 24.6567C21.0214 24.9375 21.0193 25.8331 21.1666 26.1113C21.2288 26.2286 21.3701 26.3245 21.4807 26.3245C21.832 26.3245 21.9391 26.0557 21.9048 25.2594C21.8735 24.5328 21.8616 24.504 21.5794 24.4711C21.3757 24.4472 21.2512 24.5038 21.1701 24.6567ZM24.5537 24.6567C24.405 24.9375 24.4028 25.8331 24.5502 26.1113C24.6124 26.2286 24.7536 26.3245 24.8643 26.3245C25.2156 26.3245 25.3226 26.0557 25.2884 25.2594C25.257 24.5328 25.2451 24.504 24.963 24.4711C24.7593 24.4472 24.6348 24.5038 24.5537 24.6567ZM27.9565 24.5777C27.7922 24.7436 27.7764 25.8141 27.9338 26.1113C27.996 26.2286 28.1372 26.3245 28.2479 26.3245C28.5991 26.3245 28.7062 26.0557 28.6719 25.2594C28.6412 24.5467 28.6244 24.5035 28.3658 24.4729C28.2153 24.4552 28.0311 24.5023 27.9565 24.5777ZM31.2546 24.704C31.2199 24.8437 31.2067 25.2231 31.2252 25.5472C31.2632 26.2105 31.489 26.4749 31.832 26.2574C32.0662 26.1088 32.1639 24.8534 31.9606 24.6059C31.7523 24.3524 31.3273 24.4115 31.2546 24.704ZM34.7096 24.6003C34.5019 24.8531 34.5956 26.1064 34.8335 26.2574C34.9725 26.3455 35.0766 26.3454 35.2156 26.2568C35.3694 26.1588 35.4066 25.9764 35.4066 25.3202C35.4066 24.5257 35.3995 24.5043 35.1243 24.472C34.9691 24.4538 34.7825 24.5115 34.7096 24.6003ZM1.0796 25.8835V27.2066H8.06506H15.0505V25.8835V24.5604H8.06506H1.0796V25.8835ZM41.4643 25.8835V27.2066H48.2314H54.9986V25.8835V24.5604H48.2314H41.4643V25.8835ZM3.48784 25.2685C3.29749 25.5002 3.38557 26.4415 3.61085 26.5843C3.90315 26.7693 4.24489 26.3867 4.24489 25.8742C4.24489 25.2539 3.79542 24.8942 3.48784 25.2685ZM5.57649 25.244C5.50445 25.3168 5.44551 25.6084 5.44551 25.8921C5.44551 26.5257 5.64624 26.749 6.0491 26.5636C6.28159 26.4566 6.3187 26.3662 6.3187 25.9079C6.3187 25.358 6.18368 25.1117 5.88211 25.1117C5.78606 25.1117 5.64853 25.1712 5.57649 25.244ZM7.75945 25.244C7.58961 25.4155 7.58961 26.3514 7.75945 26.523C8.09901 26.866 8.50165 26.4969 8.50165 25.8426C8.50165 25.353 8.35747 25.1117 8.06506 25.1117C7.96901 25.1117 7.83148 25.1712 7.75945 25.244ZM9.9424 25.244C9.77257 25.4155 9.77257 26.3514 9.9424 26.523C10.4156 27.001 10.9353 26.0114 10.5716 25.3249C10.4443 25.0845 10.1391 25.0453 9.9424 25.244ZM12.1225 25.2077C12.043 25.2588 11.952 25.4944 11.9206 25.7314C11.8468 26.2869 12.1869 26.785 12.506 26.5888C12.7557 26.4354 12.8517 25.3496 12.6283 25.2065C12.4471 25.0904 12.3051 25.0907 12.1225 25.2077ZM43.8874 25.244C43.8153 25.3168 43.7564 25.6127 43.7564 25.9017C43.7564 26.5076 44.0134 26.7602 44.4113 26.5451C44.5826 26.4524 44.6296 26.3142 44.6296 25.9017C44.6296 25.3575 44.4937 25.1117 44.193 25.1117C44.0969 25.1117 43.9594 25.1712 43.8874 25.244ZM46.0703 25.244C45.9005 25.4155 45.9005 26.3514 46.0703 26.523C46.4099 26.866 46.8125 26.4969 46.8125 25.8426C46.8125 25.353 46.6683 25.1117 46.3759 25.1117C46.2799 25.1117 46.1423 25.1712 46.0703 25.244ZM48.2524 25.2065C48.0397 25.3428 48.1239 26.4337 48.3587 26.5824C48.6769 26.784 48.8863 26.484 48.8863 25.8267C48.8863 25.3985 48.8409 25.2279 48.7136 25.1786C48.4901 25.0919 48.4251 25.0959 48.2524 25.2065ZM50.3091 25.3249C49.9454 26.0114 50.4651 27.001 50.9383 26.523C51.1081 26.3514 51.1081 25.4155 50.9383 25.244C50.7416 25.0453 50.4364 25.0845 50.3091 25.3249ZM52.51 25.244C52.3402 25.4155 52.3402 26.3514 52.51 26.523C52.8496 26.866 53.2522 26.4969 53.2522 25.8426C53.2522 25.353 53.108 25.1117 52.8156 25.1117C52.7196 25.1117 52.5821 25.1712 52.51 25.244ZM3.12634 30.9831C3.09382 32.575 3.08956 33.9146 3.11674 33.9601C3.14403 34.0057 5.84019 34.0428 9.1084 34.0428H15.0505V31.0658V28.0887H9.11801H3.18561L3.12634 30.9831ZM41.4898 31.0382L41.5188 33.9877L47.713 34.0161L53.9071 34.0447V31.0667V28.0887H47.684H41.4607L41.4898 31.0382ZM19.3073 31.6171V34.0428H28.2574H37.2075V31.6171V29.1913H28.2574H19.3073V31.6171ZM21.2941 30.829C21.1938 30.8934 21.1619 31.1577 21.1849 31.737L21.2174 32.5543H21.5448H21.8723L21.9047 31.737C21.9364 30.9381 21.8644 30.7384 21.5448 30.7384C21.4848 30.7384 21.3719 30.7792 21.2941 30.829ZM24.6777 30.829C24.5774 30.8934 24.5455 31.1577 24.5685 31.737L24.6009 32.5543H24.9284H25.2558L25.2882 31.737C25.32 30.9381 25.248 30.7384 24.9284 30.7384C24.8684 30.7384 24.7555 30.7792 24.6777 30.829ZM27.9923 30.9082C27.779 31.1238 27.7595 32.1517 27.9634 32.4335C28.051 32.5545 28.2087 32.6157 28.3727 32.5923C28.6221 32.5567 28.6415 32.5052 28.6719 31.8001C28.7141 30.8208 28.4378 30.4582 27.9923 30.9082ZM31.3214 30.8908C31.118 31.1383 31.2157 32.3937 31.45 32.5423C31.8133 32.7727 32.0194 32.4977 32.0557 31.7338C32.0901 31.0112 31.9754 30.735 31.641 30.735C31.5357 30.735 31.3918 30.8051 31.3214 30.8908ZM34.7009 30.9482C34.5398 31.2524 34.5612 32.1996 34.7347 32.4392C34.8428 32.5886 34.9578 32.6226 35.1713 32.5684C35.4494 32.498 35.4611 32.4645 35.4611 31.7473C35.4611 31.3128 35.4062 30.9442 35.3302 30.8673C35.1335 30.6686 34.8283 30.7079 34.7009 30.9482ZM0.251719 36.2481C0.251719 37.37 0.267982 37.8289 0.287738 37.268C0.307602 36.707 0.307602 35.789 0.287738 35.2281C0.267982 34.6671 0.251719 35.1261 0.251719 36.2481ZM1.0796 36.1378V37.4609H8.06506H15.0505V36.1378V34.8147H8.06506H1.0796V36.1378ZM19.3073 44.0766V53.3385H20.6171H21.9268V52.397C21.9268 48.5496 23.144 44.5436 25.297 41.3057C26.1 40.0979 27.7869 38.0913 28.1016 37.9692C28.3668 37.8665 28.6621 38.0947 29.612 39.1362C30.8192 40.4598 31.7533 41.8287 32.6088 43.5273C33.9373 46.1656 34.6345 48.8552 34.773 51.8776L34.8399 53.3385H36.0237H37.2075V44.0766V34.8147H28.2574H19.3073V44.0766ZM41.4643 36.1378V37.4609H48.3406H55.2169V36.1378V34.8147H48.3406H41.4643V36.1378ZM5.6231 35.5074C5.363 35.6996 5.41222 36.6659 5.6911 36.8426C6.02171 37.0521 6.25943 36.7947 6.2984 36.1853C6.32459 35.7737 6.28803 35.616 6.14111 35.5074C6.03568 35.4296 5.91922 35.366 5.88211 35.366C5.845 35.366 5.72853 35.4296 5.6231 35.5074ZM7.79034 35.5191C7.54508 35.7003 7.60664 36.6732 7.87405 36.8426C8.29078 37.1065 8.6335 36.4632 8.45636 35.7498C8.38344 35.4566 8.03723 35.3366 7.79034 35.5191ZM9.99588 35.4932C9.77497 35.618 9.73546 36.5682 9.9424 36.7773C10.2957 37.1342 10.686 36.7864 10.683 36.1175C10.6804 35.5543 10.3764 35.2781 9.99588 35.4932ZM12.106 35.5839C11.8388 35.8539 11.8117 36.4888 12.0567 36.7364C12.4428 37.1263 12.7584 36.8489 12.7584 36.1196C12.7584 35.7091 12.7113 35.5687 12.5426 35.4775C12.3713 35.3849 12.2814 35.4068 12.106 35.5839ZM3.44451 35.5498C3.31943 35.676 3.36505 36.6383 3.50268 36.7773C3.9622 37.2415 4.47999 36.3465 4.13192 35.6895C4.02321 35.4844 3.59524 35.3974 3.44451 35.5498ZM43.8921 35.6038C43.7039 35.7939 43.7194 36.6311 43.9141 36.7943C44.0009 36.8671 44.185 36.9103 44.3234 36.8905C44.5541 36.8575 44.575 36.7998 44.575 36.1929C44.575 35.5688 44.5595 35.5295 44.3014 35.499C44.1508 35.4813 43.9667 35.5284 43.8921 35.6038ZM46.0121 35.5498C45.9211 35.6416 45.9164 36.5004 46.0056 36.7352C46.0836 36.9407 46.4945 36.9663 46.6815 36.7773C46.8193 36.6382 46.859 35.9474 46.7463 35.6507C46.6804 35.4773 46.1552 35.4052 46.0121 35.5498ZM48.1669 35.6281C48.1352 35.7115 48.1245 36.0217 48.143 36.3172C48.1729 36.7916 48.2081 36.8589 48.4436 36.8925C48.911 36.9591 49.1737 36.2391 48.8825 35.6895C48.7516 35.4426 48.2536 35.3998 48.1669 35.6281ZM50.3318 35.6038C50.1535 35.7839 50.1578 36.4838 50.3386 36.7336C50.4263 36.8547 50.584 36.9159 50.7479 36.8925C50.997 36.857 51.0147 36.8107 51.0147 36.1929C51.0147 35.5688 50.9992 35.5295 50.7411 35.499C50.5906 35.4813 50.4064 35.5284 50.3318 35.6038ZM52.4294 35.7299C52.2474 36.4621 52.5844 37.1111 53.0067 36.8419C53.1501 36.7505 53.1977 36.572 53.1977 36.1258C53.1977 35.5371 53.1943 35.531 52.8466 35.4971C52.5527 35.4684 52.4849 35.5062 52.4294 35.7299ZM3.11707 38.4166C3.07701 38.4569 3.04426 39.2508 3.04426 40.1807V41.8714H9.04739H15.0505V40.1072V38.343H9.12019C5.85842 38.343 3.15701 38.3761 3.11707 38.4166ZM41.4643 40.1072V41.8714H47.6857H53.9071V40.1072V38.343H47.6857H41.4643V40.1072ZM27.8067 39.5305C24.8053 42.7072 23.0097 47.1055 22.8337 51.7122L22.7674 53.4488H28.3669H33.9665L33.8992 51.8776C33.7097 47.4467 32.2744 43.6761 29.5027 40.3277C28.2961 38.8701 28.3894 38.9138 27.8067 39.5305ZM3.04426 48.046V53.3385H4.35404H5.66381V51.2478C5.66381 48.7822 5.78682 48.2819 6.6015 47.4351C7.30561 46.7034 7.91957 46.4505 8.99282 46.4505C10.0446 46.4505 10.6558 46.6938 11.3395 47.3844C12.178 48.2315 12.2622 48.5572 12.3026 51.1058L12.3379 53.3385H13.6942H15.0505V48.046V42.7535H9.04739H3.04426V48.046ZM41.4643 48.046V53.3385H42.9297H44.3952L44.4305 51.1058C44.4638 49.0042 44.4813 48.8411 44.7303 48.3302C45.0669 47.6391 45.6457 47.0544 46.3298 46.7144C47.1353 46.3139 48.3816 46.3322 49.2382 46.7572C49.9882 47.1292 50.5529 47.7626 50.8501 48.5651C51.0412 49.0812 51.0693 49.424 51.0693 51.2478V53.3385H52.4882H53.9071V48.046V42.7535H47.6857H41.4643V48.046ZM8.44708 47.1567C7.92393 47.2854 7.45929 47.5693 7.13381 47.9593C6.58185 48.6206 6.53699 48.8629 6.53699 51.1849V53.3385H8.99282H11.4486V51.1872C11.4486 49.224 11.4283 48.9924 11.2168 48.5378C10.9258 47.9123 10.3507 47.4256 9.65513 47.2159C9.07304 47.0404 8.94545 47.0341 8.44708 47.1567ZM47.1945 47.1567C46.6714 47.2854 46.2067 47.5693 45.8813 47.9593C45.3293 48.6206 45.2844 48.8629 45.2844 51.1849V53.3385H47.7403H50.1961V51.1682C50.1961 49.1993 50.1751 48.954 49.9704 48.5267C49.6675 47.8946 49.1186 47.43 48.4315 47.2238C47.82 47.0403 47.6954 47.0336 47.1945 47.1567Z" fill="white"/>
<path fill-rule="evenodd" clip-rule="evenodd" d="M16.8747 0.261096C16.8319 0.304319 16.7969 0.875582 16.7969 1.53064V2.72169L16.2239 3.1495C15.1198 3.97392 14.3695 5.02118 13.8473 6.46693C13.4596 7.53988 13.195 8.97989 13.195 10.0165C13.195 10.9245 13.2806 10.9982 14.3339 10.9982H15.0505V17.3382V23.6783H13.5837H12.117L12.0829 20.839L12.049 17.9998L11.7548 17.4367C11.593 17.1269 11.3351 16.7227 11.1816 16.5383C10.778 16.0539 9.92767 15.536 9.28064 15.3808L8.71995 15.2463V13.1312C8.71995 11.968 8.69015 10.9378 8.6537 10.8419C8.56638 10.6119 8.00034 10.6119 7.91302 10.8419C7.87656 10.9378 7.84677 11.9733 7.84677 13.1429V15.2695L7.48527 15.3288C6.46768 15.4957 5.44333 16.2752 4.89214 17.3023L4.51776 17.9998L4.48381 20.839L4.44976 23.6783H2.45912C1.05625 23.6783 0.429739 23.7173 0.3374 23.8106C0.153158 23.9967 0.153158 27.7703 0.3374 27.9564C0.418278 28.0381 0.815576 28.0887 1.37605 28.0887H2.28383L2.25469 31.0382L2.22566 33.9877L1.3576 34.0203C0.880192 34.0382 0.425919 34.1063 0.347987 34.1716C0.241677 34.2608 0.206422 34.78 0.206422 36.2576C0.206422 38.5597 0.145955 38.4533 1.45376 38.4533H2.27881L2.30675 46.3094L2.3348 54.1655L28.4097 54.1933C47.5934 54.2138 54.5236 54.1883 54.6324 54.0971C54.7543 53.9949 54.7803 52.5985 54.7803 46.1581V38.343L55.2988 38.3395C56.195 38.3334 56.1992 38.3229 56.1992 36.0916C56.1992 34.9152 56.1588 34.1652 56.0976 34.2035C56.0417 34.2384 55.9652 34.2165 55.9274 34.1549C55.8898 34.0932 55.6163 34.0428 55.3196 34.0428H54.7803V31.0658V28.0887H55.1951C55.4232 28.0887 55.6688 28.0292 55.7408 27.9564C55.925 27.7703 55.925 23.9967 55.7408 23.8106C55.6497 23.7185 55.0689 23.6783 53.8307 23.6783H52.0516L52.0455 20.9493C52.0404 18.6487 52.0103 18.1482 51.8545 17.7607C51.3823 16.587 50.352 15.6504 49.2396 15.3834L48.6723 15.2473L48.6429 12.9849L48.6135 10.7226L48.2979 10.6862C48.1186 10.6655 47.9425 10.7131 47.8902 10.7964C47.8396 10.877 47.7975 11.9166 47.7965 13.1063L47.7948 15.2695L47.4333 15.3288C46.413 15.4961 45.3288 16.3448 44.7727 17.4112L44.4658 17.9998L44.4319 20.839L44.3978 23.6783H42.932H41.466L41.468 17.3382L41.4698 10.9982H42.1291C43.0729 10.9982 43.2107 10.8958 43.21 10.195C43.2091 9.35677 42.9287 7.63361 42.6598 6.81293C42.2019 5.4157 41.7125 4.6044 40.7415 3.63366L39.8271 2.71926V1.57971C39.8271 0.349305 39.7415 0.142786 39.26 0.211699C39.0162 0.246652 39.0075 0.287008 38.9759 1.51576L38.9434 2.78376L38.3858 3.16769C37.3464 3.88351 36.4253 5.22627 35.9064 6.7825C35.6316 7.60615 35.353 9.29502 35.3524 10.1398C35.3519 10.9095 35.4697 10.9982 36.4908 10.9982H37.2075V13.424V15.8497H28.2574H19.3073V13.4364V11.0231L20.0693 10.9796C20.4885 10.9557 20.8912 10.8756 20.9645 10.8016C21.1608 10.6033 20.9103 8.30708 20.5584 7.08042C20.1121 5.52486 19.6249 4.68742 18.5269 3.58922L17.5684 2.6305L17.5373 1.43913C17.5066 0.255252 17.5046 0.247534 17.2294 0.215117C17.0771 0.197145 16.9174 0.217874 16.8747 0.261096ZM16.6628 3.89255C15.2905 4.89868 14.3652 6.89033 14.1172 9.37187L14.0428 10.1161H17.1117H20.1805L20.18 9.86805C20.1798 9.73166 20.1066 9.16535 20.0174 8.60964C19.7147 6.72428 19.0254 5.21646 18.0317 4.26601C17.1834 3.4547 17.2394 3.46992 16.6628 3.89255ZM38.7985 3.93489C37.853 4.68831 37.1138 5.83028 36.7241 7.13908C36.5657 7.67076 36.2276 9.5978 36.2258 9.97831C36.2253 10.0854 36.9118 10.1161 39.2964 10.1161H42.3676L42.2934 9.28863C42.1135 7.28419 41.3667 5.4286 40.3044 4.34694C39.4187 3.44522 39.4145 3.44401 38.7985 3.93489ZM15.9237 13.424V15.8497H17.1789H18.4341V13.424V10.9982H17.1789H15.9237V13.424ZM38.0807 13.424V15.8497H39.3359H40.5911V13.424V10.9982H39.3359H38.0807V13.424ZM7.3973 16.2157C6.1576 16.6845 5.33637 17.7235 5.33637 18.8232V19.2678H8.34754H11.3587L11.2866 18.7992C11.0523 17.2786 9.91883 16.2034 8.45024 16.1088C8.06026 16.0837 7.63131 16.1272 7.3973 16.2157ZM47.3454 16.2157C46.1187 16.6795 45.2844 17.7654 45.2844 18.8983V19.2678H48.2756H51.2668L51.2125 18.7992C51.1382 18.1585 50.6917 17.2427 50.2851 16.897C49.4479 16.1854 48.1941 15.8948 47.3454 16.2157ZM15.9237 35.0352V53.3385H17.1789H18.4341V35.0352V16.7318H17.1789H15.9237V35.0352ZM19.3073 18.937V21.1423H28.2574H37.2075V18.937V16.7318H28.2574H19.3073V18.937ZM38.0807 35.0352V53.3385H39.3359H40.5911V35.0352V16.7318H39.3359H38.0807V35.0352ZM5.33637 21.9141V23.6783H8.33793H11.3395V21.9141V20.1499H8.33793H5.33637V21.9141ZM45.2844 21.9141V23.6783H48.286H51.2876V21.9141V20.1499H48.286H45.2844V21.9141ZM19.3073 25.1117V28.3092H28.2574H37.2075V25.1117V21.9141H28.2574H19.3073V25.1117ZM21.1701 24.6567C21.0214 24.9375 21.0193 25.8331 21.1666 26.1113C21.2288 26.2286 21.3701 26.3245 21.4807 26.3245C21.832 26.3245 21.9391 26.0557 21.9048 25.2594C21.8735 24.5328 21.8616 24.504 21.5794 24.4711C21.3757 24.4472 21.2512 24.5038 21.1701 24.6567ZM24.5537 24.6567C24.405 24.9375 24.4028 25.8331 24.5502 26.1113C24.6124 26.2286 24.7536 26.3245 24.8643 26.3245C25.2156 26.3245 25.3226 26.0557 25.2884 25.2594C25.257 24.5328 25.2451 24.504 24.963 24.4711C24.7593 24.4472 24.6348 24.5038 24.5537 24.6567ZM27.9565 24.5777C27.7922 24.7436 27.7764 25.8141 27.9338 26.1113C27.996 26.2286 28.1372 26.3245 28.2479 26.3245C28.5991 26.3245 28.7062 26.0557 28.6719 25.2594C28.6412 24.5467 28.6244 24.5035 28.3658 24.4729C28.2153 24.4552 28.0311 24.5023 27.9565 24.5777ZM31.2546 24.704C31.2199 24.8437 31.2067 25.2231 31.2252 25.5472C31.2632 26.2105 31.489 26.4749 31.832 26.2574C32.0662 26.1088 32.1639 24.8534 31.9606 24.6059C31.7523 24.3524 31.3273 24.4115 31.2546 24.704ZM34.7096 24.6003C34.5019 24.8531 34.5956 26.1064 34.8335 26.2574C34.9725 26.3455 35.0766 26.3454 35.2156 26.2568C35.3694 26.1588 35.4066 25.9764 35.4066 25.3202C35.4066 24.5257 35.3995 24.5043 35.1243 24.472C34.9691 24.4538 34.7825 24.5115 34.7096 24.6003ZM1.0796 25.8835V27.2066H8.06506H15.0505V25.8835V24.5604H8.06506H1.0796V25.8835ZM41.4643 25.8835V27.2066H48.2314H54.9986V25.8835V24.5604H48.2314H41.4643V25.8835ZM3.48784 25.2685C3.29749 25.5002 3.38557 26.4415 3.61085 26.5843C3.90315 26.7693 4.24489 26.3867 4.24489 25.8742C4.24489 25.2539 3.79542 24.8942 3.48784 25.2685ZM5.57649 25.244C5.50445 25.3168 5.44551 25.6084 5.44551 25.8921C5.44551 26.5257 5.64624 26.749 6.0491 26.5636C6.28159 26.4566 6.3187 26.3662 6.3187 25.9079C6.3187 25.358 6.18368 25.1117 5.88211 25.1117C5.78606 25.1117 5.64853 25.1712 5.57649 25.244ZM7.75945 25.244C7.58961 25.4155 7.58961 26.3514 7.75945 26.523C8.09901 26.866 8.50165 26.4969 8.50165 25.8426C8.50165 25.353 8.35747 25.1117 8.06506 25.1117C7.96901 25.1117 7.83148 25.1712 7.75945 25.244ZM9.9424 25.244C9.77257 25.4155 9.77257 26.3514 9.9424 26.523C10.4156 27.001 10.9353 26.0114 10.5716 25.3249C10.4443 25.0845 10.1391 25.0453 9.9424 25.244ZM12.1225 25.2077C12.043 25.2588 11.952 25.4944 11.9206 25.7314C11.8468 26.2869 12.1869 26.785 12.506 26.5888C12.7557 26.4354 12.8517 25.3496 12.6283 25.2065C12.4471 25.0904 12.3051 25.0907 12.1225 25.2077ZM43.8874 25.244C43.8153 25.3168 43.7564 25.6127 43.7564 25.9017C43.7564 26.5076 44.0134 26.7602 44.4113 26.5451C44.5826 26.4524 44.6296 26.3142 44.6296 25.9017C44.6296 25.3575 44.4937 25.1117 44.193 25.1117C44.0969 25.1117 43.9594 25.1712 43.8874 25.244ZM46.0703 25.244C45.9005 25.4155 45.9005 26.3514 46.0703 26.523C46.4099 26.866 46.8125 26.4969 46.8125 25.8426C46.8125 25.353 46.6683 25.1117 46.3759 25.1117C46.2799 25.1117 46.1423 25.1712 46.0703 25.244ZM48.2524 25.2065C48.0397 25.3428 48.1239 26.4337 48.3587 26.5824C48.6769 26.784 48.8863 26.484 48.8863 25.8267C48.8863 25.3985 48.8409 25.2279 48.7136 25.1786C48.4901 25.0919 48.4251 25.0959 48.2524 25.2065ZM50.3091 25.3249C49.9454 26.0114 50.4651 27.001 50.9383 26.523C51.1081 26.3514 51.1081 25.4155 50.9383 25.244C50.7416 25.0453 50.4364 25.0845 50.3091 25.3249ZM52.51 25.244C52.3402 25.4155 52.3402 26.3514 52.51 26.523C52.8496 26.866 53.2522 26.4969 53.2522 25.8426C53.2522 25.353 53.108 25.1117 52.8156 25.1117C52.7196 25.1117 52.5821 25.1712 52.51 25.244ZM3.12634 30.9831C3.09382 32.575 3.08956 33.9146 3.11674 33.9601C3.14403 34.0057 5.84019 34.0428 9.1084 34.0428H15.0505V31.0658V28.0887H9.11801H3.18561L3.12634 30.9831ZM41.4898 31.0382L41.5188 33.9877L47.713 34.0161L53.9071 34.0447V31.0667V28.0887H47.684H41.4607L41.4898 31.0382ZM19.3073 31.6171V34.0428H28.2574H37.2075V31.6171V29.1913H28.2574H19.3073V31.6171ZM21.2941 30.829C21.1938 30.8934 21.1619 31.1577 21.1849 31.737L21.2174 32.5543H21.5448H21.8723L21.9047 31.737C21.9364 30.9381 21.8644 30.7384 21.5448 30.7384C21.4848 30.7384 21.3719 30.7792 21.2941 30.829ZM24.6777 30.829C24.5774 30.8934 24.5455 31.1577 24.5685 31.737L24.6009 32.5543H24.9284H25.2558L25.2882 31.737C25.32 30.9381 25.248 30.7384 24.9284 30.7384C24.8684 30.7384 24.7555 30.7792 24.6777 30.829ZM27.9923 30.9082C27.779 31.1238 27.7595 32.1517 27.9634 32.4335C28.051 32.5545 28.2087 32.6157 28.3727 32.5923C28.6221 32.5567 28.6415 32.5052 28.6719 31.8001C28.7141 30.8208 28.4378 30.4582 27.9923 30.9082ZM31.3214 30.8908C31.118 31.1383 31.2157 32.3937 31.45 32.5423C31.8133 32.7727 32.0194 32.4977 32.0557 31.7338C32.0901 31.0112 31.9754 30.735 31.641 30.735C31.5357 30.735 31.3918 30.8051 31.3214 30.8908ZM34.7009 30.9482C34.5398 31.2524 34.5612 32.1996 34.7347 32.4392C34.8428 32.5886 34.9578 32.6226 35.1713 32.5684C35.4494 32.498 35.4611 32.4645 35.4611 31.7473C35.4611 31.3128 35.4062 30.9442 35.3302 30.8673C35.1335 30.6686 34.8283 30.7079 34.7009 30.9482ZM0.251719 36.2481C0.251719 37.37 0.267982 37.8289 0.287738 37.268C0.307602 36.707 0.307602 35.789 0.287738 35.2281C0.267982 34.6671 0.251719 35.1261 0.251719 36.2481ZM1.0796 36.1378V37.4609H8.06506H15.0505V36.1378V34.8147H8.06506H1.0796V36.1378ZM19.3073 44.0766V53.3385H20.6171H21.9268V52.397C21.9268 48.5496 23.144 44.5436 25.297 41.3057C26.1 40.0979 27.7869 38.0913 28.1016 37.9692C28.3668 37.8665 28.6621 38.0947 29.612 39.1362C30.8192 40.4598 31.7533 41.8287 32.6088 43.5273C33.9373 46.1656 34.6345 48.8552 34.773 51.8776L34.8399 53.3385H36.0237H37.2075V44.0766V34.8147H28.2574H19.3073V44.0766ZM41.4643 36.1378V37.4609H48.3406H55.2169V36.1378V34.8147H48.3406H41.4643V36.1378ZM5.6231 35.5074C5.363 35.6996 5.41222 36.6659 5.6911 36.8426C6.02171 37.0521 6.25943 36.7947 6.2984 36.1853C6.32459 35.7737 6.28803 35.616 6.14111 35.5074C6.03568 35.4296 5.91922 35.366 5.88211 35.366C5.845 35.366 5.72853 35.4296 5.6231 35.5074ZM7.79034 35.5191C7.54508 35.7003 7.60664 36.6732 7.87405 36.8426C8.29078 37.1065 8.6335 36.4632 8.45636 35.7498C8.38344 35.4566 8.03723 35.3366 7.79034 35.5191ZM9.99588 35.4932C9.77497 35.618 9.73546 36.5682 9.9424 36.7773C10.2957 37.1342 10.686 36.7864 10.683 36.1175C10.6804 35.5543 10.3764 35.2781 9.99588 35.4932ZM12.106 35.5839C11.8388 35.8539 11.8117 36.4888 12.0567 36.7364C12.4428 37.1263 12.7584 36.8489 12.7584 36.1196C12.7584 35.7091 12.7113 35.5687 12.5426 35.4775C12.3713 35.3849 12.2814 35.4068 12.106 35.5839ZM3.44451 35.5498C3.31943 35.676 3.36505 36.6383 3.50268 36.7773C3.9622 37.2415 4.47999 36.3465 4.13192 35.6895C4.02321 35.4844 3.59524 35.3974 3.44451 35.5498ZM43.8921 35.6038C43.7039 35.7939 43.7194 36.6311 43.9141 36.7943C44.0009 36.8671 44.185 36.9103 44.3234 36.8905C44.5541 36.8575 44.575 36.7998 44.575 36.1929C44.575 35.5688 44.5595 35.5295 44.3014 35.499C44.1508 35.4813 43.9667 35.5284 43.8921 35.6038ZM46.0121 35.5498C45.9211 35.6416 45.9164 36.5004 46.0056 36.7352C46.0836 36.9407 46.4945 36.9663 46.6815 36.7773C46.8193 36.6382 46.859 35.9474 46.7463 35.6507C46.6804 35.4773 46.1552 35.4052 46.0121 35.5498ZM48.1669 35.6281C48.1352 35.7115 48.1245 36.0217 48.143 36.3172C48.1729 36.7916 48.2081 36.8589 48.4436 36.8925C48.911 36.9591 49.1737 36.2391 48.8825 35.6895C48.7516 35.4426 48.2536 35.3998 48.1669 35.6281ZM50.3318 35.6038C50.1535 35.7839 50.1578 36.4838 50.3386 36.7336C50.4263 36.8547 50.584 36.9159 50.7479 36.8925C50.997 36.857 51.0147 36.8107 51.0147 36.1929C51.0147 35.5688 50.9992 35.5295 50.7411 35.499C50.5906 35.4813 50.4064 35.5284 50.3318 35.6038ZM52.4294 35.7299C52.2474 36.4621 52.5844 37.1111 53.0067 36.8419C53.1501 36.7505 53.1977 36.572 53.1977 36.1258C53.1977 35.5371 53.1943 35.531 52.8466 35.4971C52.5527 35.4684 52.4849 35.5062 52.4294 35.7299ZM3.11707 38.4166C3.07701 38.4569 3.04426 39.2508 3.04426 40.1807V41.8714H9.04739H15.0505V40.1072V38.343H9.12019C5.85842 38.343 3.15701 38.3761 3.11707 38.4166ZM41.4643 40.1072V41.8714H47.6857H53.9071V40.1072V38.343H47.6857H41.4643V40.1072ZM27.8067 39.5305C24.8053 42.7072 23.0097 47.1055 22.8337 51.7122L22.7674 53.4488H28.3669H33.9665L33.8992 51.8776C33.7097 47.4467 32.2744 43.6761 29.5027 40.3277C28.2961 38.8701 28.3894 38.9138 27.8067 39.5305ZM3.04426 48.046V53.3385H4.35404H5.66381V51.2478C5.66381 48.7822 5.78682 48.2819 6.6015 47.4351C7.30561 46.7034 7.91957 46.4505 8.99282 46.4505C10.0446 46.4505 10.6558 46.6938 11.3395 47.3844C12.178 48.2315 12.2622 48.5572 12.3026 51.1058L12.3379 53.3385H13.6942H15.0505V48.046V42.7535H9.04739H3.04426V48.046ZM41.4643 48.046V53.3385H42.9297H44.3952L44.4305 51.1058C44.4638 49.0042 44.4813 48.8411 44.7303 48.3302C45.0669 47.6391 45.6457 47.0544 46.3298 46.7144C47.1353 46.3139 48.3816 46.3322 49.2382 46.7572C49.9882 47.1292 50.5529 47.7626 50.8501 48.5651C51.0412 49.0812 51.0693 49.424 51.0693 51.2478V53.3385H52.4882H53.9071V48.046V42.7535H47.6857H41.4643V48.046ZM8.44708 47.1567C7.92393 47.2854 7.45929 47.5693 7.13381 47.9593C6.58185 48.6206 6.53699 48.8629 6.53699 51.1849V53.3385H8.99282H11.4486V51.1872C11.4486 49.224 11.4283 48.9924 11.2168 48.5378C10.9258 47.9123 10.3507 47.4256 9.65513 47.2159C9.07304 47.0404 8.94545 47.0341 8.44708 47.1567ZM47.1945 47.1567C46.6714 47.2854 46.2067 47.5693 45.8813 47.9593C45.3293 48.6206 45.2844 48.8629 45.2844 51.1849V53.3385H47.7403H50.1961V51.1682C50.1961 49.1993 50.1751 48.954 49.9704 48.5267C49.6675 47.8946 49.1186 47.43 48.4315 47.2238C47.82 47.0403 47.6954 47.0336 47.1945 47.1567Z" stroke="white" stroke-width="0.4" mask="url(#path-1-outside-1_174_19446)"/>
</svg>
