<svg width="49" height="48" viewBox="0 0 49 48" fill="none" xmlns="http://www.w3.org/2000/svg">
<path fill-rule="evenodd" clip-rule="evenodd" d="M23.3777 0.130212C23.1707 0.20814 22.858 0.372949 22.6829 0.496432C21.7448 1.15823 0.20819 18.5245 0.0906683 18.7138C0.00808554 18.8471 -0.0219896 19.0358 0.016721 19.1776C0.113895 19.5329 3.42713 23.5306 3.73265 23.6612C3.87667 23.7226 4.06308 23.7491 4.14705 23.72C4.23092 23.6909 4.99193 23.1149 5.83811 22.4402L7.37661 21.2134L7.42624 33.549C7.47229 44.985 7.48847 45.9121 7.64818 46.2622C7.94675 46.9168 8.39688 47.3834 9.03382 47.6989L9.64158 48H24.4986H39.3557L39.9634 47.6989C40.6004 47.3834 41.0505 46.9168 41.3491 46.2622C41.5088 45.9121 41.525 44.985 41.571 33.549L41.6206 21.2134L43.1591 22.4402C44.0053 23.1149 44.7663 23.6909 44.8502 23.72C44.9342 23.7491 45.1207 23.7226 45.2648 23.6612C45.5194 23.5524 48.7222 19.7451 48.942 19.2898C49.0132 19.1424 49.0189 18.9808 48.9587 18.8227C48.9036 18.6783 46.9859 17.0697 44.2014 14.832L39.5362 11.0832L39.4866 7.49268L39.437 3.90222L39.2026 3.71428C38.9867 3.54101 38.7837 3.52626 36.6145 3.52626C33.6593 3.52626 33.8477 3.41251 33.8073 5.2197L33.7793 6.46428L33.1341 5.94122C28.8984 2.50749 26.2544 0.431788 25.8882 0.252712C25.3275 -0.0214116 23.9584 -0.0882206 23.3777 0.130212ZM23.657 1.52809C23.4944 1.61526 19.9435 4.43393 15.766 7.7917C11.5885 11.1495 6.76369 15.0236 5.04404 16.401C3.3244 17.7783 1.85915 18.958 1.78798 19.0223C1.68396 19.1163 1.88625 19.4178 2.81798 20.5571C3.45572 21.337 4.0332 21.975 4.10129 21.975C4.16938 21.975 8.7294 18.3554 14.2345 13.9313C21.7339 7.90485 24.3084 5.88769 24.5007 5.88769C24.7664 5.88769 24.8511 5.9545 38.8683 17.2278C42.1586 19.8741 44.8896 22.0248 44.9371 22.0071C44.9845 21.9895 45.5443 21.337 46.1811 20.5571C47.1129 19.4159 47.3135 19.1164 47.2093 19.0215C47.1381 18.9567 43.6405 16.1437 39.437 12.7704C35.2334 9.39718 30.4094 5.52315 28.7171 4.16158C27.0247 2.80001 25.4972 1.613 25.3225 1.52385C24.9185 1.31752 24.0454 1.31979 23.657 1.52809ZM35.2185 6.2609V7.61804L36.5958 8.72073C37.3532 9.32722 38.0009 9.82342 38.035 9.82342C38.0691 9.82342 38.097 8.7165 38.097 7.36359V4.90376H36.6577H35.2185V6.2609ZM16.6572 13.7456L8.86548 20.0174L8.84027 32.755C8.81605 44.999 8.8222 45.506 8.99928 45.8362C9.10052 46.0251 9.3307 46.2793 9.51056 46.4011L9.83781 46.6225H24.4986H39.1594L39.4867 46.4011C39.6666 46.2793 39.8967 46.0251 39.998 45.8362C40.1751 45.506 40.1812 44.999 40.157 32.7539L40.1318 20.0151L32.34 13.7435C28.0546 10.294 24.5259 7.47232 24.4986 7.47281C24.4713 7.4734 20.9427 10.2961 16.6572 13.7456ZM23.2382 14.7532C22.5406 15.0191 21.793 15.7064 21.4514 16.3958C21.206 16.8912 21.1736 17.0665 21.174 17.8917C21.1744 18.723 21.2049 18.884 21.4503 19.3463C21.8182 20.0396 22.411 20.6097 23.0943 20.9273C23.5629 21.145 23.7934 21.1878 24.4986 21.1878C25.2039 21.1878 25.4343 21.145 25.9029 20.9273C26.5862 20.6097 27.1791 20.0396 27.5469 19.3463C27.7923 18.884 27.8229 18.723 27.8233 17.8917C27.8237 17.0665 27.7912 16.8912 27.5459 16.3958C27.1978 15.6933 26.4511 15.0155 25.7308 14.7484C25.011 14.4815 23.946 14.4834 23.2382 14.7532ZM23.7046 16.0341C23.5681 16.0878 23.3295 16.2511 23.1743 16.3968C22.2178 17.2953 22.3205 18.7767 23.3905 19.5139C23.7667 19.7729 23.9064 19.8103 24.4986 19.8103C25.0909 19.8103 25.2306 19.7729 25.6067 19.5139C26.6766 18.7768 26.7795 17.2939 25.8229 16.3975C25.6678 16.252 25.4151 16.0861 25.2614 16.0285C24.9165 15.8993 24.0386 15.9025 23.7046 16.0341ZM19.3592 21.8841C19.0711 22.0264 18.7197 22.2932 18.5784 22.4769C18.0633 23.1464 18.0556 23.2262 18.0556 27.8786C18.0556 32.552 18.0611 32.608 18.5944 33.301C18.8768 33.6681 19.7126 34.1239 20.1065 34.1256L20.3298 34.1266V38.1966C20.3298 42.1652 20.3349 42.2731 20.5355 42.5259L20.7412 42.7852H24.4986H28.256L28.4617 42.5259C28.6623 42.2731 28.6675 42.1652 28.6675 38.1966V34.1266L28.8908 34.1256C29.0137 34.1251 29.346 34.0176 29.6293 33.8869C30.207 33.6202 30.689 33.0508 30.8553 32.4386C30.9211 32.1962 30.9478 30.474 30.9295 27.6492L30.9008 23.2384L30.6004 22.7568C30.4143 22.4587 30.115 22.162 29.8142 21.9775L29.3284 21.6798L24.6058 21.6526L19.8831 21.6253L19.3592 21.8841ZM19.7646 23.2455L19.4861 23.4829L19.4583 27.8254L19.4304 32.1678L19.7236 32.4585C20.3349 33.0644 20.3202 33.1474 20.3512 28.903L20.3794 25.0569L20.6138 24.8688C20.9149 24.6272 21.1328 24.6313 21.4579 24.8848L21.7194 25.0886V33.2482V41.4076H22.7616H23.8038V37.3415V33.2754L24.0335 33.0613C24.3316 32.7839 24.7067 32.7893 24.9776 33.0751C25.1919 33.3013 25.1934 33.3301 25.1934 37.3552V41.4076H26.2356H27.2779V33.2482V25.0886L27.5394 24.8848C27.8645 24.6313 28.0823 24.6272 28.3835 24.8688L28.6178 25.0569L28.646 28.903C28.6767 33.1023 28.66 32.9999 29.2326 32.5116L29.5112 32.2741V27.8786V23.4831L29.2326 23.2455L28.9541 23.0081H24.4986H20.0431L19.7646 23.2455ZM33.5961 23.4833C33.4467 23.6468 33.4319 24.2502 33.4319 30.1248V36.5864L33.0596 36.587C32.1332 36.5883 31.2968 37.1215 31.0058 37.8964C30.8672 38.2654 30.1762 43.4266 30.1389 44.3717C30.1291 44.6179 30.1876 44.821 30.3054 44.9501C30.4823 45.1437 30.5831 45.1483 34.1572 45.1232L37.8275 45.0974L38.011 44.8514C38.191 44.6104 38.1866 44.5406 37.7955 41.3585C37.4677 38.6903 37.3562 38.0327 37.1706 37.6696C36.8636 37.0691 36.2311 36.6858 35.4283 36.6136L34.8256 36.5594L34.7987 30.1385C34.7729 23.9826 34.764 23.7089 34.5828 23.5104C34.345 23.2501 33.8221 23.2357 33.5961 23.4833ZM11.2202 33.7878C11.0628 33.897 10.9995 34.0409 10.9995 34.2893C10.9995 34.5851 11.0985 34.7393 11.6559 35.3116L12.3122 35.9855L11.7404 36.0154C11.2649 36.0402 11.1376 36.0866 10.9845 36.2912C10.8039 36.5328 10.8094 36.6089 11.2971 40.5434C11.5702 42.7468 11.7936 44.5953 11.7936 44.6513C11.7936 44.7073 11.8829 44.8416 11.9921 44.9498C12.1818 45.1378 12.3229 45.1466 15.1684 45.1466C17.9041 45.1466 18.1606 45.1322 18.3249 44.9694C18.4721 44.8235 18.587 44.1065 18.9753 40.9107C19.2348 38.7758 19.4687 36.9155 19.4952 36.7767C19.5267 36.6123 19.4704 36.4322 19.3338 36.2601L19.1243 35.996H16.7293H14.3344L13.1296 34.8153C11.8637 33.5747 11.674 33.4726 11.2202 33.7878ZM12.3364 37.6933C12.3859 37.9781 13.0839 43.6091 13.0839 43.7231C13.0839 43.7484 14.0219 43.7691 15.1684 43.7691C16.4442 43.7691 17.2528 43.7322 17.2528 43.6739C17.2528 43.5275 17.9372 37.9509 17.9929 37.6441L18.0419 37.3735H16.9092H15.7764L15.8309 37.7068C15.9 38.1287 15.6075 38.4559 15.161 38.4559C14.9267 38.4559 14.723 38.3303 14.2835 37.9147L13.7112 37.3735H12.996H12.2809L12.3364 37.6933ZM32.4393 38.1607C32.3301 38.2689 32.2408 38.4239 32.2408 38.5051C32.2408 38.6311 32.5165 38.6526 34.1267 38.6526C35.9281 38.6526 36.0126 38.6441 36.0126 38.4615C36.0126 38.053 35.6706 37.9639 34.1045 37.9639C32.7701 37.9639 32.6199 37.9816 32.4393 38.1607ZM32.0371 40.1039C32.0343 40.1446 31.931 40.9857 31.8076 41.9734L31.5833 43.7691H31.912H32.2408V42.6868C32.2408 41.4684 32.362 41.2109 32.9356 41.2109C33.5092 41.2109 33.6304 41.4684 33.6304 42.6868V43.7691H34.1267H34.623V42.7787C34.623 41.8372 34.7101 41.4518 34.9604 41.2861C35.1689 41.1482 35.6166 41.2119 35.814 41.4076C35.9885 41.5806 36.0126 41.7356 36.0126 42.6868V43.7691H36.3678C36.7022 43.7691 36.72 43.7532 36.6696 43.4985C36.6401 43.3497 36.5447 42.608 36.4574 41.8504C36.3702 41.0928 36.2783 40.3733 36.2531 40.2515C36.2073 40.0304 36.2047 40.0301 34.1248 40.0301C32.9793 40.0301 32.04 40.0633 32.0371 40.1039Z" fill="black"/>
</svg>
